<svg xmlns="http://www.w3.org/2000/svg" width="440" height="318" fill="none"><g clip-path="url(#a)"><path fill="url(#b)" d="M422.311 91.392c6.876-29.113 3.992-54.711-6.441-57.176-10.433-2.464-24.464 19.138-31.34 48.25-6.876 29.113-3.992 54.712 6.441 57.176 10.433 2.465 24.464-19.138 31.34-48.25Z"/><path fill="#000" d="M392.637 140.325a7.859 7.859 0 0 1-1.776-.201c-5.265-1.26-8.847-7.978-10.077-19.022-1.222-10.854-.059-24.619 3.283-38.753s8.452-26.962 14.402-36.112c6.041-9.305 12.264-13.739 17.533-12.496 5.269 1.243 8.846 8 10.077 19.022 1.221 10.854.058 24.614-3.279 38.748-3.338 14.134-8.452 26.962-14.402 36.112-5.382 8.276-10.908 12.702-15.761 12.702Zm21.555-105.816c-4.496 0-9.724 4.275-14.905 12.253-5.878 9.07-10.958 21.785-14.275 35.814-3.317 14.025-4.472 27.667-3.262 38.409 1.188 10.577 4.505 17.027 9.329 18.169 4.824 1.142 10.677-3.149 16.475-12.072 5.878-9.066 10.955-21.785 14.276-35.81 6.801-28.801 4.081-54.168-6.072-56.582a6.943 6.943 0 0 0-1.57-.176l.004-.005Z"/><path fill="url(#c)" d="M435.933 93.934c2.851-12.643 4.517-25.77 3.031-38.698-.802-5.748-2.28-13.382-7.347-16.863a7.353 7.353 0 0 0-2.272-.97L415.91 34.22c10.58 2.998 10.542 25.08 9.963 34.062-1.226 20.508-9.69 53.257-24.889 67.605-2.688 2.377-6.24 4.59-9.96 3.737.777.134 14.439 3.557 14.855 3.359 3.275.08 6.185-1.835 8.557-3.926 5.353-4.921 9.031-11.362 12.201-17.85a134.343 134.343 0 0 0 9.329-27.294l-.033.021Z"/><mask id="d" width="49" height="109" x="391" y="34" maskUnits="userSpaceOnUse" style="mask-type:luminance"><path fill="#fff" d="M435.933 93.934c2.85-12.643 4.517-25.77 3.031-38.698-.802-5.748-2.28-13.382-7.348-16.863a7.358 7.358 0 0 0-2.271-.97l-13.436-3.183c10.581 2.998 10.543 25.08 9.964 34.062-1.226 20.508-9.691 53.257-24.89 67.605-2.687 2.377-6.239 4.59-9.959 3.737.777.134 14.439 3.557 14.855 3.359 3.275.08 6.184-1.835 8.557-3.926 5.353-4.921 9.031-11.362 12.201-17.85a134.343 134.343 0 0 0 9.329-27.294l-.033.021Z"/></mask><g fill="#fff" mask="url(#d)"><path d="m399.614 90.938-7.034 29.783 46.165 10.906 7.034-29.783-46.165-10.906ZM412.96 27.92l-7.034 29.784 46.165 10.905 7.034-29.783-46.165-10.905ZM382.935 126.744l-7.034 29.783 46.165 10.906 7.034-29.784-46.165-10.905Z"/></g><path fill="#000" d="M406.072 143.513h-.231c-.567.021-2.439-.374-11.441-2.545-1.44-.349-2.717-.655-3.25-.777l-.264-.054.197-.97.265.054c2.8.538 5.924-.701 9.283-3.674 14.275-13.475 23.386-44.724 24.734-67.29.327-5.06 1.394-30.439-9.603-33.554l.252-.962 13.436 3.183c.86.205 1.679.554 2.423 1.033 5.038 3.464 6.654 10.645 7.557 17.216 1.323 11.489.357 23.838-3.04 38.879a135.205 135.205 0 0 1-9.325 27.403c-2.939 6-6.688 12.828-12.31 18.001-3.157 2.767-5.92 4.057-8.683 4.057Zm-11.244-3.465c3.619.874 9.997 2.406 10.917 2.478h.113c2.595.054 5.198-1.142 8.217-3.779 5.496-5.039 9.19-11.783 12.083-17.695a134.639 134.639 0 0 0 9.304-27.227c3.359-14.927 4.329-27.172 3.023-38.534-.886-6.345-2.426-13.278-7.137-16.51a6.892 6.892 0 0 0-2.1-.895l-9.791-2.318c7.881 6.605 7.327 26.273 6.907 32.752-1.083 18.144-8.842 52.639-25.041 67.945-2.267 1.993-4.435 3.254-6.503 3.783h.008Z"/><path fill="#000" d="M406.223 109.059c-1.976 2.257-4.328 3.353-7.057 3.288l-1.81 7.672-2.83-.672 1.793-7.604a11.729 11.729 0 0 1-4.388-2.99 11.671 11.671 0 0 1-2.712-4.69l3.187-6.555a13.18 13.18 0 0 0 2.284 4.199 8.777 8.777 0 0 0 3.38 2.641l3.237-13.697a19.204 19.204 0 0 1-3.481-3.532 10.868 10.868 0 0 1-1.772-4.757c-.315-1.978-.113-4.455.584-7.424.873-3.7 2.295-6.692 4.266-8.973 1.97-2.282 4.303-3.37 6.999-3.267l1.826-7.739 2.83.672-1.793 7.604a9.622 9.622 0 0 1 3.468 2.192 11.825 11.825 0 0 1 2.549 3.64l-3.048 6.585c-1.274-2.424-2.846-4.104-4.715-5.039l-3.267 13.857a19.445 19.445 0 0 1 3.519 3.51 10.613 10.613 0 0 1 1.792 4.733c.322 1.982.133 4.455-.566 7.419-.874 3.701-2.3 6.68-4.279 8.936l.004-.009Zm-4.988-29.64a7.525 7.525 0 0 0 2.033 2.939l2.88-12.178a4.402 4.402 0 0 0-3.137 1.571 8.887 8.887 0 0 0-1.818 3.838 6.685 6.685 0 0 0 .042 3.83Zm2.906 23.98a8.131 8.131 0 0 0 1.801-3.7c.361-1.553.349-2.867-.05-3.955a7.747 7.747 0 0 0-2.1-2.994l-2.863 12.123a4.547 4.547 0 0 0 3.208-1.482l.004.008Z"/><path fill="url(#e)" d="M401.541 86.487c6.875-29.112 3.992-54.71-6.441-57.175-10.433-2.465-24.464 19.138-31.34 48.25-6.876 29.113-3.992 54.711 6.44 57.176 10.433 2.464 24.465-19.138 31.341-48.25Z"/><path fill="#000" d="M371.862 135.421a7.642 7.642 0 0 1-1.776-.206c-5.265-1.259-8.847-7.978-10.077-19.017-1.222-10.855-.059-24.62 3.279-38.753 3.359-14.134 8.456-26.962 14.406-36.112 6.042-9.305 12.268-13.743 17.533-12.496 5.265 1.247 8.847 7.978 10.077 19.021 1.222 10.85.059 24.615-3.279 38.75-3.338 14.133-8.452 26.961-14.406 36.111-5.378 8.276-10.899 12.702-15.757 12.702Zm-7.621-57.745c-6.801 28.797-4.076 54.167 6.072 56.578.518.121 1.05.181 1.582.18 9.96 0 22.707-20.735 29.16-48.062 6.802-28.801 4.077-54.168-6.071-56.582-10.148-2.415-23.932 19.084-30.743 47.869v.017Z"/><path fill="url(#f)" d="M415.162 89.038c2.851-12.643 4.518-25.77 3.027-38.698-.802-5.748-2.275-13.383-7.347-16.864a7.459 7.459 0 0 0-2.272-.97l-13.435-3.182c10.576 2.998 10.538 25.08 9.959 34.062-1.226 20.508-9.686 53.257-24.89 67.605-2.682 2.381-6.239 4.59-9.959 3.737.781.134 14.439 3.557 14.859 3.359 3.275.084 6.181-1.835 8.557-3.922 5.353-4.925 9.027-11.366 12.197-17.85a134.828 134.828 0 0 0 9.334-27.293l-.03.016Z"/><mask id="g" width="49" height="110" x="370" y="29" maskUnits="userSpaceOnUse" style="mask-type:luminance"><path fill="#fff" d="M415.162 89.038c2.851-12.643 4.518-25.77 3.027-38.698-.802-5.748-2.275-13.383-7.347-16.864a7.459 7.459 0 0 0-2.272-.97l-13.435-3.182c10.576 2.998 10.538 25.08 9.959 34.062-1.226 20.508-9.686 53.257-24.89 67.605-2.682 2.381-6.239 4.59-9.959 3.737.781.134 14.439 3.557 14.859 3.359 3.275.084 6.181-1.835 8.557-3.922 5.353-4.925 9.027-11.366 12.197-17.85a134.828 134.828 0 0 0 9.334-27.293l-.03.016Z"/></mask><g fill="#fff" mask="url(#g)"><path d="m378.844 86.034-7.034 29.783 46.165 10.906 7.034-29.783-46.165-10.906ZM392.185 23.015l-7.035 29.783 46.166 10.906 7.034-29.783-46.165-10.906ZM362.159 121.843l-7.034 29.783 46.165 10.906 7.034-29.783-46.165-10.906Z"/></g><path fill="#000" d="M385.289 138.587h-.21c-.533 0-2.435-.374-11.454-2.549a228.588 228.588 0 0 0-3.241-.772l-.26-.059.193-.97.264.054c2.805.538 5.924-.697 9.283-3.674 14.276-13.474 23.387-44.724 24.734-67.29.328-5.038 1.398-30.438-9.598-33.554l.248-.962 13.436 3.183a7.98 7.98 0 0 1 2.426 1.033c5.039 3.465 6.655 10.645 7.558 17.216 1.322 11.485.357 23.834-3.036 38.875a135.49 135.49 0 0 1-9.367 27.411c-2.939 6.001-6.688 12.829-12.314 18.006-3.124 2.792-5.887 4.052-8.662 4.052Zm-11.244-3.464c3.628.873 9.997 2.41 10.916 2.477h.118c2.595.063 5.198-1.142 8.212-3.779 5.496-5.039 9.195-11.782 12.084-17.695a134.412 134.412 0 0 0 9.292-27.205c3.358-14.928 4.328-27.168 3.023-38.53-.886-6.341-2.427-13.278-7.138-16.511a6.8 6.8 0 0 0-2.099-.895l-9.787-2.317c7.88 6.605 7.322 26.273 6.906 32.752-1.083 18.144-8.842 52.639-25.044 67.945-2.251 1.987-4.412 3.246-6.483 3.775v-.017Z"/><path fill="#000" d="M45.856 87.442a5.34 5.34 0 0 1-1.003-10.581C105.69 65.133 161.78 59.28 216.328 58.956c56.887-.34 110.617 5.341 164.233 17.36a5.334 5.334 0 0 1 3.336 2.346 5.324 5.324 0 0 1 .699 4.019 5.33 5.33 0 0 1-6.369 4.035c-52.815-11.837-105.746-17.43-161.84-17.098-53.885.319-109.332 6.113-169.519 17.711a5.224 5.224 0 0 1-1.012.097v.016Z"/><path fill="url(#h)" d="m150.565 338.365 10.497-41.751 32.262-2.797c.302 17.136-9.501 34.206-3.623 48.247-16.698 6.194-29.533 4.535-39.136-3.695v-.004Z"/><path fill="#000" d="M171.193 346.28c-8.082 0-15.09-2.52-20.951-7.533l-.172-.151v-.353l10.581-42.091 33.143-2.877v.534c.122 6.957-1.406 13.886-2.88 20.575-2.179 9.893-4.236 19.232-.785 27.474l.197.479-.482.176c-6.718 2.511-12.935 3.767-18.651 3.767Zm-20.073-8.092c9.573 8.05 22.332 9.238 37.926 3.586-3.296-8.398-1.26-17.732.928-27.592 1.427-6.47 2.897-13.159 2.863-19.827l-31.38 2.721-10.337 41.112Z"/><path fill="url(#i)" d="m255.09 326.922 10.497-41.751 32.266-2.796c.302 17.136-9.506 34.205-3.628 48.247-16.693 6.193-29.528 4.535-39.135-3.695v-.005Z"/><path fill="#000" d="M275.718 334.838c-8.087 0-15.094-2.52-20.951-7.533l-.173-.152v-.352l10.594-42.087 33.148-2.872v.533c.121 6.958-1.403 13.886-2.881 20.575-2.179 9.889-4.236 19.232-.785 27.475l.202.474-.487.181c-6.738 2.505-12.96 3.758-18.667 3.758Zm-20.074-8.092c9.573 8.05 22.328 9.238 37.926 3.586-3.3-8.398-1.259-17.732.924-27.592 1.427-6.475 2.901-13.16 2.863-19.828l-31.38 2.721-10.333 41.113Z"/><path fill="url(#j)" d="M180.649 177.525s1.448 36.233 50.177 38.685c48.729 2.453 69.836 4.678 69.836 4.678s-32.267 33.475-49.808 76.985c-5.253 13.017 35.726 32.152 61.451 7.412 25.724-24.741 62.005-81.159 56.4-112.493-5.606-31.333-73.535-41.23-125.493-30.014-51.958 11.215-62.559 14.751-62.559 14.751l-.004-.004Z"/><path fill="#000" d="M282.083 317.756c-9.766 0-18.789-2.969-24.721-6.979-6.03-4.069-8.633-8.965-6.966-13.097 15.955-39.58 44.421-71.236 49.216-76.422-4.732-.458-26.422-2.431-68.811-4.565-14.002-.705-32.963-4.828-43.745-20.478a39.511 39.511 0 0 1-6.869-18.014h-.046v-.689h.491l-.155-.457c.109-.038 11.227-3.675 62.622-14.769 19.502-4.199 41.449-5.504 61.787-3.649 21.026 1.915 38.82 7.139 50.106 14.697 8.086 5.425 12.86 11.938 14.191 19.358 3.397 19.005-8.884 45.148-16.509 59.042-11.021 20.089-26.367 40.731-40.038 53.887-9.17 8.843-20.275 12.135-30.553 12.135Zm-100.914-139.87a39.018 39.018 0 0 0 6.718 17.821c10.56 15.28 29.189 19.315 42.952 20.008 48.187 2.423 69.651 4.648 69.861 4.669l1.011.105-.705.731c-.323.336-32.401 33.916-49.703 76.843-1.478 3.661.991 8.112 6.6 11.904 11.903 8.041 36.528 11.795 54.045-5.039 13.607-13.089 28.878-33.643 39.857-53.651 13.058-23.788 18.894-44.51 16.4-58.367-1.26-7.138-5.912-13.437-13.763-18.707-11.152-7.478-28.782-12.643-49.645-14.545-20.245-1.848-42.078-.559-61.488 3.632-46.328 9.969-59.872 13.903-62.14 14.596Z"/><path fill="url(#k)" d="M137.982 309.068s25.566 30.892 64.835 4.854c0 0 43.107-84.741 36.339-116.074-6.768-31.333-85.761-36.628-85.761-36.628s-17.869 43.712 18.974 61.348l-34.387 86.5Z"/><path fill="#000" d="M171.689 324.84a43.709 43.709 0 0 1-16.198-3.112c-11.286-4.463-17.828-12.257-17.891-12.337l-.189-.226 34.328-86.349c-18.894-9.263-23.042-25.497-23.168-37.531-.138-13.076 4.321-24.137 4.367-24.246l.134-.331.357.025c.197 0 20.027 1.385 40.433 6.58 27.526 7.004 42.931 17.245 45.765 30.438 2.829 13.093-2.44 36.671-15.653 70.074-9.825 24.837-20.619 46.118-20.724 46.328l-.063.118-.105.071c-7.952 5.283-18.969 10.498-31.393 10.498Zm-33.136-15.86a47.867 47.867 0 0 0 17.345 11.841c18.402 7.26 35.449.093 46.537-7.235.874-1.73 11.198-22.288 20.632-46.13 9.036-22.839 19.075-53.429 15.602-69.495-6.377-29.531-79.131-35.763-84.942-36.212-.735 1.927-4.295 11.934-4.165 23.557.189 17.216 7.936 29.59 23.021 36.817l.42.201-34.45 86.656Z"/><path fill="#000" d="M149.117 187.015s15.585 8.86 32.783-2.851c17.197-11.712-30.457-18.178-30.457-18.178l-2.326 21.029Z"/><path fill="url(#l)" d="M100.72 85.557a39.987 39.987 0 0 1-3.733-21.835c1.436-12.345 10.051-15.213 14.641-10.917 0 0 4.307-3.444 8.901 0 0 0 6.6-2.692 9.761 1.81 0 0 9.418-2.457 9.443 9.313 0 0 6.634 1.033 5.479 6.718-1.154 5.686-3.157 16.6-25.838 22.054l.638 25.925s27.291-33.878 42.486-42.784c15.195-8.907 29-8.399 30.431 5.811 2.772 27.495-53.494 89.393-94.514 88.18-21.531-.638-20.952-37.791 2.3-84.313l.005.038Z"/><path fill="#000" d="M99.62 170.407h-1.222c-5.505-.163-9.707-2.603-12.487-7.256-8.107-13.563-2.52-43.993 14.221-77.577a41.203 41.203 0 0 1-3.661-21.881c.755-6.48 3.678-11.254 7.826-12.77a7.324 7.324 0 0 1 7.368 1.26c1.168-.747 4.955-2.73 8.943.076a13.405 13.405 0 0 1 3.59-.718c2.721-.143 4.9.73 6.298 2.52 1.025-.194 4.069-.547 6.521 1.343 2.053 1.583 3.136 4.316 3.216 8.125.986.227 3.359.957 4.706 2.868a5.485 5.485 0 0 1 .773 4.384l-.034.16c-1.179 5.84-3.359 16.686-25.783 22.2l.587 24.094a458.28 458.28 0 0 1 14.67-16.981c11.61-12.757 20.716-21.109 27.069-24.83 9.993-5.844 19.028-7.515 24.793-4.585 3.678 1.873 5.899 5.606 6.424 10.796 1.221 12.178-9.237 32.089-26.632 50.771-17.215 18.497-43.767 37.997-67.187 38.001Zm1.419-84.308c-16.572 33.248-22.156 63.263-14.234 76.515 2.587 4.329 6.5 6.601 11.622 6.752 15.333.458 41.147-9.204 67.627-37.653 17.215-18.476 27.556-38.081 26.359-49.969-.491-4.891-2.464-8.246-5.878-9.972-5.458-2.768-14.111-1.105-23.789 4.56-14.96 8.75-42.075 42.318-42.348 42.658l-.89 1.104-.68-27.764.42-.096c22.148-5.329 24.276-15.847 25.418-21.495l.03-.16a4.481 4.481 0 0 0-.605-3.582c-1.415-2.032-4.412-2.519-4.442-2.519l-.42-.071v-.445c0-3.683-.949-6.3-2.809-7.723-2.519-1.948-5.945-1.095-5.978-1.087l-.349.088-.21-.294c-2.88-4.102-9.073-1.654-9.136-1.625l-.273.11-.235-.177c-4.199-3.154-8.103-.139-8.267 0l-.353.277-.327-.306a6.299 6.299 0 0 0-6.617-1.323c-3.779 1.377-6.441 5.832-7.138 11.913a39.83 39.83 0 0 0 3.674 21.511l.42.769-.592.004Z"/><path fill="#000" d="m121.112 81.992-.84-.621c4.59-6.143 9.636-7.92 12.647-8.398-6.227-2.583-7.247-6.492-7.256-8.747 0-3.111 1.818-5.84 3.469-6.34 1.759-.53 3.107.554 4.811 1.931a20.809 20.809 0 0 0 5.971 3.666l-.37.974a21.624 21.624 0 0 1-6.256-3.83c-1.721-1.39-2.679-2.1-3.854-1.742-1.092.332-2.738 2.628-2.729 5.337 0 2.234 1.192 6.324 8.997 8.62l-.201 1.02c-.067-.016-7.797-.696-14.389 8.13ZM105.199 79.166a4.254 4.254 0 0 1-1.906-.466c-4.492-2.246.097-15.81.634-17.346l.983.344a60.713 60.713 0 0 0-2.007 7.5c-.916 4.79-.613 7.835.839 8.57 2.138 1.067 4.031-.479 5.245-1.961 4.022-4.917 6.612-17.023 2.212-22.675l.84-.642c2.137 2.737 2.939 7.071 2.292 12.202-.587 4.56-2.317 9.066-4.522 11.758-1.456 1.8-3.044 2.716-4.61 2.716Z"/><path fill="#000" d="M112.32 79.59a5.14 5.14 0 0 1-4.173-2.3l.898-.53-.449.265.449-.269c.08.134 2.003 3.22 6.063.962 4.262-2.381 8.397-16.301 4.938-24.69l.966-.395c3.484 8.49-.357 23.178-5.4 25.992-.996.6-2.13.932-3.292.965ZM130.752 58.62a14.25 14.25 0 0 0-.944-3.779l.961-.395a15.14 15.14 0 0 1 1.016 4.061l-1.033.113Z"/><path fill="#000" d="M120.701 79.59a5.138 5.138 0 0 1-4.17-2.3l.895-.534c.08.135 2.003 3.22 6.063.962 1.876-1.046 3.959-3.947 5.433-7.559l.965.39c-1.583 3.898-3.778 6.92-5.878 8.097a6.795 6.795 0 0 1-3.308.945ZM111.086 140.686l-.609-.839c.088-.068 9.149-6.803 9.006-22.302h1.041c.147 16.053-9.048 22.86-9.438 23.141Z"/><path fill="url(#m)" d="M260.825 73.258s11.63 4.157 19.998 17.712c7.516 12.177 13.734 24.879 13.734 24.879l29.907-29.729s-15.502-22.045-15.502-25.438c0-3.393 12.176-14.31 16.526-9.75a7.042 7.042 0 0 1 8.225 0s5.651-2.1 8.737 1.222c3.086 3.321 3.359 5.014 3.359 5.014s6.424 1.33 6.68 6.642c.256 5.312-4.11 13.538-4.11 13.538s6.168 5.396-3.359 19.274c-9.527 13.878-30.679 66.005-49.695 67.546-19.015 1.541-36.074-31.098-36.074-31.098l1.57-59.812h.004Z"/><path fill="#000" d="M294.049 164.743c-7.608 0-15.976-5.232-24.293-15.209a104.313 104.313 0 0 1-10.967-16.221l-.063-.122v-.134l1.583-60.32h.596l.093.03c.117.042 11.898 4.375 20.266 17.93 6.483 10.497 12.063 21.52 13.436 24.275l29.079-28.91c-2.456-3.499-15.346-22.058-15.346-25.38 0-2.733 6.168-8.7 11.001-10.64 2.59-1.042 4.685-.958 6.1.23a7.559 7.559 0 0 1 8.246.085c1.189-.387 6.114-1.73 9.048 1.444 2.415 2.616 3.158 4.25 3.38 4.934 1.088.294 2.129.738 3.095 1.319 2.296 1.398 3.569 3.38 3.682 5.731.235 4.838-3.166 11.837-3.997 13.47 1.18 1.34 5.005 7.185-3.548 19.665-2.431 3.548-5.66 9.658-9.401 16.767-11.088 21.028-26.275 49.834-40.68 51.001-.428.034-.869.055-1.31.055Zm-34.273-31.795c1.146 2.141 17.6 32.147 35.507 30.703 13.856-1.125 28.866-29.637 39.845-50.451 3.754-7.139 6.995-13.274 9.464-16.872 9.09-13.27 3.485-18.539 3.426-18.59l-.302-.272.184-.361c.047-.084 4.3-8.168 4.052-13.27-.231-4.85-6.201-6.143-6.264-6.155l-.353-.076-.055-.357s-.319-1.612-3.211-4.74c-2.809-3.036-8.121-1.105-8.175-1.084l-.256.093-.223-.152a6.543 6.543 0 0 0-7.603-.02l-.374.29-.323-.34c-1.378-1.437-3.632-.95-5.286-.286-5.039 2.02-10.346 7.742-10.346 9.657 0 2.368 9.216 16.335 15.409 25.14l.252.361-30.755 30.586-.319-.651c-.059-.13-6.298-12.828-13.704-24.837-7.029-11.38-16.484-16.1-19.062-17.216l-1.528 58.9Z"/><path fill="#000" d="m337.534 89.559-.668-.735a20.406 20.406 0 0 0 3.498-4.405c1.889-3.3 1.969-6.147.239-8.456-4.329-5.778-16.87-8.29-16.996-8.315l-.39-.075v-.42c-.072-2.94-.79-10.955-3.179-12.778a3.299 3.299 0 0 0-3.623-.399c-1.26.626-2.187 1.974-2.187 3.2 0 2.629-.949 10.372-.991 10.7l-.983-.123c0-.075.983-8.007.983-10.577 0-1.608 1.125-3.292 2.737-4.09a4.312 4.312 0 0 1 4.665.504c2.939 2.238 3.472 11.127 3.556 13.147 2.225.479 13.045 3.049 17.214 8.608 1.965 2.625 1.902 5.933-.18 9.566a21.262 21.262 0 0 1-3.695 4.648Z"/><path fill="#000" d="m328.679 68.72-.701-.719c1.259-1.214 4.501-4.808 4.11-6.844-.42-2.146-5.181-7.865-6.986-9.89l.739-.658c.273.306 6.671 7.508 7.221 10.359.58 2.935-3.875 7.268-4.383 7.751ZM338.424 73.132l-.802-.583c1.26-1.705 4.43-6.576 4.199-8.6-.282-2.62-3.821-8.461-8.452-12.643l.663-.735c4.871 4.396 8.469 10.413 8.775 13.273.311 2.771-3.913 8.63-4.383 9.288ZM342.333 77.7l-.764-.625c5.555-6.815 6.793-13.256 3.779-19.698l.894-.42c3.195 6.828 1.914 13.605-3.909 20.744Z"/><path fill="#000" d="M344.81 79.733a2.76 2.76 0 0 1-.558-.05c-.84-.156-1.957-.76-2.389-2.755l.97-.21c.252 1.172.789 1.844 1.599 1.99 1.315.244 2.969-.86 3.531-1.725l.84.541c-.651.983-2.351 2.21-3.993 2.21Z"/><path fill="url(#n)" d="M134.422 100.174c-14.578 13.76 16.106 47.076 30.679 33.307l-8.074 20.861s-10.849 1.461-7.07 9.859c1.982 4.43 12.444 16.418 31.943 19.941 7.028-5.979 28.55-19.941 52.184 3.779 10.472-3.733 4.312-17.917 17.156-26.697 5.353-3.662 6.974-26.114 6.974-26.114l4.841 9.494c11.882 19.618 43.972-12.547 29.873-37.304 0 0-10.375-23.011-23.932-34.47-13.557-11.46-32.502 4.325-44.615.277s-45.928-24.699-89.959 27.071v-.004Z"/><mask id="o" width="167" height="123" x="130" y="65" maskUnits="userSpaceOnUse" style="mask-type:luminance"><path fill="#fff" d="M134.422 100.174c-14.578 13.76 16.106 47.076 30.679 33.307l-8.074 20.861s-10.849 1.461-7.07 9.859c1.982 4.43 12.444 16.418 31.943 19.941 7.028-5.979 28.55-19.941 52.184 3.779 10.472-3.733 4.312-17.917 17.156-26.697 5.353-3.662 6.974-26.114 6.974-26.114l4.841 9.494c11.882 19.618 43.972-12.547 29.873-37.304 0 0-10.375-23.011-23.932-34.47-13.557-11.46-32.502 4.325-44.615.277s-45.928-24.699-89.959 27.071v-.004Z"/></mask><g mask="url(#o)"><path fill="url(#p)" d="M235.898 74.707s18.147-6.56 28.051-1.86c9.905 4.698 34.794 52.068 34.794 52.068l1.89-44.729-29.126-27.058-45.589 14.579 9.985 7.012-.005-.012Z"/></g><path fill="#000" d="m233.929 188.497-.222-.223c-6.017-6.034-27.527-24.136-51.513-3.737l-.177.151-.231-.042c-19.116-3.451-30.02-15.116-32.329-20.222-1.07-2.394-1.117-4.498-.138-6.249 1.729-3.107 6.109-4.068 7.297-4.278l7.289-18.846c-3.301 2.314-7.407 2.814-12 1.445-9.443-2.826-19.016-13.089-21.337-22.881-1.34-5.631-.143-10.405 3.459-13.802 17.215-20.231 34.966-31.724 52.726-34.16 14.809-2.032 26.212 2.49 33.753 5.46 1.537.608 2.864 1.133 3.997 1.511 4.833 1.617 10.866-.042 17.252-1.793 9.069-2.49 19.348-5.312 27.526 1.608 13.474 11.4 23.932 34.412 24.046 34.642 9.094 15.957-.903 34.958-12.084 41.529-7.557 4.443-14.544 3.036-18.663-3.779l-4.068-7.978c-.504 5.408-2.389 21.57-7.041 24.749-6.437 4.4-7.977 10.216-9.376 15.352-1.31 4.883-2.548 9.498-7.897 11.404l-.269.139Zm-27.782-14.365c8.326 0 17.991 3.246 28.038 13.218 4.619-1.793 5.71-5.878 6.978-10.619 1.424-5.299 3.036-11.308 9.775-15.914 5.097-3.486 6.743-25.514 6.759-25.736l.126-1.777 5.652 11.078c3.778 6.244 10.253 7.524 17.29 3.388 10.828-6.361 20.522-24.741 11.705-40.222-.126-.269-10.496-23.095-23.806-34.336-7.776-6.58-17.357-3.951-26.619-1.407-6.537 1.793-12.709 3.49-17.832 1.776-1.158-.386-2.498-.915-4.047-1.528-14.85-5.879-45.765-18.144-85.4 28.444l-.873 1.029v-.126c-3.359 3.838-3.149 8.575-2.343 11.984 2.255 9.486 11.521 19.429 20.661 22.159 3.448 1.033 8.398 1.448 12.517-2.419l1.591-1.508-8.968 23.179-.29.038c-.051 0-5.135.731-6.861 3.825-.814 1.466-.751 3.267.185 5.358 1.428 3.196 10.916 15.843 31.347 19.614 3.774-3.158 12.793-9.498 24.432-9.498h-.017Z"/><path fill="url(#q)" d="M212.802 24.394C215.43 4.658 228.928-.17 240.449 1.812c11.37 1.956 17.635 12.307 17.798 32.752.168 21.592-10.429 27.378-19.003 27.525l-1.57 17.031c-.718 10.917-23.542 9.574-23.542-2.595l1.751-32.883a9.954 9.954 0 0 1-5.093.769 10.074 10.074 0 0 1-8.909-11.107 10.078 10.078 0 0 1 10.916-8.918l.005.008Z"/><path fill="#000" d="M227.077 87.019h-.546c-6.39-.21-12.864-3.876-12.864-10.498l1.713-32.186a10.5 10.5 0 0 1-8.561-.699 10.508 10.508 0 0 1-3.145-2.647 10.46 10.46 0 0 1-2.255-7.74 10.597 10.597 0 0 1 10.98-9.364c1.221-8.548 4.538-14.868 9.862-18.785 4.908-3.607 11.395-4.943 18.268-3.78 11.912 2.05 18.029 13.223 18.185 33.215.188 24.388-12.924 27.747-19.045 27.982l-1.541 16.658c-.349 5.438-5.878 7.844-11.051 7.844Zm-10.69-44.09-1.772 33.63c0 5.984 6.017 9.326 11.962 9.523 5.072.168 10.316-1.931 10.648-6.983l1.612-17.46h.42c5.639-.1 18.73-2.939 18.545-27.058-.147-19.475-6.008-30.342-17.411-32.307-6.621-1.138-12.856.138-17.559 3.594-5.202 3.825-8.397 10.078-9.547 18.59l-.059.444-.445-.042a9.655 9.655 0 0 0-10.413 8.507 9.54 9.54 0 0 0 2.053 7.059 9.535 9.535 0 0 0 6.441 3.536 9.565 9.565 0 0 0 4.858-.731l.667-.302Z"/><path fill="#000" d="M239.295 61.665c-5.064.075-11.429-3.72-15.313-8.726 0 0 1.68 14.57 14.633 15.994l.68-7.268ZM213.44 25.238c5.038 1.789 6.663 8.47 6.663 8.47s2.381-11.678 2.57-23.6c0 0 3.749 5.82 8.561 5.64 4.811-.18 5.382-5.328 5.382-5.328s4.199 3.728 7.923 4.039c3.724.31 3.825-5.093 3.825-5.093a8.662 8.662 0 0 0 7.532 7.449S257.156.829 232.25.019c-24.907-.81-23.278 25.194-23.278 25.194a6.556 6.556 0 0 1 4.464 0l.004.025ZM206.277 38.583a.42.42 0 0 1-.361-.219 7.13 7.13 0 0 1-.046-6.53 4.62 4.62 0 0 1 3.623-2.607c4.925-.55 6.176 4.871 6.189 4.926a.42.42 0 0 1-.315.491.42.42 0 0 1-.491-.31c-.042-.198-1.105-4.754-5.295-4.288a3.826 3.826 0 0 0-2.981 2.17 6.38 6.38 0 0 0 .042 5.758.42.42 0 0 1-.168.558.416.416 0 0 1-.197.05ZM251.316 35.005c.272-2.46 1.289-4.367 2.271-4.262.983.105 1.558 2.192 1.285 4.657-.273 2.465-1.285 4.367-2.267 4.262-.983-.105-1.558-2.192-1.289-4.657Z"/><path fill="#000" d="M252.642 31.222c1.297-2.39 3.993-1.34 4.123 1.26l-4.123-1.26ZM236.091 35.962c.269-2.465 1.285-4.37 2.267-4.262.983.11 1.558 2.192 1.285 4.653-.273 2.46-1.284 4.371-2.267 4.262-.982-.11-1.558-2.192-1.285-4.653Z"/><path fill="#000" d="M237.418 32.175c1.297-2.39 3.993-1.344 4.123 1.26l-4.123-1.26Z"/><path fill="#000" d="M242.553 30.982a.421.421 0 0 1-.42-.344c-.42-2.39-3.594-5.79-6.18-5.879h-.08c-2.099 0-3.065 2.243-3.493 4.136a.422.422 0 0 1-.491.315.42.42 0 0 1-.311-.495c.898-4.023 2.909-4.812 4.396-4.779 3.035.08 6.503 3.754 6.974 6.547a.418.418 0 0 1-.336.474l-.059.025ZM250.749 30.982a.42.42 0 0 1-.42-.42c.067-2.742 2.267-7.608 4.4-7.755 1.113-.08 1.852 1.003 2.217 3.212a.422.422 0 0 1-.34.475.419.419 0 0 1-.475-.34c-.273-1.647-.76-2.558-1.343-2.52-1.394.1-3.569 4.258-3.636 6.958a.422.422 0 0 1-.403.39ZM243.216 46.103a.42.42 0 0 1-.42-.39.42.42 0 0 1 .391-.42c1.18-.055 4.371-.563 4.967-2.196.596-1.634-1.785-4.246-2.746-5.115a.42.42 0 0 1-.034-.584.421.421 0 0 1 .584-.029c.16.143 3.871 3.519 2.968 6.009-.902 2.49-5.504 2.73-5.697 2.738l-.013-.013Z"/><path fill="url(#r)" d="M246.857 43.323s-4.065 1.344-4.279.311c-.214-1.033 1.579-4.199 2.599-4.333 1.02-.135 2.859 3.149 1.68 4.022Z"/><path fill="#000" d="M244.896 54.56c1.553 0 2.813-1.344 2.813-3.003 0-1.658-1.26-3.002-2.813-3.002-1.554 0-2.813 1.344-2.813 3.002 0 1.659 1.259 3.003 2.813 3.003ZM258.701 135.186l-.983-.13c1.764-13.253 2.704-31.514-2.788-43.25-3.253-6.97-7.293-8.336-7.335-8.348l.299-.945c.176.054 4.421 1.449 7.868 8.73 5.664 11.946 4.723 30.489 2.939 43.943ZM165.441 133.838l-.705-.71c23.81-24.052 26.451-38.098 26.48-38.24l.979.167c-.101.592-2.679 14.458-26.754 38.783ZM180.227 198.99l-9.652 26.783.932.336 9.652-26.783-.932-.336ZM300.662 220.384s11.428.248 15.354 2.604c3.926 2.355-28.206 12.437-28.206 12.437l12.852-15.041Z"/><path fill="url(#s)" d="M50.507 134.755c10.675-.982 17.106-25.927 14.364-55.715-2.742-29.787-13.619-53.138-24.293-52.155-10.675.982-17.106 25.927-14.364 55.715 2.742 29.787 13.619 53.138 24.293 52.155Z"/><path fill="#000" d="M49.853 135.278c-5.164 0-10.433-5.236-14.913-14.856-4.619-9.901-7.885-23.322-9.237-37.791-1.352-14.47-.563-28.252 2.162-38.829 2.767-10.741 7.26-16.926 12.646-17.422 5.383-.5 10.917 4.766 15.615 14.823 4.619 9.901 7.885 23.317 9.237 37.791 1.352 14.474.563 28.251-2.162 38.829-2.771 10.741-7.26 16.93-12.646 17.426a9.671 9.671 0 0 1-.702.029ZM40.616 27.363c-4.937.453-9.123 6.378-11.756 16.683-2.7 10.472-3.46 24.14-2.137 38.492 1.323 14.353 4.564 27.651 9.128 37.451 4.492 9.658 9.69 14.697 14.624 14.277 10.383-.957 16.626-25.706 13.914-55.175-1.323-14.352-4.564-27.655-9.128-37.456-4.492-9.657-9.686-14.696-14.624-14.251l-.02-.021Z"/><path fill="url(#t)" d="M78.58 77.113c-1.314-12.891-3.917-25.862-9.434-37.649-2.59-5.194-6.42-11.963-12.331-13.65a7.585 7.585 0 0 0-2.46-.202l-13.768 1.26c10.988-.521 17.979 20.424 20.28 29.124 5.357 19.828 7.754 53.571-2.1 72.022-1.784 3.116-4.455 6.336-8.254 6.719.785-.122 14.817-1.227 15.157-1.537 3.132-.966 5.281-3.708 6.869-6.442 3.51-6.374 4.946-13.651 5.878-20.802a134.51 134.51 0 0 0 .155-28.86l.008.017Z"/><mask id="u" width="40" height="110" x="40" y="25" maskUnits="userSpaceOnUse" style="mask-type:luminance"><path fill="#fff" d="M78.58 77.113c-1.314-12.891-3.917-25.862-9.434-37.649-2.59-5.194-6.42-11.963-12.331-13.65a7.585 7.585 0 0 0-2.46-.202l-13.768 1.26c10.988-.521 17.979 20.424 20.28 29.124 5.357 19.828 7.754 53.571-2.1 72.022-1.784 3.116-4.455 6.336-8.254 6.719.785-.122 14.817-1.227 15.157-1.537 3.132-.966 5.281-3.708 6.869-6.442 3.51-6.374 4.946-13.651 5.878-20.802a134.51 134.51 0 0 0 .155-28.86l.008.017Z"/></mask><g fill="#fff" mask="url(#u)"><path d="m90.42 81.502-47.237 4.35 2.805 30.473 47.237-4.349-2.806-30.474ZM83.027 17.516l-47.236 4.349 2.806 30.474 47.236-4.35-2.806-30.473ZM86 120.756l-47.236 4.349 2.805 30.473 47.237-4.349L86 120.756Z"/></g><path fill="#000" d="m50.567 135.228-.126-.983.269-.029c2.813-.382 5.361-2.52 7.582-6.353l.05-.089c9.238-17.312 7.94-49.842 2.041-71.665-1.297-4.896-8.346-29.284-19.775-28.755l-.067-.986 13.763-1.26c.881-.072 1.769 0 2.628.21 5.878 1.68 9.69 7.978 12.65 13.911 4.8 10.242 7.886 22.47 9.443 37.372l.042.449c.982 9.636.93 19.349-.155 28.973-.87 6.614-2.25 14.277-5.941 20.996-2.158 3.716-4.43 5.836-7.138 6.676-.516.185-2.41.42-11.621 1.222-1.491.13-2.818.248-3.36.302l-.285.009Zm8.611-6.916c-1.48 2.564-3.114 4.424-4.9 5.58 3.695-.323 10.25-.898 11.131-1.121l.11-.033c2.472-.764 4.563-2.738 6.583-6.215 3.61-6.555 4.967-14.1 5.819-20.621a134.246 134.246 0 0 0 .18-28.462l-.029-.28c-1.532-14.996-4.618-27.261-9.392-37.49-2.864-5.736-6.529-11.816-12.017-13.382a7.054 7.054 0 0 0-2.288-.185l-10.005.92c9.585 3.75 15.3 22.574 16.958 28.843 4.736 17.514 8.347 52.589-2.066 72.278v.071l-.084.097Z"/><path fill="#000" d="M55.224 100.9c-1.16 2.772-3.04 4.559-5.643 5.363l.726 7.848-2.893.268-.718-7.776a11.75 11.75 0 0 1-5.114-1.441 11.686 11.686 0 0 1-4.068-3.581l.936-7.227a13.172 13.172 0 0 0 3.502 3.25 8.963 8.963 0 0 0 4.043 1.432L44.702 85.02a18.811 18.811 0 0 1-4.421-2.247 10.892 10.892 0 0 1-3.195-3.943c-.924-1.78-1.52-4.199-1.806-7.222-.35-3.782.048-7.071 1.192-9.868 1.145-2.796 3.005-4.57 5.58-5.32l-.726-7.92 2.889-.268.718 7.777a9.542 9.542 0 0 1 3.988.974 11.756 11.756 0 0 1 3.573 2.64l-.797 7.215c-1.977-1.887-3.999-2.973-6.067-3.258l1.305 14.159a19.58 19.58 0 0 1 4.455 2.204 10.645 10.645 0 0 1 3.208 3.91c.935 1.78 1.542 4.187 1.822 7.222.353 3.784-.052 7.063-1.213 9.834l.017-.009ZM41.056 74.396a7.528 7.528 0 0 0 2.864 2.137l-1.146-12.475a4.433 4.433 0 0 0-2.473 2.49 8.887 8.887 0 0 0-.504 4.2 6.753 6.753 0 0 0 1.26 3.631v.017ZM51.44 96.202a8.067 8.067 0 0 0 .53-4.082c-.146-1.587-.58-2.831-1.302-3.733a7.718 7.718 0 0 0-2.939-2.166l1.142 12.408a4.53 4.53 0 0 0 2.57-2.427Z"/><path fill="url(#v)" d="M29.258 136.712c10.675-.983 17.106-25.927 14.364-55.715C40.88 51.21 30.003 27.86 19.328 28.841 8.654 29.824 2.223 54.77 4.965 84.556c2.742 29.788 13.619 53.139 24.293 52.156Z"/><path fill="#000" d="M28.617 137.235c-5.165 0-10.434-5.236-14.918-14.856-4.618-9.902-7.885-23.322-9.237-37.792C3.11 70.117 3.9 56.336 6.63 45.76c2.766-10.742 7.259-16.927 12.646-17.422 5.378-.5 10.916 4.766 15.614 14.822 4.619 9.902 7.886 23.318 9.216 37.792 1.331 14.474.563 28.251-2.166 38.828-2.767 10.741-7.26 16.931-12.646 17.426-.223.017-.458.03-.676.03ZM19.38 29.319c-4.938.454-9.12 6.379-11.756 16.683-2.696 10.473-3.456 24.14-2.133 38.493 1.322 14.352 4.56 27.651 9.123 37.451 4.493 9.658 9.69 14.697 14.628 14.256 10.384-.958 16.627-25.707 13.91-55.176-1.318-14.352-4.56-27.654-9.123-37.455-4.493-9.658-9.687-14.697-14.628-14.252h-.021Z"/><path fill="url(#w)" d="M57.318 79.07c-1.314-12.891-3.917-25.862-9.434-37.653-2.59-5.19-6.42-11.959-12.331-13.647a7.585 7.585 0 0 0-2.46-.201l-13.768 1.26c10.988-.526 17.979 20.423 20.28 29.12 5.357 19.827 7.754 53.575-2.1 72.026-1.784 3.115-4.455 6.332-8.254 6.718.785-.126 14.817-1.226 15.157-1.541 3.132-.961 5.282-3.703 6.869-6.437 3.51-6.374 4.946-13.651 5.878-20.806a134.476 134.476 0 0 0 .155-28.856l.008.017Z"/><mask id="x" width="40" height="110" x="19" y="27" maskUnits="userSpaceOnUse" style="mask-type:luminance"><path fill="#fff" d="M57.318 79.07c-1.314-12.891-3.917-25.862-9.434-37.653-2.59-5.19-6.42-11.959-12.331-13.647a7.585 7.585 0 0 0-2.46-.201l-13.768 1.26c10.988-.526 17.979 20.423 20.28 29.12 5.357 19.827 7.754 53.575-2.1 72.026-1.784 3.115-4.455 6.332-8.254 6.718.785-.126 14.817-1.226 15.157-1.541 3.132-.961 5.282-3.703 6.869-6.437 3.51-6.374 4.946-13.651 5.878-20.806a134.476 134.476 0 0 0 .155-28.856l.008.017Z"/></mask><g fill="#fff" mask="url(#x)"><path d="m69.166 83.456-47.237 4.349 2.806 30.473 47.236-4.349-2.805-30.474ZM64.163 14.552l-47.436 4.27 2.754 30.602 47.436-4.27-2.754-30.602ZM64.743 122.717l-47.236 4.349 2.805 30.474 47.236-4.349-2.805-30.474Z"/></g><path fill="#000" d="m29.31 137.201-.127-.982.27-.034c2.812-.382 5.365-2.519 7.586-6.357l.046-.084c9.237-17.309 7.94-49.839 2.04-71.661-1.28-4.846-8.182-28.763-19.397-28.763h-.378l-.067-.987 13.763-1.26c.882-.072 1.77 0 2.629.214 5.878 1.68 9.69 7.978 12.65 13.912 4.799 10.241 7.885 22.465 9.443 37.371l.042.45c.982 9.635.93 19.348-.156 28.973-.869 6.613-2.25 14.277-5.94 20.995-2.15 3.72-4.422 5.82-7.142 6.66-.521.189-2.415.42-11.63 1.226-1.491.13-2.814.243-3.36.302l-.273.025Zm8.603-6.907c-1.478 2.561-3.112 4.426-4.892 5.572 3.699-.323 10.249-.899 11.13-1.121l.11-.029c2.473-.765 4.564-2.738 6.583-6.219 3.607-6.551 4.967-14.101 5.82-20.618a134.283 134.283 0 0 0 .18-28.465l-.03-.277c-1.532-14.999-4.618-27.26-9.392-37.493-2.863-5.732-6.528-11.816-12.016-13.383a7.172 7.172 0 0 0-2.288-.18l-9.993.911c9.585 3.75 15.3 22.574 16.958 28.843 4.736 17.514 8.347 52.589-2.066 72.274v.088l-.105.097Z"/><path fill="#000" d="M33.966 102.857c-1.159 2.769-3.04 4.555-5.643 5.358l.726 7.852-2.892.269-.718-7.781a11.689 11.689 0 0 1-5.114-1.436 11.679 11.679 0 0 1-4.069-3.582l.936-7.226a13.237 13.237 0 0 0 3.502 3.25 8.969 8.969 0 0 0 4.043 1.432l-1.293-14.02a18.649 18.649 0 0 1-4.421-2.243 10.916 10.916 0 0 1-3.195-3.947c-.924-1.776-1.52-4.2-1.805-7.218-.348-3.785.05-7.074 1.192-9.868 1.142-2.794 3.006-4.564 5.592-5.312l-.726-7.923 2.889-.265.718 7.777a9.542 9.542 0 0 1 3.988.974 11.754 11.754 0 0 1 3.573 2.641l-.797 7.214c-1.98-1.89-4.002-2.976-6.067-3.258l1.305 14.154a19.657 19.657 0 0 1 4.455 2.21c1.207.839 2.276 2.142 3.208 3.908.932 1.767 1.54 4.174 1.822 7.223.353 3.782-.052 7.058-1.213 9.83l.004-.013ZM19.8 76.349a7.494 7.494 0 0 0 2.863 2.141l-1.146-12.475a4.42 4.42 0 0 0-2.473 2.49 8.88 8.88 0 0 0-.504 4.22 6.753 6.753 0 0 0 1.26 3.632v-.008Zm10.383 21.805a8.05 8.05 0 0 0 .533-4.077c-.148-1.587-.582-2.831-1.301-3.733a7.72 7.72 0 0 0-2.94-2.167l1.143 12.409a4.532 4.532 0 0 0 2.57-2.432h-.005ZM96.017 68.32l6.667-.63c-.785 3.7-.768 7.088.231 10.078l-5.672.87-1.226-10.318ZM304.961 63.726l8.578.907s-1.062 9.154 1.44 10.846l-10.833-1.175.811-10.578h.004Z"/><path fill="url(#y)" d="M117.025 239.475c6.674-7.558-5.009-28.782-26.095-47.407-21.086-18.624-43.59-27.595-50.264-20.038-6.674 7.558 5.01 28.783 26.095 47.407 21.086 18.625 43.59 27.596 50.264 20.038Z"/><path fill="#000" d="M109.692 242.622c-3.443 0-7.688-.974-12.566-2.939-9.544-3.804-20.435-10.88-30.671-19.92-10.237-9.041-18.604-18.98-23.559-27.978-5.038-9.142-5.945-16.272-2.578-20.089 3.367-3.817 10.56-3.779 20.246.08 9.543 3.804 20.435 10.876 30.675 19.92 10.24 9.045 18.604 18.976 23.554 27.979 5.039 9.137 5.95 16.271 2.582 20.084-1.675 1.914-4.291 2.863-7.683 2.863Zm-61.72-72.828c-3.107 0-5.483.84-6.978 2.52-6.495 7.352 5.194 28.326 26.053 46.752 10.16 8.973 20.96 15.985 30.402 19.735 9.296 3.708 16.118 3.826 19.208.328 6.491-7.357-5.197-28.327-26.056-46.752-10.16-8.974-20.955-15.99-30.402-19.736-4.77-1.889-8.91-2.847-12.206-2.847h-.02Z"/><path fill="url(#z)" d="M58.628 229.58c9.212 7.979 19.356 15.184 30.739 19.685 5.126 1.882 12.112 4.048 17.247 1.39a7.02 7.02 0 0 0 1.814-1.453l8.607-9.746c-7.179 7.445-25.473-2.389-32.66-6.852-16.455-10.116-39.858-31.665-45.022-50.645-.785-3.284-1.038-7.214 1.326-9.922-.457.587-9.354 10.396-9.38 10.829-1.52 2.675-1.225 5.946-.545 8.818 1.704 6.626 5.412 12.53 9.384 18.056a126.54 126.54 0 0 0 18.503 19.857l-.013-.017Z"/><mask id="A" width="88" height="80" x="30" y="172" maskUnits="userSpaceOnUse" style="mask-type:luminance"><path fill="#fff" d="M58.628 229.58c9.212 7.979 19.356 15.184 30.739 19.685 5.126 1.882 12.112 4.048 17.247 1.39a7.02 7.02 0 0 0 1.814-1.453l8.607-9.746c-7.179 7.445-25.473-2.389-32.66-6.852-16.455-10.116-39.858-31.665-45.022-50.645-.785-3.284-1.038-7.214 1.326-9.922-.457.587-9.354 10.396-9.38 10.829-1.52 2.675-1.225 5.946-.545 8.818 1.704 6.626 5.412 12.53 9.384 18.056a126.54 126.54 0 0 0 18.503 19.857l-.013-.017Z"/></mask><g fill="#fff" mask="url(#A)"><path d="m55.648 181.711-29.533 33.443 21.573 19.055 29.533-33.444-21.573-19.054ZM101.979 220.74l-29.534 33.444 21.573 19.054 29.533-33.443-21.572-19.055ZM33.366 151.985 3.833 185.428l21.572 19.054 29.534-33.443-21.573-19.054Z"/></g><path fill="#000" d="M100.98 252.381c-3.834 0-7.978-1.26-11.756-2.662-9.98-3.947-20.078-10.414-30.885-19.769l-.94-.819h.029a126.735 126.735 0 0 1-17.635-19.114c-3.678-5.102-7.675-11.249-9.463-18.199-.911-3.88-.714-6.878.592-9.183.235-.466 1.39-1.852 7.137-8.323.933-1.045 1.76-1.973 2.1-2.372.054-.071.113-.143.176-.21l.718.592-.176.21c-1.68 2.1-2.045 5.224-1.067 9.318v.063c3.649 13.29 20.573 35.419 44.8 50.313 4.051 2.519 24.62 14.663 32.081 6.928l.684.63-8.607 9.742a7.542 7.542 0 0 1-1.935 1.553 12.589 12.589 0 0 1-5.853 1.302ZM59.56 229.79c10.497 8.99 20.3 15.23 29.979 19.06 5.66 2.078 12.096 3.871 16.861 1.41a6.705 6.705 0 0 0 1.68-1.352l6.264-7.092c-8.968 3.607-25.036-5.58-30.23-8.818-14.565-8.956-39.723-30.699-45.228-50.922v-.083c-.638-2.709-.722-5.039-.243-6.971-2.313 2.599-6.428 7.214-6.886 7.94l-.054.093c-1.205 2.099-1.36 4.816-.496 8.499 1.747 6.789 5.685 12.849 9.309 17.875a126.799 126.799 0 0 0 18.431 19.778l.613.583Z"/><path fill="#000" d="M59.267 198.213c-.991-2.639-.851-5.075.42-7.306l-5.572-4.871 1.81-2.053 5.512 4.867a11.011 11.011 0 0 1 4.426-2.314 10.968 10.968 0 0 1 5.097-.168l4.018 5.551a12.29 12.29 0 0 0-4.488.034 8.28 8.28 0 0 0-3.695 1.629l9.921 8.763a17.706 17.706 0 0 1 4.472-1.314 10.237 10.237 0 0 1 4.731.642c1.776.618 3.737 1.882 5.879 3.78 2.678 2.368 4.528 4.876 5.55 7.524 1.022 2.648.882 5.066-.42 7.252l5.605 4.955-1.809 2.049-5.509-4.862a9.067 9.067 0 0 1-3.359 1.902 10.997 10.997 0 0 1-4.144.495l-4.106-5.459c2.572.017 4.655-.543 6.248-1.679l-10.018-8.852a18.35 18.35 0 0 1-4.476 1.365 10.07 10.07 0 0 1-4.72-.609c-1.78-.613-3.753-1.864-5.877-3.779-2.679-2.363-4.515-4.865-5.509-7.508l.013-.034Zm26.795 9.016a7.099 7.099 0 0 0-3.359.386l8.817 7.798a4.142 4.142 0 0 0 .089-3.297 8.313 8.313 0 0 0-2.377-3.212 6.342 6.342 0 0 0-3.203-1.679l.033.004Zm-21.173-8.23a7.653 7.653 0 0 0 2.267 3.136 6.416 6.416 0 0 0 3.3 1.718 7.176 7.176 0 0 0 3.41-.42l-8.788-7.739a4.286 4.286 0 0 0-.194 3.321l.005-.016Z"/><path fill="url(#B)" d="M410.886 238.333c12.262-15.347 17.03-31.922 10.648-37.023-6.382-5.1-21.496 3.206-33.759 18.552-12.263 15.346-17.03 31.922-10.648 37.022 6.381 5.101 21.496-3.205 33.759-18.551Z"/><path fill="#000" d="M381.838 258.713a7.693 7.693 0 0 1-4.934-1.554c-6.52-5.198-1.767-22.04 10.598-37.531 5.958-7.457 12.772-13.508 19.187-17.035 6.512-3.578 11.862-4.136 15.065-1.575 6.52 5.211 1.768 22.041-10.597 37.515-9.867 12.366-21.648 20.18-29.319 20.18Zm6.21-38.631c-12.122 15.171-16.925 31.56-10.707 36.532 6.218 4.971 21.144-3.33 33.266-18.501 12.121-15.171 16.929-31.56 10.706-36.532-2.964-2.372-8.04-1.785-14.275 1.646-6.336 3.481-13.079 9.469-18.982 16.855h-.008Z"/><path fill="url(#C)" d="M419.373 244.537c5.236-6.718 9.791-14.121 12.176-22.507.966-3.779 1.974-8.931-.529-12.802a6.63 6.63 0 0 0-1.259-1.374l-8.225-6.575c6.339 5.459.529 18.896-2.217 24.17-6.202 12.055-20.485 29.074-34.488 32.571-2.435.525-5.408.643-7.692-1.163.487.353 8.817 7.139 9.128 7.176 2.183 1.18 4.648 1.021 6.794.567 4.895-1.146 9.06-3.804 12.893-6.655a76.494 76.494 0 0 0 13.436-13.408h-.017Z"/><mask id="D" width="56" height="64" x="377" y="201" maskUnits="userSpaceOnUse" style="mask-type:luminance"><path fill="#fff" d="M419.373 244.537c5.236-6.718 9.791-14.121 12.176-22.507.966-3.779 1.974-8.931-.529-12.802a6.63 6.63 0 0 0-1.259-1.374l-8.225-6.575c6.339 5.459.529 18.896-2.217 24.17-6.202 12.055-20.485 29.074-34.488 32.571-2.435.525-5.408.643-7.692-1.163.487.353 8.817 7.139 9.128 7.176 2.183 1.18 4.648 1.021 6.794.567 4.895-1.146 9.06-3.804 12.893-6.655a76.494 76.494 0 0 0 13.436-13.408h-.017Z"/></mask><g fill="#fff" mask="url(#D)"><path d="m395.649 230.199-12.548 15.703 28.237 22.567 12.548-15.702-28.237-22.568ZM421.164 196.449l-12.548 15.703 28.237 22.567 12.548-15.702-28.237-22.568ZM375.028 246.24l-12.548 15.702 28.237 22.568 12.548-15.703-28.237-22.567Z"/></g><path fill="#000" d="M390.08 265.293a8.181 8.181 0 0 1-4.006-.953c-.352-.168-1.486-1.02-7.045-5.501l-1.973-1.583-.164-.122.42-.562.163.126c1.764 1.306 4.199 1.637 7.251.978h.042c13.109-3.3 27.409-19.143 34.219-32.387 1.549-2.939 8.922-18.018 2.301-23.742l.449-.537 8.23 6.572a7.13 7.13 0 0 1 1.343 1.448c2.477 3.838 1.68 8.772.579 13.093-2.099 7.369-6.104 14.768-12.243 22.637a76.892 76.892 0 0 1-13.502 13.466c-3.561 2.65-7.885 5.514-13.016 6.719a14.882 14.882 0 0 1-3.048.348Zm-3.75-1.604.08.034c1.738.94 3.817 1.108 6.55.533 5.013-1.171 9.262-3.993 12.76-6.592a76.319 76.319 0 0 0 13.376-13.341c6.084-7.793 10.048-15.116 12.122-22.389 1.062-4.161 1.839-8.915-.487-12.513a6.306 6.306 0 0 0-1.201-1.294l-5.908-4.719c1.26 2.473 1.449 5.878.542 10.111-1.104 5.161-3.548 10.174-4.547 12.089-5.496 10.682-19.776 29.024-34.714 32.753h-.059a11.762 11.762 0 0 1-5.16.092c2.25 1.827 6.105 4.925 6.655 5.236h-.009Z"/><path fill="#000" d="M395.395 243.492a6.624 6.624 0 0 1-5.613-.42l-3.233 4.043-1.73-1.381 3.199-4.014a9.655 9.655 0 0 1-2.17-3.334 8.272 8.272 0 0 1-.601-3.78l3.867-2.888a9.323 9.323 0 0 0 .42 3.359 7.313 7.313 0 0 0 1.583 2.771l5.773-7.218a14.587 14.587 0 0 1-1.415-3.359 7.134 7.134 0 0 1 .055-3.502c.31-1.31 1.09-2.748 2.338-4.313 1.562-1.959 3.304-3.289 5.227-3.989a6.396 6.396 0 0 1 5.572.42l3.258-4.085 1.73 1.381-3.204 4.014a8.03 8.03 0 0 1 1.764 2.52c.441.974.699 2.022.76 3.09l-3.779 2.94a8.619 8.619 0 0 0-1.86-4.682l-5.828 7.293a15.4 15.4 0 0 1 1.453 3.36 7.09 7.09 0 0 1-.025 3.497c-.302 1.315-1.083 2.759-2.33 4.321-1.562 1.953-3.296 3.271-5.228 3.964l.017-.008Zm4.409-19.765c-.003.866.203 1.72.6 2.49l5.135-6.429a3.3 3.3 0 0 0-2.519-.13 5.165 5.165 0 0 0-2.23 1.709 3.944 3.944 0 0 0-.978 2.351l-.008.009Zm-4.325 15.599a4.759 4.759 0 0 0 2.183-1.629 3.997 3.997 0 0 0 1.004-2.423 5.587 5.587 0 0 0-.63-2.545l-5.11 6.387a3.442 3.442 0 0 0 2.553.21Z"/></g><defs><linearGradient id="b" x1="438.052" x2="321.321" y1="122.12" y2="3.547" gradientUnits="userSpaceOnUse"><stop offset=".1" stop-color="#FFE05F"/><stop offset=".14" stop-color="#FFE167"/><stop offset=".52" stop-color="#FFF1B8"/><stop offset=".78" stop-color="#FFFBEB"/><stop offset=".92" stop-color="#fff"/></linearGradient><linearGradient id="c" x1="408.545" x2="436.623" y1="139.381" y2="27.96" gradientUnits="userSpaceOnUse"><stop offset=".22" stop-color="#FFE05F"/><stop offset=".25" stop-color="#FFE167"/><stop offset=".57" stop-color="#FFF1B8"/><stop offset=".8" stop-color="#FFFBEB"/><stop offset=".92" stop-color="#fff"/></linearGradient><linearGradient id="e" x1="417.285" x2="300.545" y1="117.22" y2="-1.354" gradientUnits="userSpaceOnUse"><stop offset=".1" stop-color="#FFE05F"/><stop offset=".14" stop-color="#FFE167"/><stop offset=".52" stop-color="#FFF1B8"/><stop offset=".78" stop-color="#FFFBEB"/><stop offset=".92" stop-color="#fff"/></linearGradient><linearGradient id="f" x1="387.843" x2="415.913" y1="134.472" y2="23.049" gradientUnits="userSpaceOnUse"><stop offset=".22" stop-color="#FFE05F"/><stop offset=".25" stop-color="#FFE167"/><stop offset=".57" stop-color="#FFF1B8"/><stop offset=".8" stop-color="#FFFBEB"/><stop offset=".92" stop-color="#fff"/></linearGradient><linearGradient id="h" x1="193.332" x2="150.565" y1="319.813" y2="319.813" gradientUnits="userSpaceOnUse"><stop offset=".1" stop-color="#FFE05F"/><stop offset=".14" stop-color="#FFE167"/><stop offset=".52" stop-color="#FFF1B8"/><stop offset=".78" stop-color="#FFFBEB"/><stop offset=".92" stop-color="#fff"/></linearGradient><linearGradient id="i" x1="297.853" x2="255.086" y1="308.371" y2="308.371" gradientUnits="userSpaceOnUse"><stop offset=".1" stop-color="#FFE05F"/><stop offset=".14" stop-color="#FFE167"/><stop offset=".52" stop-color="#FFF1B8"/><stop offset=".78" stop-color="#FFFBEB"/><stop offset=".92" stop-color="#fff"/></linearGradient><linearGradient id="j" x1="101.748" x2="372.649" y1="142.815" y2="274.148" gradientUnits="userSpaceOnUse"><stop offset=".1" stop-color="#FFE05F"/><stop offset=".14" stop-color="#FFE167"/><stop offset=".52" stop-color="#FFF1B8"/><stop offset=".78" stop-color="#FFFBEB"/><stop offset=".92" stop-color="#fff"/></linearGradient><linearGradient id="k" x1="79.29" x2="240.317" y1="196.71" y2="274.77" gradientUnits="userSpaceOnUse"><stop offset=".1" stop-color="#FFE05F"/><stop offset=".14" stop-color="#FFE167"/><stop offset=".52" stop-color="#FFF1B8"/><stop offset=".78" stop-color="#FFFBEB"/><stop offset=".92" stop-color="#fff"/></linearGradient><linearGradient id="l" x1="82.754" x2="193.03" y1="110.42" y2="110.42" gradientUnits="userSpaceOnUse"><stop offset=".1" stop-color="#7AE6D8"/><stop offset=".21" stop-color="#81E7DA"/><stop offset=".38" stop-color="#95EBE0"/><stop offset=".58" stop-color="#B7F1E9"/><stop offset=".8" stop-color="#E5FAF7"/><stop offset=".92" stop-color="#fff"/></linearGradient><linearGradient id="m" x1="259.251" x2="352.485" y1="106.909" y2="106.909" gradientUnits="userSpaceOnUse"><stop offset=".1" stop-color="#7AE6D8"/><stop offset=".21" stop-color="#81E7DA"/><stop offset=".38" stop-color="#95EBE0"/><stop offset=".58" stop-color="#B7F1E9"/><stop offset=".8" stop-color="#E5FAF7"/><stop offset=".92" stop-color="#fff"/></linearGradient><linearGradient id="n" x1="73.819" x2="303.61" y1="55.815" y2="167.223" gradientUnits="userSpaceOnUse"><stop offset=".1" stop-color="#fff"/><stop offset=".18" stop-color="#F0ECFE"/><stop offset=".54" stop-color="#B29BFE"/><stop offset=".79" stop-color="#8B68FE"/><stop offset=".92" stop-color="#7C55FE"/></linearGradient><linearGradient id="p" x1="287.445" x2="252.674" y1="31.247" y2="121.31" gradientUnits="userSpaceOnUse"><stop offset=".1" stop-color="#fff"/><stop offset=".18" stop-color="#F0ECFE"/><stop offset=".54" stop-color="#B29BFE"/><stop offset=".79" stop-color="#8B68FE"/><stop offset=".92" stop-color="#7C55FE"/></linearGradient><linearGradient id="q" x1="318.8" x2="187.844" y1="28.61" y2="51.536" gradientUnits="userSpaceOnUse"><stop offset=".1" stop-color="#7AE6D8"/><stop offset=".21" stop-color="#81E7DA"/><stop offset=".38" stop-color="#95EBE0"/><stop offset=".58" stop-color="#B7F1E9"/><stop offset=".8" stop-color="#E5FAF7"/><stop offset=".92" stop-color="#fff"/></linearGradient><linearGradient id="r" x1="295.443" x2="233.868" y1="66.036" y2="36.753" gradientUnits="userSpaceOnUse"><stop offset=".1" stop-color="#7AE6D8"/><stop offset=".21" stop-color="#81E7DA"/><stop offset=".38" stop-color="#95EBE0"/><stop offset=".58" stop-color="#B7F1E9"/><stop offset=".8" stop-color="#E5FAF7"/><stop offset=".92" stop-color="#fff"/></linearGradient><linearGradient id="s" x1="89.644" x2="-58.73" y1="103.203" y2="27.931" gradientUnits="userSpaceOnUse"><stop offset=".1" stop-color="#FFE05F"/><stop offset=".14" stop-color="#FFE167"/><stop offset=".52" stop-color="#FFF1B8"/><stop offset=".78" stop-color="#FFFBEB"/><stop offset=".92" stop-color="#fff"/></linearGradient><linearGradient id="t" x1="69.378" x2="60.612" y1="118.388" y2="2.992" gradientUnits="userSpaceOnUse"><stop offset=".22" stop-color="#FFE05F"/><stop offset=".25" stop-color="#FFE167"/><stop offset=".57" stop-color="#FFF1B8"/><stop offset=".8" stop-color="#FFFBEB"/><stop offset=".92" stop-color="#fff"/></linearGradient><linearGradient id="v" x1="68.404" x2="-79.979" y1="105.159" y2="29.892" gradientUnits="userSpaceOnUse"><stop offset=".1" stop-color="#FFE05F"/><stop offset=".14" stop-color="#FFE167"/><stop offset=".52" stop-color="#FFF1B8"/><stop offset=".78" stop-color="#FFFBEB"/><stop offset=".92" stop-color="#fff"/></linearGradient><linearGradient id="w" x1="48.028" x2="39.266" y1="120.31" y2="4.914" gradientUnits="userSpaceOnUse"><stop offset=".22" stop-color="#FFE05F"/><stop offset=".25" stop-color="#FFE167"/><stop offset=".57" stop-color="#FFF1B8"/><stop offset=".8" stop-color="#FFFBEB"/><stop offset=".92" stop-color="#fff"/></linearGradient><linearGradient id="y" x1="34.135" x2="184.273" y1="218.939" y2="174.784" gradientUnits="userSpaceOnUse"><stop offset=".1" stop-color="#FFE05F"/><stop offset=".14" stop-color="#FFE167"/><stop offset=".52" stop-color="#FFF1B8"/><stop offset=".78" stop-color="#FFFBEB"/><stop offset=".92" stop-color="#fff"/></linearGradient><linearGradient id="z" x1="34.302" x2="114.6" y1="193.745" y2="266.416" gradientUnits="userSpaceOnUse"><stop offset=".22" stop-color="#FFE05F"/><stop offset=".25" stop-color="#FFE167"/><stop offset=".57" stop-color="#FFF1B8"/><stop offset=".8" stop-color="#FFFBEB"/><stop offset=".92" stop-color="#fff"/></linearGradient><linearGradient id="B" x1="413.564" x2="381.714" y1="262.796" y2="146.081" gradientUnits="userSpaceOnUse"><stop offset=".1" stop-color="#FFE05F"/><stop offset=".14" stop-color="#FFE167"/><stop offset=".52" stop-color="#FFF1B8"/><stop offset=".78" stop-color="#FFFBEB"/><stop offset=".92" stop-color="#fff"/></linearGradient><linearGradient id="C" x1="382.193" x2="429.707" y1="265.445" y2="206.859" gradientUnits="userSpaceOnUse"><stop offset=".22" stop-color="#FFE05F"/><stop offset=".25" stop-color="#FFE167"/><stop offset=".57" stop-color="#FFF1B8"/><stop offset=".8" stop-color="#FFFBEB"/><stop offset=".92" stop-color="#fff"/></linearGradient><clipPath id="a"><path fill="#fff" d="M0 0h440v318H0z"/></clipPath></defs></svg>
