<svg xmlns="http://www.w3.org/2000/svg" width="485" height="336" fill="none"><g clip-path="url(#a)"><path fill="url(#b)" d="M484.505 132.793a22.964 22.964 0 0 0-20.652-22.845 6.762 6.762 0 0 0-4.243-10.428 10.516 10.516 0 0 0-.107-7.97 39.992 39.992 0 0 0 16.053-44.845 39.979 39.979 0 0 0-14.436-20.51 39.961 39.961 0 0 0-23.81-7.87 38.917 38.917 0 0 0-4.389.246v-.142a10.476 10.476 0 0 0-9.065-10.38v-.121a40.01 40.01 0 0 0-17.432-32.99 39.98 39.98 0 0 0-37.06-4.246 10.483 10.483 0 0 0-10.447-9.684c-.275 0-.551 0-.822.034a39.975 39.975 0 0 0-28.419-27.297 39.955 39.955 0 0 0-38.017 10.35 10.478 10.478 0 0 0-16.914.46 39.972 39.972 0 0 0-51.354 7.366 39.997 39.997 0 0 0-8.727 16.481 30.973 30.973 0 0 0-45.323 15.493 6.761 6.761 0 0 0-9.013-.494 6.761 6.761 0 0 0-1.468 8.908 10.474 10.474 0 0 0-4.359 11.68 37.712 37.712 0 0 0-30.436 29.44 37.733 37.733 0 0 0-.112 14.89 10.463 10.463 0 0 0-6.701 7.167 10.47 10.47 0 0 0 2.175 9.57 36.574 36.574 0 0 0-15.465 29.874 36.588 36.588 0 0 0 15.465 29.875 10.457 10.457 0 0 0-2.491 7.93 10.466 10.466 0 0 0 4.074 7.245 36.592 36.592 0 0 0-2.044 42.182 36.58 36.58 0 0 0 16.995 14.209 36.558 36.558 0 0 0 22.077 1.792 25.205 25.205 0 0 0 12.799 30.224 25.194 25.194 0 0 0 31.81-8.064 36.601 36.601 0 0 0 42.845 6.524 25.192 25.192 0 0 0 46.7 3.981 36.563 36.563 0 0 0 48.714-11.482 25.21 25.21 0 0 0 21.563 16.266 25.198 25.198 0 0 0 23.894-12.591 25.185 25.185 0 0 0 31.241-.432 25.199 25.199 0 0 0 6.876-8.769 10.374 10.374 0 0 0 14.981-8.057 32.881 32.881 0 0 0 18.824-4.632 32.905 32.905 0 0 0 10.382-46.561 22.966 22.966 0 0 0 15.786-21.816l.052.039Z"/><path fill="#000" d="M269.664 245.353a25.869 25.869 0 0 1-24.443-17.753 37.102 37.102 0 0 1-42.475-6.477 25.7 25.7 0 0 1-44.129-4.8 25.713 25.713 0 0 1-1.276-17.459 37.073 37.073 0 0 1-40.96-20.441 37.098 37.098 0 0 1-3.576-15.917 36.711 36.711 0 0 1 7.538-22.414 10.978 10.978 0 0 1-1.614-15.167 37.087 37.087 0 0 1-15.233-29.969 37.088 37.088 0 0 1 15.233-29.97 10.987 10.987 0 0 1-1.915-9.659 10.972 10.972 0 0 1 6.597-7.31 38.543 38.543 0 0 1-.62-6.856 38.12 38.12 0 0 1 8.763-24.402 38.1 38.1 0 0 1 22.341-13.148 11.158 11.158 0 0 1-.289-2.496 10.946 10.946 0 0 1 4.6-8.935 7.272 7.272 0 0 1 1.733-9.05 7.266 7.266 0 0 1 9.212-.078 31.496 31.496 0 0 1 19.063-18.11 31.466 31.466 0 0 1 26.153 2.677 40.51 40.51 0 0 1 8.922-16.327 40.485 40.485 0 0 1 33.688-13.273 40.485 40.485 0 0 1 17.657 5.856 10.973 10.973 0 0 1 17.085-.534 40.478 40.478 0 0 1 52.492-3.163 40.78 40.78 0 0 1 14.267 20.314h.456a11.031 11.031 0 0 1 10.881 9.468 40.488 40.488 0 0 1 49.843 19.007 40.504 40.504 0 0 1 4.718 18.642 11.021 11.021 0 0 1 9.062 10.394 40.464 40.464 0 0 1 42.532 28.36 40.484 40.484 0 0 1-15.856 45.373 11 11 0 0 1 .15 7.423 7.317 7.317 0 0 1 5.249 6.985 7.217 7.217 0 0 1-.834 3.387A23.368 23.368 0 0 1 485 132.771v1.033l-.043-.03a23.433 23.433 0 0 1-4.526 12.91 23.411 23.411 0 0 1-10.964 8.178 33.418 33.418 0 0 1-11.045 46.814 33.39 33.39 0 0 1-17.05 4.677c-.465 0-.956 0-1.455-.035a10.882 10.882 0 0 1-10.756 9.15 10.763 10.763 0 0 1-4.445-.951 25.825 25.825 0 0 1-9.488 10.383 25.826 25.826 0 0 1-13.522 3.867 25.446 25.446 0 0 1-15.192-4.976 25.709 25.709 0 0 1-23.89 12.368 25.702 25.702 0 0 1-21.834-15.716 37.09 37.09 0 0 1-48.382 11.112 25.565 25.565 0 0 1-9.436 10.093 25.54 25.54 0 0 1-13.308 3.705Zm-23.828-19.212.172.59a24.857 24.857 0 0 0 8.938 12.698 24.839 24.839 0 0 0 14.727 4.913 24.555 24.555 0 0 0 22.106-13.712l.241-.482.469.267a36.084 36.084 0 0 0 48.039-11.323l.55-.827.345.926a24.698 24.698 0 0 0 21.129 15.943 24.687 24.687 0 0 0 23.415-12.341l.289-.499.46.353a24.435 24.435 0 0 0 15.029 5.108 24.806 24.806 0 0 0 22.317-14.125l.224-.469.46.232a9.866 9.866 0 0 0 9.123-.118 9.888 9.888 0 0 0 3.49-3.145 9.892 9.892 0 0 0 1.642-4.401l.056-.474.477.03a32.379 32.379 0 0 0 30.432-17.104 32.403 32.403 0 0 0-1.686-33.289l-.37-.555.632-.206a22.422 22.422 0 0 0 15.438-21.334v-.951a22.38 22.38 0 0 0-20.179-21.377l-.861-.086.482-.706a6.258 6.258 0 0 0-3.928-9.645l-.589-.12.219-.56a9.97 9.97 0 0 0-.099-7.587l-.163-.383.348-.237a39.471 39.471 0 0 0 15.863-44.284 39.468 39.468 0 0 0-14.259-20.254 39.453 39.453 0 0 0-27.85-7.524l-.563.065v-.71a9.99 9.99 0 0 0-8.605-9.899l-.431-.06v-.564a39.496 39.496 0 0 0-17.215-32.593 39.471 39.471 0 0 0-36.614-4.179l-.637.25-.052-.684a10.001 10.001 0 0 0-9.939-9.219c-.262 0-.525 0-.787.034l-.405.03-.116-.387a39.772 39.772 0 0 0-14.026-20.18 39.452 39.452 0 0 0-51.554 3.443l-.404.404-.349-.43a9.96 9.96 0 0 0-8.159-3.877 9.966 9.966 0 0 0-7.941 4.307l-.275.396-.431-.258a39.469 39.469 0 0 0-50.679 7.303 39.497 39.497 0 0 0-8.61 16.265l-.172.667-.585-.366a30.459 30.459 0 0 0-44.584 15.265l-.275.736-.555-.555a6.251 6.251 0 0 0-9.698 7.781l.271.43-.43.272a9.951 9.951 0 0 0-4.148 11.12l.155.543-.555.095a37.093 37.093 0 0 0-22.104 12.69 37.113 37.113 0 0 0-8.703 23.96c.005 2.38.233 4.752.68 7.089l.086.43-.43.146a9.955 9.955 0 0 0-6.372 6.821 9.957 9.957 0 0 0 2.069 9.103l.362.43-.43.323a36.082 36.082 0 0 0-15.247 29.462 36.086 36.086 0 0 0 15.247 29.461l.456.319-.366.43a9.994 9.994 0 0 0-2.44 6.46 9.892 9.892 0 0 0 1.031 4.43 9.89 9.89 0 0 0 2.902 3.502l.404.31-.314.404a35.732 35.732 0 0 0-7.628 22.191 36.087 36.087 0 0 0 13.588 28.242 36.058 36.058 0 0 0 30.556 6.945l.861-.193-.271.86a24.693 24.693 0 0 0 .786 17.135 24.688 24.688 0 0 0 42.928 4.578l.348-.491.431.431a36.103 36.103 0 0 0 42.251 6.434l.559-.289Z"/><path fill="url(#c)" d="M240.222 383.384a1.49 1.49 0 0 1-1.665-1.007 1.485 1.485 0 0 1 .761-1.791c8.941-4.416 25.445-15.179 28.539-35.527 4.303-28.186 6.123-91.094 3.063-110.086-3.059-18.993-56.363-67.397-66.152-68-9.788-.602-14.702.611-22.666-4.304-7.964-4.914-41.782-28.766-38.59-30.638 3.193-1.872 33.793 28.103 47.264 28.103 13.472 0 31.749 4.984 43.388 13.557 11.638 8.573 18.991 3.676 7.964-8.577-11.028-12.253-30.015-30.023-26.952-33.087 3.064-3.065 25.725 20.227 31.241 24.531 5.516 4.304 24.095 45.71 32.055 45.095 7.959-.616 13.273-14.461 7.744-43.873s-10.416-44.724-3.674-44.113c6.742.611 7.349 40.52 12.357 31.391 6.497-11.856 15.816-20.976 13.368-6.886-2.448 14.091-9.801 58.2-2.448 60.042 7.353 1.842 49.613-23.283 54.509-21.445 4.897 1.837-17.15 11.641-11.617 14.09 5.533 2.449 77.176-28.796 82.076-26.959 4.901 1.838-122.507 50.561-125.7 73.676-1.798 13.075-.477 116.671 9.324 124.637 9.801 7.967 35.526 14.091 33.074 17.771-2.453 3.679-43.069-10.42-44.502-7.356-1.432 3.065 17.555 22.673 9.595 24.51-7.96 1.838-20.076-33.087-25.351-25.121-5.275 7.967-17.524 33.088-21.199 30.023-3.674-3.064 12.25-29.412 6.123-29.412-4.909 0-21.225 9.038-31.921 10.76l-.008-.004Z"/><mask id="d" width="288" height="290" x="143" y="113" maskUnits="userSpaceOnUse" style="mask-type:luminance"><path fill="#fff" d="M240.222 383.384a1.49 1.49 0 0 1-1.665-1.007 1.485 1.485 0 0 1 .761-1.791c8.941-4.416 25.445-15.179 28.539-35.527 4.303-28.186 6.123-91.094 3.063-110.086-3.059-18.993-56.363-67.397-66.152-68-9.788-.602-14.702.611-22.666-4.304-7.964-4.914-41.782-28.766-38.59-30.638 3.193-1.872 33.793 28.103 47.264 28.103 13.472 0 31.749 4.984 43.388 13.557 11.638 8.573 18.991 3.676 7.964-8.577-11.028-12.253-30.015-30.023-26.952-33.087 3.064-3.065 25.725 20.227 31.241 24.531 5.516 4.304 24.095 45.71 32.055 45.095 7.959-.616 13.273-14.461 7.744-43.873s-10.416-44.724-3.674-44.113c6.742.611 7.349 40.52 12.357 31.391 6.497-11.856 15.816-20.976 13.368-6.886-2.448 14.091-9.801 58.2-2.448 60.042 7.353 1.842 49.613-23.283 54.509-21.445 4.897 1.837-17.15 11.641-11.617 14.09 5.533 2.449 77.176-28.796 82.076-26.959 4.901 1.838-122.507 50.561-125.7 73.676-1.798 13.075-.477 116.671 9.324 124.637 9.801 7.967 35.526 14.091 33.074 17.771-2.453 3.679-43.069-10.42-44.502-7.356-1.432 3.065 17.555 22.673 9.595 24.51-7.96 1.838-20.076-33.087-25.351-25.121-5.275 7.967-17.524 33.088-21.199 30.023-3.674-3.064 12.25-29.412 6.123-29.412-4.909 0-21.225 9.038-31.921 10.76l-.008-.004Z"/></mask><g mask="url(#d)"><path fill="url(#e)" d="m178.789 165.269 20.76-1.459s13.476 1.825 16.389 4.368c2.913 2.544 60.993 49.945 61.849 68 .25 5.211 2.126 87.082.31 104.202-1.815 17.121-17.726 41.446-50.874 46.18-33.147 4.734-41.149-59.168-41.149-59.168l-7.285-162.11v-.013Z"/></g><path fill="#000" d="M266.734 402.789a1.582 1.582 0 0 1-1.037-.374c-1.88-1.567.022-6.804 3.369-15.248 2.263-5.707 4.827-12.171 3.76-13.747a.728.728 0 0 0-.679-.297c-2.178 0-6.884 1.933-12.301 4.166-6.347 2.613-13.528 5.565-19.276 6.534l-.267.051a1.989 1.989 0 0 1-1.204-3.748c9.254-4.571 25.23-15.219 28.259-35.154 4.341-28.516 6.088-91.188 3.063-109.926-1.312-8.177-12.679-23.344-30.402-40.615-15.222-14.839-30.72-26.683-35.281-26.967-2.151-.138-4.126-.185-5.86-.224-6.226-.146-10.722-.254-17.038-4.14-5.912-3.641-39.089-26.546-39.046-30.699a.913.913 0 0 1 .464-.805c1.485-.86 5.697 2.251 14.328 8.832 10.627 8.104 25.183 19.203 33.19 19.203 14.81 0 32.777 5.595 43.689 13.651 5.937 4.377 10.532 5.019 12.008 3.392 1.244-1.373.757-5.135-4.733-11.22-2.775-3.082-6.122-6.589-9.358-9.98-12.581-13.166-20.041-21.343-17.576-23.805 2.384-2.388 12.004 6.194 24.335 17.646 3.266 3.034 6.084 5.655 7.573 6.813 2.151 1.683 6.118 8.607 10.696 16.642 6.837 11.986 16.174 28.353 20.859 28.353h.151c2.018-.154 3.79-1.209 5.262-3.128 4.883-6.37 5.628-21.003 2.039-40.146-1.166-6.232-2.31-11.835-3.317-16.784-3.188-15.649-4.944-24.269-2.478-27.024a3.008 3.008 0 0 1 2.697-.895c3.748.34 5.542 10.191 7.272 19.72.985 5.41 2.332 12.817 3.601 13.023.168.03.529-.241.994-1.093 3.481-6.344 9.861-15.356 13.174-14.203 1.567.551 1.937 3.048 1.141 7.644-9.036 52.045-4.991 58.923-2.827 59.461 3.734.934 17.726-5.815 30.079-11.767 13.631-6.572 22.107-10.553 24.486-9.662a1.406 1.406 0 0 1 1.037 1.106c.185 1.451-2.31 3.301-6.402 6.198-2.939 2.078-6.962 4.928-6.833 6.232 0 .077.035.322.59.572 2.715 1.209 25.518-7.441 43.843-14.383 22.214-8.418 35.862-13.467 38.207-12.589a.664.664 0 0 1 .465.603c.043 1.222-4.733 3.525-25.205 12.864-34.42 15.691-98.452 44.905-100.637 60.752-1.674 12.145-.517 116.326 9.138 124.176 4.647 3.775 12.869 7.114 20.124 10.058 8.054 3.271 12.636 5.212 13.239 7.157a1.422 1.422 0 0 1-.185 1.227c-1.39 2.091-10.365 0-24.981-3.693-7.822-1.975-18.54-4.682-19.495-3.705-.43.886 2.379 5.005 4.625 8.31 3.73 5.505 7.964 11.745 6.772 14.784a2.773 2.773 0 0 1-2.151 1.674 3.229 3.229 0 0 1-.727.082c-4.044 0-8.635-7.368-13.088-14.508-3.623-5.819-7.375-11.836-9.797-11.866-.53 0-.994.306-1.429.956-1.42 2.151-3.403 5.642-5.503 9.339-6.604 11.62-11.905 20.563-15.059 21.135a1.782 1.782 0 0 1-.357.039Zm5.413-30.677a1.719 1.719 0 0 1 1.514.74c1.291 1.885-.525 6.805-3.653 14.685-2.28 5.745-5.116 12.889-3.661 14.103a.614.614 0 0 0 .542.125c2.951-.538 9.552-12.158 14.371-20.658 2.108-3.714 4.1-7.222 5.541-9.4.628-.946 1.386-1.446 2.285-1.411 2.977.043 6.531 5.745 10.644 12.347 4.303 6.929 9.208 14.788 12.728 13.97a1.812 1.812 0 0 0 1.424-1.054c.998-2.539-3.253-8.81-6.669-13.841-3.417-5.031-5.331-7.971-4.694-9.335.778-1.657 6.587-.374 20.652 3.176 9.078 2.294 22.804 5.754 23.892 4.11a.388.388 0 0 0 .056-.365c-.486-1.58-6.669-4.089-12.649-6.516-7.315-2.97-15.619-6.34-20.386-10.213-10.201-8.293-11.187-112.759-9.5-125.098 2.263-16.397 64.207-44.655 101.222-61.543 11.716-5.346 21.978-10.024 24.22-11.655-3.873.129-21.367 6.757-36.908 12.649-25.084 9.502-41.735 15.635-44.618 14.361a1.74 1.74 0 0 1-1.183-1.398c-.176-1.76 2.625-3.874 7.254-7.157 2.582-1.825 6.101-4.304 5.981-5.242 0-.134-.276-.246-.383-.284-2.087-.792-13.566 4.734-23.695 9.623-13.118 6.322-26.676 12.859-30.763 11.839-5.383-1.347-4.685-21.742 2.074-60.622.964-5.548-.121-6.387-.473-6.512-1.799-.628-7.026 4.734-11.953 13.725-.241.43-.977 1.777-2.048 1.605-1.88-.306-2.861-5.203-4.432-13.841-1.428-7.859-3.386-18.622-6.367-18.893a2.01 2.01 0 0 0-1.816.576c-2.13 2.376-.202 11.831 2.715 26.146 1.007 4.945 2.151 10.557 3.317 16.784 4.987 26.593.744 37.069-2.229 40.946-1.635 2.131-3.704 3.349-5.989 3.525h-.215c-4.892 0-12.43-12.524-21.75-28.865-4.337-7.605-8.437-14.788-10.438-16.355-1.523-1.187-4.358-3.821-7.641-6.886-4.346-4.041-9.75-9.063-14.267-12.726-6.983-5.659-8.399-5.225-8.666-4.958-1.94 1.941 9.35 13.772 17.593 22.38 3.245 3.396 6.596 6.907 9.38 9.998 5.03 5.594 6.79 10.294 4.733 12.584-2.151 2.362-7.508 1.05-13.338-3.258-10.756-7.924-28.479-13.458-43.09-13.458-8.347 0-23.062-11.216-33.806-19.406-5.378-4.101-12.047-9.188-13.166-8.784.03.456 1.145 2.918 16.169 14.142 8.451 6.31 18.403 13.183 22.374 15.64 6.084 3.744 10.24 3.843 16.53 3.994 1.721.039 3.718.086 5.899.224 5.525.344 22.636 14.297 35.927 27.251 6.695 6.525 28.694 28.78 30.694 41.179 3.034 18.807 1.291 81.659-3.063 110.245-3.098 20.387-19.383 31.245-28.827 35.906a.93.93 0 0 0-.499 1.167.942.942 0 0 0 .946.688l.155-.026c5.679-.903 12.908-3.873 19.319-6.516 5.52-2.19 10.309-4.153 12.684-4.153v-.004Z"/><mask id="f" width="81" height="81" x="337" y="88" maskUnits="userSpaceOnUse" style="mask-type:luminance"><path fill="#fff" d="M393.768 168.665s2.504-14.452-12.405-15.438c0 0 .973-10.785-5.593-15.287-6.566-4.502-16.849.646-16.849.646s-3.76-14.259-21.375-8.72V88.692h79.559v67.492l-23.354 12.481h.017Z"/></mask><g mask="url(#f)"><path fill="url(#g)" d="M348.758 128.584c-.142-18.455 14.539-34.715 33.307-34.663-3.365.069-8.584-.22-11.828.43a32.931 32.931 0 0 0-19.508 11.061c-19.005 22.005-4.303 57.671 24.774 57.817h6.562c-18.398 0-33.307-15.515-33.307-34.658v.013Z"/><mask id="h" width="41" height="71" x="342" y="93" maskUnits="userSpaceOnUse" style="mask-type:luminance"><path fill="#fff" d="M348.758 128.584c-.142-18.455 14.539-34.715 33.307-34.663-3.365.069-8.584-.22-11.828.43a32.931 32.931 0 0 0-19.508 11.061c-19.005 22.005-4.303 57.671 24.774 57.817h6.562c-18.398 0-33.307-15.515-33.307-34.658v.013Z"/></mask><g fill="#fff" mask="url(#h)"><path d="M377.783 131.829H339.65v24.604h38.133v-24.604ZM368.925 101.539h-38.134v24.604h38.134v-24.604Z"/></g><path fill="#000" d="M382.065 163.629h-6.562c-13.338-.069-24.718-7.566-30.389-20.051-5.925-13.045-3.872-27.768 5.314-38.424a33.557 33.557 0 0 1 19.744-11.19c2.393-.482 5.809-.456 8.821-.43h3.072v.796h-.947a31.946 31.946 0 0 0-21.874 9.589 34.834 34.834 0 0 0-10.098 24.656c0 18.894 14.762 34.262 32.91 34.262l.009.792Zm-7.315-69.29c-1.488.014-2.973.15-4.44.404a32.778 32.778 0 0 0-19.284 10.932c-9.001 10.419-10.989 24.815-5.193 37.576 5.447 11.994 16.268 19.272 29.029 19.573-15.136-3.443-26.504-17.481-26.504-34.24a35.63 35.63 0 0 1 10.326-25.225 33.132 33.132 0 0 1 16.07-9.02h-.004Z"/><path fill="url(#i)" d="M382.065 93.925c18.398 0 33.306 15.516 33.306 34.663s-14.917 34.654-33.306 34.654c-18.39 0-33.307-15.515-33.307-34.654 0-19.139 14.913-34.662 33.307-34.662Z"/><mask id="j" width="68" height="71" x="348" y="93" maskUnits="userSpaceOnUse" style="mask-type:luminance"><path fill="#fff" d="M382.065 93.925c18.398 0 33.306 15.516 33.306 34.663s-14.917 34.654-33.306 34.654c-18.39 0-33.307-15.515-33.307-34.654 0-19.139 14.913-34.662 33.307-34.662Z"/></mask><g mask="url(#j)"><path fill="#fff" d="m418.626 100.353-67.319 67.337 26.63 26.638 67.319-67.338-26.63-26.637Z"/></g><path fill="#000" d="M382.065 163.642c-18.587 0-33.702-15.726-33.702-35.054 0-19.328 15.115-35.063 33.702-35.063 18.587 0 33.702 15.73 33.702 35.063 0 19.332-15.119 35.054-33.702 35.054Zm0-69.32c-18.149 0-32.911 15.372-32.911 34.266 0 18.893 14.762 34.258 32.911 34.258 18.148 0 32.906-15.369 32.906-34.258 0-18.889-14.762-34.267-32.906-34.267Z"/><path fill="#000" d="M392.705 143.656c-2.042 2.134-5.005 3.425-8.889 3.873v6.339h-4.23v-6.292a26.423 26.423 0 0 1-7.211-1.528 15.384 15.384 0 0 1-5.412-3.167l2.319-5.72a16.495 16.495 0 0 0 4.638 2.858 18.958 18.958 0 0 0 5.666 1.442v-11.319a35.44 35.44 0 0 1-6.105-2.122 10.767 10.767 0 0 1-4.092-3.396c-1.101-1.489-1.652-3.46-1.652-5.913a10.959 10.959 0 0 1 3.042-7.811c2.028-2.152 4.964-3.435 8.807-3.848v-6.387h4.23v6.284c1.92.113 3.818.475 5.645 1.076a17.794 17.794 0 0 1 4.819 2.375l-2.113 5.716a20.094 20.094 0 0 0-8.347-3.056v11.435a37.572 37.572 0 0 1 6.157 2.096 10.754 10.754 0 0 1 4.122 3.37c1.11 1.489 1.674 3.465 1.674 5.913a10.844 10.844 0 0 1-3.068 7.782Zm-16.978-22.268a11.225 11.225 0 0 0 3.872 1.924v-10.075c-1.752.307-3.057.912-3.915 1.816a4.652 4.652 0 0 0-1.291 3.335 3.728 3.728 0 0 0 1.343 3.013l-.009-.013Zm12.133 18.222a4.366 4.366 0 0 0 1.317-3.223 3.81 3.81 0 0 0-1.394-3.086 11.424 11.424 0 0 0-3.967-1.954v10.015c1.818-.287 3.167-.871 4.044-1.752Z"/></g><path fill="#000" d="m394.215 168.733-.895-.155c0-.06 1.02-6.206-2.405-10.557-2.048-2.604-5.271-4.067-9.582-4.351l-.46-.03.039-.465c0-.103.86-10.574-5.387-14.874-6.248-4.299-16.29.633-16.389.68l-.499.25-.142-.538c0-.052-1.445-5.251-6.406-7.983-3.795-2.088-8.64-2.23-14.392-.431l-.271-.861c6.023-1.889 11.092-1.721 15.114.495a14.904 14.904 0 0 1 6.669 8.027 28.824 28.824 0 0 1 5.594-1.829c4.565-.977 8.45-.478 11.234 1.437 2.784 1.915 4.664 5.238 5.443 9.623a26.27 26.27 0 0 1 .365 5.621c4.355.375 7.646 1.941 9.789 4.665 3.674 4.683 2.629 11.009 2.581 11.276Z"/><mask id="k" width="80" height="81" x="321" y="-18" maskUnits="userSpaceOnUse" style="mask-type:luminance"><path fill="#fff" d="M377.465 62.882s2.509-14.452-12.4-15.437c0 0 .973-10.785-5.593-15.287-6.566-4.502-16.849.645-16.849.645s-3.761-14.258-21.371-8.719V-17.09h79.555v67.5l-23.355 12.481.013-.009Z"/></mask><g mask="url(#k)"><path fill="url(#l)" d="M332.451 22.81c-.142-18.454 14.539-34.714 33.307-34.662-3.361.069-8.58-.22-11.828.43a32.952 32.952 0 0 0-19.508 11.06c-19.005 22.006-4.303 57.671 24.774 57.817h6.562c-18.398 0-33.307-15.493-33.307-34.653v.008Z"/><mask id="m" width="41" height="70" x="325" y="-12" maskUnits="userSpaceOnUse" style="mask-type:luminance"><path fill="#fff" d="M332.451 22.81c-.142-18.454 14.539-34.714 33.307-34.662-3.361.069-8.58-.22-11.828.43a32.952 32.952 0 0 0-19.508 11.06c-19.005 22.006-4.303 57.671 24.774 57.817h6.562c-18.398 0-33.307-15.493-33.307-34.653v.008Z"/></mask><g fill="#fff" mask="url(#m)"><path d="M361.481 26.055h-38.134V50.66h38.134V26.055ZM352.626-4.23h-38.134v24.604h38.134V-4.23Z"/></g><path fill="#000" d="M365.758 57.86h-6.549c-13.338-.073-24.718-7.57-30.389-20.056-5.925-13.04-3.872-27.763 5.314-38.424a33.556 33.556 0 0 1 19.749-11.19c2.388-.481 5.8-.456 8.811-.43h3.077v.792h-.947a31.946 31.946 0 0 0-21.874 9.589 34.861 34.861 0 0 0-10.098 24.66c0 18.89 14.766 34.258 32.91 34.258l-.004.8Zm-7.315-69.29a27.361 27.361 0 0 0-4.436.43A32.743 32.743 0 0 0 334.719-.073c-8.997 10.42-10.989 24.82-5.193 37.576 5.447 11.995 16.268 19.277 29.029 19.578-15.132-3.443-26.499-17.486-26.504-34.245a35.628 35.628 0 0 1 10.326-25.224 33.13 33.13 0 0 1 16.071-9.047l-.005.004Z"/><path fill="url(#n)" d="M365.762-11.852c18.398 0 33.306 15.493 33.306 34.662 0 19.169-14.912 34.654-33.306 34.654-18.393 0-33.306-15.494-33.306-34.654 0-19.16 14.917-34.662 33.306-34.662Z"/><mask id="o" width="68" height="70" x="332" y="-12" maskUnits="userSpaceOnUse" style="mask-type:luminance"><path fill="#fff" d="M365.762-11.852c18.398 0 33.306 15.493 33.306 34.662 0 19.169-14.912 34.654-33.306 34.654-18.393 0-33.306-15.494-33.306-34.654 0-19.16 14.917-34.662 33.306-34.662Z"/></mask><g mask="url(#o)"><path fill="#fff" d="M402.328-5.42 335.01 61.918l26.629 26.637 67.319-67.337-26.63-26.638Z"/></g><path fill="#000" d="M365.762 57.864c-18.583 0-33.702-15.726-33.702-35.054 0-19.328 15.119-35.058 33.702-35.058s33.702 15.725 33.702 35.058c0 19.332-15.119 35.054-33.702 35.054Zm0-69.32c-18.144 0-32.906 15.372-32.906 34.266 0 18.893 14.762 34.258 32.906 34.258s32.91-15.369 32.91-34.258c0-18.89-14.766-34.267-32.91-34.267Z"/><path fill="#000" d="M376.42 37.882c-2.043 2.135-5.006 3.426-8.889 3.873v6.34h-4.226V41.81a26.622 26.622 0 0 1-7.215-1.532 15.327 15.327 0 0 1-5.413-3.168l2.319-5.72a16.519 16.519 0 0 0 4.639 2.858 18.926 18.926 0 0 0 5.67 1.442V24.377a35.498 35.498 0 0 1-6.105-2.122 10.753 10.753 0 0 1-4.096-3.4c-1.101-1.49-1.652-3.443-1.652-5.914a10.936 10.936 0 0 1 3.042-7.807c2.028-2.151 4.965-3.443 8.811-3.873v-6.395h4.226v6.283c1.92.113 3.817.475 5.644 1.076a17.9 17.9 0 0 1 4.819 2.376l-2.112 5.715a20.091 20.091 0 0 0-8.347-3.051v11.43a36.95 36.95 0 0 1 6.157 2.1 10.7 10.7 0 0 1 4.122 3.366c1.114 1.49 1.673 3.443 1.673 5.914a10.853 10.853 0 0 1-3.067 7.785v.022Zm-16.978-22.268a11.122 11.122 0 0 0 3.872 1.924V7.468c-1.755.286-3.062.89-3.92 1.811a4.65 4.65 0 0 0-1.29 3.335 3.73 3.73 0 0 0 1.342 3.013l-.004-.013Zm12.133 18.222a4.35 4.35 0 0 0 1.317-3.223 3.824 3.824 0 0 0-1.394-3.086 11.508 11.508 0 0 0-3.967-1.954v10.015c1.824-.301 3.172-.885 4.044-1.752Z"/></g><path fill="#000" d="m377.913 62.96-.891-.155c0-.06 1.02-6.206-2.409-10.557-2.048-2.583-5.271-4.067-9.578-4.351l-.464-.03.043-.465c0-.104.86-10.575-5.392-14.87-6.251-4.295-16.285.629-16.388.68l-.495.245-.146-.538c0-.051-1.446-5.25-6.402-7.983-3.8-2.087-8.64-2.23-14.397-.43l-.271-.861c6.024-1.89 11.092-1.722 15.115.499a14.939 14.939 0 0 1 6.673 8.022 28.499 28.499 0 0 1 5.594-1.824c4.56-.977 8.446-.482 11.234 1.433 2.788 1.915 4.664 5.237 5.438 9.627.324 1.846.447 3.722.366 5.595 4.354.374 7.646 1.941 9.788 4.665 3.67 4.704 2.629 11.03 2.582 11.298Z"/><mask id="p" width="80" height="81" x="143" y="48" maskUnits="userSpaceOnUse" style="mask-type:luminance"><path fill="#fff" d="M166.652 128.674s-2.504-14.452 12.404-15.442c0 0-.972-10.785 5.593-15.287 6.566-4.502 16.849.65 16.849.65s3.761-14.263 21.371-8.72V48.702h-79.563v67.501l23.354 12.481-.008-.009Z"/></mask><g mask="url(#p)"><path fill="url(#q)" d="M211.67 88.614c.142-18.45-14.543-34.71-33.307-34.662 3.361.073 8.58-.215 11.824.43a32.95 32.95 0 0 1 19.512 11.061c19.004 22.01 4.303 57.67-24.774 57.821h-6.562c18.398 0 33.307-15.519 33.307-34.658v.008Z"/><mask id="r" width="41" height="71" x="178" y="53" maskUnits="userSpaceOnUse" style="mask-type:luminance"><path fill="#fff" d="M211.67 88.614c.142-18.45-14.543-34.71-33.307-34.662 3.361.073 8.58-.215 11.824.43a32.95 32.95 0 0 1 19.512 11.061c19.004 22.01 4.303 57.67-24.774 57.821h-6.562c18.398 0 33.307-15.519 33.307-34.658v.008Z"/></mask><g fill="#fff" mask="url(#r)"><path d="M220.774 91.838H182.64v24.604h38.134V91.838ZM229.629 61.552h-38.134v24.605h38.134V61.552Z"/></g><path fill="#000" d="M178.363 123.647v-.796c18.144 0 32.906-15.369 32.906-34.258a34.792 34.792 0 0 0-10.098-24.656 31.945 31.945 0 0 0-21.874-9.593h-.942v-.797h3.072c3.012 0 6.428-.043 8.833.43a33.56 33.56 0 0 1 19.732 11.19c9.203 10.657 11.238 25.393 5.313 38.425-5.67 12.48-17.029 19.978-30.389 20.051l-6.553.004Zm33.698-35.033c0 16.759-11.372 30.807-26.508 34.245 12.761-.301 23.582-7.583 29.034-19.577 5.795-12.757 3.803-27.157-5.193-37.572a32.747 32.747 0 0 0-19.272-10.927 27.232 27.232 0 0 0-4.453-.41 33.133 33.133 0 0 1 16.062 9.017 35.61 35.61 0 0 1 10.33 25.224Z"/><path fill="url(#s)" d="M178.359 53.935c-18.398 0-33.306 15.493-33.306 34.662 0 19.169 14.912 34.658 33.306 34.658s33.302-15.493 33.302-34.658c0-19.164-14.913-34.662-33.302-34.662Z"/><mask id="t" width="67" height="71" x="145" y="53" maskUnits="userSpaceOnUse" style="mask-type:luminance"><path fill="#fff" d="M178.359 53.935c-18.398 0-33.306 15.493-33.306 34.662 0 19.169 14.912 34.658 33.306 34.658s33.302-15.493 33.302-34.658c0-19.164-14.913-34.662-33.302-34.662Z"/></mask><g mask="url(#t)"><path fill="#fff" d="m141.796 60.361-26.63 26.637 67.319 67.338 26.63-26.638-67.319-67.337Z"/></g><path fill="#000" d="M178.359 123.651c-18.587 0-33.706-15.726-33.706-35.054 0-19.328 15.119-35.058 33.706-35.058 18.587 0 33.702 15.709 33.702 35.076 0 19.366-15.119 35.036-33.702 35.036Zm0-69.316c-18.148 0-32.91 15.369-32.91 34.262 0 18.894 14.762 34.258 32.91 34.258 18.148 0 32.906-15.369 32.906-34.258 0-18.889-14.762-34.262-32.906-34.262Z"/><path fill="#000" d="M190.398 103.678c-2.048 2.131-5.013 3.423-8.894 3.873v6.34h-4.225v-6.284a26.76 26.76 0 0 1-7.215-1.528 15.26 15.26 0 0 1-5.409-3.172l2.315-5.715a16.724 16.724 0 0 0 4.638 2.853 19.124 19.124 0 0 0 5.671 1.446V90.172a35.759 35.759 0 0 1-6.105-2.121 10.753 10.753 0 0 1-4.096-3.4c-1.098-1.49-1.648-3.443-1.648-5.914a10.95 10.95 0 0 1 3.042-7.807c2.022-2.152 4.958-3.434 8.807-3.847v-6.4h4.234v6.284c1.92.11 3.818.47 5.645 1.071a17.93 17.93 0 0 1 4.819 2.376l-2.109 5.715a20.08 20.08 0 0 0-8.347-3.051v11.435a36.485 36.485 0 0 1 6.153 2.096 10.686 10.686 0 0 1 4.122 3.366c1.114 1.489 1.678 3.443 1.678 5.913a10.838 10.838 0 0 1-3.068 7.785l-.008.005Zm-16.983-22.272a11.135 11.135 0 0 0 3.873 1.923V73.26c-1.753.287-3.059.89-3.92 1.812a4.672 4.672 0 0 0-1.291 3.335 3.721 3.721 0 0 0 1.338 2.991v.009Zm12.138 18.226a4.379 4.379 0 0 0 1.291-3.228 3.825 3.825 0 0 0-1.39-3.081 11.457 11.457 0 0 0-3.971-1.958v10.019c1.824-.307 3.174-.891 4.048-1.752h.022Z"/></g><path fill="#000" d="M166.209 128.752c-.048-.267-1.093-6.598 2.581-11.272 2.151-2.72 5.43-4.304 9.784-4.665a26.347 26.347 0 0 1 .37-5.595c.775-4.386 2.655-7.717 5.439-9.628 2.783-1.91 6.673-2.41 11.234-1.433a28.829 28.829 0 0 1 5.593 1.825 14.938 14.938 0 0 1 6.673-8.022c4.023-2.221 9.109-2.389 15.115-.5l-.271.861c-5.757-1.812-10.601-1.67-14.396.43-4.961 2.73-6.394 7.932-6.407 7.984l-.142.538-.499-.25c-.099-.051-10.128-4.983-16.388-.68-6.261 4.304-5.396 14.767-5.387 14.874l.043.461-.465.03c-4.302.288-7.534 1.752-9.582 4.351-3.442 4.351-2.413 10.497-2.405 10.561l-.89.13Z"/><mask id="u" width="63" height="63" x="266" y="31" maskUnits="userSpaceOnUse" style="mask-type:luminance"><path fill="#fff" d="M284.693 93.835s-1.941-11.19 9.599-11.952c0 0-.753-8.345 4.303-11.835 5.055-3.49 13.036.504 13.036.504s2.913-11.04 16.548-6.753V31.951h-61.557V84.2l18.071 9.636Z"/></mask><g mask="url(#u)"><path fill="url(#v)" d="M319.531 62.814c.112-14.28-11.251-26.869-25.777-26.83 2.603.056 6.643-.168 9.152.336a25.476 25.476 0 0 1 15.102 8.564c14.71 17.034 3.339 44.63-19.177 44.76h-5.077c14.242 0 25.777-12.013 25.777-26.822v-.008Z"/><mask id="w" width="32" height="55" x="293" y="35" maskUnits="userSpaceOnUse" style="mask-type:luminance"><path fill="#fff" d="M319.531 62.814c.112-14.28-11.251-26.869-25.777-26.83 2.603.056 6.643-.168 9.152.336a25.476 25.476 0 0 1 15.102 8.564c14.71 17.034 3.339 44.63-19.177 44.76h-5.077c14.242 0 25.777-12.013 25.777-26.822v-.008Z"/></mask><g fill="#fff" mask="url(#w)"><path d="M326.583 65.323h-29.516v19.044h29.516V65.323ZM333.437 41.884h-29.516v19.044h29.516V41.884Z"/></g><path fill="#000" d="M293.754 89.944v-.615c14.044 0 25.472-11.896 25.472-26.515a26.953 26.953 0 0 0-7.818-19.083 24.716 24.716 0 0 0-16.914-7.424h-.744v-.629h2.396c2.324 0 4.961-.034 6.816.34a25.944 25.944 0 0 1 15.278 8.664c7.121 8.246 8.7 19.642 4.114 29.739-4.389 9.666-13.184 15.467-23.523 15.523h-5.077Zm26.087-27.113c0 12.967-8.795 23.838-20.506 26.507 9.874-.237 18.243-5.875 22.459-15.154 4.488-9.873 2.947-21.02-4.018-29.085a25.34 25.34 0 0 0-14.93-8.474 21.287 21.287 0 0 0-3.442-.314 25.627 25.627 0 0 1 12.417 6.98 27.542 27.542 0 0 1 7.994 19.523l.026.017Z"/><path fill="url(#x)" d="M293.75 35.988c-14.242 0-25.777 12.012-25.777 26.83 0 14.818 11.54 26.821 25.777 26.821 14.237 0 25.777-12.007 25.777-26.821 0-14.814-11.54-26.83-25.777-26.83Z"/><mask id="y" width="53" height="55" x="267" y="35" maskUnits="userSpaceOnUse" style="mask-type:luminance"><path fill="#fff" d="M293.75 35.988c-14.242 0-25.777 12.012-25.777 26.83 0 14.818 11.54 26.821 25.777 26.821 14.237 0 25.777-12.007 25.777-26.821 0-14.814-11.54-26.83-25.777-26.83Z"/></mask><g mask="url(#y)"><path fill="#fff" d="m265.454 40.966-20.612 20.618 52.101 52.115 20.612-20.618-52.101-52.115Z"/></g><path fill="#000" d="M293.75 89.949c-14.384 0-26.087-12.171-26.087-27.114 0-14.943 11.703-27.114 26.087-27.114 14.383 0 26.086 12.172 26.086 27.114 0 14.943-11.703 27.114-26.086 27.114Zm0-53.65c-14.044 0-25.471 11.895-25.471 26.519 0 14.624 11.427 26.515 25.471 26.515s25.467-11.895 25.467-26.515c0-14.62-11.423-26.52-25.467-26.52Z"/><path fill="#000" d="M303.065 74.481c-1.583 1.647-3.878 2.651-6.884 3.013v4.91h-3.27v-4.863a20.642 20.642 0 0 1-5.593-1.183 11.882 11.882 0 0 1-4.187-2.454l1.799-4.424a13.01 13.01 0 0 0 3.588 2.212c1.397.597 2.877.974 4.389 1.12V64.04a27.853 27.853 0 0 1-4.733-1.644 8.221 8.221 0 0 1-3.167-2.625c-.86-1.148-1.291-2.674-1.291-4.58a8.5 8.5 0 0 1 2.354-6.025c1.572-1.664 3.845-2.656 6.819-2.978v-4.945h3.27v4.86c1.487.086 2.957.365 4.372.83a14.022 14.022 0 0 1 3.73 1.837l-1.635 4.429a15.672 15.672 0 0 0-6.454-2.367v8.849c1.632.399 3.226.94 4.763 1.618a8.333 8.333 0 0 1 3.193 2.608c.86 1.147 1.291 2.674 1.291 4.579a8.362 8.362 0 0 1-2.376 6.025l.022-.03Zm-13.127-17.236a8.758 8.758 0 0 0 3.012 1.489v-7.799c-1.357.233-2.368.699-3.034 1.399a3.635 3.635 0 0 0-.998 2.582 2.87 2.87 0 0 0 1.037 2.316l-.017.013Zm9.392 14.099a3.357 3.357 0 0 0 1.02-2.497 2.95 2.95 0 0 0-1.08-2.384 8.805 8.805 0 0 0-3.072-1.506v7.747c1.407-.233 2.453-.685 3.128-1.356l.004-.004Z"/></g><path fill="#000" d="M284.345 93.895c-.035-.21-.861-5.108 2-8.724 1.657-2.104 4.2-3.318 7.573-3.61-.086-1.666-.151-8.608 4.492-11.801 4.642-3.194 11.358-.43 13.024.301a11.555 11.555 0 0 1 5.163-6.21c3.115-1.722 7.052-1.847 11.698-.383l-.21.667c-4.454-1.403-8.205-1.291-11.14.322a11.028 11.028 0 0 0-4.961 6.18l-.112.431-.382-.194c-.078-.038-7.844-3.873-12.684-.525-4.841 3.349-4.178 11.435-4.17 11.517l.03.353-.357.026c-3.334.22-5.83 1.356-7.417 3.37-2.651 3.374-1.868 8.125-1.859 8.177l-.688.103Z"/><mask id="z" width="59" height="58" x="220" y="-26" maskUnits="userSpaceOnUse" style="mask-type:luminance"><path fill="#fff" d="M237.713 31.934s-1.803-10.407 8.932-11.121c0 0-.701-7.747 4.019-11.009 4.72-3.262 12.129.473 12.129.473s2.711-10.268 15.39-6.279V-25.65h-57.284v48.606l16.814 8.978Z"/></mask><g mask="url(#z)"><path fill="url(#A)" d="M270.146 3.077c.099-13.29-10.468-24.996-23.987-24.962 2.423.052 6.179-.154 8.515.315a23.715 23.715 0 0 1 14.048 7.966c13.691 15.85 3.102 41.523-17.839 41.634h-4.732c13.247 0 23.987-11.19 23.987-24.961l.008.008Z"/><mask id="B" width="29" height="51" x="246" y="-22" maskUnits="userSpaceOnUse" style="mask-type:luminance"><path fill="#fff" d="M270.146 3.077c.099-13.29-10.468-24.996-23.987-24.962 2.423.052 6.179-.154 8.515.315a23.715 23.715 0 0 1 14.048 7.966c13.691 15.85 3.102 41.523-17.839 41.634h-4.732c13.247 0 23.987-11.19 23.987-24.961l.008.008Z"/></mask><g fill="#fff" mask="url(#B)"><path d="M276.682 5.414h-27.459v17.719h27.459V5.414ZM283.058-16.393h-27.459V1.326h27.459v-17.72Z"/></g><path fill="#000" d="M246.138 28.315v-.573c13.067 0 23.698-11.065 23.698-24.669a25.077 25.077 0 0 0-7.271-17.757 23.02 23.02 0 0 0-15.76-6.886h-.672v-.573h2.208c2.151 0 4.629-.03 6.363.319a24.165 24.165 0 0 1 14.199 8.056c6.626 7.678 8.093 18.279 3.825 27.67-4.084 8.99-12.263 14.387-21.883 14.438l-4.707-.025Zm24.271-25.242c0 12.05-8.175 22.19-19.091 24.665 9.19-.215 16.982-5.462 20.906-14.1 4.174-9.183 2.741-19.551-3.739-27.057a23.563 23.563 0 0 0-13.876-7.867 19.745 19.745 0 0 0-3.209-.297 23.864 23.864 0 0 1 11.574 6.498 25.662 25.662 0 0 1 7.435 18.162v-.004Z"/><path fill="url(#C)" d="M246.142-21.88c-13.248 0-23.983 11.19-23.983 24.962s10.757 24.962 23.983 24.962 23.987-11.19 23.987-24.962S259.39-21.88 246.142-21.88Z"/><mask id="D" width="49" height="51" x="222" y="-22" maskUnits="userSpaceOnUse" style="mask-type:luminance"><path fill="#fff" d="M246.142-21.88c-13.248 0-23.983 11.19-23.983 24.962s10.757 24.962 23.983 24.962 23.987-11.19 23.987-24.962S259.39-21.88 246.142-21.88Z"/></mask><g mask="url(#D)"><path fill="#fff" d="M219.814-17.254 200.638 1.927l48.474 48.488 19.176-19.181-48.474-48.488Z"/></g><path fill="#000" d="M246.142 28.319c-13.381 0-24.271-11.32-24.271-25.237 0-13.919 10.89-25.246 24.271-25.246s24.271 11.323 24.271 25.246c0 13.922-10.886 25.237-24.271 25.237Zm0-49.924c-13.067 0-23.699 11.07-23.699 24.674s10.632 24.665 23.699 24.665c13.067 0 23.703-11.066 23.703-24.665 0-13.6-10.632-24.66-23.703-24.66v-.014Z"/><path fill="#000" d="M254.803 13.931c-1.472 1.536-3.604 2.465-6.398 2.79v4.566h-3.042v-4.524a19.328 19.328 0 0 1-5.193-1.097 11.096 11.096 0 0 1-3.898-2.285l1.669-4.12a11.88 11.88 0 0 0 3.343 2.058c1.299.552 2.675.901 4.079 1.037V4.205a25.807 25.807 0 0 1-4.397-1.528 7.742 7.742 0 0 1-2.952-2.449c-.791-1.073-1.189-2.492-1.192-4.256a7.923 7.923 0 0 1 2.186-5.625c1.46-1.55 3.576-2.473 6.346-2.772v-4.605h3.042v4.506c1.383.082 2.75.342 4.066.775 1.237.395 2.406.976 3.468 1.721l-1.527 4.115a14.522 14.522 0 0 0-6.024-2.2V.122a26.65 26.65 0 0 1 4.436 1.506 7.72 7.72 0 0 1 2.965 2.427c.803 1.073 1.204 2.492 1.204 4.257a7.792 7.792 0 0 1-2.207 5.595l.026.025ZM242.579-2.104a8.023 8.023 0 0 0 2.784 1.385V-7.97a4.911 4.911 0 0 0-2.818 1.29 3.353 3.353 0 0 0-.929 2.406 2.683 2.683 0 0 0 .968 2.152l-.005.018Zm8.739 13.117a3.12 3.12 0 0 0 .946-2.323 2.745 2.745 0 0 0-1.002-2.221 8.301 8.301 0 0 0-2.857-1.408v7.21c1.314-.216 2.285-.636 2.913-1.262v.005Z"/></g><path fill="#000" d="M237.391 31.99c-.031-.194-.784-4.734 1.863-8.117 1.54-1.958 3.911-3.09 7.043-3.361-.078-1.554-.133-8.014 4.182-10.975 4.315-2.96 10.567-.43 12.116.284a10.76 10.76 0 0 1 4.802-5.78c2.9-1.597 6.561-1.721 10.885-.357l-.198.624c-4.147-1.291-7.637-1.2-10.369.306a10.252 10.252 0 0 0-4.608 5.745l-.099.387-.361-.18c-.073-.035-7.315-3.59-11.798-.49-4.483 3.098-3.872 10.634-3.872 10.707l.03.335h-.332c-3.102.207-5.421 1.262-6.884 3.134-2.465 3.133-1.742 7.561-1.721 7.604l-.679.134Z"/><path fill="url(#E)" d="M121.806 202.871s43.353 95.087 56.299 150.601c0 0-19.301 13.204-41.279 2.733 0 0-34.377-113.787-37.05-113.451-2.671.335 7.707 52.17 10.198 115.366 0 0-16.81 9.107-38.951 0 0 0-9.771-56.082-11.574-162.531l62.357 7.286v-.004Z"/><mask id="F" width="120" height="168" x="59" y="195" maskUnits="userSpaceOnUse" style="mask-type:luminance"><path fill="#fff" d="M121.806 202.871s43.353 95.087 56.299 150.601c0 0-19.301 13.204-41.279 2.733 0 0-34.377-113.787-37.05-113.451-2.671.335 7.707 52.17 10.198 115.366 0 0-16.81 9.107-38.951 0 0 0-9.771-56.082-11.574-162.531l62.357 7.286v-.004Z"/></mask><g mask="url(#F)"><path fill="#000" d="M84.965 225.103c21.179-3.857 37.019-14.281 35.38-23.282-1.638-9-20.135-13.17-41.313-9.312-21.178 3.857-37.018 14.281-35.38 23.281 1.639 9.001 20.135 13.17 41.313 9.313Z"/></g><path fill="#000" d="M91.02 362.48a48.67 48.67 0 0 0 7.832-.628c6.944-1.132 11.234-3.443 11.277-3.443l.176-.095v-.202c-1.463-37.086-5.593-69.777-8.304-91.408-1.557-12.39-2.8-22.259-2.186-23.55 2.823 3.206 23.393 69.062 36.71 113.146l.039.137.129.061c11.445 5.453 22.145 4.415 29.107 2.582a44.56 44.56 0 0 0 12.477-5.337l.181-.125-.052-.215c-12.804-54.907-55.886-149.71-56.32-150.662l-.616-1.351v1.128l-62.361-7.287v.371c.933 54.997 4.031 96.27 6.453 121.206 2.638 27.028 5.086 41.231 5.112 41.373l.03.176.164.064a52.662 52.662 0 0 0 20.153 4.059Zm18.627-4.553c-1.85.916-17.882 8.306-38.336-.035-.289-1.721-2.582-15.769-5.082-41.161-2.426-24.867-5.511-65.994-6.453-120.777l61.806 7.218c2.074 4.566 43.559 96.378 56.157 150.154-2.017 1.291-20.278 12.27-40.65 2.647-.659-2.178-8.971-29.636-17.482-56.715-17.933-57.06-19.189-56.909-19.873-56.81-.684.099-.968 1.162-.43 6.804.378 4.119 1.122 10.041 2.069 17.538 2.693 21.571 6.802 54.163 8.287 91.137h-.013Z"/><path fill="url(#G)" d="M180.652 149.909c1.291 18.562-25.974 43.283-48.619 48 0 0-23.402 40.395-82.278 8.684 0 0-43.753 16.536-48.955-9.179-5.783-28.582 45.28-52.567 67.026-60.683 21.745-8.117 67.791-3.577 67.791-3.577l7.315 20.413 33.457-2.501 4.272-1.166-.009.009Z"/><mask id="H" width="181" height="88" x="0" y="131" maskUnits="userSpaceOnUse" style="mask-type:luminance"><path fill="#fff" d="M180.652 149.909c1.291 18.562-25.974 43.283-48.619 48 0 0-23.402 40.395-82.278 8.684 0 0-43.753 16.536-48.955-9.179-5.783-28.582 45.28-52.567 67.026-60.683 21.745-8.117 67.791-3.577 67.791-3.577l7.315 20.413 33.457-2.501 4.272-1.166-.009.009Z"/></mask><g mask="url(#H)"><path fill="url(#I)" d="M165.163 154.552c1.911 17.108-9.547 29.455-29.184 38.898 23.845-8.754 34.494-17.357 40.289-40.314l-11.105 1.416Z"/></g><path fill="#000" d="M91.33 219.061a51.155 51.155 0 0 0 21.755-4.626c12.357-5.737 18.397-15.063 19.129-16.238 10.95-2.32 23.384-9.361 33.298-18.864 10.412-9.98 16.04-20.709 15.437-29.446h-.322l-.082-.297-4.238 1.158-33.186 2.479-7.289-20.374-.202-.022c-.46-.043-46.369-4.445-67.938 3.594-5.984 2.234-26.843 10.462-43.912 22.698C5.774 172.034-2.07 184.945.465 197.461c1.07 5.298 3.872 9.219 8.26 11.654 13.605 7.523 38.874-1.411 40.983-2.182 13.424 7.214 26.108 11.246 37.699 11.991 1.32.094 2.629.137 3.924.137Zm89-68.731c.391 8.47-5.163 18.842-15.262 28.539-9.87 9.468-22.252 16.461-33.129 18.725l-.138.03-.073.125c-.06.099-5.972 10.101-18.932 16.118-7.619 3.529-16.152 5.018-25.36 4.424-11.53-.744-24.158-4.777-37.535-11.982l-.129-.068-.138.051c-.266.099-26.71 9.946-40.586 2.273-4.238-2.342-6.91-6.116-7.942-11.216-2.479-12.261 5.279-24.962 23.061-37.688 17.004-12.188 37.794-20.396 43.762-22.616 20.7-7.717 64.109-3.874 67.447-3.577l7.315 20.452 33.766-2.531 3.873-1.059Z"/><path fill="#000" d="M68.656 185.742c7.852 8.517 13.441-1.124 6.183-11.509-7.259-10.385-11.243-5.384-11.243-5.384l5.06 16.897v-.004ZM164.027 166.827c10.137-2.101 21.203-15.576 15.231-21.179-5.972-5.604-17.709 2.582-17.709 2.582l2.478 18.597Z"/><path fill="url(#J)" d="M60.34 101.151c.309-13.772 9.233-18.131 17.313-17.645 7.972.482 13.075 7.136 14.732 21.2 1.75 14.853-5.099 19.634-10.989 20.392l2.005 11.646c1.721 8.345-13.69 9.752-15.597 0l-3.872-22.574a6.954 6.954 0 0 1-6.114.387 6.969 6.969 0 0 1 2.538-13.406h-.017Z"/><path fill="#000" d="M76.496 143.832c2.125 0 4.173-.65 5.546-1.864a5.336 5.336 0 0 0 1.656-5.289l-1.953-11.328c4.195-.637 12.907-3.963 10.937-20.658-1.618-13.737-6.67-20.959-15.012-21.462-4.814-.293-9.177 1.119-12.27 3.972-3.365 3.099-5.164 7.7-5.353 13.682a7.271 7.271 0 0 0 .43 14.525 7.32 7.32 0 0 0 3.218-.758l3.817 22.16a8.331 8.331 0 0 0 5.718 6.512 10.23 10.23 0 0 0 3.266.508Zm-.052-60.063c.391 0 .787 0 1.192.034 8.011.486 12.873 7.532 14.452 20.938 1.962 16.612-6.85 19.56-10.73 20.06l-.31.038 2.06 11.952c.392 1.902-.111 3.533-1.462 4.734-1.932 1.721-5.31 2.208-8.222 1.218a7.779 7.779 0 0 1-5.327-6.051l-3.954-22.982-.37.211a6.667 6.667 0 0 1-6.652-.025 6.672 6.672 0 0 1-3.317-5.768 6.633 6.633 0 0 1 6.548-6.671v-.297h.289c.133-5.948 1.871-10.501 5.163-13.535 2.719-2.51 6.462-3.856 10.64-3.856Z"/><path fill="#000" d="M81.396 124.792c-3.476.43-8.149-1.692-11.186-4.846 0 0 3.011 9.817 12.047 9.817l-.86-4.971ZM60.847 101.681c3.618.86 5.227 5.323 5.227 5.323a101.52 101.52 0 0 0 0-16.436s3.012 3.723 6.321 3.233c3.309-.491 3.304-4.076 3.304-4.076s3.159 2.25 5.757 2.182c2.599-.069 2.25-3.796 2.25-3.796a6 6 0 0 0 5.749 4.566s-.34-11.095-17.55-9.76c-17.21 1.334-14.113 19.104-14.113 19.104a4.531 4.531 0 0 1 3.076-.332l-.021-.008ZM56.901 111.424a.275.275 0 0 0 .16-.051.287.287 0 0 0 .12-.183.276.276 0 0 0-.047-.213 4.432 4.432 0 0 1-.47-3.96 2.671 2.671 0 0 1 1.894-1.721 2.956 2.956 0 0 1 3.046 1.016c.396.451.708.97.921 1.532a.29.29 0 0 0 .361.18.288.288 0 0 0 .177-.365c0-.035-1.291-3.672-4.63-2.923a3.216 3.216 0 0 0-2.297 2.075 4.948 4.948 0 0 0 .529 4.493.29.29 0 0 0 .237.12ZM88.887 102.425c-.684 0-1.24 1.39-1.24 3.108 0 1.717.556 3.107 1.24 3.107.684 0 1.239-1.39 1.239-3.107 0-1.718-.555-3.108-1.24-3.108Z"/><path fill="#000" d="M88.28 102.817c.71-1.747 2.646-1.231 2.935.555l-2.935-.555ZM78.483 110.448c.685 0 1.24-1.392 1.24-3.108 0-1.716-.555-3.107-1.24-3.107-.684 0-1.239 1.391-1.239 3.107 0 1.716.555 3.108 1.24 3.108Z"/><path fill="#000" d="M77.872 104.637c.71-1.721 2.646-1.226 2.935.555l-2.935-.555ZM73.884 103.028a.29.29 0 0 0 .284-.254c.464-4.196 2.74-4.709 3.442-4.769a2.469 2.469 0 0 1 2.624 1.692.28.28 0 0 0 .452.142.284.284 0 0 0 .095-.302 3.038 3.038 0 0 0-3.219-2.1c-1.639.138-3.54 1.597-3.95 5.272a.29.29 0 0 0 .255.319h.017ZM85.565 99.761h.026a.288.288 0 0 0 .258-.31c-.107-1.26.86-2.582 1.992-2.806 1.089-.198 1.993.689 2.479 2.428a.284.284 0 0 0 .353.198.285.285 0 0 0 .197-.353c-.568-2.028-1.72-3.086-3.132-2.837-1.411.25-2.581 1.86-2.457 3.418a.284.284 0 0 0 .284.262ZM82.885 113.787h.047c.133 0 3.283-.538 3.713-2.32.43-1.781-2.38-3.826-2.495-3.912a.288.288 0 0 0-.45.281c.012.074.053.14.114.184.732.525 2.582 2.152 2.276 3.314-.305 1.162-2.44 1.76-3.248 1.889a.287.287 0 0 0-.234.302.283.283 0 0 0 .277.262Z"/><path fill="url(#K)" d="M85.212 111.597s-2.693 1.231-2.925.542c-.233-.689.77-3.013 1.462-3.181.693-.167 2.208 1.95 1.463 2.643v-.004Z"/><path fill="#000" d="M82.222 116.821a6.47 6.47 0 0 0 2.186-.34.287.287 0 0 0 .016-.527.285.285 0 0 0-.218-.006c-.15.056-3.705 1.351-7.293-1.868a.287.287 0 0 0-.479.232.286.286 0 0 0 .096.198 8.399 8.399 0 0 0 5.692 2.311Z"/><path fill="url(#L)" d="M59.449 164.029s8.325-9.059 12.202-14.594c2.46-3.516 22.554-6.662 29.688-11.934 2.388-1.765 3.898 2.642 0 6.025-3.899 3.383-10.142 4.127-10.142 4.127s3.834 9.439 2.582 11.19c-1.252 1.752-4.905 1.257-4.905 1.257s-.675 3.013-4.238 2.892c0 0 .671 3.775-7.925 4.407-.947 2.707-3.012 3.848-6.14 3.443l-1.721 14.659s-10.15-10.273-9.401-21.472Z"/><path fill="#000" d="m69.108 186.202 1.721-14.981c3.06.288 5.107-.891 6.093-3.508 3.708-.297 6.187-1.213 7.357-2.72a3.013 3.013 0 0 0 .663-1.665 4.262 4.262 0 0 0 4.143-2.875c.86.086 3.773.219 4.93-1.407.216-.302.861-1.223-.774-6.525a71.685 71.685 0 0 0-1.626-4.605c1.437-.219 6.505-1.175 9.917-4.149 2.737-2.38 2.913-5.25 1.988-6.399-.43-.564-1.291-.883-2.362-.108-3.636 2.681-10.757 4.837-17.051 6.74-6.153 1.863-11.462 3.473-12.719 5.263-3.82 5.457-12.094 14.474-12.176 14.564l-.069.078v.107c-.748 11.19 9.414 21.639 9.517 21.747l.448.443Zm1.218-15.644-1.665 14.31c-1.92-2.122-9.5-11.147-8.92-20.714.826-.899 8.502-9.33 12.155-14.547 1.136-1.622 6.609-3.279 12.4-5.035 6.338-1.915 13.514-4.089 17.236-6.83.624-.461 1.171-.461 1.536 0 .758.938.508 3.469-1.91 5.595-3.782 3.297-9.896 4.05-9.978 4.054l-.391.047.146.362c1.459 3.594 3.442 9.731 2.612 10.914-1.136 1.597-4.583 1.141-4.617 1.136l-.275-.038-.06.271c-.026.112-.659 2.771-3.938 2.66h-.365l.064.361a2.176 2.176 0 0 1-.55 1.575c-.749.947-2.582 2.152-7.104 2.484h-.198l-.064.185c-.895 2.582-2.797 3.632-5.817 3.262l-.297-.052Z"/><path fill="#000" d="M89.175 160.216c.641-2.117-2.397-10.079-2.526-10.419l-.559.215c.86 2.251 3.012 8.435 2.513 10.032l.572.172ZM84.817 164.034c.64-2.118-2.418-10.218-2.552-10.562l-.56.211c.861 2.29 3.013 8.578 2.54 10.174l.572.177ZM77.73 162.712l.512-.305c-1.39-2.337-1.72-5.926-1.72-5.965l-.595.051c.022.151.34 3.762 1.803 6.219Z"/><path fill="#000" d="m76.702 167.726.039-.594c-.581-.038-1.351-.198-1.721-.736a1.796 1.796 0 0 1-.095-1.579c.508-1.722 4.066-2.393 4.1-2.397l-.107-.59c-.164.03-3.954.757-4.57 2.819a2.356 2.356 0 0 0 .181 2.092c.4.576 1.14.921 2.173.985ZM158.202 120.962l-56.442 14.361a1.294 1.294 0 0 0-.994 1.27v36.328a1.328 1.328 0 0 0 .527 1.05 1.319 1.319 0 0 0 1.156.211l56.441-16.488a1.314 1.314 0 0 0 .947-1.261v-34.198a1.316 1.316 0 0 0-1.64-1.291l.005.018Z"/><path fill="url(#M)" d="M164.079 166.512s4.036-24.531 4.548-27.083c.512-2.552-8.786-13.084-8.786-13.084v6.749s-4.187 1.661-11.398.551c-2.581-.401-4.139 2.883-2.108 4.506.069.051.142.107.22.159 0 0-3.064.305-3.576 2.453-.512 2.148 1.941 4.192 1.941 4.192s-2.182.099-2.014 2.759c.168 2.659 2.418 2.961 2.418 2.961s-1.325 1.721-.43 3.477c.658 1.24 5.894 3.516 12.477 1.631a.782.782 0 0 1 .702.981 1.616 1.616 0 0 1-1.141 1.292l-10.412 3.262s3.132 7.966 17.525 5.194h.034Z"/><path fill="#000" d="M158.455 167.399a30.095 30.095 0 0 0 5.68-.581l.245-.047v-.228c.146-.891 4.04-24.566 4.539-27.049.529-2.626-7.895-12.253-8.854-13.342l-.525-.59v7.317c-.887.292-4.858 1.42-11.054.464a2.911 2.911 0 0 0-3.115 1.752 2.708 2.708 0 0 0 .512 3.039c-.989.223-2.779.86-3.179 2.582-.401 1.721.899 3.361 1.613 4.088a2.424 2.424 0 0 0-1.045.68 2.97 2.97 0 0 0-.65 2.268 3.302 3.302 0 0 0 2.246 3.129 3.555 3.555 0 0 0-.545 1.696 3.548 3.548 0 0 0 .343 1.747c.722 1.369 6.088 3.676 12.761 1.795.331.082.43.271.396.637a1.3 1.3 0 0 1-.315.66c-.165.186-.38.322-.619.39l-10.718 3.357.121.297c.013.047 2.461 5.939 12.163 5.939Zm5.361-1.132c-7.181 1.343-11.41-.086-13.699-1.532a8.989 8.989 0 0 1-3.141-3.228l10.081-3.154c.346-.105.656-.305.895-.577a1.94 1.94 0 0 0 .452-.964 1.09 1.09 0 0 0-.51-1.179 1.075 1.075 0 0 0-.433-.142h-.137c-6.454 1.85-11.557-.375-12.142-1.481-.818-1.545.37-3.142.383-3.154l.31-.409-.508-.069c-.082 0-2.005-.319-2.151-2.686a2.437 2.437 0 0 1 .494-1.837 1.96 1.96 0 0 1 1.231-.607l.77-.035-.589-.49c-.026 0-2.302-1.95-1.842-3.874.461-1.924 3.287-2.221 3.313-2.225l.8-.077-.658-.465c-.073-.052-.142-.099-.206-.151a2.113 2.113 0 0 1-.616-2.582 2.324 2.324 0 0 1 2.492-1.39c7.211 1.11 11.38-.495 11.552-.564l.189-.077v-6.155c3.662 4.214 8.532 10.544 8.175 12.232-.469 2.388-4.113 24.509-4.505 26.872Z"/><path fill="#000" d="M152.737 139.515c5.262 0 8.339-2.053 8.511-2.152l-.34-.49a12.967 12.967 0 0 1-3.821 1.532 20.261 20.261 0 0 1-10.451-.362l-.168.573c2.038.59 4.148.893 6.269.899ZM150.689 145.953c5.266 0 8.343-2.048 8.515-2.151l-.34-.491a12.967 12.967 0 0 1-3.821 1.532 20.277 20.277 0 0 1-10.455-.361l-.163.572c2.036.59 4.144.893 6.264.899ZM150.478 151.381c5.482 0 8.541-1.722 8.704-1.817l-.296-.516c-.052.03-5.245 2.935-14.139 1.14l-.116.586c1.924.396 3.883.599 5.847.607ZM49.854 206.865c16.35-7.79 21.259-13.148 27.472-19.931l-.43-.405c-6.166 6.736-11.037 12.051-27.287 19.798l.245.538ZM34.902 178.047c16.445-6.796 24.663-13.721 24.74-13.772l-.387-.457c-.078.069-8.23 6.938-24.58 13.691l.227.538ZM132.278 198.046c1.063-2.113 1.149-3.981.259-5.539-2.087-3.645-8.816-4.424-10.254-4.553-.946-12.421-7.546-22.47-7.611-22.569l-.499.331c.065.099 6.669 10.162 7.534 22.539v.259h.262c.078 0 7.9.55 10.03 4.273.787 1.377.697 3.047-.271 4.975l.55.284Z"/><path fill="#000" d="M61.204 199.518a7.038 7.038 0 0 0 3.012-.684l-.254-.542c-3.012 1.415-5.86.163-7.745-1.132-5.649-3.93-10.102-13.389-9.525-20.25.189-2.263 1.045-5.259 4.048-6.67l-.254-.543c-2.581 1.214-4.1 3.693-4.392 7.166-.59 7.041 3.98 16.755 9.784 20.787 1.811 1.24 3.605 1.868 5.326 1.868ZM156.45 176.919c8.175 0 15.842-5.165 15.92-5.229l-.34-.495c-.108.073-10.868 7.295-20.222 4.472-4.681-1.412-8.265-5.092-10.653-10.945l-.555.228c2.461 6.026 6.174 9.826 11.036 11.289 1.563.462 3.185.691 4.814.68ZM99.764 242.754c10.825-2.867 15.889-5.165 16.543-2.462.654 2.703-9.409 20.163-9.409 20.163l-7.134-17.701ZM78.681 354.221l.59-.086c-3.726-26.528-6.067-59.246-7.37-82.021-1.412-24.678-1.95-43.322-1.958-43.507h-.594c0 .185.542 18.838 1.953 43.524 1.3 22.806 3.636 55.54 7.38 82.09ZM170.959 348.248l.572-.168c-11.071-38.368-24.323-74.085-39.39-106.165l-.538.254c15.059 32.05 28.294 67.741 39.356 106.079Z"/><path fill="#DBCAFF" d="m374.866 288.524-16.233-20.989a2.776 2.776 0 0 0-3.416-.791c-.38.186-.713.456-.973.791l-16.233 20.989a2.767 2.767 0 0 0-.3 2.919 2.767 2.767 0 0 0 2.49 1.553h4.147a2.759 2.759 0 0 1 1.96.811 2.773 2.773 0 0 1 .811 1.96v50.1a9.311 9.311 0 0 0 2.73 6.591 9.318 9.318 0 0 0 15.905-6.591v-50.1a2.759 2.759 0 0 1 .813-1.961 2.773 2.773 0 0 1 1.962-.81h4.148a2.769 2.769 0 0 0 2.757-3.055 2.767 2.767 0 0 0-.568-1.417ZM229.108 255.721l-13.725-17.744a2.342 2.342 0 0 0-2.884-.671 2.342 2.342 0 0 0-.821.671l-13.729 17.744a2.345 2.345 0 0 0 1.854 3.779h3.507a2.342 2.342 0 0 1 2.345 2.341v42.353a7.87 7.87 0 0 0 4.86 7.277 7.885 7.885 0 0 0 8.584-1.706 7.874 7.874 0 0 0 2.307-5.571v-42.353a2.346 2.346 0 0 1 2.345-2.341h3.507a2.342 2.342 0 0 0 2.1-1.314 2.352 2.352 0 0 0-.25-2.465ZM104.183-9.817l-16.987-21.95a2.901 2.901 0 0 0-4.587 0L65.627-9.816a2.902 2.902 0 0 0 2.293 4.674h4.337a2.9 2.9 0 0 1 2.9 2.9v52.408a9.751 9.751 0 0 0 6.016 9.006 9.742 9.742 0 0 0 10.622-2.113 9.753 9.753 0 0 0 2.857-6.893V-2.242a2.896 2.896 0 0 1 2.896-2.901h4.341a2.9 2.9 0 0 0 2.294-4.674Z"/></g><defs><linearGradient id="c" x1="143.302" x2="430.921" y1="257.963" y2="257.963" gradientUnits="userSpaceOnUse"><stop offset=".1" stop-color="#FFE05F"/><stop offset=".14" stop-color="#FFE167"/><stop offset=".52" stop-color="#FFF1B8"/><stop offset=".78" stop-color="#FFFBEB"/><stop offset=".92" stop-color="#fff"/></linearGradient><linearGradient id="e" x1="178.789" x2="278.88" y1="275.303" y2="275.303" gradientUnits="userSpaceOnUse"><stop offset=".1" stop-color="#FFE05F"/><stop offset=".14" stop-color="#FFE167"/><stop offset=".52" stop-color="#FFF1B8"/><stop offset=".78" stop-color="#FFFBEB"/><stop offset=".92" stop-color="#fff"/></linearGradient><linearGradient id="g" x1="342.193" x2="382.065" y1="128.575" y2="128.575" gradientUnits="userSpaceOnUse"><stop offset=".1" stop-color="#FFE05F"/><stop offset=".14" stop-color="#FFE167"/><stop offset=".52" stop-color="#FFF1B8"/><stop offset=".78" stop-color="#FFFBEB"/><stop offset=".92" stop-color="#fff"/></linearGradient><linearGradient id="i" x1="348.758" x2="415.371" y1="128.584" y2="128.584" gradientUnits="userSpaceOnUse"><stop offset=".1" stop-color="#FFE05F"/><stop offset=".14" stop-color="#FFE167"/><stop offset=".52" stop-color="#FFF1B8"/><stop offset=".78" stop-color="#FFFBEB"/><stop offset=".92" stop-color="#fff"/></linearGradient><linearGradient id="l" x1="325.886" x2="365.758" y1="22.802" y2="22.802" gradientUnits="userSpaceOnUse"><stop offset=".1" stop-color="#FFE05F"/><stop offset=".14" stop-color="#FFE167"/><stop offset=".52" stop-color="#FFF1B8"/><stop offset=".78" stop-color="#FFFBEB"/><stop offset=".92" stop-color="#fff"/></linearGradient><linearGradient id="n" x1="332.456" x2="399.068" y1="22.806" y2="22.806" gradientUnits="userSpaceOnUse"><stop offset=".1" stop-color="#FFE05F"/><stop offset=".14" stop-color="#FFE167"/><stop offset=".52" stop-color="#FFF1B8"/><stop offset=".78" stop-color="#FFFBEB"/><stop offset=".92" stop-color="#fff"/></linearGradient><linearGradient id="q" x1="218.231" x2="178.363" y1="88.593" y2="88.593" gradientUnits="userSpaceOnUse"><stop offset=".1" stop-color="#FFE05F"/><stop offset=".14" stop-color="#FFE167"/><stop offset=".52" stop-color="#FFF1B8"/><stop offset=".78" stop-color="#FFFBEB"/><stop offset=".92" stop-color="#fff"/></linearGradient><linearGradient id="s" x1="211.661" x2="145.053" y1="88.597" y2="88.597" gradientUnits="userSpaceOnUse"><stop offset=".1" stop-color="#FFE05F"/><stop offset=".14" stop-color="#FFE167"/><stop offset=".52" stop-color="#FFF1B8"/><stop offset=".78" stop-color="#FFFBEB"/><stop offset=".92" stop-color="#fff"/></linearGradient><linearGradient id="v" x1="324.617" x2="293.754" y1="62.809" y2="62.809" gradientUnits="userSpaceOnUse"><stop offset=".1" stop-color="#FFE05F"/><stop offset=".14" stop-color="#FFE167"/><stop offset=".52" stop-color="#FFF1B8"/><stop offset=".78" stop-color="#FFFBEB"/><stop offset=".92" stop-color="#fff"/></linearGradient><linearGradient id="x" x1="319.527" x2="267.973" y1="62.818" y2="62.818" gradientUnits="userSpaceOnUse"><stop offset=".1" stop-color="#FFE05F"/><stop offset=".14" stop-color="#FFE167"/><stop offset=".52" stop-color="#FFF1B8"/><stop offset=".78" stop-color="#FFFBEB"/><stop offset=".92" stop-color="#fff"/></linearGradient><linearGradient id="A" x1="274.849" x2="246.138" y1="3.073" y2="3.073" gradientUnits="userSpaceOnUse"><stop offset=".1" stop-color="#FFE05F"/><stop offset=".14" stop-color="#FFE167"/><stop offset=".52" stop-color="#FFF1B8"/><stop offset=".78" stop-color="#FFFBEB"/><stop offset=".92" stop-color="#fff"/></linearGradient><linearGradient id="C" x1="270.129" x2="222.159" y1="3.077" y2="3.077" gradientUnits="userSpaceOnUse"><stop offset=".1" stop-color="#FFE05F"/><stop offset=".14" stop-color="#FFE167"/><stop offset=".52" stop-color="#FFF1B8"/><stop offset=".78" stop-color="#FFFBEB"/><stop offset=".92" stop-color="#fff"/></linearGradient><linearGradient id="E" x1="178.105" x2="59.449" y1="278.88" y2="278.88" gradientUnits="userSpaceOnUse"><stop offset=".1" stop-color="#7AE6D8"/><stop offset=".25" stop-color="#7DE6D9"/><stop offset=".39" stop-color="#88E8DC"/><stop offset=".53" stop-color="#9BECE1"/><stop offset=".66" stop-color="#B4F1E9"/><stop offset=".79" stop-color="#D6F7F2"/><stop offset=".91" stop-color="#FEFEFE"/><stop offset=".92" stop-color="#fff"/></linearGradient><linearGradient id="G" x1="-46.24" x2="161.489" y1="119.86" y2="207.586" gradientUnits="userSpaceOnUse"><stop offset=".1" stop-color="#fff"/><stop offset=".18" stop-color="#F0ECFE"/><stop offset=".54" stop-color="#B29BFE"/><stop offset=".79" stop-color="#8B68FE"/><stop offset=".92" stop-color="#7C55FE"/></linearGradient><linearGradient id="I" x1="229.285" x2="132.7" y1="169.728" y2="174.433" gradientUnits="userSpaceOnUse"><stop offset=".1" stop-color="#fff"/><stop offset=".18" stop-color="#F0ECFE"/><stop offset=".54" stop-color="#B29BFE"/><stop offset=".79" stop-color="#8B68FE"/><stop offset=".92" stop-color="#7C55FE"/></linearGradient><linearGradient id="J" x1="92.664" x2="53.507" y1="113.508" y2="113.508" gradientUnits="userSpaceOnUse"><stop offset=".1" stop-color="#FFE05F"/><stop offset=".14" stop-color="#FFE167"/><stop offset=".52" stop-color="#FFF1B8"/><stop offset=".78" stop-color="#FFFBEB"/><stop offset=".92" stop-color="#fff"/></linearGradient><linearGradient id="K" x1="70.218" x2="91.425" y1="111.808" y2="109.932" gradientUnits="userSpaceOnUse"><stop offset=".1" stop-color="#FFE05F"/><stop offset=".14" stop-color="#FFE167"/><stop offset=".52" stop-color="#FFF1B8"/><stop offset=".78" stop-color="#FFFBEB"/><stop offset=".92" stop-color="#fff"/></linearGradient><linearGradient id="L" x1="103.744" x2="59.41" y1="161.327" y2="161.327" gradientUnits="userSpaceOnUse"><stop offset=".1" stop-color="#FFE05F"/><stop offset=".14" stop-color="#FFE167"/><stop offset=".52" stop-color="#FFF1B8"/><stop offset=".78" stop-color="#FFFBEB"/><stop offset=".92" stop-color="#fff"/></linearGradient><linearGradient id="M" x1="168.648" x2="142.897" y1="146.732" y2="146.732" gradientUnits="userSpaceOnUse"><stop offset=".1" stop-color="#FFE05F"/><stop offset=".14" stop-color="#FFE167"/><stop offset=".52" stop-color="#FFF1B8"/><stop offset=".78" stop-color="#FFFBEB"/><stop offset=".92" stop-color="#fff"/></linearGradient><radialGradient id="b" cx="0" cy="0" r="1" gradientTransform="matrix(241.723 0 0 241.79 294.899 123.187)" gradientUnits="userSpaceOnUse"><stop offset=".1" stop-color="#7AE6D8"/><stop offset=".25" stop-color="#7DE6D9"/><stop offset=".39" stop-color="#88E8DC"/><stop offset=".53" stop-color="#9BECE1"/><stop offset=".66" stop-color="#B4F1E9"/><stop offset=".79" stop-color="#D6F7F2"/><stop offset=".91" stop-color="#FEFEFE"/><stop offset=".92" stop-color="#fff"/></radialGradient><clipPath id="a"><path fill="#fff" d="M0 0h485v336H0z"/></clipPath></defs></svg>
