<svg xmlns="http://www.w3.org/2000/svg" width="453" height="329" fill="none"><g clip-path="url(#a)"><path fill="#DBCAFF" d="M135.988 53.963a21.458 21.458 0 0 0 1.093-15.446 21.49 21.49 0 0 0-9.591-12.169 21.544 21.544 0 0 0-15.292-2.57 21.52 21.52 0 0 0-13.051 8.363 30.456 30.456 0 0 0-16.262-15.503 30.518 30.518 0 0 0-22.482-.15 30.459 30.459 0 0 0-16.468 15.284 30.391 30.391 0 0 0-1.491 22.4A25.423 25.423 0 0 0 22.189 58.4a25.363 25.363 0 0 0-7.094 7.834 25.324 25.324 0 0 0 3.116 29.692 25.413 25.413 0 0 0 18.92 8.368h94.69a25.407 25.407 0 0 0 17.125-6.739 25.324 25.324 0 0 0 2.826-34.142 25.391 25.391 0 0 0-15.784-9.455v.005Z"/><path fill="#000" d="M244.676 88.022h-.661v.053h.661v-.053Z"/><path fill="url(#b)" d="M395.417 99.15c0-17.369-6.661-25.786-18.112-32.386a30.375 30.375 0 0 1-11.092-11.115 30.326 30.326 0 0 1-4.052-15.16v-13.55c0-8.33-18.869-15.082-42.145-15.082-23.277 0-42.141 6.753-42.141 15.083v13.597a30.34 30.34 0 0 1-4.068 15.136 30.393 30.393 0 0 1-11.085 11.095c-11.446 6.609-18.383 15.77-18.383 31.796 0 16.027-.189 110.356.201 110.858.932 4.472 4.478 7.815 8.08 10.363 8.412 5.682 18.352 8.619 28.187 10.839 13.157 2.828 26.669 3.933 40.124 3.907 18.103-.179 36.481-2.133 53.582-8.304 7.559-2.932 17.468-7.386 20.572-15.384.383-1.092.582-2.239.59-3.396 0 0-.267-90.907-.267-108.302l.009.005Z"/><path fill="#000" d="M320.27 234.863c-14.138 0-27.431-1.311-39.529-3.933-9.064-2.046-19.507-4.939-28.301-10.883-4.814-3.409-7.441-6.765-8.22-10.568-.197-1.28-.337-12.613-.24-96.046v-14.86c0-14.786 5.716-24.68 18.532-32.084a30.142 30.142 0 0 0 10.958-10.987 30.093 30.093 0 0 0 4.033-14.974V26.949c0-4.2 4.464-8.099 12.561-10.997 7.997-2.862 18.62-4.44 29.912-4.44 11.293 0 21.916 1.578 29.912 4.44 8.102 2.898 12.562 6.797 12.562 10.975v13.548a30.065 30.065 0 0 0 4.019 14.99 30.12 30.12 0 0 0 10.963 10.998c6.316 3.649 10.597 7.547 13.468 12.276 3.235 5.328 4.815 12.002 4.815 20.398v.144c0 17.517.258 107.257.262 108.162a10.814 10.814 0 0 1-.608 3.496c-3.029 7.806-12.194 12.238-20.764 15.581-14.947 5.389-32.512 8.107-53.696 8.304l-.639.039Zm-75.419-25.576v.07c.761 3.628 3.287 6.857 7.948 10.162 8.697 5.878 19.07 8.741 28.069 10.782 12.256 2.622 25.728 3.955 40.054 3.902 21.105-.209 38.6-2.919 53.473-8.277 8.421-3.269 17.437-7.631 20.374-15.192a9.953 9.953 0 0 0 .565-3.278c0-.909-.263-91.126-.263-108.302v-.144c0-8.208-1.562-14.724-4.714-19.917-2.81-4.628-7.003-8.457-13.231-12.045a30.783 30.783 0 0 1-11.208-11.239 30.72 30.72 0 0 1-4.111-15.32v-13.55c0-8.137-18.756-14.754-41.813-14.754-23.058 0-41.813 6.617-41.813 14.755V40.54a30.722 30.722 0 0 1-4.118 15.306 30.793 30.793 0 0 1-11.201 11.227c-12.588 7.273-18.204 16.989-18.204 31.512v14.86c-.031 30.375-.101 93.337.193 95.841Z"/><path fill="url(#c)" d="M319.994 208.426c17.934 0 32.472-5.203 32.472-11.621s-14.538-11.621-32.472-11.621-32.473 5.203-32.473 11.621 14.539 11.621 32.473 11.621Z"/><path fill="#000" d="M319.994 208.723c-8.706 0-16.895-1.215-23.062-3.422-6.259-2.237-9.708-5.244-9.708-8.496 0-3.252 3.449-6.254 9.708-8.496 6.167-2.207 14.356-3.423 23.062-3.423 8.705 0 16.899 1.216 23.062 3.423 6.259 2.242 9.708 5.244 9.708 8.496 0 3.252-3.449 6.259-9.708 8.496-6.163 2.207-14.357 3.422-23.062 3.422Zm0-23.242c-17.74 0-32.175 5.078-32.175 11.324 0 6.245 14.444 11.324 32.175 11.324 17.731 0 32.175-5.079 32.175-11.324 0-6.246-14.431-11.324-32.175-11.324Z"/><path fill="url(#d)" d="M320.392 216.7c7.769-.075 15.656-.914 22.997-3.558 3.247-1.259 7.493-3.169 8.828-6.6.163-.469.249-.962.254-1.459v-8.274c-.289 6.556-13.184 9.594-18.502 10.49-12.132 2.106-32.389 1.682-42.894-5.201-1.75-1.237-3.54-3.007-3.554-5.293.031.476-.083 8.903.088 9.121.403 1.923 1.921 3.352 3.466 4.449 3.611 2.443 7.879 3.698 12.098 4.651a80.768 80.768 0 0 0 17.219 1.678v-.004Z"/><mask id="e" width="66" height="21" x="287" y="196" maskUnits="userSpaceOnUse" style="mask-type:luminance"><path fill="#fff" d="M320.392 216.7c7.769-.075 15.656-.914 22.997-3.558 3.247-1.259 7.493-3.169 8.828-6.6.163-.469.249-.962.254-1.459v-8.274c-.289 6.556-13.184 9.594-18.502 10.49-12.132 2.106-32.389 1.682-42.894-5.201-1.75-1.237-3.54-3.007-3.554-5.293.031.476-.083 8.903.088 9.121.403 1.923 1.921 3.352 3.466 4.449 3.611 2.443 7.879 3.698 12.098 4.651a80.768 80.768 0 0 0 17.219 1.678v-.004Z"/></mask><g fill="#fff" mask="url(#e)"><path d="M317.118 195.122H298.77v28.4h18.348v-28.4ZM355.723 194.226h-18.348v28.4h18.348v-28.4ZM293.925 190.328h-18.348v28.4h18.348v-28.4Z"/></g><path fill="#000" d="M320.081 217.001a80.936 80.936 0 0 1-16.969-1.683c-3.909-.874-8.408-2.132-12.203-4.698-2.101-1.49-3.239-2.963-3.589-4.633-.088-.319-.123-1.473-.096-7.054v-2.124l.595-.022v.162c.07 1.709 1.221 3.361 3.423 4.904l.078.057c9.879 6.411 29.286 7.429 42.592 5.1 2.999-.507 17.946-3.374 18.257-10.214h.595v8.273a4.823 4.823 0 0 1-.272 1.556c-1.313 3.414-5.291 5.341-8.999 6.779-6.372 2.299-13.835 3.466-22.808 3.58h-.608l.004.017Zm-32.201-11.21v.065c.32 1.517 1.383 2.872 3.349 4.27 3.707 2.505 8.145 3.733 11.992 4.602a80.28 80.28 0 0 0 16.843 1.674h.31c9.034-.092 16.523-1.25 22.896-3.544 3.581-1.386 7.415-3.239 8.653-6.429.15-.435.229-.891.232-1.351v-6.022c-2.766 5.502-14.321 7.867-18.155 8.535-10.737 1.862-31.952 2.089-43.1-5.244l-.131-.096a9.428 9.428 0 0 1-2.968-3.16c.005 2.255-.008 6.162.079 6.7Z"/><path fill="#000" d="M307.471 201.459a5.24 5.24 0 0 1-2.888-3.662h-4.728v-1.748h4.684a7.245 7.245 0 0 1 3.501-5.197l4.263.953a7.9 7.9 0 0 0-2.127 1.91 5.314 5.314 0 0 0-1.076 2.334h8.438c.415-.904.947-1.749 1.585-2.513a6.452 6.452 0 0 1 2.53-1.687 11.926 11.926 0 0 1 4.407-.678 12.5 12.5 0 0 1 5.826 1.25 5.086 5.086 0 0 1 2.867 3.628h4.771v1.748h-4.684a5.642 5.642 0 0 1-.801 2.321 7.01 7.01 0 0 1-1.75 1.984l-4.264-.874a6.551 6.551 0 0 0 2.276-3.435h-8.539a11.435 11.435 0 0 1-1.563 2.534 6.316 6.316 0 0 1-2.508 1.696c-1.41.512-2.907.747-4.407.691a12.299 12.299 0 0 1-5.804-1.259l-.009.004Zm16.633-6.993a4.486 4.486 0 0 0-1.436 1.591h7.511a2.629 2.629 0 0 0-1.366-1.591 5.332 5.332 0 0 0-2.49-.533 4.078 4.078 0 0 0-2.237.551l.018-.018Zm-13.591 4.996a4.876 4.876 0 0 0 2.408.542 4.1 4.1 0 0 0 2.297-.573 4.554 4.554 0 0 0 1.458-1.634h-7.489a2.699 2.699 0 0 0 1.313 1.665h.013Z"/><path fill="url(#f)" d="M341.664 180c17.934 0 32.472-5.203 32.472-11.621s-14.538-11.621-32.472-11.621-32.473 5.203-32.473 11.621S323.73 180 341.664 180Z"/><path fill="#000" d="M341.664 180.293c-8.706 0-16.895-1.215-23.058-3.418-6.263-2.242-9.708-5.244-9.708-8.496 0-3.252 3.445-6.259 9.708-8.496 6.163-2.186 14.352-3.423 23.058-3.423s16.899 1.215 23.062 3.423c6.259 2.237 9.708 5.244 9.708 8.496 0 3.252-3.449 6.254-9.708 8.496-6.15 2.203-14.352 3.418-23.062 3.418Zm0-23.238c-17.74 0-32.175 5.078-32.175 11.324 0 6.245 14.444 11.324 32.175 11.324 17.731 0 32.175-5.083 32.175-11.324s-14.431-11.324-32.175-11.324Z"/><path fill="url(#g)" d="M342.062 188.274c7.769-.075 15.652-.914 22.997-3.558 3.243-1.259 7.493-3.169 8.824-6.604.165-.468.251-.959.253-1.455v-8.278c-.288 6.556-13.183 9.615-18.501 10.489-12.133 2.111-32.389 1.687-42.894-5.196-1.751-1.237-3.536-3.003-3.549-5.289.026.472-.084 8.899.083 9.122.402 1.918 1.926 3.352 3.466 4.449 3.611 2.438 7.879 3.693 12.098 4.65a80.805 80.805 0 0 0 17.223 1.678v-.008Z"/><mask id="h" width="66" height="21" x="309" y="168" maskUnits="userSpaceOnUse" style="mask-type:luminance"><path fill="#fff" d="M342.062 188.274c7.769-.075 15.652-.914 22.997-3.558 3.243-1.259 7.493-3.169 8.824-6.604.165-.468.251-.959.253-1.455v-8.278c-.288 6.556-13.183 9.615-18.501 10.489-12.133 2.111-32.389 1.687-42.894-5.196-1.751-1.237-3.536-3.003-3.549-5.289.026.472-.084 8.899.083 9.122.402 1.918 1.926 3.352 3.466 4.449 3.611 2.438 7.879 3.693 12.098 4.65a80.805 80.805 0 0 0 17.223 1.678v-.008Z"/></mask><g fill="#fff" mask="url(#h)"><path d="M338.788 166.692H320.44v28.4h18.348v-28.4ZM377.397 165.796h-18.348v28.4h18.348v-28.4ZM315.595 161.902h-18.348v28.4h18.348v-28.4Z"/></g><path fill="#000" d="M341.756 188.575a81.025 81.025 0 0 1-16.978-1.687c-3.904-.874-8.408-2.133-12.203-4.694-2.101-1.495-3.239-2.963-3.589-4.633-.088-.323-.118-1.468-.092-7.058v-2.124h.591a1.46 1.46 0 0 1 0 .162c.074 1.708 1.225 3.356 3.422 4.903l.049.031c9.839 6.429 29.294 7.43 42.627 5.122 2.993-.502 17.945-3.37 18.256-10.214h.591v8.278a4.85 4.85 0 0 1-.272 1.556c-1.313 3.413-5.291 5.341-8.999 6.779-6.372 2.294-13.835 3.465-22.808 3.575h-.599l.004.004Zm-32.201-11.215v.066c.315 1.512 1.379 2.871 3.348 4.266 3.703 2.504 8.141 3.732 11.989 4.606a80.754 80.754 0 0 0 16.851 1.67h.302c9.034-.088 16.527-1.246 22.9-3.541 3.576-1.389 7.41-3.242 8.649-6.429.151-.435.23-.893.232-1.354v-6.019c-2.762 5.503-14.317 7.867-18.152 8.532-10.736 1.866-31.916 2.093-43.086-5.245l-.149-.074v-.035a9.422 9.422 0 0 1-2.967-3.156c.004 2.273-.014 6.176.083 6.713Z"/><path fill="#000" d="M329.142 173.051a5.242 5.242 0 0 1-2.893-3.658h-4.728v-1.748h4.666a7.242 7.242 0 0 1 3.502-5.201l4.263.957a7.984 7.984 0 0 0-2.132 1.91 5.319 5.319 0 0 0-1.076 2.334h8.438c.418-.904.951-1.75 1.585-2.518a6.473 6.473 0 0 1 2.534-1.682 11.829 11.829 0 0 1 4.408-.682c2.013-.06 4.011.37 5.821 1.254a5.082 5.082 0 0 1 2.871 3.628h4.802v1.748h-4.684a5.725 5.725 0 0 1-.801 2.321 7.052 7.052 0 0 1-1.75 1.98l-4.263-.875a6.623 6.623 0 0 0 2.28-3.435h-8.526c-.41.908-.934 1.76-1.559 2.535a6.375 6.375 0 0 1-2.512 1.696c-1.411.51-2.908.744-4.407.69a12.26 12.26 0 0 1-5.804-1.263l-.035.009Zm16.606-6.993a4.574 4.574 0 0 0-1.436 1.596h7.515a2.646 2.646 0 0 0-1.352-1.613 5.26 5.26 0 0 0-2.491-.533 4.027 4.027 0 0 0-2.232.55h-.004Zm-13.569 4.996c.741.384 1.569.57 2.403.542a4.128 4.128 0 0 0 2.302-.568 4.673 4.673 0 0 0 1.458-1.635h-7.471a2.692 2.692 0 0 0 1.313 1.661h-.005Z"/><path fill="url(#i)" d="M381.827 196.716c1.143-6.316-12.238-14.017-29.886-17.2-17.649-3.184-32.882-.644-34.024 5.672-1.143 6.316 12.237 14.017 29.886 17.2 17.648 3.184 32.881.644 34.024-5.672Z"/><path fill="#000" d="M362.384 204.082a83.464 83.464 0 0 1-14.636-1.381c-8.566-1.548-16.409-4.196-22.082-7.461-5.764-3.317-8.618-6.901-8.044-10.087.577-3.186 4.508-5.542 11.069-6.639 6.456-1.075 14.733-.817 23.303.73s16.409 4.196 22.086 7.46c5.76 3.313 8.613 6.897 8.04 10.083-.573 3.186-4.508 5.546-11.069 6.639a53.175 53.175 0 0 1-8.667.656Zm-44.176-18.824c-1.112 6.145 12.19 13.706 29.645 16.857s32.569.712 33.702-5.433c1.134-6.145-12.185-13.706-29.645-16.857-17.459-3.151-32.568-.712-33.702 5.433Z"/><path fill="url(#j)" d="M346.719 210.576c7.656 1.312 15.569 1.88 23.264.582 3.414-.665 7.94-1.792 9.865-4.93a4.61 4.61 0 0 0 .508-1.39l1.475-8.147c-1.457 6.42-14.68 7.107-20.072 7.045-12.317-.083-32.193-4.095-41.279-12.727-1.51-1.529-2.946-3.583-2.552-5.839-.053.472-1.668 8.741-1.541 8.991.057 1.962 1.313 3.64 2.626 4.991 3.121 3.059 7.095 5.035 11.078 6.726a80.88 80.88 0 0 0 16.633 4.703l-.005-.005Z"/><mask id="k" width="66" height="27" x="316" y="185" maskUnits="userSpaceOnUse" style="mask-type:luminance"><path fill="#fff" d="M346.719 210.576c7.656 1.312 15.569 1.88 23.264.582 3.414-.665 7.94-1.792 9.865-4.93a4.61 4.61 0 0 0 .508-1.39l1.475-8.147c-1.457 6.42-14.68 7.107-20.072 7.045-12.317-.083-32.193-4.095-41.279-12.727-1.51-1.529-2.946-3.583-2.552-5.839-.053.472-1.668 8.741-1.541 8.991.057 1.962 1.313 3.64 2.626 4.991 3.121 3.059 7.095 5.035 11.078 6.726a80.88 80.88 0 0 0 16.633 4.703l-.005-.005Z"/></mask><g fill="#fff" mask="url(#k)"><path d="m329.282 185.486-5.056 27.947 18.056 3.257 5.056-27.947-18.056-3.257ZM367.439 191.459l-5.056 27.947 18.056 3.257 5.056-27.947-18.056-3.257ZM307.314 176.657l-5.056 27.947 18.055 3.257 5.056-27.947-18.055-3.257Z"/></g><path fill="#000" d="M360.848 212.18a84.718 84.718 0 0 1-14.181-1.311 81.509 81.509 0 0 1-16.703-4.72c-3.685-1.565-7.878-3.592-11.169-6.787-1.804-1.84-2.666-3.497-2.714-5.197 0-.328.149-1.464 1.155-6.901.162-.874.307-1.648.364-1.98l.026-.17.586.087a.894.894 0 0 1-.026.171c-.227 1.691.613 3.496 2.499 5.423 8.522 8.095 27.523 12.557 41.073 12.644 3.064.035 18.27-.131 19.784-6.809l.582.118-1.475 8.142c-.1.52-.283 1.02-.542 1.482-1.918 3.125-6.163 4.318-10.067 5.074a54.854 54.854 0 0 1-9.192.734Zm-14.089-1.892c8.911 1.512 16.483 1.705 23.158.577 3.769-.73 7.879-1.875 9.66-4.808.227-.408.387-.851.473-1.311l1.072-5.922c-3.703 4.926-15.499 5.214-19.385 5.175-10.899-.07-31.799-3.61-41.481-12.806a9.731 9.731 0 0 1-2.473-3.754c-.402 2.185-1.12 6.053-1.133 6.599v.066c.044 1.547.849 3.059 2.538 4.808 3.2 3.12 7.349 5.117 10.982 6.656a80.494 80.494 0 0 0 16.589 4.72Z"/><path fill="#000" d="M336.718 193.3a5.24 5.24 0 0 1-2.188-4.113l-4.649-.839.307-1.709 4.613.83a7.22 7.22 0 0 1 4.377-4.492l4.022 1.7a7.904 7.904 0 0 0-2.438 1.499 5.37 5.37 0 0 0-1.475 2.106l8.317 1.495a11.06 11.06 0 0 1 2.004-2.185 6.485 6.485 0 0 1 2.793-1.215 11.799 11.799 0 0 1 4.455.118 12.551 12.551 0 0 1 5.511 2.264 5.074 5.074 0 0 1 2.188 4.077l4.697.848-.311 1.714-4.609-.835a5.68 5.68 0 0 1-1.203 2.146 7.13 7.13 0 0 1-2.097 1.639l-4.04-1.613a6.64 6.64 0 0 0 2.858-2.976l-8.39-1.513a11.509 11.509 0 0 1-1.988 2.216 6.423 6.423 0 0 1-2.774 1.228c-1.482.25-2.997.214-4.465-.104a12.286 12.286 0 0 1-5.484-2.273l-.031-.013Zm17.587-3.934a4.47 4.47 0 0 0-1.699 1.311l7.393 1.338a2.619 2.619 0 0 0-1.042-1.827 5.262 5.262 0 0 0-2.354-.962 4.02 4.02 0 0 0-2.298.145v-.005Zm-14.26 2.505c.659.511 1.44.84 2.267.957.787.183 1.611.13 2.368-.153a4.657 4.657 0 0 0 1.724-1.351l-7.349-1.311a2.708 2.708 0 0 0 .99 1.871v-.013Z"/><path fill="url(#l)" d="M292.69 172.633c17.395-4.359 30.227-12.94 28.663-19.165-1.565-6.225-16.935-7.738-34.329-3.378-17.395 4.36-30.227 12.94-28.662 19.165 1.564 6.225 16.934 7.738 34.328 3.378Z"/><path fill="#000" d="M274.163 175.42a48.06 48.06 0 0 1-4.6-.21c-6.618-.651-10.702-2.74-11.49-5.883-.787-3.142 1.821-6.905 7.345-10.598 5.44-3.641 13.087-6.809 21.534-8.925 8.448-2.115 16.685-2.928 23.198-2.29 6.618.651 10.697 2.74 11.485 5.883.788 3.142-1.816 6.905-7.344 10.598-5.441 3.641-13.087 6.81-21.535 8.925a78.26 78.26 0 0 1-18.593 2.5Zm12.934-25.043c-8.382 2.102-15.963 5.244-21.347 8.841-5.304 3.545-7.825 7.085-7.099 9.965.727 2.88 4.618 4.808 10.969 5.437 6.451.634 14.619-.175 22.996-2.273 8.378-2.097 15.963-5.244 21.351-8.846 5.3-3.544 7.821-7.08 7.099-9.96-1.523-6.058-16.763-7.474-33.969-3.164Z"/><path fill="url(#m)" d="M295.111 180.564c7.515-1.967 14.96-4.698 21.447-9.043 2.84-2.01 6.5-4.899 6.95-8.553a4.51 4.51 0 0 0-.109-1.473l-2.027-8.028c1.314 6.446-10.443 12.508-15.384 14.671-11.254 4.996-31.024 9.511-42.864 5.385-2.004-.769-4.162-2.054-4.736-4.266.145.437 2.088 8.654 2.307 8.824.875 1.749 2.679 2.784 4.447 3.471 4.097 1.49 8.544 1.674 12.868 1.573a80.967 80.967 0 0 0 17.11-2.561h-.009Z"/><mask id="n" width="66" height="31" x="258" y="153" maskUnits="userSpaceOnUse" style="mask-type:luminance"><path fill="#fff" d="M295.111 180.564c7.515-1.967 14.96-4.698 21.447-9.043 2.84-2.01 6.5-4.899 6.95-8.553a4.51 4.51 0 0 0-.109-1.473l-2.027-8.028c1.314 6.446-10.443 12.508-15.384 14.671-11.254 4.996-31.024 9.511-42.864 5.385-2.004-.769-4.162-2.054-4.736-4.266.145.437 2.088 8.654 2.307 8.824.875 1.749 2.679 2.784 4.447 3.471 4.097 1.49 8.544 1.674 12.868 1.573a80.967 80.967 0 0 0 17.11-2.561h-.009Z"/></mask><g fill="#fff" mask="url(#n)"><path d="m286.665 160.425-17.796 4.46 6.924 27.546 17.796-4.46-6.924-27.546ZM323.89 150.168l-17.796 4.46 6.924 27.546 17.796-4.461-6.924-27.545ZM262.999 161.42l-17.796 4.46 6.924 27.545 17.796-4.46-6.924-27.545Z"/></g><path fill="#000" d="M276.093 183.444c-3.536 0-7.44-.288-11.082-1.613-2.403-.935-3.865-2.084-4.613-3.618-.162-.293-.473-1.403-1.799-6.77a93.11 93.11 0 0 0-.486-1.954c0-.053-.031-.105-.044-.157l.569-.166c0 .03.026.083.048.161.486 1.63 1.992 2.942 4.478 3.908h.039c11.109 3.872 30.262.117 42.645-5.376 2.783-1.22 16.593-7.636 15.218-14.344l.578-.131 2.018 8.028c.122.515.162 1.046.118 1.574-.438 3.631-3.83 6.468-7.078 8.767-5.69 3.807-12.693 6.779-21.495 9.077h-.043a81.326 81.326 0 0 1-17.175 2.566c-.618.039-1.261.048-1.896.048Zm-15.201-5.559.031.061c.678 1.394 2.04 2.452 4.289 3.326 4.206 1.53 8.807 1.639 12.75 1.551a80.97 80.97 0 0 0 17.013-2.543h.035c8.754-2.286 15.731-5.245 21.347-9.004 3.134-2.215 6.403-4.947 6.823-8.338.04-.459.004-.921-.105-1.368l-1.466-5.844c-1.339 6.01-11.967 11.128-15.529 12.675-9.945 4.414-30.407 9.777-43.034 5.41h-.062a9.618 9.618 0 0 1-3.786-2.395c.539 2.146 1.48 5.962 1.694 6.469Z"/><path fill="#000" d="M278.855 168.93a5.247 5.247 0 0 1-3.694-2.846l-4.587 1.15-.438-1.687 4.543-1.137a7.057 7.057 0 0 1 .381-3.159 6.932 6.932 0 0 1 1.751-2.732l4.377-.109a7.873 7.873 0 0 0-1.602 2.369 5.317 5.317 0 0 0-.477 2.526l8.189-2.054c.178-.978.489-1.926.924-2.819a6.487 6.487 0 0 1 2.039-2.251 11.826 11.826 0 0 1 4.115-1.748 12.463 12.463 0 0 1 5.952-.206 5.111 5.111 0 0 1 3.673 2.823l4.622-1.162.437 1.687-4.543 1.136c.109.823.037 1.66-.21 2.452a7.058 7.058 0 0 1-1.234 2.351l-4.347.193a6.625 6.625 0 0 0 1.375-3.886l-8.273 2.072a11.593 11.593 0 0 1-.875 2.836 6.437 6.437 0 0 1-2.022 2.26 11.737 11.737 0 0 1-4.106 1.748 12.33 12.33 0 0 1-5.935.188l-.035.005Zm14.4-10.818a4.538 4.538 0 0 0-1.002 1.893l7.283-1.827a2.666 2.666 0 0 0-1.703-1.237 5.3 5.3 0 0 0-2.543.092 4.035 4.035 0 0 0-2.035 1.075v.004Zm-11.958 8.147a4.858 4.858 0 0 0 2.465-.061 4.117 4.117 0 0 0 2.092-1.11 4.619 4.619 0 0 0 1.011-1.941l-7.244 1.814a2.754 2.754 0 0 0 1.676 1.311v-.013Z"/><path fill="url(#o)" d="M285.626 169.612c16.956-5.831 32.389-5.634 34.49.437 2.101 6.07-9.957 15.733-26.913 21.546-16.957 5.813-32.39 5.634-34.491-.437-2.101-6.07 9.958-15.716 26.914-21.546Z"/><path fill="#000" d="M270.889 196.136h-.512c-6.649-.083-10.89-1.814-11.949-4.877-1.059-3.064 1.221-7.037 6.412-11.189 5.108-4.091 12.457-7.902 20.69-10.734 8.233-2.828 16.365-4.344 22.917-4.261 6.653.083 10.895 1.814 11.949 4.877 1.055 3.064-1.216 7.037-6.407 11.189-5.108 4.091-12.457 7.902-20.69 10.734-8.019 2.753-15.954 4.261-22.41 4.261Zm14.833-26.223c-16.776 5.765-28.765 15.262-26.73 21.166.968 2.806 5.016 4.397 11.38 4.476 6.487.078 14.549-1.421 22.721-4.231 8.172-2.81 15.455-6.582 20.51-10.633 4.981-3.982 7.187-7.723 6.22-10.533-2.022-5.922-17.328-6.032-34.101-.263v.018Z"/><path fill="url(#p)" d="M296.262 199.274c7.323-2.6 14.505-5.952 20.572-10.843 2.656-2.242 6.053-5.428 6.193-9.108a4.47 4.47 0 0 0-.236-1.46l-2.697-7.828c1.869 6.311-9.34 13.357-14.071 15.935-10.79 5.936-30.096 12.129-42.247 9.025-2.07-.594-4.324-1.691-5.086-3.846.18.437 2.824 8.444 3.064 8.597 1.007 1.687 2.915 2.548 4.727 3.06 4.211 1.136 8.654.939 12.956.467a80.355 80.355 0 0 0 16.829-4.012l-.004.013Z"/><mask id="q" width="66" height="34" x="258" y="170" maskUnits="userSpaceOnUse" style="mask-type:luminance"><path fill="#fff" d="M296.262 199.274c7.323-2.6 14.505-5.952 20.572-10.843 2.656-2.242 6.053-5.428 6.193-9.108a4.47 4.47 0 0 0-.236-1.46l-2.697-7.828c1.869 6.311-9.34 13.357-14.071 15.935-10.79 5.936-30.096 12.129-42.247 9.025-2.07-.594-4.324-1.691-5.086-3.846.18.437 2.824 8.444 3.064 8.597 1.007 1.687 2.915 2.548 4.727 3.06 4.211 1.136 8.654.939 12.956.467a80.355 80.355 0 0 0 16.829-4.012l-.004.013Z"/></mask><g fill="#fff" mask="url(#q)"><path d="m286.141 179.964-17.349 5.965 9.26 26.852 17.349-5.965-9.26-26.852ZM322.356 166.565l-17.349 5.965 9.26 26.852 17.348-5.964-9.259-26.853ZM262.649 182.976l-17.348 5.965 9.259 26.852 17.349-5.965-9.26-26.852Z"/></g><path fill="#000" d="M273.498 203.977a27.193 27.193 0 0 1-7.1-.848c-2.473-.726-4.031-1.748-4.906-3.212-.184-.276-.591-1.355-2.381-6.635-.285-.83-.534-1.569-.644-1.87l-.052-.145.551-.214c0 .026.031.074.057.149.622 1.591 2.241 2.775 4.815 3.496h.03c11.38 2.907 30.158-2.469 42.019-8.999 2.67-1.455 15.875-9.034 13.932-15.594l.564-.179 2.697 7.823c.171.503.256 1.03.253 1.561-.14 3.653-3.26 6.77-6.298 9.335-5.314 4.27-12.041 7.819-20.572 10.852l-.113.039a81.1 81.1 0 0 1-16.891 4.026 55.01 55.01 0 0 1-5.961.415Zm-11.538-4.428.035.057c.792 1.333 2.241 2.269 4.552 2.946 4.325 1.167 8.92.874 12.842.437a80.766 80.766 0 0 0 16.663-3.964l.101-.039c8.517-3.02 15.223-6.556 20.497-10.791 2.932-2.483 5.953-5.481 6.084-8.894a4.3 4.3 0 0 0-.219-1.355l-1.965-5.682c-.819 6.119-10.969 12.111-14.383 13.986-9.537 5.245-29.478 12.342-42.421 9.064h-.057a9.586 9.586 0 0 1-3.979-2.067c.731 2.115 1.992 5.822 2.25 6.302Z"/><path fill="#000" d="M279.083 189.091a5.256 5.256 0 0 1-3.94-2.522l-4.469 1.539-.569-1.648 4.434-1.521a7.046 7.046 0 0 1 .11-3.177 6.86 6.86 0 0 1 1.505-2.876l4.342-.481a7.882 7.882 0 0 0-1.392 2.496 5.34 5.34 0 0 0-.253 2.556l7.979-2.744c.095-.989.323-1.961.678-2.889a6.492 6.492 0 0 1 1.843-2.417 11.99 11.99 0 0 1 3.939-2.076c1.885-.708 3.914-.951 5.913-.708a5.113 5.113 0 0 1 3.9 2.495l4.508-1.551.569 1.647-4.429 1.521c.175.81.175 1.647 0 2.457a7.075 7.075 0 0 1-1.029 2.452l-4.315.563a6.606 6.606 0 0 0 1.037-3.99l-8.062 2.771c-.089.993-.307 1.97-.648 2.906a6.377 6.377 0 0 1-1.821 2.417 11.807 11.807 0 0 1-3.939 2.089 12.223 12.223 0 0 1-5.896.695l.005-.004Zm13.424-12.006a4.453 4.453 0 0 0-.836 1.971l7.103-2.443a2.661 2.661 0 0 0-1.807-1.084 5.264 5.264 0 0 0-2.526.306 4.016 4.016 0 0 0-1.934 1.25Zm-11.223 9.139c.827.12 1.671.027 2.451-.271a4.153 4.153 0 0 0 1.992-1.311 4.63 4.63 0 0 0 .844-2.019l-7.064 2.43a2.736 2.736 0 0 0 1.777 1.171Z"/><path fill="url(#r)" d="M267.409 210.533c-.358-.464-.183-87.704-.183-102.524 0-14.82 6.403-23.29 16.986-29.41a28.08 28.08 0 0 0 10.254-10.266 28.038 28.038 0 0 0 3.753-14.007V41.752c0-7.701 17.45-13.947 38.954-13.947a95.334 95.334 0 0 1 21.053 2.212c-4.7-5.813-19.696-10.052-37.44-10.052-21.526 0-38.955 6.245-38.955 13.946v12.57a28.052 28.052 0 0 1-3.754 14.007 28.105 28.105 0 0 1-10.252 10.27c-10.588 6.12-16.987 14.581-16.987 29.406s-.175 102.06.184 102.528c.876 4.135 4.145 7.224 7.472 9.585 4.766 3.216 10.067 5.48 15.525 7.224-3.016-2.273-5.817-5.179-6.605-8.955l-.005-.013Z" opacity=".5"/><path fill="url(#s)" d="M299.676 27.8a103.62 103.62 0 0 0-13.608.875c-.472.401-.911.84-1.313 1.311a93.31 93.31 0 0 1 17.994-2.185c-1.022-.026-2.05-.04-3.086-.04l.013.04Z" opacity=".5"/><path fill="url(#t)" d="M392.2 100.155c0-14.83-6.403-23.295-16.987-29.41a28.104 28.104 0 0 1-10.252-10.27 28.062 28.062 0 0 1-3.754-14.008v-12.57c0-7.704-17.451-13.946-38.977-13.946-1.027 0-2.048.015-3.063.044 20.076.564 35.89 6.556 35.89 13.903v12.57a28.045 28.045 0 0 0 3.754 14.008 28.096 28.096 0 0 0 10.252 10.27c10.588 6.119 16.987 14.58 16.987 29.409 0 14.829.175 102.056-.183 102.524-.876 4.134-4.145 7.224-7.476 9.584a48.177 48.177 0 0 1-4.946 2.924 22.084 22.084 0 0 1-4.43 4.297c5.472-1.749 10.763-4.004 15.525-7.225 3.327-2.356 6.605-5.446 7.472-9.585.359-.467.184-87.703.184-102.523l.004.004Z" opacity=".64"/><path fill="url(#u)" d="M316.225 173.051c-6.18-12.277-1.724-27.971 10.842-34.121-2.224 1.154-5.808 2.684-7.765 4.187a24.512 24.512 0 0 0-9.397 13.816c-5.454 20.978 16.142 39.924 35.646 30.445l4.377-2.186c-12.291 6.067-27.383.617-33.703-12.141Z"/><mask id="v" width="41" height="52" x="309" y="138" maskUnits="userSpaceOnUse" style="mask-type:luminance"><path fill="#fff" d="M316.225 173.051c-6.18-12.277-1.724-27.971 10.842-34.121-2.224 1.154-5.808 2.684-7.765 4.187a24.512 24.512 0 0 0-9.397 13.816c-5.454 20.978 16.142 39.924 35.646 30.445l4.377-2.186c-12.291 6.067-27.383.617-33.703-12.141Z"/></mask><g fill="#fff" mask="url(#v)"><path d="m336.726 165.62-25.506 12.565 8.118 16.43 25.506-12.565-8.118-16.43ZM320.812 148.314l-25.506 12.565 8.118 16.431 25.506-12.565-8.118-16.431Z"/></g><path fill="#000" d="M334.792 190.179c-5.659 0-11.253-2.006-16.054-5.931-8.264-6.757-11.761-17.259-9.122-27.407a24.966 24.966 0 0 1 9.515-13.986c1.432-1.106 3.712-2.211 5.725-3.186.499-.24.977-.472 1.419-.695l.661-.332.271.529-.657.332a23.788 23.788 0 0 0-11.437 13.597 25.901 25.901 0 0 0 1.379 19.794c6.233 12.604 21.171 18.002 33.309 12.032l.262.533-4.377 2.155a24.826 24.826 0 0 1-10.894 2.565Zm-12.487-48.57a20.543 20.543 0 0 0-2.823 1.749 24.422 24.422 0 0 0-9.293 13.653c-2.578 9.921.841 20.192 8.925 26.8 7.603 6.215 17.241 7.509 25.876 3.497-11.262 2.688-23.499-2.95-29.027-14.135a26.496 26.496 0 0 1-1.414-20.253 24.685 24.685 0 0 1 7.756-11.311Z"/><path fill="url(#w)" d="M327.063 138.913c12.307-6.062 27.399-.616 33.702 12.163 6.303 12.779 1.462 28.059-10.846 34.121-12.308 6.062-27.395.612-33.703-12.163-6.307-12.776-1.466-28.059 10.842-34.121h.005Z"/><mask id="x" width="51" height="52" x="313" y="136" maskUnits="userSpaceOnUse" style="mask-type:luminance"><path fill="#fff" d="M327.063 138.913c12.307-6.062 27.399-.616 33.702 12.163 6.303 12.779 1.462 28.059-10.846 34.121-12.308 6.062-27.395.612-33.703-12.163-6.307-12.776-1.466-28.059 10.842-34.121h.005Z"/></mask><g mask="url(#x)"><path fill="#fff" d="m353.628 131.157-22.813 67.144 26.602 9.012 22.813-67.144-26.602-9.012Z"/></g><path fill="#000" d="M339.318 187.963c-9.481 0-18.755-5.472-23.369-14.798-6.377-12.907-1.453-28.409 10.973-34.528l.07-.03c12.418-6.075 27.68-.555 34.049 12.329 6.368 12.884 1.453 28.408-10.982 34.527a24.217 24.217 0 0 1-10.741 2.5Zm-12.194-48.757c-12.089 6.005-16.865 21.105-10.641 33.696 6.224 12.592 21.18 18.007 33.313 12.028 12.133-5.979 16.943-21.105 10.711-33.723-6.233-12.618-21.18-18.011-33.318-12.032l-.065.031Z"/><path fill="#000" d="M350.593 168.615c-.662 2.098-2.218 3.938-4.666 5.52l2.092 4.231-2.827 1.394-2.07-4.196a19.812 19.812 0 0 1-5.327 1.355 11.47 11.47 0 0 1-4.666-.332l-.333-4.58c1.319.346 2.685.474 4.045.38 1.46-.081 2.9-.386 4.267-.905l-3.733-7.561a26.672 26.672 0 0 1-4.784.599 8.032 8.032 0 0 1-3.865-.922c-1.226-.63-2.247-1.765-3.064-3.405a8.168 8.168 0 0 1-.543-6.219c.642-2.101 2.183-3.925 4.622-5.472l-2.109-4.27 2.823-1.394 2.074 4.195a16.768 16.768 0 0 1 4.128-1.14 13.055 13.055 0 0 1 4.005 0l.477 4.514a14.99 14.99 0 0 0-6.592.708l3.769 7.631a27.587 27.587 0 0 1 4.814-.633 8.01 8.01 0 0 1 3.87.874c1.24.629 2.261 1.761 3.063 3.396a8.052 8.052 0 0 1 .517 6.206l.013.026Zm-18.716-9.274a8.331 8.331 0 0 0 3.217 0l-3.322-6.726a5.104 5.104 0 0 0-2.022 2.495 3.489 3.489 0 0 0 .241 2.657 2.766 2.766 0 0 0 1.886 1.561v.013Zm14.129 8.168a3.233 3.233 0 0 0-.184-2.587 2.853 2.853 0 0 0-1.948-1.6 8.562 8.562 0 0 0-3.3 0l3.305 6.687c1.129-.8 1.838-1.63 2.14-2.5h-.013Z"/><path fill="url(#y)" d="M300.267 96.13c-6.18-12.273-1.724-27.972 10.842-34.121-2.224 1.158-5.808 2.683-7.765 4.191a24.529 24.529 0 0 0-9.402 13.816c-5.449 20.978 16.147 39.92 35.651 30.44l4.376-2.185c-12.303 6.062-27.395.616-33.702-12.163v.022Z"/><mask id="z" width="41" height="51" x="293" y="62" maskUnits="userSpaceOnUse" style="mask-type:luminance"><path fill="#fff" d="M300.267 96.13c-6.18-12.273-1.724-27.972 10.842-34.121-2.224 1.158-5.808 2.683-7.765 4.191a24.529 24.529 0 0 0-9.402 13.816c-5.449 20.978 16.147 39.92 35.651 30.44l4.376-2.185c-12.303 6.062-27.395.616-33.702-12.163v.022Z"/></mask><g fill="#fff" mask="url(#z)"><path d="m320.771 88.705-25.506 12.565 8.118 16.43 25.506-12.565-8.118-16.43ZM304.849 71.397l-25.506 12.565 8.118 16.43 25.506-12.565-8.118-16.43Z"/></g><path fill="#000" d="M318.834 113.258c-5.66 0-11.253-2.006-16.055-5.931-8.268-6.757-11.761-17.26-9.121-27.408a24.987 24.987 0 0 1 9.515-13.985c1.431-1.102 3.712-2.207 5.725-3.182.499-.24.976-.472 1.418-.695.219-.114.438-.227.661-.337l.272.534-.661.332a23.82 23.82 0 0 0-11.437 13.592 25.895 25.895 0 0 0 1.383 19.799c4.508 9.121 13.568 14.466 22.839 14.47 3.634.003 7.22-.832 10.478-2.438l.263.529-4.377 2.159a24.85 24.85 0 0 1-10.903 2.561Zm-12.488-48.57a20.487 20.487 0 0 0-2.823 1.722 24.393 24.393 0 0 0-9.287 13.658c-2.579 9.921.84 20.192 8.924 26.8 7.603 6.215 17.241 7.509 25.876 3.496-11.257 2.688-23.499-2.945-29.027-14.13a26.484 26.484 0 0 1-1.414-20.252 24.656 24.656 0 0 1 7.751-11.294Z"/><path fill="url(#A)" d="M311.113 61.992c12.304-6.062 27.4-.617 33.702 12.167 6.303 12.784 1.458 28.055-10.846 34.116-12.303 6.062-27.395.617-33.702-12.163-6.307-12.78-1.462-28.054 10.842-34.12h.004Z"/><mask id="B" width="51" height="52" x="297" y="59" maskUnits="userSpaceOnUse" style="mask-type:luminance"><path fill="#fff" d="M311.113 61.992c12.304-6.062 27.4-.617 33.702 12.167 6.303 12.784 1.458 28.055-10.846 34.116-12.303 6.062-27.395.617-33.702-12.163-6.307-12.78-1.462-28.054 10.842-34.12h.004Z"/></mask><g mask="url(#B)"><path fill="#fff" d="m337.678 54.237-22.812 67.145 26.602 9.011 22.812-67.144-26.602-9.012Z"/></g><path fill="#000" d="M323.373 111.042c-9.485 0-18.76-5.468-23.373-14.799-6.377-12.906-1.453-28.408 10.977-34.527l.066-.03c12.422-6.075 27.684-.551 34.052 12.333 6.369 12.884 1.449 28.409-10.981 34.527a24.244 24.244 0 0 1-10.741 2.496Zm-12.194-48.753c-12.09 6.005-16.865 21.1-10.645 33.692 6.219 12.592 21.18 18.007 33.317 12.028 12.137-5.979 16.943-21.106 10.71-33.719-6.232-12.613-21.18-18.01-33.317-12.032l-.065.03Z"/><path fill="#000" d="M334.639 91.694c-.665 2.097-2.221 3.938-4.666 5.52l2.092 4.23-2.827 1.394-2.07-4.195a19.854 19.854 0 0 1-5.332 1.355c-1.561.21-3.149.097-4.665-.333l-.333-4.584c1.32.346 2.687.474 4.049.38 1.461-.078 2.9-.383 4.267-.905L321.416 87a26.544 26.544 0 0 1-4.784.594 8.015 8.015 0 0 1-3.86-.918c-1.232-.632-2.253-1.767-3.064-3.404a8.182 8.182 0 0 1-.543-6.22c.648-2.106 2.19-3.93 4.627-5.472l-2.11-4.27 2.823-1.394 2.07 4.196a17.007 17.007 0 0 1 4.132-1.145 13.356 13.356 0 0 1 4.005 0l.473 4.515a15.127 15.127 0 0 0-6.592.708l3.773 7.635a27.616 27.616 0 0 1 4.815-.634 8.016 8.016 0 0 1 3.869.874c1.24.63 2.261 1.762 3.064 3.396a8.076 8.076 0 0 1 .521 6.206l.004.027Zm-18.707-9.275a8.371 8.371 0 0 0 3.221 0l-3.326-6.73a5.11 5.11 0 0 0-2.018 2.5 3.49 3.49 0 0 0 .237 2.657 2.774 2.774 0 0 0 1.886 1.56v.013Zm14.133 8.169c.148-.421.208-.868.177-1.313a3.27 3.27 0 0 0-.361-1.275 2.855 2.855 0 0 0-1.952-1.604 8.565 8.565 0 0 0-3.3 0l3.309 6.674c1.12-.782 1.825-1.617 2.127-2.482Z"/><path fill="url(#C)" d="M303.865 165.91c13.647-1.749 24.173-14.231 22.239-28.077.284 2.487 1.028 6.307.875 8.772a24.5 24.5 0 0 1-6.206 15.52c-14.335 16.245-42.163 9.003-45.223-12.443l-.661-4.843c1.861 13.575 14.834 23.011 28.971 21.079l.005-.008Z"/><mask id="D" width="53" height="34" x="274" y="137" maskUnits="userSpaceOnUse" style="mask-type:luminance"><path fill="#fff" d="M303.865 165.91c13.647-1.749 24.173-14.231 22.239-28.077.284 2.487 1.028 6.307.875 8.772a24.5 24.5 0 0 1-6.206 15.52c-14.335 16.245-42.163 9.003-45.223-12.443l-.661-4.843c1.861 13.575 14.834 23.011 28.971 21.079l.005-.008Z"/></mask><g fill="#fff" mask="url(#D)"><path d="m298.517 144.801-18.178 2.483 3.855 28.138 18.178-2.483-3.855-28.138ZM321.789 148.28l-18.179 2.483 3.855 28.138 18.179-2.484-3.855-28.137Z"/></g><path fill="#000" d="M301.12 171.303a27.896 27.896 0 0 1-7.974-1.18c-9.8-2.924-16.484-10.551-17.889-20.397l-.665-4.847.591-.079c1.834 13.387 14.68 22.727 28.638 20.826a25.98 25.98 0 0 0 17.193-9.943 23.782 23.782 0 0 0 4.875-17.094 25.352 25.352 0 0 1-.091-.712l.59-.074c.035.236.062.476.088.717.066.489.144 1.018.223 1.569.32 2.211.679 4.724.569 6.555a24.962 24.962 0 0 1-6.272 15.691 26.343 26.343 0 0 1-19.876 8.968Zm-25.206-21.193c1.514 9.384 7.988 16.634 17.402 19.445 10.01 2.989 20.445.065 27.234-7.627a24.34 24.34 0 0 0 6.127-15.323 20.206 20.206 0 0 0-.149-3.317 24.637 24.637 0 0 1-5.037 12.757 26.564 26.564 0 0 1-17.587 10.166 27.165 27.165 0 0 1-3.694.254c-10.934-.009-20.633-6.626-24.296-16.364v.009Z"/><path fill="url(#E)" d="M326.1 137.833c-1.865-13.575-14.834-23.011-28.98-21.079-14.146 1.932-24.095 14.502-22.231 28.077 1.865 13.574 14.834 23.01 28.971 21.079 14.138-1.932 24.1-14.502 22.24-28.077Z"/><mask id="F" width="53" height="51" x="274" y="116" maskUnits="userSpaceOnUse" style="mask-type:luminance"><path fill="#fff" d="M326.1 137.833c-1.865-13.575-14.834-23.011-28.98-21.079-14.146 1.932-24.095 14.502-22.231 28.077 1.865 13.574 14.834 23.01 28.971 21.079 14.138-1.932 24.1-14.502 22.24-28.077Z"/></mask><g mask="url(#F)"><path fill="#fff" d="m295.295 94.55-42.941 56.469 22.373 16.963 42.941-56.469-22.373-16.963Z"/></g><path fill="#000" d="M300.206 166.456c-12.79 0-23.894-9.064-25.614-21.586a24.434 24.434 0 0 1 5.2-18.627 26.505 26.505 0 0 1 17.311-9.781c14.281-1.95 27.43 7.617 29.325 21.332a24.444 24.444 0 0 1-5.213 18.649 26.497 26.497 0 0 1-17.315 9.781 27.165 27.165 0 0 1-3.694.232Zm.595-49.654c-1.211 0-2.42.082-3.62.245a25.93 25.93 0 0 0-16.952 9.563 23.87 23.87 0 0 0-5.055 18.181c1.834 13.392 14.685 22.727 28.638 20.826a25.917 25.917 0 0 0 16.93-9.563 23.853 23.853 0 0 0 5.051-18.181c-1.667-12.22-12.518-21.071-24.992-21.071Z"/><path fill="#000" d="M302.552 156.058c-2.116.624-4.513.368-7.192-.769l-2.341 4.1-2.736-1.56 2.316-4.065a19.653 19.653 0 0 1-4.11-3.649 11.377 11.377 0 0 1-2.338-4.043l3.611-2.841a12.5 12.5 0 0 0 1.952 3.558 14.208 14.208 0 0 0 3.139 3.024l4.18-7.321a26.48 26.48 0 0 1-3.174-3.623 8.023 8.023 0 0 1-1.4-3.71c-.164-1.367.208-2.844 1.116-4.432a8.17 8.17 0 0 1 4.854-3.934c2.104-.643 4.48-.39 7.13.761l2.363-4.139 2.736 1.56-2.315 4.065a16.445 16.445 0 0 1 3.256 2.78c.913.983 1.67 2.1 2.245 3.312l-3.501 2.92a14.978 14.978 0 0 0-4.281-5.057l-4.197 7.395a27.947 27.947 0 0 1 3.217 3.623 8 8 0 0 1 1.427 3.702c.175 1.373-.193 2.858-1.099 4.445a8.043 8.043 0 0 1-4.858 3.903v-.005Zm-2.784-20.668a8.332 8.332 0 0 0 1.795 2.671l3.72-6.517a5.078 5.078 0 0 0-3.208-.271 3.465 3.465 0 0 0-2.066 1.683 2.77 2.77 0 0 0-.241 2.434Zm1.138 16.267a3.268 3.268 0 0 0 2.044-1.604 2.817 2.817 0 0 0 .232-2.508 8.422 8.422 0 0 0-1.851-2.728l-3.695 6.482c1.287.475 2.376.594 3.266.358h.004Z"/><path fill="url(#G)" d="M320.007 33.592c25.643 0 46.43-7.44 46.43-16.617S345.65.358 320.007.358s-46.431 7.44-46.431 16.617 20.788 16.617 46.431 16.617Z"/><path fill="#000" d="M320.007 33.955c-12.439 0-24.143-1.749-32.954-4.887-8.925-3.195-13.84-7.486-13.84-12.088 0-4.603 4.915-8.899 13.84-12.094C295.864 1.736 307.568 0 320.007 0s24.147 1.748 32.958 4.886c8.925 3.195 13.84 7.487 13.84 12.094 0 4.606-4.915 8.893-13.84 12.088-8.811 3.151-20.514 4.887-32.958 4.887Zm0-33.216c-25.386 0-46.067 7.29-46.067 16.254 0 8.964 20.668 16.254 46.067 16.254s46.072-7.295 46.072-16.254c0-8.96-20.668-16.268-46.072-16.268V.74Z"/><path fill="url(#H)" d="M320.007 28.916c21.258 0 38.491-5.346 38.491-11.94 0-6.595-17.233-11.941-38.491-11.941s-38.491 5.346-38.491 11.94c0 6.595 17.233 11.94 38.491 11.94Z"/><path fill="#000" d="M320.007 29.195c-10.308 0-20.003-1.246-27.299-3.496-7.397-2.295-11.472-5.39-11.472-8.706 0-3.318 4.075-6.416 11.472-8.71 7.296-2.265 16.991-3.497 27.299-3.497s20.007 1.245 27.303 3.496c7.397 2.295 11.472 5.389 11.472 8.71 0 3.322-4.075 6.412-11.472 8.707-7.296 2.25-16.991 3.496-27.303 3.496Zm0-23.88c-21.071 0-38.211 5.244-38.211 11.664s17.14 11.661 38.211 11.661c21.07 0 38.215-5.245 38.215-11.66 0-6.417-17.153-11.666-38.215-11.666Z"/><path fill="url(#I)" d="M320.576 56.048c11.109-.11 22.388-1.312 32.884-5.088 4.635-1.8 10.719-4.532 12.623-9.44a6.467 6.467 0 0 0 .363-2.08V16.98c-.437 9.405-18.851 13.719-26.454 15.003-17.35 3.012-46.338 2.409-61.321-7.43-2.516-1.748-5.059-4.3-5.081-7.57.043.678-.119 23.357.122 23.667.578 2.745 2.749 4.808 4.959 6.36 5.161 3.496 11.262 5.288 17.298 6.651a115.559 115.559 0 0 0 24.62 2.395l-.013-.008Z"/><path fill="#000" d="M320.151 56.415c-8.15.052-16.284-.754-24.265-2.404-5.576-1.263-12.006-3.06-17.425-6.709-2.994-2.12-4.613-4.209-5.112-6.582-.123-.564-.175-3.169-.14-18.312v-5.425l.726-.026v.21c.092 2.474 1.751 4.856 4.92 7.085 14.063 9.235 41.953 10.69 61.058 7.373 4.294-.721 25.719-4.834 26.152-14.659h.723v22.46a6.835 6.835 0 0 1-.381 2.186c-1.882 4.851-7.542 7.604-12.833 9.658-9.113 3.283-19.338 4.909-32.118 5.105h-1.313l.008.04ZM274.04 40.488v.08c.46 2.184 1.988 4.134 4.815 6.118 5.314 3.592 11.66 5.35 17.171 6.595a115.143 115.143 0 0 0 24.108 2.39h.438c13.13-.13 23.526-1.748 32.761-5.07 5.134-1.992 10.632-4.654 12.409-9.23a6.13 6.13 0 0 0 .337-1.953V19.912c-3.712 8.011-20.502 11.477-26.03 12.412-19.197 3.33-47.24 1.858-61.487-7.43h-.048l-.092-.091c-2.189-1.526-3.664-3.138-4.478-4.808v2.4c-.017 5.992-.044 17.04.096 18.093Z"/><path fill="url(#J)" d="M292.597 345.084c15.502-8.065 25.722-19.099 22.828-24.645-2.894-5.547-17.806-3.505-33.308 4.56-15.502 8.065-25.723 19.099-22.829 24.645 2.894 5.546 17.807 3.505 33.309-4.56Z"/><path fill="#000" d="M267.234 353.152c-4.118 0-7.082-1.084-8.259-3.344-3.033-5.808 7.06-16.848 22.979-25.126 15.919-8.278 30.757-10.214 33.79-4.41 3.033 5.804-7.065 16.849-22.979 25.131-9.73 5.061-19.057 7.749-25.531 7.749Zm40.325-35.515c-6.342 0-15.696 2.692-25.277 7.674-15.319 7.964-25.474 18.794-22.677 24.17 2.797 5.375 17.508 3.251 32.827-4.712 15.32-7.963 25.474-18.793 22.673-24.164-1.042-2.015-3.756-2.968-7.546-2.968Z"/><path fill="url(#K)" d="M296.673 352.068c6.68-3.562 13.131-7.832 18.27-13.418 2.236-2.543 5.046-6.118 4.652-9.676a4.453 4.453 0 0 0-.437-1.372l-3.729-7.155c2.713 5.817-7.065 14.222-11.258 17.391-9.537 7.277-27.255 16.026-39.414 14.789-2.079-.279-4.412-1.005-5.454-2.976.237.398 3.939 7.732 4.189 7.845 1.208 1.477 3.169 2.033 5.003 2.286 4.219.49 8.474-.345 12.553-1.425a78.584 78.584 0 0 0 15.639-6.289h-.014Z"/><mask id="L" width="61" height="40" x="259" y="320" maskUnits="userSpaceOnUse" style="mask-type:luminance"><path fill="#fff" d="M296.673 352.068c6.68-3.562 13.131-7.832 18.27-13.418 2.236-2.543 5.046-6.118 4.652-9.676a4.444 4.444 0 0 0-.437-1.372l-3.729-7.155c2.713 5.817-7.065 14.222-11.258 17.39-9.537 7.277-27.255 16.027-39.414 14.79-2.079-.28-4.412-1.005-5.454-2.976.237.398 3.939 7.731 4.189 7.845 1.208 1.477 3.169 2.032 5.003 2.286 4.219.489 8.474-.346 12.553-1.425a78.584 78.584 0 0 0 15.639-6.289h-.014Z"/></mask><g mask="url(#L)"><path fill="#fff" d="m317.086 316.748-15.856 8.249 12.808 24.547 15.856-8.25-12.808-24.546Z"/></g><path fill="#000" d="M271.038 360.28c-.864 0-1.728-.048-2.587-.144-2.49-.345-4.149-1.101-5.217-2.391-.206-.209-.714-1.101-3.313-6.14-.381-.734-.718-1.39-.876-1.657l-.07-.131.622-.349.07.131c.823 1.429 2.543 2.329 5.125 2.674 11.428 1.128 28.686-6.735 39.156-14.724 2.355-1.779 13.954-10.952 11.152-16.957l.64-.315 3.733 7.154c.236.467.395.969.473 1.486.394 3.58-2.189 7.046-4.74 9.965-4.285 4.646-9.897 8.846-17.132 12.828h.048l-1.282.668a79.477 79.477 0 0 1-15.713 6.32c-3.042.809-6.531 1.582-10.089 1.582Zm-7.331-3.059.052.065c.941 1.154 2.46 1.84 4.775 2.155 4.32.498 8.702-.437 12.413-1.412a78.53 78.53 0 0 0 15.359-6.153l.201-.11c7.765-4.138 13.709-8.505 18.173-13.343 2.46-2.797 4.924-6.119 4.561-9.396a4.078 4.078 0 0 0-.398-1.255l-2.591-4.965c-.171 5.979-8.881 13.073-11.866 15.323-7.922 6.045-24.459 14.983-37.204 14.987a24.395 24.395 0 0 1-2.477-.122 9.83 9.83 0 0 1-3.966-1.312c.989 1.871 2.635 5.062 2.959 5.52l.009.018Z"/><path fill="url(#M)" d="M277.165 271.524c10.404-8.466 21.303-12.308 24.341-8.584 3.037 3.723-2.937 13.601-13.341 22.067-10.404 8.465-21.298 12.307-24.336 8.583-3.038-3.723 2.937-13.601 13.336-22.066Z"/><path fill="#000" d="M267.659 295.373c-1.821 0-3.239-.502-4.101-1.56-3.213-3.933 2.67-13.846 13.389-22.565 10.719-8.719 21.631-12.469 24.839-8.535 3.208 3.933-2.67 13.85-13.389 22.569-7.839 6.377-15.779 10.091-20.738 10.091Zm9.739-23.574c-10.067 8.186-16.147 18.063-13.289 21.568 2.858 3.506 13.774-.437 23.837-8.636s16.147-18.063 13.288-21.568c-2.858-3.505-13.778.437-23.836 8.636Z"/><path fill="url(#N)" d="M292.314 289.591c4.469-3.71 8.649-7.915 11.652-12.919 1.286-2.26 2.849-5.376 1.995-7.998a3.432 3.432 0 0 0-.542-.966l-3.918-4.808c2.946 3.934-3.103 11.801-5.764 14.816-6.036 6.95-17.998 16.272-27.334 17.229-1.602.114-3.475-.07-4.565-1.394.241.262 4.162 5.201 4.377 5.244 1.138.923 2.7 1.036 4.114.945 3.252-.293 6.32-1.574 9.222-3.012a60.486 60.486 0 0 0 10.781-7.154l-.018.017Z"/><mask id="O" width="44" height="38" x="263" y="262" maskUnits="userSpaceOnUse" style="mask-type:luminance"><path fill="#fff" d="M292.314 289.591c4.469-3.71 8.649-7.915 11.652-12.919 1.286-2.26 2.849-5.376 1.995-7.998a3.432 3.432 0 0 0-.542-.966l-3.918-4.808c2.946 3.934-3.103 11.801-5.764 14.816-6.036 6.95-17.998 16.272-27.334 17.229-1.602.114-3.475-.07-4.565-1.394.241.262 4.162 5.201 4.377 5.244 1.138.923 2.7 1.036 4.114.945 3.252-.293 6.32-1.574 9.222-3.012a60.486 60.486 0 0 0 10.781-7.154l-.018.017Z"/></mask><g fill="#fff" mask="url(#O)"><path d="m280.18 278.623-10.645 8.66 13.442 16.474 10.644-8.659-13.441-16.475ZM302.147 259.879l-10.645 8.659 13.442 16.475 10.644-8.66-13.441-16.474ZM264.457 286.785l-10.645 8.66 13.442 16.474 10.645-8.66-13.442-16.474Z"/></g><path fill="#000" d="M271.537 300.129c-1.532 0-2.67-.333-3.541-1.032-.219-.149-.771-.787-3.423-4.064l-.932-1.15c-.031-.035-.062-.066-.088-.1l.534-.468c.031.03.06.062.088.096.823.927 2.232 1.311 4.197 1.184 6.509-.668 18.221-6.892 27.098-17.106 1.488-1.696 8.754-10.345 5.747-14.37l.56-.437 3.917 4.807c.257.321.46.681.6 1.067.875 2.661-.534 5.682-2.018 8.304-2.679 4.458-6.403 8.588-11.734 13.02l-.583.485a60.253 60.253 0 0 1-10.263 6.722c-2.701 1.337-5.922 2.744-9.354 3.059-.28-.026-.547-.017-.805-.017Zm-3.182-1.653.065.053c.876.708 2.101.983 3.87.874 3.304-.293 6.447-1.665 9.086-2.972a60.469 60.469 0 0 0 10.715-7.124l.503-.411c4.994-4.217 8.522-8.173 11.065-12.408 1.405-2.465 2.74-5.319 1.961-7.705a3.027 3.027 0 0 0-.477-.852l-2.534-3.108c.525 4.554-4.745 11.014-6.601 13.134-5.357 6.162-17.578 16.319-27.575 17.346a8.002 8.002 0 0 1-2.945-.266c1.007 1.237 2.534 3.116 2.867 3.448v-.009ZM227.741 350.779c-5.401 29.859-70.14 16.206-64.682-1.784.438-1.507 25.658-37.861 25.658-37.861l40.788 15.122-1.772 24.523h.008Z"/><path fill="url(#P)" d="m206.194 373.112 26.782-52.009-32.752-17.705s-15.683 23.705-19.859 43.805c-4.175 20.101 25.824 25.9 25.824 25.9l.005.009Z"/><path fill="#000" d="m206.386 373.514-.262-.052c-.167-.031-17.027-3.392-23.736-13.457-2.552-3.824-3.349-8.156-2.373-12.863 4.145-19.938 19.758-43.705 19.911-43.932l.184-.271 33.343 18.024-.162.31-26.905 52.241Zm-6.04-69.64c-1.751 2.701-15.757 24.759-19.63 43.412-.941 4.515-.18 8.663 2.262 12.325 6.093 9.139 20.878 12.631 23.023 13.112l26.52-51.467-32.175-17.382Z"/><path fill="#000" d="M176.001 342.553c7.774-13.374 47.21-.061 39.441 13.313l19.495-29.2-40.579-20.065-18.357 35.948v.004Z"/><path fill="url(#Q)" d="M71.231 419.794c17.341-55.266 35.558-91.781 66.376-113.166 21.311 2.106 58.515-26.337 58.515-26.337-18.339 20.935-33.059 68.705-33.059 68.705 17.819-30.664 66.315-19.799 64.683 1.783 0 0 41.033-108.682 10.706-121.278-30.328-12.596-73.73 19.571-73.73 19.571s-8.793-18.557-52.379 13.514c-43.585 32.071-95.14 106.898-95.14 106.898 23.144-20.174 59.757 13.112 54.032 50.31h-.004Z"/><mask id="R" width="233" height="194" x="17" y="226" maskUnits="userSpaceOnUse" style="mask-type:luminance"><path fill="#fff" d="M71.231 419.794c17.341-55.266 35.558-91.781 66.376-113.166 21.311 2.106 58.515-26.337 58.515-26.337-18.339 20.935-33.059 68.705-33.059 68.705 17.819-30.664 66.315-19.799 64.683 1.783 0 0 41.033-108.682 10.706-121.278-30.328-12.596-73.73 19.571-73.73 19.571s-8.793-18.557-52.379 13.514c-43.585 32.071-95.14 106.898-95.14 106.898 23.144-20.174 59.757 13.112 54.032 50.31h-.004Z"/></mask><g mask="url(#R)"><path fill="#fff" d="M69.809 416.861s19.429-82.603 56.177-104.281l3.274 6.591-53.753 106.868-5.69-9.178h-.008Z" opacity=".54"/></g><path fill="#000" d="M71.542 420.148h-.793l.14-.464a52.438 52.438 0 0 0-5.015-31.371c-4.517-9.109-11.297-16.477-19.092-20.756-10.457-5.743-21.154-4.939-29.326 2.185l-2.131 1.858 1.601-2.33c.517-.747 52.086-75.247 95.221-106.982 25.005-18.399 38.639-20.152 45.673-18.382 4.486 1.128 6.438 3.671 7.034 4.628a151.21 151.21 0 0 1 25.211-14.296c13.424-5.93 32.735-11.621 48.522-5.065 7.06 2.933 10.873 11.202 11.341 24.58.372 10.611-1.348 24.475-5.108 41.188-6.403 28.439-16.632 55.689-16.742 55.964l-.875 2.317.184-2.47c.608-7.989-5.874-15.074-16.913-18.487a44.586 44.586 0 0 0-25.303-.105c-9.423 2.806-16.96 8.689-21.801 17.015l-1.563 2.696.915-2.98c.039-.118 3.755-12.124 9.664-26.534 5.095-12.421 12.847-29.06 21.592-40.047-8.194 5.9-35.843 24.781-54.069 24.781-.752 0-1.488-.031-2.188-.096-4.324 2.993-7.795 5.402-10.71 7.552a108.559 108.559 0 0 1 10.39-8.195l.11-.074h.131c20.939 2.076 57.894-25.983 58.266-26.267l.481.516c-9.441 10.777-17.901 28.845-23.342 42.101a362.398 362.398 0 0 0-8.784 23.802 37.605 37.605 0 0 1 20.707-14.947 45.375 45.375 0 0 1 25.719.105c10.43 3.229 16.908 9.693 17.42 17.176 2.416-6.661 10.597-29.895 16.015-53.981 5.87-26.092 9.629-58.539-5.812-64.95-15.547-6.455-34.653-.817-47.945 5.052a149.081 149.081 0 0 0-25.435 14.476l-.345.257-.189-.389c0-.035-1.654-3.343-6.806-4.624-6.885-1.717-20.291.062-45.038 18.274-39.056 28.731-85.075 92.655-93.667 104.8 8.141-5.891 18.291-6.201 28.223-.747 7.918 4.371 14.803 11.827 19.385 21.062a53.406 53.406 0 0 1 5.515 28.107c8.986-28.138 17.608-49.108 27.028-65.777a168.437 168.437 0 0 1 9.073-14.383c-2.333 3.902-5.029 8.671-8.452 14.733-9.787 17.316-18.711 39.295-28.091 69.172l-.026.302Z"/><path fill="url(#S)" d="M217.661 167.929s-.21-19.593-9.073-24.593c-8.864-5-20.782-1.595-22.681 1.232-1.9 2.828 1.369 4.974 1.369 4.974s-3.899 2.378-.105 5.065c3.795 2.688 4.959 2.269 4.959 2.269l3.165 11.057h22.366v-.004Z"/><path fill="#000" d="M218.554 168.292h-23.526l-3.16-11.036c-.63 0-2.07-.354-4.902-2.36-1.234-.874-1.843-1.827-1.808-2.837.04-1.18.963-2.089 1.523-2.53a4.766 4.766 0 0 1-1.663-2.548 3.391 3.391 0 0 1 .591-2.622c1.978-2.942 14.177-6.408 23.154-1.342 3.768 2.124 6.469 6.993 8.032 14.423a61.038 61.038 0 0 1 1.216 10.34l.543.512Zm-22.987-.713h21.727c-.088-2.662-.946-19.457-8.881-23.937-8.658-4.882-20.335-1.67-22.213 1.123a2.676 2.676 0 0 0-.482 2.072c.285 1.42 1.751 2.395 1.751 2.408l.464.306-.473.293s-1.553.965-1.597 2.242c0 .756.486 1.503 1.51 2.233 3.501 2.465 4.639 2.216 4.648 2.216l.359-.131.088.371 3.099 10.804Z"/><path fill="url(#T)" d="M23.347 217.032s10.75 16.394 20.913 15.843c10.164-.551 18.384-9.838 18.45-13.234.065-3.396-3.84-3.453-3.84-3.453s2.005-4.104-2.626-4.322c-4.63-.219-5.396.756-5.396.756l-8.632-7.618-18.847 12.028h-.022Z"/><path fill="#000" d="M43.748 233.246c-4.189 0-8.898-2.622-14.006-7.836a61.29 61.29 0 0 1-6.688-8.181l-.359-.551h.556l18.983-12.12 8.613 7.601c.539-.328 1.935-.818 5.402-.652 1.51.075 2.538.547 3.063 1.416.605 1.019.311 2.282.08 2.951a4.773 4.773 0 0 1 2.774 1.258 3.375 3.375 0 0 1 .91 2.513c-.078 3.549-8.486 13.029-18.78 13.588-.189.009-.368.013-.548.013Zm-19.897-16.109c1.518 2.216 11.283 15.882 20.392 15.384 9.931-.538 18.033-9.528 18.107-12.889a2.67 2.67 0 0 0-.709-2.006c-1.002-1.04-2.758-1.084-2.775-1.084h-.556l.24-.502s.789-1.652.132-2.749c-.385-.647-1.217-1.006-2.473-1.062-4.259-.206-5.103.625-5.112.633l-.232.306-.271-.271-8.43-7.43-18.313 11.67Z"/><path fill="url(#U)" d="M143.49 144.206c.144-1.443-2.127-2.841-3.064-3.357-3.939-14.86-10.426-20.542-19.154-20.581-11.248-.048-30.717 18.793-10.338 35.371l4.815 24.536c2.263 8.96 19.346 5.717 17.844-2.461l-2.009-12.827c5.542-1.504 11.42-6.508 9.932-18.505.875-.476 1.869-1.206 1.969-2.185l.005.009Z"/><path fill="#000" d="M123.973 185.879c-3.882 0-7.59-1.749-8.574-5.634l-4.815-24.427c-7.804-6.398-10.618-14.038-7.931-21.525 3.064-8.5 12.212-14.396 18.554-14.396h.039c9.524.035 15.709 6.612 19.46 20.699 1.239.699 3.116 1.997 3.125 3.452v.166c-.092.874-.744 1.648-1.943 2.334 1.58 13.505-6.15 17.452-9.91 18.562l1.961 12.517c.771 4.218-3.142 7.072-7.108 7.933-.939.206-1.897.313-2.858.319Zm-2.749-65.274c-6.101 0-14.929 5.708-17.879 13.924-1.834 5.105-1.966 12.858 7.812 20.817l.101.083 4.837 24.659c1.116 4.405 6.175 5.747 10.596 4.807 3.76-.817 7.248-3.335 6.566-7.115l-2.058-13.155.307-.083c10.408-2.824 10.229-13.61 9.668-18.116l-.03-.245.214-.114c.744-.393 1.642-1.022 1.751-1.813v-.083c.083-.848-.994-1.971-2.884-3.012l-.136-.074-.039-.144c-3.651-13.829-9.63-20.284-18.821-20.319l-.005-.017Z"/><path fill="#000" d="M131.541 164.528c-3.721 1.001-9.118-.62-12.912-3.575 0 0 3.939 10.415 13.769 9.056l-.875-5.481h.018ZM129.225 140.137c2.977-1.346-3.431-9.423-3.431-9.423s-2.425-2.622.84-1.91c2.39.529 5.865.052 9.012-1.145a6.148 6.148 0 0 0 3.383-8.479 6.154 6.154 0 0 0-2.275-2.509c-4.185-2.622-11.113-3.549-21.854 3.811-27.29 4.061-16.633 35.201-3.97 35.153 2.543.135 6.797-2.57 8.382-5.171-9.42-6.512-2.447-14.396 2.118-14.759 3.108-.24 6.298 1.757 7.795 4.432Z"/><path fill="#000" d="M122.222 151.382a8.05 8.05 0 0 1-8.027-8.697 8.05 8.05 0 0 1 4.975-6.794 8.072 8.072 0 0 1 8.32 1.353 8.047 8.047 0 0 1 2.414 3.649l-.679.218a7.329 7.329 0 0 0-2.197-3.328A7.352 7.352 0 0 0 116.299 139a7.328 7.328 0 0 0 2.081 10.58 7.35 7.35 0 0 0 3.842 1.085v.717Z"/><path fill="#000" d="M119.303 146.828a.34.34 0 0 1-.144-.031.343.343 0 0 1-.119-.087 5.645 5.645 0 0 1-1.265-5.004 4.303 4.303 0 0 1 2.854-3.06c3.537-1.236 5.874 1.775 5.9 1.805a.356.356 0 0 1-.066.503.354.354 0 0 1-.265.071.356.356 0 0 1-.238-.137c-.083-.109-2.053-2.622-5.095-1.564a3.554 3.554 0 0 0-2.398 2.574 4.902 4.902 0 0 0 1.098 4.371.357.357 0 0 1 0 .502.335.335 0 0 1-.262.057ZM137.331 138.021c.473-.065 1.064 1.395 1.313 3.256.25 1.862.084 3.423-.389 3.497-.473.074-1.068-1.39-1.313-3.252-.245-1.862-.083-3.435.389-3.501Z"/><path fill="#000" d="M136.968 138.524c.228-1.963 1.646-1.582 2.11.323l-2.11-.323ZM134.211 139.87a.355.355 0 0 1-.346-.28c-.464-2.041.263-6.062 1.829-6.555.828-.271 1.594.397 2.285 1.984a.352.352 0 0 1-.184.467.354.354 0 0 1-.468-.183c-.499-1.141-1.011-1.722-1.409-1.591-.976.319-1.799 3.807-1.362 5.743a.349.349 0 0 1-.137.378.365.365 0 0 1-.13.059l-.078-.022Z"/><path fill="url(#V)" d="M193.855 154.594c.206-.135.438-.266.639-.393 12.256-7.277 27.903.809 29.426 14.947 1.944 18.064-1.891 49.977-53.862 48.159 0 0 6.171 15.297 1.103 27.447 0 0-46.129 52.665-73.874 27.998l-13.183 13.675s-30.937-14.685-30.175-31.905c.762-17.22 14.702-16.704 14.702-16.704s15.976-16.206 21.552-26.332c0 0-27.916-.254-36.267-7.867 0 0 2.298 30.886-21.285 27.337-23.583-3.549-43.612-35.698-24.848-53.421 18.764-17.722 82.15-1.263 82.15-1.263s-3.19-13.693 18.257-9.222c21.447 4.471 31.439 14.034 31.439 14.034s27.89-9.877 48.681 0c0 0 2.748-8.597 1.391-17.395a9.168 9.168 0 0 1 4.15-9.112l.004.017Z"/><path fill="#000" d="m84.182 286.855-.232-.109a98.82 98.82 0 0 1-15.437-9.532c-10.089-7.692-15.254-15.546-14.939-22.705.723-16.355 13.324-17.045 14.908-17.045 1.366-1.394 15.613-16.066 21.097-25.629-1.864-.044-7.83-.236-14.444-1.066-10.115-1.276-17.114-3.405-20.825-6.329a48.686 48.686 0 0 1-.473 8.265c-.67 4.598-2.381 10.926-6.701 14.925-3.633 3.366-8.53 4.611-14.558 3.707-13.651-2.055-26.725-13.706-31.124-27.692-3.217-10.236-1.055-19.589 6.084-26.333 7.878-7.43 24.143-9.903 48.396-7.373a264.47 264.47 0 0 1 33.553 5.887c-.175-1.311-.32-4.61 2.114-7.093 2.95-3.016 8.553-3.684 16.659-1.997 19.845 4.139 30.069 12.744 31.452 13.985 2.565-.874 28.661-9.178 48.374-.091.504-1.749 2.429-9.279 1.261-16.844a9.52 9.52 0 0 1 4.276-9.445l.039-.026c.215-.136.438-.271.653-.398a19.64 19.64 0 0 1 18.895-.656 20.1 20.1 0 0 1 7.57 6.511 20.056 20.056 0 0 1 3.495 9.346c1.094 10.183.346 24.518-9.428 35.012-8.973 9.615-23.863 14.187-44.268 13.549 1.002 2.766 5.458 16.306.91 27.211l-.061.096a159.445 159.445 0 0 1-17.679 16.695c-9.555 7.723-23.758 17.106-37.169 17.941-7.384.437-13.87-1.687-19.258-6.377l-13.14 13.61Zm-15.757-48.687c-1.663 0-13.459.563-14.159 16.372-.705 16.009 26.918 30.06 29.763 31.467l13.245-13.745.254.227c5.309 4.721 11.703 6.884 19.009 6.429 24.913-1.555 53.109-32.988 54.322-34.352 4.915-11.87-1.068-26.97-1.13-27.123l-.201-.507h.547c20.462.716 35.353-3.763 44.251-13.317 9.599-10.297 10.325-24.419 9.244-34.449a19.343 19.343 0 0 0-3.372-9.016 19.386 19.386 0 0 0-7.303-6.281 18.935 18.935 0 0 0-18.213.634c-.205.118-.407.245-.599.367l-.04.026a8.794 8.794 0 0 0-3.987 8.741c1.357 8.781-1.374 17.483-1.405 17.561l-.123.385-.367-.175c-20.419-9.698-48.147-.083-48.409 0l-.206.074-.162-.148c-.096-.097-10.185-9.55-31.264-13.942-7.852-1.639-13.236-1.036-16.007 1.796-2.77 2.832-1.838 6.953-1.83 6.993l.132.572-.569-.144c-.63-.166-63.409-16.206-81.814 1.176-6.928 6.556-9.025 15.642-5.895 25.602 4.324 13.754 17.17 25.201 30.55 27.211 5.8.874 10.505-.31 13.968-3.522 8-7.404 6.92-23.282 6.91-23.44l-.065-.874.657.599c8.158 7.43 35.755 7.753 36.035 7.758h.595l-.289.52c-5.537 10.052-21.447 26.245-21.609 26.411l-.11.109h-.332l-.022.005Z"/><path fill="#000" d="M99.344 274.054c-14.037-11.757-15.18-26.708-32.39-28.408-17.21-1.701-16.26 26.511 17.732 41.402l14.662-12.998-.004.004ZM90.66 211.38l10.347-18.845s-7.283-2.478-11.074-16.241l-17.07-3.601c9.997 12.967-10.57 18.828-18.956 30.943 8.649 5.415 21.241 7.731 36.753 7.744ZM170.132 216.953c-13.669-1.25-23.141-6.119-23.141-6.119 6.868 8.886 15.319 15.424 26.025 18.684a29.592 29.592 0 0 0-2.884-12.565ZM111.451 196.141c-3.534 0-6.54-.649-9.017-1.945l.333-.63c12.211 6.407 35.545-5.974 35.781-6.118l.337.629a87.948 87.948 0 0 1-13.424 5.542c-5.319 1.681-9.989 2.522-14.01 2.522Z"/><path fill="#000" d="M54.314 204.519h-.713c.135-11.534-10.64-17.801-10.75-17.862l.354-.621c.11.048 11.245 6.512 11.109 18.483ZM126.245 193.011s-14.099 11.464-31.357 9.615l5.756-10.261c5.65 2.849 17.227 3.693 25.601.629v.017ZM138.329 306.352c-16.663-.952-23.355-7.263-24.598-5.004-1.243 2.26 11.332 15.437 11.332 15.437l13.266-10.433ZM198.687 188.064c-.061-.048-6.32-4.712-12.487-7.504l.293-.647c6.241 2.823 12.557 7.535 12.623 7.583l-.429.568ZM341.441 306.789l10.885 9.676 11.459-.874-10.899-9.689-11.441.852-.004.035Z"/><path fill="#000" d="m364.848 315.967-12.693.944-11.012-9.79-.223-.188.061-.205-.087-.997.669.595 11.459-.874 11.826 10.515Zm-12.369.044 10.242-.765-9.988-8.876-10.242.764 9.988 8.877Z"/><path fill="url(#W)" d="m405.549 238.054-.196 11.521 10.898 9.689.197-11.665-10.789-9.615a.067.067 0 0 0-.034-.016.064.064 0 0 0-.036.005.062.062 0 0 0-.029.024.069.069 0 0 0-.011.035v.022Z"/><path fill="#000" d="m416.89 247.402-.219 12.823-11.76-10.454.201-11.722a.499.499 0 0 1 .584-.49.515.515 0 0 1 .256.123l10.938 9.72Zm-1.059 10.9.175-10.489-10.036-8.92-.175 10.511 10.036 8.898Z"/><path fill="url(#X)" d="M382.689 307.899c-.989-6.45 1.567-14.248 7.336-20.445 8.478-9.108 20.733-11.363 27.662-5.218l-10.899-9.69c-6.924-6.154-19.184-3.885-27.658 5.219-5.773 6.197-8.316 13.985-7.34 20.449a14.213 14.213 0 0 0 4.119 8.239l.372.345 10.899 9.685a8.48 8.48 0 0 1-.372-.341 14.212 14.212 0 0 1-4.119-8.243Z"/><path fill="#000" d="m417.976 281.908-.582.655c-3.252-2.884-7.826-3.933-12.877-3.007-5.051.927-10.137 3.868-14.168 8.2-5.458 5.86-8.225 13.548-7.227 20.082a13.817 13.817 0 0 0 3.992 7.994l.359.332-.582.651-10.899-9.689a10.608 10.608 0 0 1-.385-.354 14.693 14.693 0 0 1-4.25-8.488c-1.037-6.783 1.817-14.759 7.441-20.812 4.158-4.467 9.362-7.474 14.654-8.466 5.292-.992 10.163.144 13.617 3.221l10.907 9.681Zm-35.86 24.881c-.561-6.512 2.28-13.924 7.589-19.628 4.158-4.466 9.362-7.473 14.65-8.466a17.284 17.284 0 0 1 9.454.682l-7.314-6.499c-3.248-2.889-7.821-3.959-12.872-3.011s-10.142 3.868-14.173 8.199c-5.458 5.861-8.229 13.549-7.226 20.083a13.8 13.8 0 0 0 3.992 7.993l.358.333 7.31 6.498a15.766 15.766 0 0 1-1.628-4.999c-.044-.398-.105-.791-.14-1.185Z"/><path fill="#000" d="M371.974 291.431a20.069 20.069 0 0 0-.184 6.783 14.241 14.241 0 0 0 4.119 8.243l.372.341 10.899 9.689-.372-.345a14.207 14.207 0 0 1-4.119-8.238 21.827 21.827 0 0 1 1.313-10.761l-12.028-5.712Z"/><path fill="url(#Y)" d="M427.093 263.578a29.965 29.965 0 0 1 3.024 9.401l.066.437 10.334 9.178-.797 7.102-11.721 3.173a54.366 54.366 0 0 1-5.463 11.32l6.36 7.919-13.201 14.182-8.145-6a54.903 54.903 0 0 1-4.657 3.059c-.674.398-1.357.782-2.04 1.141-.223.122-.438.24-.683.358a48.747 48.747 0 0 1-3.444 1.604l-2.465 12.058-16.689 2.907a.02.02 0 0 0-.011.009.03.03 0 0 0-.005.015c0 .005.002.01.005.014a.022.022 0 0 0 .011.01l10.859 9.65 16.742-2.911 2.469-12.062a53.195 53.195 0 0 0 10.819-6.172l8.146 6.001 13.201-14.182-6.386-7.911a54.389 54.389 0 0 0 5.462-11.32l11.717-3.173 1.926-17.141-10.71-9.519a.139.139 0 0 0-.064-.032.132.132 0 0 0-.071.007.133.133 0 0 0-.084.108l-.911 8.121a29.18 29.18 0 0 0-2.713-7.657l8.425-10.49-10.478-10.052-10.899-9.689 10.479 10.052-8.426 10.489.018-.004Z"/><path fill="#000" d="m453 282.069-1.983 17.657-11.782 3.195a54.86 54.86 0 0 1-5.253 10.927l6.399 7.971-13.726 14.742-8.202-6.04a53.408 53.408 0 0 1-10.435 5.944l-2.477 12.124-17.25 3.003-11.012-9.79a.468.468 0 0 1-.136-.486.446.446 0 0 1 .136-.219.444.444 0 0 1 .236-.104l16.388-2.85 2.451-11.997.214-.087a52.74 52.74 0 0 0 3.414-1.591l.679-.354a57.135 57.135 0 0 0 2.017-1.132 54.427 54.427 0 0 0 4.618-3.059l.263-.193 8.088 5.962 12.693-13.619-6.32-7.867.166-.262a53.81 53.81 0 0 0 5.419-11.228l.079-.218 11.656-3.16.735-6.556-10.281-9.143-.044-.297-.04-.284a29.427 29.427 0 0 0-2.985-9.266l.372-.197-.328-.279 8.176-10.179-10.189-9.786.591-.643 10.911 9.703 10.768 10.336-8.496 10.581a29.781 29.781 0 0 1 2.031 5.14l.639-5.682a.574.574 0 0 1 .363-.467.564.564 0 0 1 .582.109L453 282.069Zm-2.784 16.971 1.865-16.608-10.102-8.977-1.007 8.973-.875 7.618-11.783 3.195a54.847 54.847 0 0 1-5.252 10.926l6.399 7.972-13.713 14.755-8.202-6.04a56.828 56.828 0 0 1-4.43 2.906c-.705.415-1.396.8-2.057 1.149l-.687.359a56.59 56.59 0 0 1-3.261 1.53l-2.482 12.123-16.142 2.811 10.067 8.946 16.243-2.823 2.451-11.997.214-.088a52.708 52.708 0 0 0 10.728-6.119l.263-.192 8.089 5.962 12.693-13.615-6.321-7.867.167-.262a53.709 53.709 0 0 0 5.418-11.228l.079-.218 11.638-3.191Zm-12.75-25.821 8.356-10.406-9.914-9.515-8.316 10.332a30.463 30.463 0 0 1 2.937 9.283c0 .092.031.184.044.276l9.874 8.78-.197-.948a28.875 28.875 0 0 0-2.67-7.548l-.114-.254Z"/><path fill="#000" d="M384.768 338.882a30.872 30.872 0 0 0 2.547.437c.434.057 1.051-.105 1.489-.07l.144.149-.333.056-10.898-9.685a33.176 33.176 0 0 1-3.843-.572 28.127 28.127 0 0 1-4.259-1.268l-.586-.231c-.39-.162-.775-.328-1.152-.507l-9.843 9.13 10.898 9.685 9.84-9.13a27.614 27.614 0 0 0 5.996 2.006Z"/><path fill="#000" d="m389.841 339.686-1.361.236-.237-.21h-.1c-.29.042-.584.052-.876.031a28.449 28.449 0 0 1-2.595-.442 28.402 28.402 0 0 1-5.822-1.914l-9.918 9.204-11.555-10.275 10.413-9.659.267.127c.372.175.753.345 1.134.498l.577.232c.771.297 1.567.564 2.359.791.604.171 1.222.324 1.834.437.407.088.823.166 1.243.236a29.26 29.26 0 0 0 2.543.328h.149l10.645 9.462H389.001l.84.918Zm-20.917 5.73 9.769-9.06.267.126a27.587 27.587 0 0 0 7.147 2.212c.421.07.806.131 1.195.179l-9.769-8.684a31.656 31.656 0 0 1-2.473-.319 31.68 31.68 0 0 1-3.165-.717 28.75 28.75 0 0 1-2.442-.813l-.591-.24a24.7 24.7 0 0 1-.901-.389l-9.275 8.601 10.238 9.104Z"/><path fill="url(#Z)" d="m386.339 252.883 2.469-12.058 16.658-2.902a.065.065 0 0 1 .031.002.076.076 0 0 1 .026.015.071.071 0 0 1 .027.053l-.197 11.586a29.004 29.004 0 0 1 9.839 2.578l9.844-9.129 10.478 10.052-8.425 10.489a29.998 29.998 0 0 1 3.028 9.401c0 .144.044.288.062.437l11.161-.835a.266.266 0 0 1 .108.017.253.253 0 0 1 .159.263l-1.891 16.84-11.717 3.177a54.452 54.452 0 0 1-5.463 11.315l6.356 7.924-13.197 14.178-8.149-6.001a52.864 52.864 0 0 1-10.82 6.171l-2.464 12.063-16.712 2.907a.043.043 0 0 1-.012.002.061.061 0 0 1-.012-.005.024.024 0 0 1-.006-.011.015.015 0 0 1 0-.013l.192-11.634a28.983 28.983 0 0 1-9.839-2.579l-9.839 9.13-10.505-10.052 8.426-10.489a29.923 29.923 0 0 1-3.029-9.401c-.022-.144-.044-.284-.062-.437l-11.296.843a.134.134 0 0 1-.107-.044.136.136 0 0 1-.038-.109l1.904-16.975 11.722-3.177a54.413 54.413 0 0 1 5.462-11.32l-6.36-7.924 13.201-14.178 8.146 6.001a53.117 53.117 0 0 1 10.819-6.171h.022Zm20.817 20.004c-6.85-6.556-19.399-4.371-28.012 4.877-5.774 6.198-8.317 13.986-7.341 20.45a14.216 14.216 0 0 0 4.119 8.239c6.854 6.577 19.399 4.396 28.013-4.874 5.773-6.197 8.316-13.985 7.335-20.449-.608-4.878-4.11-8.243-4.11-8.243h-.004Z"/><path fill="#000" d="m407.624 336.15-10.898-9.689-2.465 12.063 10.899 9.689 2.464-12.063ZM407.55 320.29a298.58 298.58 0 0 1 19.044 15.69l-7.953-5.861-3.248 1.949-13.091-8.365 5.252-3.413h-.004ZM433.291 314.158l-4.377-2.05-6.356-7.919a61.74 61.74 0 0 0 5.463-11.32l11.2 9.615-5.904 11.682-.026-.008ZM440.006 289.364l-.582.653 10.9 9.688.582-.653-10.9-9.688Z"/><path fill="#000" d="M442.044 272.769a.437.437 0 0 1 0 .135l-1.921 17.133-11.783 3.195a54.577 54.577 0 0 1-5.252 10.926l6.399 7.972-13.739 14.764-8.203-6.045a53.15 53.15 0 0 1-10.439 5.944l-2.477 12.128-17.004 2.959a.473.473 0 0 1-.385-.105.473.473 0 0 1-.162-.363l.192-11.227a29.371 29.371 0 0 1-9.314-2.457l-9.931 9.209-11.065-10.62 8.496-10.586a30.473 30.473 0 0 1-2.937-9.283.076.076 0 0 1 0-.03l-10.89.813a.558.558 0 0 1-.438-.175.574.574 0 0 1-.157-.459l1.939-17.272 11.782-3.195a54.669 54.669 0 0 1 5.253-10.927l-6.4-7.971 13.727-14.742 8.198 6.044a53.17 53.17 0 0 1 10.438-5.944l2.478-12.128 16.956-2.95a.496.496 0 0 1 .438.114.517.517 0 0 1 .179.393l-.188 11.18a29.26 29.26 0 0 1 9.31 2.456l9.931-9.213 11.065 10.625-8.496 10.581a30.397 30.397 0 0 1 2.942 9.287.057.057 0 0 0 0 .026l10.749-.799a.682.682 0 0 1 .547.209.668.668 0 0 1 .193.437l-.031-.039Zm-2.731 16.582 1.834-16.32-11.345.844-.057-.407c0-.14-.039-.279-.061-.437a29.544 29.544 0 0 0-2.981-9.261l-.135-.253 8.351-10.407-9.892-9.497-9.756 9.052-.267-.127a28.434 28.434 0 0 0-9.691-2.539l-.407-.035.193-11.547-15.928 2.771-2.451 11.997-.214.087a52.651 52.651 0 0 0-10.733 6.119l-.258.192-8.089-5.961-12.693 13.614 6.316 7.867-.166.262a53.663 53.663 0 0 0-5.419 11.228l-.074.219-11.66 3.164-1.825 16.315 11.34-.844.057.407c0 .14.039.28.061.437a29.57 29.57 0 0 0 2.985 9.27l.132.253-8.351 10.402 9.891 9.497 9.757-9.047.267.123a28.4 28.4 0 0 0 9.69 2.539l.407.039-.192 11.543 15.927-2.771 2.451-11.997.215-.087a52.69 52.69 0 0 0 10.732-6.119l.258-.193 8.093 5.962 12.693-13.614-6.32-7.867.166-.263a53.729 53.729 0 0 0 5.419-11.227l.079-.219 11.656-3.16-.005-.004Zm-27.461-7.102c.561 6.512-2.28 13.924-7.594 19.628-5.046 5.424-11.529 8.631-17.788 8.806-4.315.118-8.071-1.232-10.863-3.933a14.687 14.687 0 0 1-4.25-8.488c-1.037-6.783 1.816-14.759 7.441-20.812 5.046-5.424 11.529-8.632 17.788-8.807 4.315-.122 8.075 1.233 10.867 3.912a14.663 14.663 0 0 1 4.246 8.492c.061.389.11.787.14 1.184l.013.018Zm-39.764 14.768c.035.38.079.756.136 1.132a13.793 13.793 0 0 0 3.991 7.989c2.627 2.513 6.154 3.785 10.234 3.671 6.022-.17 12.281-3.278 17.17-8.527 5.143-5.524 7.879-12.674 7.358-18.955a13.49 13.49 0 0 0-.136-1.127 13.813 13.813 0 0 0-3.987-7.994c-2.626-2.513-6.158-3.785-10.238-3.667-6.022.166-12.281 3.274-17.166 8.523-5.147 5.528-7.879 12.674-7.362 18.955ZM216.694 33.837l-11.38-7.033-10.238 2.592 11.406 7.041 10.221-2.587-.009-.013Z"/><path fill="#000" d="m194.043 29.26 11.341-2.884 11.529 7.11.232.136-.022.197.236.874-.7-.437-10.238 2.592-12.378-7.587Zm11.192-2.001-9.152 2.316 10.452 6.456 9.152-2.321-10.452-6.451Z"/><path fill="url(#aa)" d="m169.602 106.239-1.658-10.46-11.407-7.04 1.681 10.594 11.293 6.967a.051.051 0 0 0 .032.008.064.064 0 0 0 .033-.01.063.063 0 0 0 .022-.026c.004-.01.006-.022.004-.033Z"/><path fill="#000" d="m157.846 99.578-1.843-11.643 12.312 7.6 1.686 10.642a.48.48 0 0 1-.202.437.458.458 0 0 1-.503 0l-11.45-7.036Zm-.775-10.052 1.515 9.55 10.504 6.481-1.514-9.546-10.505-6.485Z"/><path fill="url(#ab)" d="M179.179 39.387c1.922 5.682.849 13.146-3.388 19.667-6.224 9.585-16.956 13.584-24.204 9.108l11.406 7.041c7.248 4.476 17.985.477 24.205-9.108 4.241-6.53 5.313-13.985 3.387-19.667a13.041 13.041 0 0 0-5.037-6.805c-.127-.087-.259-.17-.39-.253l-11.406-7.05.389.253a13.063 13.063 0 0 1 5.038 6.814Z"/><path fill="#000" d="m151.373 68.512.437-.681c3.401 2.097 7.708 2.342 12.129.681 4.42-1.66 8.565-5.109 11.524-9.667 4.005-6.176 5.288-13.58 3.344-19.327a12.701 12.701 0 0 0-4.884-6.604l-.377-.244.438-.682 11.406 7.04c.136.088.271.171.403.263a13.513 13.513 0 0 1 5.2 6.993c2.017 5.974.704 13.645-3.432 20.021-3.064 4.703-7.288 8.247-11.918 9.982-4.631 1.736-9.223 1.482-12.842-.751l-11.428-7.024ZM179.88 40.31c1.54 5.804.148 12.963-3.752 18.973-3.063 4.698-7.283 8.247-11.914 9.982a15.823 15.823 0 0 1-8.661.874l7.65 4.725c3.401 2.097 7.713 2.342 12.133.681 4.421-1.66 8.566-5.109 11.525-9.667 4.009-6.176 5.291-13.58 3.344-19.327a12.7 12.7 0 0 0-4.881-6.603l-.38-.245-7.651-4.72a14.445 14.445 0 0 1 2.267 4.27c.118.35.223.703.32 1.057Z"/><path fill="#000" d="M191.505 52.6a18.392 18.392 0 0 0-.92-6.172 13.025 13.025 0 0 0-5.037-6.805l-.39-.253-11.406-7.05.389.249a13.073 13.073 0 0 1 5.038 6.81 20.018 20.018 0 0 1 .543 9.942l11.783 3.278Z"/><path fill="url(#ac)" d="M146.041 86.554a27.44 27.44 0 0 1-4.237-8.033c-.043-.123-.083-.25-.126-.376l-10.816-6.678-.407-6.556 10.102-4.733a50.05 50.05 0 0 1 3.143-11.114l-7.003-6.159 9.694-14.93 8.317 4.14a50.112 50.112 0 0 1 3.724-3.497 43.423 43.423 0 0 1 1.664-1.355 48.5 48.5 0 0 1 .56-.437 46.97 46.97 0 0 1 2.862-1.997l.316-11.311 14.645-5.275a.038.038 0 0 0 .008-.01.031.031 0 0 0 0-.028.038.038 0 0 0-.008-.01l-11.38-6.993-14.676 5.262-.311 11.306a48.72 48.72 0 0 0-8.811 7.308l-8.316-4.143-9.699 14.93 7.003 6.162a49.992 49.992 0 0 0-3.143 11.114l-10.102 4.733.985 15.818 11.21 6.918a.126.126 0 0 0 .124 0 .122.122 0 0 0 .059-.11l-.446-7.495a26.975 26.975 0 0 0 3.677 6.504l-5.957 10.834 11.086 7.43 11.407 7.041-11.087-7.43 5.957-10.835-.018.005Z"/><path fill="#000" d="m119.644 73.927-1.015-16.302 10.159-4.764a50.407 50.407 0 0 1 3.024-10.725l-7.06-6.202 10.067-15.524 8.412 4.174a49.229 49.229 0 0 1 8.5-7.032l.316-11.363L167.182.734l11.503 7.111a.443.443 0 0 1 .189.411.435.435 0 0 1-.277.358l-14.356 5.175-.311 11.25-.18.113a45.852 45.852 0 0 0-2.836 1.98l-.56.437c-.53.437-1.086.874-1.646 1.346a49.526 49.526 0 0 0-3.698 3.497l-.206.21-8.272-4.109-9.306 14.335 6.968 6.12-.109.261a49.689 49.689 0 0 0-3.116 11.023l-.035.214-10.067 4.707.376 6.07 10.763 6.644.087.262c.027.083.053.17.084.254a27.063 27.063 0 0 0 4.171 7.915l-.302.231.337.206-5.778 10.49 10.781 7.241-.438.673-11.419-7.05-11.381-7.648 6.006-10.926a26.382 26.382 0 0 1-2.653-4.331l.329 5.244a.53.53 0 0 1-.256.481.527.527 0 0 1-.545-.004l-11.385-6.998Zm-.179-15.82.958 15.335 10.553 6.543-.516-8.304-.438-7.032 10.159-4.764a50.161 50.161 0 0 1 3.029-10.725l-7.065-6.202 10.067-15.52 8.386 4.17a50.723 50.723 0 0 1 5.226-4.703l.569-.437a41.2 41.2 0 0 1 2.71-1.901l.315-11.364 14.168-5.105-10.535-6.503-14.252 5.135-.31 11.246-.18.118a48.25 48.25 0 0 0-8.754 7.242l-.205.214-8.273-4.113-9.27 14.38 6.968 6.118-.11.267a49.683 49.683 0 0 0-3.116 11.022l-.035.21-10.049 4.672Zm15.647 21.35-5.887 10.76 10.505 7.04 5.865-10.668a28.084 28.084 0 0 1-4.136-7.937 3.624 3.624 0 0 1-.083-.245l-10.339-6.376.333.826a26.595 26.595 0 0 0 3.615 6.407l.127.192Z"/><path fill="#000" d="M172.369 11.674h-1.182c-.394 0-.792 0-1.191.03-.398.03-.936.262-1.339.297l-.153-.109.293-.105 11.406 7.041c.801-.07 1.598-.109 2.39-.113h1.182a25.726 25.726 0 0 1 4.053.467l.565.118c.376.083.753.175 1.125.276l7.44-9.825-11.38-7.041-7.44 9.825a25.718 25.718 0 0 0-5.769-.861Z"/><path fill="#000" d="m167.65 11.748 1.195-.437.25.153h.087c.258-.087.526-.145.797-.17.389 0 .797-.027 1.204-.031.407-.005.809 0 1.203 0 1.882.065 3.75.337 5.572.808l7.515-9.908 12.094 7.465-7.879 10.393-.258-.07c-.363-.1-.735-.192-1.107-.27l-.556-.119a24.912 24.912 0 0 0-2.267-.336 25.6 25.6 0 0 0-1.729-.122h-1.165c-.766 0-1.558.039-2.354.109h-.132l-11.143-6.88c-.09.021-.18.036-.272.044h-.149l-.906-.63Zm18.038-8.505-7.397 9.75-.263-.07a25.423 25.423 0 0 0-5.655-.852h-1.164c-.394 0-.749 0-1.112.027l10.229 6.31a31.493 31.493 0 0 1 2.285-.1h1.199c.591 0 1.191.066 1.781.127.784.079 1.567.197 2.338.35l.577.117c.294.066.587.136.876.215l7.025-9.262-10.719-6.612Z"/><path fill="url(#ad)" d="m184.628 89.77-.31 11.307-14.624 5.245c-.008.002-.017.003-.026.002a.079.079 0 0 1-.026-.008.086.086 0 0 1-.02-.018.074.074 0 0 1-.011-.024l-1.663-10.516a26.74 26.74 0 0 1-9.319-.773l-7.44 9.825-11.087-7.43 5.957-10.835a27.437 27.437 0 0 1-4.237-8.033c-.044-.122-.083-.249-.127-.376l-9.966 2.522a.231.231 0 0 1-.289-.21l-.967-15.541 10.102-4.734a49.998 49.998 0 0 1 3.147-11.114l-7.003-6.162 9.69-14.93 8.316 4.143a48.543 48.543 0 0 1 8.811-7.307l.315-11.307 14.663-5.284s.035 0 .035.022l1.672 10.56a26.735 26.735 0 0 1 9.318.773l7.441-9.825 11.087 7.43-5.957 10.834a27.438 27.438 0 0 1 4.237 8.033c.044.123.083.25.127.376l10.067-2.552a.127.127 0 0 1 .105.02.122.122 0 0 1 .052.093l.976 15.669-10.102 4.76a49.72 49.72 0 0 1-3.142 11.11l7.003 6.162-9.691 14.93-8.316-4.144a48.513 48.513 0 0 1-8.811 7.308h.013Zm-22.024-14.807c7.248 4.865 18.26.9 24.594-8.859 4.241-6.53 5.313-13.986 3.387-19.667a13.041 13.041 0 0 0-5.037-6.805c-7.249-4.869-18.261-.9-24.599 8.859-4.237 6.525-5.309 13.986-3.388 19.667 1.344 4.314 5.043 6.805 5.043 6.805Z"/><path fill="#000" d="m152.112 17.77 11.407 7.041.315-11.306-11.411-7.041-.311 11.306ZM154.708 32.119a273.323 273.323 0 0 1-19.74-11.184l8.137 4.047 2.626-2.281 13.179 5.493-4.202 3.934v-.009ZM132.381 41.752l4.307 1.158 7.003 6.158a56.692 56.692 0 0 0-3.147 11.114l-11.665-6.919 3.502-11.507v-.005ZM119.248 57.601l-.424.684 11.408 7.04.423-.683-11.407-7.04Z"/><path fill="#000" d="M131.042 80.606a.501.501 0 0 1 0-.123l-1.003-15.821 10.155-4.76a50.413 50.413 0 0 1 3.029-10.725l-7.065-6.202 10.067-15.52 8.386 4.166a48.884 48.884 0 0 1 8.5-7.032l.316-11.364 14.934-5.38a.434.434 0 0 1 .569.337l1.615 10.196a26.9 26.9 0 0 1 8.819.747l7.524-9.916 11.708 7.867-6.005 10.926a28.052 28.052 0 0 1 4.137 7.941l9.725-2.46a.532.532 0 0 1 .438.083.519.519 0 0 1 .214.393l.994 15.94-10.159 4.763a50.282 50.282 0 0 1-3.025 10.725l7.06 6.202-10.066 15.52-8.387-4.165a49.109 49.109 0 0 1-8.5 7.036l-.315 11.364-14.881 5.362a.442.442 0 0 1-.394-.039.432.432 0 0 1-.224-.328l-1.61-10.148a26.922 26.922 0 0 1-8.82-.748l-7.524 9.917-11.708-7.867 6.005-10.926a28.085 28.085 0 0 1-4.136-7.937v-.026l-9.603 2.43a.638.638 0 0 1-.77-.45v.022Zm-.167-15.442.937 15.066 10.137-2.566.114.358c.044.123.083.25.122.372a27.07 27.07 0 0 0 4.176 7.915l.162.206-5.918 10.747 10.465 7.027 7.389-9.742.262.07a26.175 26.175 0 0 0 9.192.76l.372-.03 1.663 10.49 13.989-5.044.311-11.245.179-.118a48.124 48.124 0 0 0 8.754-7.242l.206-.215 8.272 4.113 9.305-14.34-6.968-6.118.11-.267a49.574 49.574 0 0 0 3.116-11.022l.035-.21 10.067-4.712-.998-15.06-10.132 2.565-.119-.358c-.039-.127-.083-.25-.122-.372a27.207 27.207 0 0 0-4.176-7.92l-.162-.205 5.909-10.742-10.456-7.028-7.389 9.737-.262-.07a26.172 26.172 0 0 0-9.192-.76l-.372.03-1.663-10.489-13.949 5.044-.311 11.25-.18.113a48.245 48.245 0 0 0-8.753 7.247l-.206.21-8.273-4.109-9.305 14.335 6.968 6.12-.109.261a49.517 49.517 0 0 0-3.117 11.023l-.035.21-10.067 4.711.022.004Zm25.991 2.072c-1.546-5.808-.154-12.967 3.746-18.977 3.707-5.681 9.065-9.615 14.702-10.79 3.887-.792 7.507-.162 10.457 1.817a13.509 13.509 0 0 1 5.195 6.993c2.022 5.975.709 13.65-3.431 20.022-3.703 5.708-9.061 9.615-14.698 10.79-3.887.796-7.502.167-10.457-1.813a13.551 13.551 0 0 1-5.199-6.993 19.434 19.434 0 0 1-.315-1.049Zm33.641-19.667c-.088-.341-.189-.673-.302-1.006a12.68 12.68 0 0 0-4.885-6.599c-2.771-1.862-6.172-2.447-9.844-1.696-5.427 1.106-10.601 4.913-14.185 10.441-3.778 5.818-5.135 12.736-3.651 18.322.092.34.193.673.307 1.005.849 2.68 2.565 5 4.88 6.6 2.771 1.861 6.18 2.447 9.848 1.695 5.427-1.106 10.597-4.912 14.186-10.437 3.777-5.821 5.134-12.735 3.65-18.325h-.004Z"/></g><defs><linearGradient id="c" x1="304.224" x2="357.218" y1="221.848" y2="137.449" gradientUnits="userSpaceOnUse"><stop offset=".1" stop-color="#FFE05F"/><stop offset=".14" stop-color="#FFE167"/><stop offset=".52" stop-color="#FFF1B8"/><stop offset=".78" stop-color="#FFFBEB"/><stop offset=".92" stop-color="#fff"/></linearGradient><linearGradient id="d" x1="292.638" x2="361.737" y1="206.153" y2="207.122" gradientUnits="userSpaceOnUse"><stop offset=".22" stop-color="#FFE05F"/><stop offset=".25" stop-color="#FFE167"/><stop offset=".57" stop-color="#FFF1B8"/><stop offset=".8" stop-color="#FFFBEB"/><stop offset=".92" stop-color="#fff"/></linearGradient><linearGradient id="f" x1="325.894" x2="378.888" y1="193.422" y2="109.023" gradientUnits="userSpaceOnUse"><stop offset=".1" stop-color="#FFE05F"/><stop offset=".14" stop-color="#FFE167"/><stop offset=".52" stop-color="#FFF1B8"/><stop offset=".78" stop-color="#FFFBEB"/><stop offset=".92" stop-color="#fff"/></linearGradient><linearGradient id="g" x1="314.308" x2="383.407" y1="177.723" y2="178.692" gradientUnits="userSpaceOnUse"><stop offset=".22" stop-color="#FFE05F"/><stop offset=".25" stop-color="#FFE167"/><stop offset=".57" stop-color="#FFF1B8"/><stop offset=".8" stop-color="#FFFBEB"/><stop offset=".92" stop-color="#fff"/></linearGradient><linearGradient id="i" x1="329.91" x2="397.071" y1="212.782" y2="139.124" gradientUnits="userSpaceOnUse"><stop offset=".1" stop-color="#FFE05F"/><stop offset=".14" stop-color="#FFE167"/><stop offset=".52" stop-color="#FFF1B8"/><stop offset=".78" stop-color="#FFFBEB"/><stop offset=".92" stop-color="#fff"/></linearGradient><linearGradient id="j" x1="320.269" x2="387.795" y1="193.212" y2="206.614" gradientUnits="userSpaceOnUse"><stop offset=".22" stop-color="#FFE05F"/><stop offset=".25" stop-color="#FFE167"/><stop offset=".57" stop-color="#FFF1B8"/><stop offset=".8" stop-color="#FFFBEB"/><stop offset=".92" stop-color="#fff"/></linearGradient><linearGradient id="l" x1="280.647" x2="311.511" y1="189.494" y2="94.758" gradientUnits="userSpaceOnUse"><stop offset=".1" stop-color="#FFE05F"/><stop offset=".14" stop-color="#FFE167"/><stop offset=".52" stop-color="#FFF1B8"/><stop offset=".78" stop-color="#FFFBEB"/><stop offset=".92" stop-color="#fff"/></linearGradient><linearGradient id="m" x1="266.721" x2="333.973" y1="176.315" y2="160.648" gradientUnits="userSpaceOnUse"><stop offset=".22" stop-color="#FFE05F"/><stop offset=".25" stop-color="#FFE167"/><stop offset=".57" stop-color="#FFF1B8"/><stop offset=".8" stop-color="#FFFBEB"/><stop offset=".92" stop-color="#fff"/></linearGradient><linearGradient id="o" x1="279.858" x2="302.369" y1="208.113" y2="110.494" gradientUnits="userSpaceOnUse"><stop offset=".1" stop-color="#FFE05F"/><stop offset=".14" stop-color="#FFE167"/><stop offset=".52" stop-color="#FFF1B8"/><stop offset=".78" stop-color="#FFFBEB"/><stop offset=".92" stop-color="#fff"/></linearGradient><linearGradient id="p" x1="263.584" x2="329.527" y1="197.051" y2="175.142" gradientUnits="userSpaceOnUse"><stop offset=".22" stop-color="#FFE05F"/><stop offset=".25" stop-color="#FFE167"/><stop offset=".57" stop-color="#FFF1B8"/><stop offset=".8" stop-color="#FFFBEB"/><stop offset=".92" stop-color="#fff"/></linearGradient><linearGradient id="u" x1="314.622" x2="341.374" y1="174.512" y2="161.415" gradientUnits="userSpaceOnUse"><stop offset=".1" stop-color="#FFE05F"/><stop offset=".14" stop-color="#FFE167"/><stop offset=".52" stop-color="#FFF1B8"/><stop offset=".78" stop-color="#FFFBEB"/><stop offset=".92" stop-color="#fff"/></linearGradient><linearGradient id="w" x1="319.025" x2="363.718" y1="172.358" y2="150.477" gradientUnits="userSpaceOnUse"><stop offset=".1" stop-color="#FFE05F"/><stop offset=".14" stop-color="#FFE167"/><stop offset=".52" stop-color="#FFF1B8"/><stop offset=".78" stop-color="#FFFBEB"/><stop offset=".92" stop-color="#fff"/></linearGradient><linearGradient id="y" x1="298.91" x2="325.662" y1="97.391" y2="84.293" gradientUnits="userSpaceOnUse"><stop offset=".1" stop-color="#FFE05F"/><stop offset=".14" stop-color="#FFE167"/><stop offset=".52" stop-color="#FFF1B8"/><stop offset=".78" stop-color="#FFFBEB"/><stop offset=".92" stop-color="#fff"/></linearGradient><linearGradient id="A" x1="303.316" x2="348.009" y1="95.245" y2="73.364" gradientUnits="userSpaceOnUse"><stop offset=".1" stop-color="#FFE05F"/><stop offset=".14" stop-color="#FFE167"/><stop offset=".52" stop-color="#FFF1B8"/><stop offset=".78" stop-color="#FFFBEB"/><stop offset=".92" stop-color="#fff"/></linearGradient><linearGradient id="C" x1="304.47" x2="300.45" y1="170.813" y2="141.387" gradientUnits="userSpaceOnUse"><stop offset=".1" stop-color="#FFE05F"/><stop offset=".14" stop-color="#FFE167"/><stop offset=".52" stop-color="#FFF1B8"/><stop offset=".78" stop-color="#FFFBEB"/><stop offset=".92" stop-color="#fff"/></linearGradient><linearGradient id="E" x1="303.806" x2="297.091" y1="165.972" y2="116.813" gradientUnits="userSpaceOnUse"><stop offset=".1" stop-color="#FFE05F"/><stop offset=".14" stop-color="#FFE167"/><stop offset=".52" stop-color="#FFF1B8"/><stop offset=".78" stop-color="#FFFBEB"/><stop offset=".92" stop-color="#fff"/></linearGradient><linearGradient id="J" x1="285.06" x2="292.899" y1="363.765" y2="266.999" gradientUnits="userSpaceOnUse"><stop offset=".1" stop-color="#FFE05F"/><stop offset=".14" stop-color="#FFE167"/><stop offset=".52" stop-color="#FFF1B8"/><stop offset=".78" stop-color="#FFFBEB"/><stop offset=".92" stop-color="#fff"/></linearGradient><linearGradient id="K" x1="269.917" x2="330.254" y1="354.163" y2="323.994" gradientUnits="userSpaceOnUse"><stop offset=".22" stop-color="#FFE05F"/><stop offset=".25" stop-color="#FFE167"/><stop offset=".57" stop-color="#FFF1B8"/><stop offset=".8" stop-color="#FFFBEB"/><stop offset=".92" stop-color="#fff"/></linearGradient><linearGradient id="M" x1="287.66" x2="278.866" y1="296.898" y2="222.68" gradientUnits="userSpaceOnUse"><stop offset=".1" stop-color="#FFE05F"/><stop offset=".14" stop-color="#FFE167"/><stop offset=".52" stop-color="#FFF1B8"/><stop offset=".78" stop-color="#FFFBEB"/><stop offset=".92" stop-color="#fff"/></linearGradient><linearGradient id="N" x1="273.62" x2="314.353" y1="293.047" y2="261.024" gradientUnits="userSpaceOnUse"><stop offset=".22" stop-color="#FFE05F"/><stop offset=".25" stop-color="#FFE167"/><stop offset=".57" stop-color="#FFF1B8"/><stop offset=".8" stop-color="#FFFBEB"/><stop offset=".92" stop-color="#fff"/></linearGradient><linearGradient id="P" x1="179.967" x2="232.976" y1="338.261" y2="338.261" gradientUnits="userSpaceOnUse"><stop offset=".1" stop-color="#FFE05F"/><stop offset=".14" stop-color="#FFE167"/><stop offset=".52" stop-color="#FFF1B8"/><stop offset=".78" stop-color="#FFFBEB"/><stop offset=".92" stop-color="#fff"/></linearGradient><linearGradient id="Q" x1="17.202" x2="249.622" y1="323.183" y2="323.183" gradientUnits="userSpaceOnUse"><stop offset=".1" stop-color="#7AE6D8"/><stop offset=".25" stop-color="#7DE6D9"/><stop offset=".39" stop-color="#88E8DC"/><stop offset=".53" stop-color="#9BECE1"/><stop offset=".66" stop-color="#B4F1E9"/><stop offset=".79" stop-color="#D6F7F2"/><stop offset=".91" stop-color="#FEFEFE"/><stop offset=".92" stop-color="#fff"/></linearGradient><linearGradient id="S" x1="185.311" x2="217.666" y1="154.358" y2="154.358" gradientUnits="userSpaceOnUse"><stop offset=".1" stop-color="#FFE05F"/><stop offset=".14" stop-color="#FFE167"/><stop offset=".52" stop-color="#FFF1B8"/><stop offset=".78" stop-color="#FFFBEB"/><stop offset=".92" stop-color="#fff"/></linearGradient><linearGradient id="T" x1="59.945" x2="32.794" y1="214.039" y2="231.518" gradientUnits="userSpaceOnUse"><stop offset=".1" stop-color="#FFE05F"/><stop offset=".14" stop-color="#FFE167"/><stop offset=".52" stop-color="#FFF1B8"/><stop offset=".78" stop-color="#FFFBEB"/><stop offset=".92" stop-color="#fff"/></linearGradient><linearGradient id="U" x1="102.031" x2="143.494" y1="152.89" y2="152.89" gradientUnits="userSpaceOnUse"><stop offset=".1" stop-color="#FFE05F"/><stop offset=".14" stop-color="#FFE167"/><stop offset=".52" stop-color="#FFF1B8"/><stop offset=".78" stop-color="#FFFBEB"/><stop offset=".92" stop-color="#fff"/></linearGradient><linearGradient id="V" x1="270.447" x2="18.255" y1="77.817" y2="266.594" gradientUnits="userSpaceOnUse"><stop offset=".1" stop-color="#fff"/><stop offset=".18" stop-color="#F0ECFE"/><stop offset=".54" stop-color="#B29BFE"/><stop offset=".79" stop-color="#8B68FE"/><stop offset=".92" stop-color="#7C55FE"/></linearGradient><linearGradient id="W" x1="403.281" x2="401.294" y1="256.687" y2="234.576" gradientUnits="userSpaceOnUse"><stop offset=".1" stop-color="#7AE6D8"/><stop offset=".25" stop-color="#7DE6D9"/><stop offset=".39" stop-color="#88E8DC"/><stop offset=".53" stop-color="#9BECE1"/><stop offset=".66" stop-color="#B4F1E9"/><stop offset=".79" stop-color="#D6F7F2"/><stop offset=".91" stop-color="#FEFEFE"/><stop offset=".92" stop-color="#fff"/></linearGradient><linearGradient id="X" x1="388.504" x2="384.33" y1="312.984" y2="266.541" gradientUnits="userSpaceOnUse"><stop offset=".1" stop-color="#7AE6D8"/><stop offset=".25" stop-color="#7DE6D9"/><stop offset=".39" stop-color="#88E8DC"/><stop offset=".53" stop-color="#9BECE1"/><stop offset=".66" stop-color="#B4F1E9"/><stop offset=".79" stop-color="#D6F7F2"/><stop offset=".91" stop-color="#FEFEFE"/><stop offset=".92" stop-color="#fff"/></linearGradient><linearGradient id="Y" x1="410.02" x2="400.622" y1="345.949" y2="241.373" gradientUnits="userSpaceOnUse"><stop offset=".1" stop-color="#7AE6D8"/><stop offset=".25" stop-color="#7DE6D9"/><stop offset=".39" stop-color="#88E8DC"/><stop offset=".53" stop-color="#9BECE1"/><stop offset=".66" stop-color="#B4F1E9"/><stop offset=".79" stop-color="#D6F7F2"/><stop offset=".91" stop-color="#FEFEFE"/><stop offset=".92" stop-color="#fff"/></linearGradient><linearGradient id="Z" x1="389.494" x2="380.44" y1="334.96" y2="234.217" gradientUnits="userSpaceOnUse"><stop offset=".1" stop-color="#7AE6D8"/><stop offset=".25" stop-color="#7DE6D9"/><stop offset=".39" stop-color="#88E8DC"/><stop offset=".53" stop-color="#9BECE1"/><stop offset=".66" stop-color="#B4F1E9"/><stop offset=".79" stop-color="#D6F7F2"/><stop offset=".91" stop-color="#FEFEFE"/><stop offset=".92" stop-color="#fff"/></linearGradient><linearGradient id="aa" x1="168.902" x2="174.178" y1="91.063" y2="110.776" gradientUnits="userSpaceOnUse"><stop offset=".1" stop-color="#7AE6D8"/><stop offset=".25" stop-color="#7DE6D9"/><stop offset=".39" stop-color="#88E8DC"/><stop offset=".53" stop-color="#9BECE1"/><stop offset=".66" stop-color="#B4F1E9"/><stop offset=".79" stop-color="#D6F7F2"/><stop offset=".91" stop-color="#FEFEFE"/><stop offset=".92" stop-color="#fff"/></linearGradient><linearGradient id="ab" x1="173.415" x2="184.497" y1="37.758" y2="79.164" gradientUnits="userSpaceOnUse"><stop offset=".1" stop-color="#7AE6D8"/><stop offset=".25" stop-color="#7DE6D9"/><stop offset=".39" stop-color="#88E8DC"/><stop offset=".53" stop-color="#9BECE1"/><stop offset=".66" stop-color="#B4F1E9"/><stop offset=".79" stop-color="#D6F7F2"/><stop offset=".91" stop-color="#FEFEFE"/><stop offset=".92" stop-color="#fff"/></linearGradient><linearGradient id="ac" x1="148.729" x2="173.684" y1="11.286" y2="104.524" gradientUnits="userSpaceOnUse"><stop offset=".1" stop-color="#7AE6D8"/><stop offset=".25" stop-color="#7DE6D9"/><stop offset=".39" stop-color="#88E8DC"/><stop offset=".53" stop-color="#9BECE1"/><stop offset=".66" stop-color="#B4F1E9"/><stop offset=".79" stop-color="#D6F7F2"/><stop offset=".91" stop-color="#FEFEFE"/><stop offset=".92" stop-color="#fff"/></linearGradient><linearGradient id="ad" x1="219.36" x2="128.695" y1="49.333" y2="65.278" gradientUnits="userSpaceOnUse"><stop offset=".1" stop-color="#7AE6D8"/><stop offset=".25" stop-color="#7DE6D9"/><stop offset=".39" stop-color="#88E8DC"/><stop offset=".53" stop-color="#9BECE1"/><stop offset=".66" stop-color="#B4F1E9"/><stop offset=".79" stop-color="#D6F7F2"/><stop offset=".91" stop-color="#FEFEFE"/><stop offset=".92" stop-color="#fff"/></linearGradient><radialGradient id="b" cx="0" cy="0" r="1" gradientTransform="matrix(241.427 0 0 241.074 399.435 251.672)" gradientUnits="userSpaceOnUse"><stop offset=".1" stop-color="#7AE6D8"/><stop offset=".25" stop-color="#7DE6D9"/><stop offset=".39" stop-color="#88E8DC"/><stop offset=".53" stop-color="#9BECE1"/><stop offset=".66" stop-color="#B4F1E9"/><stop offset=".79" stop-color="#D6F7F2"/><stop offset=".91" stop-color="#FEFEFE"/><stop offset=".92" stop-color="#fff"/></radialGradient><radialGradient id="r" cx="0" cy="0" r="1" gradientTransform="matrix(288.287 0 0 287.865 494.279 316.518)" gradientUnits="userSpaceOnUse"><stop offset=".1" stop-color="#7AE6D8"/><stop offset=".25" stop-color="#7DE6D9"/><stop offset=".39" stop-color="#88E8DC"/><stop offset=".53" stop-color="#9BECE1"/><stop offset=".66" stop-color="#B4F1E9"/><stop offset=".79" stop-color="#D6F7F2"/><stop offset=".91" stop-color="#FEFEFE"/><stop offset=".92" stop-color="#fff"/></radialGradient><radialGradient id="s" cx="0" cy="0" r="1" gradientTransform="matrix(39.3092 0 0 39.2524 325.531 31.079)" gradientUnits="userSpaceOnUse"><stop offset=".1" stop-color="#7AE6D8"/><stop offset=".25" stop-color="#7DE6D9"/><stop offset=".39" stop-color="#88E8DC"/><stop offset=".53" stop-color="#9BECE1"/><stop offset=".66" stop-color="#B4F1E9"/><stop offset=".79" stop-color="#D6F7F2"/><stop offset=".91" stop-color="#FEFEFE"/><stop offset=".92" stop-color="#fff"/></radialGradient><radialGradient id="t" cx="0" cy="0" r="1" gradientTransform="matrix(231.365 0 0 231.026 569.019 324.442)" gradientUnits="userSpaceOnUse"><stop offset=".1" stop-color="#7AE6D8"/><stop offset=".25" stop-color="#7DE6D9"/><stop offset=".39" stop-color="#88E8DC"/><stop offset=".53" stop-color="#9BECE1"/><stop offset=".66" stop-color="#B4F1E9"/><stop offset=".79" stop-color="#D6F7F2"/><stop offset=".91" stop-color="#FEFEFE"/><stop offset=".92" stop-color="#fff"/></radialGradient><radialGradient id="G" cx="0" cy="0" r="1" gradientTransform="matrix(169.225 0 0 168.978 303.016 3.92)" gradientUnits="userSpaceOnUse"><stop offset=".1" stop-color="#7AE6D8"/><stop offset=".25" stop-color="#7DE6D9"/><stop offset=".39" stop-color="#88E8DC"/><stop offset=".53" stop-color="#9BECE1"/><stop offset=".66" stop-color="#B4F1E9"/><stop offset=".79" stop-color="#D6F7F2"/><stop offset=".91" stop-color="#FEFEFE"/><stop offset=".92" stop-color="#fff"/></radialGradient><radialGradient id="H" cx="0" cy="0" r="1" gradientTransform="matrix(0 24.9225 -28.8415 0 319.423 21.759)" gradientUnits="userSpaceOnUse"><stop offset=".1" stop-color="#7AE6D8"/><stop offset=".25" stop-color="#7DE6D9"/><stop offset=".39" stop-color="#88E8DC"/><stop offset=".53" stop-color="#9BECE1"/><stop offset=".66" stop-color="#B4F1E9"/><stop offset=".79" stop-color="#D6F7F2"/><stop offset=".91" stop-color="#FEFEFE"/><stop offset=".92" stop-color="#fff"/></radialGradient><radialGradient id="I" cx="0" cy="0" r="1" gradientTransform="matrix(0 35.5805 -35.6326 0 320.007 36.52)" gradientUnits="userSpaceOnUse"><stop offset=".1" stop-color="#7AE6D8"/><stop offset=".25" stop-color="#7DE6D9"/><stop offset=".39" stop-color="#88E8DC"/><stop offset=".53" stop-color="#9BECE1"/><stop offset=".66" stop-color="#B4F1E9"/><stop offset=".79" stop-color="#D6F7F2"/><stop offset=".91" stop-color="#FEFEFE"/><stop offset=".92" stop-color="#fff"/></radialGradient><clipPath id="a"><path fill="#fff" d="M0 0h453v329H0z"/></clipPath></defs></svg>
