<svg xmlns="http://www.w3.org/2000/svg" fill="none" viewBox="0 0 689 661">
    <g clip-path="url(#a)">
        <path fill="url(#b)"
            d="M478.383 427.216s-74.953 164.347-97.332 260.296c0 0 33.374 22.815 71.373 4.685 0 0 59.42-196.664 64.044-196.089 4.624.576-13.324 90.208-17.634 199.442 0 0 29.071 15.741 67.344 0 0 0 16.891-96.927 20.003-280.909L478.383 427.23v-.014Z" />
        <mask id="c" width="206" height="289" x="381" y="414" maskUnits="userSpaceOnUse"
            style="mask-type:luminance">
            <path fill="#fff"
                d="M478.383 427.216s-74.953 164.347-97.332 260.296c0 0 33.374 22.815 71.373 4.685 0 0 59.42-196.664 64.044-196.089 4.624.576-13.324 90.208-17.634 199.442 0 0 29.071 15.741 67.344 0 0 0 16.891-96.927 20.003-280.909L478.383 427.23v-.014Z" />
        </mask>
        <g mask="url(#c)">
            <path fill="#000"
                d="M613.49 449.543c2.833-15.56-24.55-33.578-61.163-40.245-36.613-6.668-68.591.541-71.424 16.101-2.833 15.56 24.551 33.579 61.164 40.246 36.613 6.667 68.59-.542 71.423-16.102Z" />
        </g>
        <path fill="#000"
            d="M531.606 703.079a84.215 84.215 0 0 1-13.539-1.084c-12.006-1.961-19.407-5.923-19.494-5.963l-.308-.161v-.348c2.53-64.093 9.643-120.598 14.355-157.988 2.677-21.416 4.845-38.469 3.788-40.704-4.886 5.548-40.448 119.373-63.469 195.56l-.074.234-.221.107c-19.775 9.423-38.279 7.63-50.312 4.464-13.036-3.426-21.522-9.168-21.609-9.229l-.314-.214.087-.368c22.144-94.905 96.622-258.757 97.371-260.396l1.064-2.336v1.948l107.805-12.596v.67c-1.613 95.032-6.967 166.394-11.176 209.473-4.564 46.714-8.8 71.261-8.84 71.509l-.054.301-.281.114a91.109 91.109 0 0 1-34.779 7.007Zm-32.197-7.87c3.193 1.586 30.905 14.355 66.253-.061.495-2.944 4.491-27.251 8.78-71.14 4.196-42.979 9.53-114.06 11.149-208.744l-106.854 12.474c-3.58 7.891-75.294 166.575-97.077 259.52 3.487 2.222 35.061 21.208 70.268 4.578 1.138-3.768 15.506-51.224 30.216-98.031 31.004-98.614 33.173-98.379 34.357-98.212 1.185.167 1.673 2.008.783 11.765-.669 7.121-1.947 17.354-3.58 30.317-4.631 37.304-11.758 93.627-14.295 157.534Z" />
        <path fill="url(#d)"
            d="M376.688 335.677c-2.195 32.084 44.905 74.808 84.054 82.986 0 0 40.454 69.816 142.236 15.011 0 0 75.622 28.577 84.636-15.874 9.992-49.39-78.299-90.85-115.875-104.857-37.577-14.007-117.201-6.184-117.201-6.184l-12.621 35.283-57.848-4.324-7.361-2.008-.02-.033Z" />
        <mask id="e" width="313" height="151" x="376" y="304" maskUnits="userSpaceOnUse"
            style="mask-type:luminance">
            <path fill="#fff"
                d="M376.688 335.677c-2.195 32.084 44.905 74.808 84.054 82.986 0 0 40.454 69.816 142.236 15.012 0 0 75.622 28.576 84.636-15.875 9.992-49.39-78.299-90.85-115.875-104.857-37.577-14.007-117.201-6.184-117.201-6.184l-12.621 35.283-57.848-4.324-7.361-2.008-.02-.033Z" />
        </mask>
        <g mask="url(#e)">
            <path fill="url(#f)"
                d="M403.396 343.701c-3.299 29.568 16.51 50.916 50.46 67.233-41.224-15.132-59.635-30.003-69.659-69.682l19.199 2.449Z" />
        </g>
        <path fill="#000"
            d="M531.07 455.204c-13.538 0-26.159-2.677-37.61-7.997-21.361-9.918-31.801-26.021-33.066-28.068-18.932-4.016-40.434-16.183-57.553-32.606-18.002-17.246-27.726-35.791-26.695-50.863h.562l.141-.515 7.361 2.008 57.366 4.283 12.601-35.216h.348c.796-.073 80.166-7.676 117.448 6.218 10.346 3.854 46.41 18.069 75.916 39.231 31.126 22.312 44.691 44.605 40.307 66.255-1.853 9.149-6.658 15.928-14.281 20.138-23.523 13.003-67.21-2.443-70.85-3.768-23.209 12.461-45.132 19.408-65.175 20.746a153.2 153.2 0 0 1-6.82.154ZM377.237 336.407c-.67 14.643 8.907 32.572 26.394 49.323 17.058 16.35 38.466 28.45 57.258 32.365l.241.053.127.214c.101.174 10.32 17.461 32.792 27.861 13.17 6.103 27.92 8.7 43.841 7.649 19.929-1.291 41.766-8.258 64.914-20.746l.221-.121.241.094c.455.174 46.176 17.186 70.161 3.928 7.321-4.055 11.945-10.574 13.725-19.408 4.29-21.188-9.128-43.106-39.865-65.137-29.399-21.068-65.336-35.249-75.655-39.091-35.784-13.338-110.803-6.692-116.598-6.184l-12.649 35.35-58.456-4.317-6.692-1.833Z" />
        <path fill="#000"
            d="M570.266 397.609c-13.571 14.723-23.235-1.941-10.707-19.883 12.528-17.943 19.407-9.31 19.407-9.31l-8.746 29.2.046-.007ZM405.391 364.943c-17.527-3.634-36.653-26.924-26.327-36.614 10.326-9.691 30.616 4.47 30.616 4.47l-4.289 32.124v.02Z" />
        <path fill="url(#g)"
            d="M584.648 251.406c-.542-23.819-15.961-31.334-29.934-30.498-13.78.837-22.6 12.335-25.471 36.648-3.025 25.666 8.814 33.931 18.999 35.243l-3.466 20.124c-2.985 14.429 23.67 16.858 26.963 0l6.692-39.011a12.047 12.047 0 0 0 5.956 1.587 12.047 12.047 0 0 0 12.046-12.047 12 12 0 0 0-11.825-12.046h.04Z" />
        <path fill="#000"
            d="M556.715 325.177c-3.674 0-7.214-1.125-9.59-3.226a9.223 9.223 0 0 1-2.858-9.135l3.346-19.582c-7.247-1.098-22.318-6.847-18.912-35.738 2.804-23.745 11.538-36.226 25.959-37.103 8.325-.502 15.861 1.941 21.214 6.873 5.816 5.354 8.928 13.305 9.249 23.645a12.466 12.466 0 0 1 11.825 12.534 12.58 12.58 0 0 1-12.568 12.569 12.512 12.512 0 0 1-5.561-1.339l-6.598 38.308a14.39 14.39 0 0 1-9.885 11.25c-1.81.618-3.709.937-5.621.944Zm.093-103.814c-.669 0-1.338 0-2.061.061-13.853.843-22.258 13.016-24.988 36.192-3.387 28.704 11.845 33.804 18.55 34.667l.536.067-3.561 20.66c-.669 3.286.195 6.103 2.53 8.164 3.346 2.952 9.182 3.815 14.214 2.109a13.449 13.449 0 0 0 9.202-10.461l6.84-39.726.669.368a11.584 11.584 0 0 0 5.695 1.519 11.546 11.546 0 0 0 11.537-11.538 11.457 11.457 0 0 0-11.316-11.524v-.515h-.496c-.234-10.287-3.239-18.157-8.934-23.424-4.724-4.29-11.196-6.619-18.417-6.619Z" />
        <path fill="#000"
            d="M548.242 292.27c6.023.763 14.054-2.931 19.361-8.379 0 0-5.24 16.965-20.84 16.965l1.479-8.586ZM583.771 252.323c-6.257 1.472-9.041 9.208-9.041 9.208-.758-9.457-.746-18.96.034-28.416 0 0-5.22 6.432-10.929 5.589-5.708-.844-5.708-7.041-5.708-7.041s-5.461 3.888-9.952 3.768c-4.49-.121-3.888-6.559-3.888-6.559a10.366 10.366 0 0 1-9.938 7.891s.589-19.181 30.343-16.872c29.753 2.309 24.393 33.021 24.393 33.021a7.845 7.845 0 0 0-5.314-.576v-.013ZM590.591 269.141a.484.484 0 0 1-.478-.397.496.496 0 0 1 .069-.36 7.63 7.63 0 0 0 .81-6.846 4.595 4.595 0 0 0-3.266-2.978 5.152 5.152 0 0 0-5.273 1.753 8.944 8.944 0 0 0-1.586 2.677.495.495 0 0 1-.79.218.507.507 0 0 1-.166-.341.494.494 0 0 1 .026-.191c0-.06 2.215-6.345 8.03-5.053.91.215 1.75.656 2.443 1.282a5.547 5.547 0 0 1 1.526 2.298 8.564 8.564 0 0 1-.917 7.77.51.51 0 0 1-.428.168ZM535.293 253.614c1.178 0 2.142 2.403 2.142 5.354 0 2.952-.964 5.354-2.142 5.354s-2.141-2.402-2.141-5.354c0-2.951.957-5.354 2.141-5.354Z" />
        <path fill="#000"
            d="M536.344 254.304c-1.225-3.012-4.571-2.115-5.073.963l5.073-.963ZM553.282 256.74c1.184 0 2.141 2.402 2.141 5.354 0 2.951-.957 5.354-2.141 5.354-1.185 0-2.142-2.403-2.142-5.354 0-2.952.957-5.354 2.142-5.354Z" />
        <path fill="#000"
            d="M554.339 257.436c-1.231-3.019-4.577-2.122-5.079.957l5.079-.957ZM561.232 254.652a.494.494 0 0 1-.489-.435c-.809-7.255-4.744-8.145-5.929-8.246a4.272 4.272 0 0 0-4.537 2.925.506.506 0 0 1-.235.295.495.495 0 0 1-.67-.194.496.496 0 0 1-.046-.375 5.262 5.262 0 0 1 5.568-3.634c2.838.241 6.117 2.757 6.826 9.115a.493.493 0 0 1-.435.549h-.053ZM541.075 249.003h-.047a.496.496 0 0 1-.448-.535c.187-2.175-1.452-4.491-3.44-4.852-1.881-.342-3.446 1.191-4.29 4.203a.498.498 0 0 1-.609.341.495.495 0 0 1-.341-.609c.984-3.507 3.011-5.354 5.414-4.906 2.402.449 4.484 3.213 4.25 5.91a.486.486 0 0 1-.489.448ZM545.666 273.257h-.074c-.234 0-5.675-.924-6.424-4.016-.75-3.092 4.109-6.612 4.316-6.759a.489.489 0 0 1 .67.113.497.497 0 0 1-.114.67c-1.258.903-4.43 3.701-3.935 5.722.495 2.021 4.223 3.045 5.621 3.266a.493.493 0 0 1 .408.562.49.49 0 0 1-.468.442Z" />
        <path fill="url(#h)"
            d="M541.644 269.462s4.684 2.128 5.059.937-1.338-5.227-2.53-5.495c-1.191-.267-3.814 3.347-2.529 4.565v-.007Z" />
        <path fill="#000"
            d="M546.81 278.497a11.388 11.388 0 0 1-3.774-.589.494.494 0 0 1-.281-.669.483.483 0 0 1 .27-.294.493.493 0 0 1 .399.006c.254.1 6.398 2.335 12.602-3.233a.487.487 0 0 1 .669 0 .495.495 0 0 1-.034.67 14.547 14.547 0 0 1-9.851 4.109Z" />
        <path fill="url(#i)"
            d="M586.181 360.084s-14.389-15.653-21.088-25.223c-4.256-6.077-38.988-11.518-51.356-20.627-4.129-3.045-6.739 4.571 0 10.441 6.739 5.869 17.534 7.14 17.534 7.14s-6.625 16.31-4.457 19.355c2.168 3.045 8.479 2.175 8.479 2.175s1.165 5.22 7.361 4.999c0 0-1.164 6.525 13.699 7.616 1.64 4.685 5.194 6.653 10.614 5.983l2.945 25.331s17.567-17.835 16.269-37.19Z" />
        <path fill="#000"
            d="m569.49 398.405-3.011-25.893c-5.287.502-8.821-1.539-10.527-6.063-6.418-.515-10.708-2.095-12.715-4.685a5.151 5.151 0 0 1-1.145-2.884 7.358 7.358 0 0 1-7.16-4.959c-1.52.14-6.525.374-8.533-2.436-.368-.522-1.506-2.115 1.338-11.277 1.058-3.42 2.296-6.646 2.811-7.957-2.483-.382-11.249-2.008-17.145-7.168-4.732-4.123-5.033-9.075-3.433-11.069.776-.971 2.255-1.526 4.075-.181 6.291 4.631 18.611 8.359 29.446 11.652 10.634 3.219 19.822 6.023 21.99 9.095 6.606 9.429 20.907 25.016 21.047 25.17l.128.134v.18c1.298 19.362-16.269 37.411-16.45 37.592l-.716.749Zm-2.108-27.037 2.884 24.762c3.346-3.668 16.416-19.268 15.392-35.805-1.425-1.552-14.722-16.122-21.013-25.143-1.961-2.804-11.424-5.669-21.415-8.7-10.955-3.347-23.369-7.074-29.794-11.813-1.084-.796-2.007-.796-2.677 0-1.338 1.627-.876 6.024 3.306 9.638 6.539 5.702 17.146 7 17.253 7.013l.669.081-.254.629c-2.523 6.204-5.976 16.811-4.518 18.859 1.968 2.757 7.924 2.008 7.984 1.961l.475-.06.101.461c.047.195 1.137 4.792 6.806 4.598h.669l-.114.629a3.757 3.757 0 0 0 .95 2.717c1.299 1.64 4.484 3.715 12.281 4.29h.341l.107.321c1.553 4.438 4.838 6.278 10.038 5.635l.529-.073Z" />
        <path fill="#000"
            d="M534.798 353.492c-1.111-3.66 4.142-17.4 4.363-18.002l.97.368c-1.492 3.888-5.186 14.576-4.343 17.34l-.99.294ZM542.333 360.091c-1.111-3.661 4.176-17.661 4.404-18.25l.97.368c-1.506 3.955-5.227 14.824-4.383 17.581l-.991.301ZM554.58 357.809l-.89-.529c2.409-4.015 2.958-10.246 2.965-10.306l1.03.087c-.02.261-.575 6.505-3.105 10.748Z" />
        <path fill="#000"
            d="m556.353 366.476-.067-1.031c1.004-.067 2.336-.341 2.985-1.272a3.084 3.084 0 0 0 .167-2.723c-.876-2.958-7.026-4.136-7.093-4.15l.194-1.017c.274.054 6.833 1.339 7.897 4.872.435 1.472.328 2.677-.315 3.614-.642.937-2.001 1.593-3.768 1.707ZM415.463 285.644l97.579 24.823a2.265 2.265 0 0 1 1.713 2.201v62.782a2.28 2.28 0 0 1-1.868 2.236 2.27 2.27 0 0 1-1.043-.054l-97.573-28.496a2.279 2.279 0 0 1-1.633-2.182v-59.108a2.28 2.28 0 0 1 1.808-2.222 2.28 2.28 0 0 1 1.023.02h-.006Z" />
        <path fill="url(#j)"
            d="M405.304 364.388s-6.974-42.397-7.864-46.847c-.89-4.451 15.192-22.614 15.192-22.614v11.665s7.234 2.871 19.702.95c4.443-.669 7.154 4.986 3.64 7.783a7.96 7.96 0 0 1-.375.281s5.301.529 6.177 4.243c.877 3.715-3.346 7.242-3.346 7.242s3.775.174 3.48 4.771c-.294 4.598-4.182 5.12-4.182 5.12s2.295 2.998.709 6.023c-1.131 2.135-10.186 6.07-21.589 2.811a1.342 1.342 0 0 0-1.248 1.106c-.035.198-.025.401.03.594a2.819 2.819 0 0 0 2.008 2.242l18.002 5.635s-5.421 13.766-30.296 8.981l-.04.014Z" />
        <path fill="#000"
            d="M415.021 365.913a52.388 52.388 0 0 1-9.818-1.01l-.415-.08v-.395c-.254-1.539-6.993-42.457-7.856-46.754-.91-4.53 13.652-21.168 15.312-23.055l.903-1.024v12.662c1.539.509 8.399 2.456 19.113.803a5.026 5.026 0 0 1 5.407 3.012 4.68 4.68 0 0 1-.883 5.253c1.706.395 4.798 1.499 5.494 4.437.696 2.938-1.552 5.81-2.784 7.068a4.252 4.252 0 0 1 1.807 1.171 5.149 5.149 0 0 1 1.118 3.922c-.241 3.674-2.63 4.972-3.882 5.407.669 1.098 1.64 3.494.348 5.936-1.291 2.443-10.52 6.358-22.084 3.106-.569.14-.77.468-.669 1.097a2.276 2.276 0 0 0 1.612 1.814l18.531 5.802-.207.515c-.04.121-4.27 10.307-21.047 10.313Zm-9.269-1.96c12.421 2.315 19.729-.154 23.684-2.677a15.542 15.542 0 0 0 5.434-5.575l-17.4-5.454a3.345 3.345 0 0 1-2.329-2.677 1.876 1.876 0 0 1 1.626-2.283h.241c11.19 3.199 19.983-.669 20.994-2.563 1.405-2.677-.669-5.421-.669-5.447l-.536-.71.877-.12c.14 0 3.466-.542 3.734-4.638a4.216 4.216 0 0 0-.857-3.172 3.341 3.341 0 0 0-2.128-1.051l-1.338-.06 1.024-.85c.04-.034 3.975-3.346 3.179-6.726-.797-3.38-5.682-3.842-5.729-3.848l-1.385-.141 1.138-.796.361-.261a3.663 3.663 0 0 0 1.064-4.471 4.019 4.019 0 0 0-4.31-2.402c-12.467 1.92-19.675-.857-19.969-.978l-.328-.127v-10.641c-6.331 7.282-14.723 18.224-14.168 21.135.823 4.216 7.121 42.45 7.79 46.533Z" />
        <path fill="#000"
            d="M424.912 317.715c-9.095 0-14.415-3.548-14.723-3.748l.582-.85a22.5 22.5 0 0 0 6.605 2.677c3.882.957 10.173 1.626 18.069-.629l.288.997a39.383 39.383 0 0 1-10.821 1.553ZM428.445 328.844c-9.094 0-14.415-3.547-14.722-3.748l.582-.85a22.461 22.461 0 0 0 6.605 2.677c3.882.957 10.172 1.627 18.069-.629l.288.997a39.396 39.396 0 0 1-10.822 1.553ZM428.813 338.227c-9.476 0-14.763-2.972-15.044-3.139l.516-.897c.087.054 9.061 5.08 24.44 1.968l.2 1.017a51.345 51.345 0 0 1-10.112 1.051ZM602.764 434.116c-28.275-13.458-36.754-22.721-47.515-34.446l.763-.669c10.661 11.645 19.08 20.834 47.167 34.212l-.415.903ZM628.623 384.311c-28.436-11.745-42.637-23.711-42.777-23.832l.669-.783c.141.114 14.234 11.98 42.502 23.658l-.394.957ZM460.28 418.878c-1.84-3.655-2.007-6.88-.448-9.577 3.607-6.291 15.238-7.643 17.721-7.864 1.639-21.469 13.05-38.816 13.163-39.01l.864.575c-.114.174-11.531 17.561-13.023 38.95l-.034.449h-.448c-.141 0-13.659.95-17.346 7.361-1.339 2.383-1.198 5.274.475 8.6l-.924.516Z" />
        <path fill="#000"
            d="M583.149 421.421a12.163 12.163 0 0 1-5.22-1.185l.442-.937c5.193 2.45 10.125.288 13.384-1.954 9.764-6.793 17.46-23.143 16.47-34.995-.328-3.915-1.814-9.088-7.007-11.531l.441-.937c4.464 2.102 7.087 6.385 7.596 12.381 1.017 12.167-6.879 28.958-16.911 35.932-3.119 2.141-6.217 3.226-9.195 3.226ZM418.487 382.343c-14.087 0-27.384-8.927-27.545-9.034l.583-.85c.187.127 18.791 12.608 34.98 7.73 8.091-2.443 14.288-8.808 18.417-18.92l.957.395c-4.25 10.413-10.708 16.979-19.08 19.515a28.757 28.757 0 0 1-8.312 1.164ZM516.468 496.149c-18.738-4.953-27.438-8.935-28.603-4.257-1.164 4.678 16.276 34.848 16.276 34.848l12.327-30.591ZM552.954 688.804l-1.024-.147c6.445-45.85 10.487-102.395 12.715-141.76 2.443-42.657 3.346-74.875 3.386-75.196h1.031c0 .321-.944 32.559-3.386 75.223-2.229 39.412-6.271 95.99-12.722 141.88ZM393.412 678.478l-.997-.288c19.146-66.316 42.053-128.047 68.099-183.487l.937.435c-25.992 55.393-48.913 117.078-68.039 183.34Z" />
        <path fill="url(#k)"
            d="M114.039 695.483c47.209 0 85.48-13.714 85.48-30.631 0-16.918-38.271-30.632-85.48-30.632s-85.48 13.714-85.48 30.632c0 16.917 38.271 30.631 85.48 30.631Z" />
        <path fill="#000"
            d="M114.039 696.266c-22.92 0-44.476-3.206-60.705-9.021-16.476-5.903-25.557-13.86-25.557-22.4s9.081-16.49 25.557-22.4c16.229-5.815 37.784-9.014 60.705-9.014s44.483 3.199 60.712 9.014c16.476 5.91 25.551 13.867 25.551 22.4 0 8.533-9.075 16.497-25.551 22.4-16.229 5.815-37.764 9.021-60.712 9.021Zm0-61.269c-22.753 0-44.115 3.172-60.176 8.927-15.807 5.669-24.52 13.098-24.52 20.921 0 7.823 8.7 15.259 24.52 20.927 16.061 5.756 37.436 8.928 60.176 8.928 22.74 0 44.115-3.172 60.183-8.928 15.807-5.668 24.514-13.097 24.514-20.927s-8.7-15.252-24.514-20.921c-16.068-5.755-37.436-8.927-60.183-8.927Z" />
        <path fill="#000"
            d="M81.08 677.152c-4.19-2.23-6.726-5.447-7.609-9.65h-12.44v-4.591h12.326a18.494 18.494 0 0 1 3.005-7.824 18.388 18.388 0 0 1 6.217-5.876l11.216 2.517a20.698 20.698 0 0 0-5.608 5.032 14.055 14.055 0 0 0-2.83 6.144h22.218a29.587 29.587 0 0 1 4.169-6.625 17.152 17.152 0 0 1 6.692-4.451c2.922-1.191 6.793-1.787 11.611-1.787 5.996 0 11.105 1.102 15.325 3.306 4.221 2.204 6.739 5.39 7.555 9.557h12.555v4.591h-12.367a15.019 15.019 0 0 1-2.108 6.124 18.573 18.573 0 0 1-4.685 5.227l-11.216-2.296c3.257-2.833 5.265-5.854 6.023-9.062H118.69a30.738 30.738 0 0 1-4.109 6.693 16.874 16.874 0 0 1-6.605 4.477c-2.931 1.209-6.801 1.816-11.61 1.821-6.006 0-11.099-1.116-15.28-3.347l-.006.02Zm43.714-18.411a11.725 11.725 0 0 0-3.775 4.19h19.769a6.99 6.99 0 0 0-1.338-2.489 7 7 0 0 0-2.216-1.754 13.941 13.941 0 0 0-6.558-1.399 10.595 10.595 0 0 0-5.882 1.452Zm-35.77 13.171a12.831 12.831 0 0 0 6.33 1.426 10.828 10.828 0 0 0 6.024-1.506 12.156 12.156 0 0 0 3.834-4.31H85.591a7.17 7.17 0 0 0 3.44 4.39h-.007Z" />
        <path fill="url(#l)"
            d="M114.039 661.084c47.209 0 85.48-13.714 85.48-30.631 0-16.918-38.271-30.632-85.48-30.632s-85.48 13.714-85.48 30.632c0 16.917 38.271 30.631 85.48 30.631Z" />
        <path fill="#000"
            d="M114.039 661.874c-22.92 0-44.476-3.206-60.705-9.022-16.476-5.903-25.557-13.86-25.557-22.4 0-8.539 9.081-16.49 25.557-22.399 16.229-5.816 37.784-9.022 60.705-9.022s44.483 3.206 60.712 9.022c16.476 5.909 25.551 13.86 25.551 22.399 0 8.54-9.075 16.497-25.551 22.4-16.229 5.816-37.764 9.022-60.712 9.022Zm0-61.27c-22.753 0-44.115 3.166-60.176 8.921-15.807 5.669-24.52 13.097-24.52 20.927 0 7.831 8.7 15.259 24.52 20.928 16.061 5.755 37.436 8.921 60.176 8.921 22.74 0 44.115-3.166 60.183-8.921 15.807-5.669 24.514-13.097 24.514-20.928 0-7.83-8.7-15.258-24.514-20.927-16.068-5.755-37.436-8.921-60.183-8.921Z" />
        <path fill="url(#m)"
            d="M115.09 682.908c20.451-.208 41.211-2.416 60.531-9.37 8.532-3.346 19.729-8.358 23.242-17.4.43-1.236.656-2.533.669-3.841v-21.818c-.756 17.34-34.699 25.291-48.699 27.66-31.935 5.555-85.305 4.444-112.884-13.699-4.631-3.259-9.315-7.917-9.369-13.947.08 1.244-.207 23.463.228 24.046 1.064 5.059 5.066 8.834 9.128 11.725 9.503 6.431 20.745 9.744 31.848 12.26a212.524 212.524 0 0 0 45.326 4.424l-.02-.04Z" />
        <mask id="n" width="172" height="53" x="28" y="630" maskUnits="userSpaceOnUse"
            style="mask-type:luminance">
            <path fill="#fff"
                d="M115.09 682.908c20.451-.207 41.211-2.416 60.531-9.369 8.532-3.347 19.729-8.359 23.242-17.401.43-1.235.656-2.533.669-3.841v-21.818c-.756 17.34-34.699 25.291-48.699 27.66-31.935 5.555-85.305 4.444-112.884-13.699-4.631-3.259-9.315-7.917-9.369-13.947.08 1.245-.207 23.463.228 24.046 1.064 5.059 5.066 8.834 9.128 11.725 9.503 6.431 20.745 9.744 31.848 12.26a212.524 212.524 0 0 0 45.326 4.424l-.02-.04Z" />
        </mask>
        <g fill="#fff" mask="url(#n)">
            <path
                d="M106.477 626.022H58.18v74.875h48.297v-74.875ZM208.098 623.66h-48.297v74.875h48.297V623.66ZM45.424 613.393H-2.873v74.876h48.297v-74.876Z" />
        </g>
        <path fill="#000"
            d="M114.307 683.698a213.45 213.45 0 0 1-44.697-4.437c-10.28-2.329-22.131-5.615-32.123-12.381-5.534-3.929-8.532-7.804-9.456-12.214-.22-.843-.308-3.848-.247-18.424v-5.796l1.566-.06v.448c.2 4.504 3.225 8.841 9.007 12.91 25.886 17.005 77.215 19.716 112.335 13.605 7.891-1.338 47.261-8.9 48.05-26.923h1.566v21.817a12.56 12.56 0 0 1-.709 4.096c-3.48 8.995-13.933 14.054-23.69 17.882-16.731 6.023-35.509 9.035-58.952 9.41h-2.677l.027.067ZM29.51 654.151l.04.174c.837 4.015 3.64 7.569 8.814 11.243 9.764 6.612 21.415 9.851 31.567 12.14a212.019 212.019 0 0 0 44.363 4.404h.776c24.132-.248 43.285-3.213 60.27-9.37 9.429-3.667 19.521-8.56 22.753-16.952.4-1.145.608-2.348.616-3.56v-15.875c-7.281 14.503-37.691 20.747-47.782 22.494-28.201 4.898-83.813 5.501-113.252-13.686h-.087l-.201-.195c-3.821-2.677-6.518-5.548-8.071-8.506.013 5.89-.033 16.256.194 17.689Z" />
        <path fill="#000"
            d="M81.08 642.753c-4.19-2.231-6.726-5.445-7.609-9.644h-12.44v-4.591h12.326a18.557 18.557 0 0 1 3.005-7.83 18.507 18.507 0 0 1 6.217-5.876l11.216 2.517a20.698 20.698 0 0 0-5.608 5.032 14.058 14.058 0 0 0-2.83 6.151h22.218a29.5 29.5 0 0 1 4.169-6.626 17.085 17.085 0 0 1 6.692-4.45c2.922-1.192 6.793-1.787 11.611-1.787 5.996 0 11.105 1.1 15.325 3.299 4.221 2.2 6.739 5.388 7.555 9.564h12.555v4.591h-12.367a15.018 15.018 0 0 1-2.108 6.117 18.555 18.555 0 0 1-4.685 5.226l-11.216-2.288c3.257-2.838 5.265-5.859 6.023-9.062H118.69a30.88 30.88 0 0 1-4.109 6.692 16.951 16.951 0 0 1-6.605 4.478c-2.931 1.209-6.801 1.816-11.61 1.82-6.006 0-11.099-1.115-15.28-3.346l-.006.013Zm43.714-18.424a11.796 11.796 0 0 0-3.775 4.196h19.769a6.987 6.987 0 0 0-3.554-4.25 14.056 14.056 0 0 0-6.558-1.398 10.639 10.639 0 0 0-5.882 1.452ZM89.024 637.5a12.772 12.772 0 0 0 6.33 1.425c2.523 0 4.538-.495 6.024-1.506a12.045 12.045 0 0 0 3.834-4.303H85.591a7.137 7.137 0 0 0 3.44 4.384h-.007Z" />
        <path fill="url(#o)"
            d="M114.039 627.401c47.209 0 85.48-13.714 85.48-30.632 0-16.917-38.271-30.631-85.48-30.631s-85.48 13.714-85.48 30.631c0 16.918 38.271 30.632 85.48 30.632Z" />
        <path fill="#000"
            d="M114.039 628.184c-22.92 0-44.476-3.206-60.705-9.022-16.476-5.902-25.557-13.86-25.557-22.399 0-8.54 9.081-16.49 25.557-22.4 16.229-5.816 37.784-9.015 60.705-9.015s44.483 3.199 60.712 9.015c16.476 5.91 25.551 13.86 25.551 22.4 0 8.539-9.075 16.497-25.551 22.399-16.229 5.816-37.764 9.022-60.712 9.022Zm0-61.27c-22.753 0-44.115 3.173-60.176 8.928-15.807 5.662-24.52 13.097-24.52 20.921 0 7.823 8.7 15.259 24.52 20.927 16.061 5.756 37.436 8.928 60.176 8.928 22.74 0 44.115-3.172 60.183-8.928 15.807-5.668 24.514-13.097 24.514-20.927s-8.7-15.259-24.514-20.921c-16.068-5.755-37.436-8.928-60.183-8.928Z" />
        <path fill="url(#p)"
            d="M115.09 649.218c20.451-.207 41.211-2.416 60.531-9.369 8.532-3.346 19.729-8.359 23.242-17.401.43-1.235.656-2.533.669-3.841V596.79c-.756 17.34-34.699 25.297-48.699 27.659-31.935 5.555-85.305 4.444-112.884-13.692-4.631-3.266-9.315-7.924-9.369-13.954.08 1.251-.207 23.47.228 24.046 1.064 5.059 5.066 8.834 9.128 11.725 9.503 6.431 20.745 9.751 31.848 12.261a212.197 212.197 0 0 0 45.326 4.423l-.02-.04Z" />
        <mask id="q" width="172" height="54" x="28" y="596" maskUnits="userSpaceOnUse"
            style="mask-type:luminance">
            <path fill="#fff"
                d="M115.09 649.218c20.451-.207 41.211-2.416 60.531-9.369 8.532-3.346 19.729-8.359 23.242-17.401.43-1.235.656-2.533.669-3.841V596.79c-.756 17.34-34.699 25.297-48.699 27.659-31.935 5.555-85.305 4.444-112.884-13.692-4.631-3.266-9.315-7.924-9.369-13.954.08 1.251-.207 23.47.228 24.046 1.064 5.059 5.066 8.834 9.128 11.725 9.503 6.432 20.745 9.751 31.848 12.261a212.133 212.133 0 0 0 45.326 4.423l-.02-.04Z" />
        </mask>
        <g fill="#fff" mask="url(#q)">
            <path
                d="M106.477 592.332H58.18v74.875h48.297v-74.875ZM208.098 589.97h-48.297v74.875h48.297V589.97ZM45.424 579.704H-2.873v74.875h48.297v-74.875Z" />
        </g>
        <path fill="#000"
            d="M114.307 650.041a213.383 213.383 0 0 1-44.697-4.437c-10.28-2.329-22.131-5.615-32.123-12.381-5.534-3.928-8.532-7.803-9.456-12.214-.22-.843-.308-3.848-.247-18.424v-5.795l1.566-.054v.442c.2 4.497 3.225 8.84 9 12.909 25.866 17.006 77.168 19.69 112.316 13.579 7.89-1.338 47.26-8.901 48.05-26.923l1.566.033v21.818a12.6 12.6 0 0 1-.71 4.102c-3.48 8.988-13.933 14.054-23.69 17.875-16.731 6.024-35.509 9.035-58.952 9.41h-2.677l.054.06Zm-84.797-29.58.04.174c.837 4.015 3.64 7.569 8.814 11.243 9.764 6.612 21.415 9.851 31.567 12.14a211.613 211.613 0 0 0 44.363 4.404h.776c24.132-.248 43.285-3.213 60.27-9.37 9.429-3.667 19.521-8.559 22.753-16.952.4-1.144.608-2.347.616-3.56v-15.868c-7.281 14.496-37.691 20.78-47.782 22.487-28.201 4.899-83.813 5.508-113.252-13.686h-.08l-.195-.188c-3.828-2.703-6.522-5.541-8.084-8.512.013 5.896-.033 16.269.194 17.688Z" />
        <path fill="#000"
            d="M81.08 609.07c-4.19-2.231-6.726-5.448-7.609-9.65h-12.44v-4.591h12.326a18.556 18.556 0 0 1 3.005-7.831 18.433 18.433 0 0 1 6.217-5.869l11.216 2.51a20.816 20.816 0 0 0-5.608 5.039 14.012 14.012 0 0 0-2.83 6.144h22.218a29.616 29.616 0 0 1 4.169-6.626 17.16 17.16 0 0 1 6.692-4.45c2.922-1.191 6.793-1.787 11.611-1.787 5.996 0 11.105 1.1 15.325 3.299 4.221 2.2 6.739 5.388 7.555 9.564h12.555v4.591h-12.367a14.954 14.954 0 0 1-2.108 6.117 18.685 18.685 0 0 1-4.685 5.233l-11.216-2.295c3.257-2.838 5.265-5.858 6.023-9.062H118.69a30.863 30.863 0 0 1-4.109 6.693 16.96 16.96 0 0 1-6.605 4.477c-2.931 1.209-6.801 1.816-11.61 1.82-6.006 0-11.099-1.115-15.28-3.346l-.006.02Zm43.714-18.431a11.796 11.796 0 0 0-3.775 4.196h19.769a6.976 6.976 0 0 0-1.337-2.49 6.975 6.975 0 0 0-2.217-1.753 13.932 13.932 0 0 0-6.558-1.405 10.647 10.647 0 0 0-5.882 1.452Zm-35.77 13.171a12.765 12.765 0 0 0 6.33 1.432c2.523 0 4.538-.502 6.024-1.512a12.048 12.048 0 0 0 3.834-4.304H85.591a7.137 7.137 0 0 0 3.44 4.384h-.007Z" />
        <path fill="url(#r)"
            d="M180.205 686.85c-.281-36.22 28.542-68.143 65.39-68.036-6.592.141-16.845-.428-23.216.857a64.658 64.658 0 0 0-38.299 21.71c-37.316 43.207-8.459 113.183 48.632 113.491h12.883c-36.138 0-65.39-30.458-65.39-68.022Z" />
        <mask id="s" width="79" height="137" x="167" y="618" maskUnits="userSpaceOnUse"
            style="mask-type:luminance">
            <path fill="#fff"
                d="M180.205 686.85c-.281-36.22 28.542-68.143 65.39-68.036-6.592.141-16.845-.428-23.216.857a64.658 64.658 0 0 0-38.299 21.71c-37.316 43.207-8.459 113.183 48.632 113.491h12.883c-36.138 0-65.39-30.457-65.39-68.022Z" />
        </mask>
        <g mask="url(#s)">
            <path fill="#fff" d="M219.809 633.799h-74.872v48.299h74.872v-48.299Z" />
        </g>
        <path fill="#000"
            d="M245.595 755.682h-12.91a64.398 64.398 0 0 1-36.586-11.378 68.357 68.357 0 0 1-23.048-28.007c-11.638-25.606-7.636-54.504 10.433-75.424 9.952-11.592 24.092-19.603 38.768-21.978 4.685-.937 11.377-.897 17.3-.857h6.049v1.566h-1.887c-16.061.435-31.226 7.074-42.917 18.819a68.334 68.334 0 0 0-19.809 48.427c0 37.076 28.984 67.239 64.607 67.239v1.593ZM231.2 619.671a53.09 53.09 0 0 0-8.7.796c-14.355 2.316-28.148 10.133-37.865 21.45-17.66 20.458-21.569 48.721-10.192 73.757a66.818 66.818 0 0 0 22.539 27.352 62.754 62.754 0 0 0 34.418 11.069c-29.706-6.759-52.011-34.332-52.011-67.218a69.864 69.864 0 0 1 20.277-49.525 65.048 65.048 0 0 1 31.534-17.681Z" />
        <path fill="url(#t)"
            d="M245.595 618.841c36.137 0 65.396 30.457 65.396 68.036 0 37.578-29.272 68.022-65.396 68.022-36.125 0-65.39-30.458-65.39-68.022 0-37.565 29.272-68.036 65.39-68.036Z" />
        <mask id="u" width="131" height="137" x="180" y="618" maskUnits="userSpaceOnUse"
            style="mask-type:luminance">
            <path fill="#fff"
                d="M245.595 618.841c36.137 0 65.396 30.457 65.396 68.036 0 37.578-29.272 68.022-65.396 68.022-36.125 0-65.39-30.458-65.39-68.022 0-37.565 29.272-68.036 65.39-68.036Z" />
        </mask>
        <g mask="url(#u)">
            <path fill="#fff"
                d="M317.386 631.468 185.219 763.641l52.284 52.286 132.168-132.172-52.285-52.287Z" />
        </g>
        <path fill="#000"
            d="M245.595 755.682c-36.486 0-66.173-30.866-66.173-68.805 0-37.94 29.687-68.819 66.173-68.819 36.485 0 66.179 30.872 66.179 68.819 0 37.946-29.687 68.805-66.179 68.805Zm0-136.058c-35.623 0-64.607 30.17-64.607 67.253 0 37.082 28.984 67.239 64.607 67.239 35.622 0 64.613-30.163 64.613-67.239 0-37.077-28.984-67.253-64.613-67.253Z" />
        <path fill="#000"
            d="M266.481 716.464c-4.015 4.185-9.833 6.719-17.453 7.602v12.448h-8.312V724.18a51.982 51.982 0 0 1-14.161-2.998c-4.461-1.624-8.004-3.699-10.627-6.224l4.557-11.217a32.799 32.799 0 0 0 9.102 5.609 37.392 37.392 0 0 0 11.129 2.837v-22.219a69.87 69.87 0 0 1-11.993-4.169 21.166 21.166 0 0 1-8.03-6.659c-2.164-2.931-3.241-6.802-3.232-11.611a21.522 21.522 0 0 1 5.962-15.333c3.98-4.216 9.746-6.735 17.3-7.556v-12.548h8.291v12.328c3.77.223 7.494.931 11.082 2.108a35.035 35.035 0 0 1 9.457 4.684l-4.143 11.217a39.77 39.77 0 0 0-16.396-6.023v22.44a72.266 72.266 0 0 1 12.093 4.109 21.13 21.13 0 0 1 8.098 6.605c2.188 2.931 3.285 6.793 3.285 11.612a21.245 21.245 0 0 1-6.023 15.278l.014.014Zm-33.334-43.715c1.753 1.479 4.283 2.744 7.589 3.774v-19.789c-3.44.589-6.023 1.78-7.689 3.553a9.162 9.162 0 0 0-2.53 6.552 7.361 7.361 0 0 0 2.63 5.89v.02Zm23.824 35.771a8.558 8.558 0 0 0 2.583-6.338 7.49 7.49 0 0 0-2.737-6.023c-1.82-1.517-4.416-2.795-7.789-3.835v19.656c3.569-.598 6.217-1.745 7.943-3.44v-.02Z" />
        <path fill="url(#v)"
            d="m141.471 350.434 65.436 179.485c10.942 37.578 77.629 1.86 72.222-19.194 0 0-40.053-103.994-48.953-136.627-34.954-128.2-121.845-115.511-88.712-23.657l.007-.007Z" />
        <mask id="w" width="146" height="268" x="134" y="279" maskUnits="userSpaceOnUse"
            style="mask-type:luminance">
            <path fill="#fff"
                d="m141.471 350.434 65.436 179.485c10.942 37.578 77.629 1.86 72.222-19.194 0 0-40.053-103.994-48.953-136.627-34.954-128.2-121.845-115.511-88.712-23.657l.007-.007Z" />
        </mask>
        <g mask="url(#w)">
            <path fill="url(#x)"
                d="m144.991 338.294 72.797 208.724-16.576-4.491-72.925-214.479 16.704 10.246Z" />
        </g>
        <path fill="#000"
            d="M225.103 546.677c5.073.742 10.968.24 17.54-1.56 19.408-5.354 40.307-21.924 37.062-34.54v-.06c-.402-1.044-40.154-104.348-48.941-136.579-7.461-27.372-18.068-50.682-30.63-67.4-10.868-14.456-23.215-23.912-34.766-26.629-9.402-2.209-17.774.16-23.563 6.692-10.707 12.007-11.022 35.952-.877 64.067l.803 2.229 64.634 177.276c2.764 9.476 9.322 15.132 18.738 16.504Zm53.464-35.772c2.951 11.659-17.44 27.915-36.238 33.068-25.672 7.034-32.919-7.603-34.847-14.222l-65.67-180.107c-9.778-27.439-9.463-50.688.856-62.28 5.495-6.163 13.452-8.405 22.413-6.297 11.276 2.677 23.382 11.946 34.09 26.181 12.481 16.604 23.007 39.773 30.429 67.004 8.747 32.084 48.07 134.324 48.967 136.653Z" />
        <path fill="#000"
            d="M253.809 540.354c17.502-8.378 28.299-22.254 24.116-30.992-4.182-8.738-21.761-9.03-39.263-.651-17.502 8.378-28.3 22.254-24.117 30.992 4.182 8.738 21.761 9.029 39.264.651Z" />
        <path fill="url(#y)"
            d="m274.779 553.931-9.081-37.739c-11.933-7.743-31.099-3.413-37.403 6.572 0 0-4.143 6.291 6.19 26.596s40.294 4.544 40.294 4.544v.027Z" />
        <path fill="#000"
            d="M248.613 559.854c10.935 1.599 23.422-4.129 25.899-5.354l.361 1.506.408-2.791-.241.127-9.001-37.37-.127-.087c-5.896-3.829-13.9-5.013-21.95-3.246-7.074 1.552-13.05 5.267-16.001 9.938-.168.254-4.143 6.692 6.17 26.977a18.19 18.19 0 0 0 10.975 9.504c1.146.359 2.318.626 3.507.796Zm25.704-6.144c-2.215 1.105-17.399 8.286-28.977 4.591a17.44 17.44 0 0 1-10.507-9.101c-10.038-19.757-6.25-26.141-6.21-26.201 2.844-4.498 8.64-8.085 15.506-9.591 7.79-1.706 15.513-.595 21.221 3.052l8.967 37.25Z" />
        <path fill="url(#z)"
            d="m258.115 217.207 29.747-8.7s.817-20.077 14.101-19.97c0 0 15.392-9.892 20.679-14.322 5.287-4.43 12.762-3.534 6.966 7.235l20.813 3.406s10.219.315 16.797 2.55a5.914 5.914 0 0 1 4.076 4.919c.321 3.266-2.229 4.952-5.99 3.607-5.025-1.787-7.729-6.411-7.729-6.411l-16.864 14.261-3.547 6.94s-13.933 5.649-20.184 6.492c0 0-29.077 42.43-45.112 44.076-28.636 2.932-40.99-40.924-13.753-44.116v.033Z" />
        <path fill="#000"
            d="M265.477 261.705c2.128.309 4.286.352 6.424.128 15.714-1.613 42.971-40.65 45.36-44.11 6.331-.944 19.515-6.264 20.077-6.492l.18-.074 3.587-7.02 16.336-13.813a16.436 16.436 0 0 0 7.669 6.123c2.142.77 4.016.67 5.287-.341a4.104 4.104 0 0 0 1.392-3.801 6.443 6.443 0 0 0-4.423-5.354c-6.452-2.189-16.149-2.55-16.912-2.577l-20.076-3.286c2.978-5.849 1.666-8.185.589-9.068-1.907-1.553-5.555-.776-8.7 1.834-4.952 4.142-18.999 13.237-20.492 14.201-12.46.054-14.241 17.313-14.448 20.077l-29.319 8.547c-10.613 1.251-16.73 9.175-15.485 20.197 1.298 11.471 10.132 22.956 22.954 24.829Zm71.319-51.357c-1.647.669-14.148 5.601-19.883 6.384h-.227l-.134.188c-.288.428-29.118 42.256-44.731 43.855-15.613 1.6-26.822-11.23-28.228-24.032-1.338-12.274 6.184-17.809 13.914-18.967v.114l.769-.214 30.115-8.781v-.368c0-.194.95-19.562 13.585-19.468h.154l.127-.087c.154-.094 15.466-9.958 20.746-14.355 2.677-2.229 5.896-3.025 7.361-1.827 1.466 1.198 1.051 4.276-1.177 8.412l-.342.669 21.563 3.534h.033c.1 0 10.219.341 16.644 2.523a5.387 5.387 0 0 1 3.727 4.484 3.122 3.122 0 0 1-.997 2.884c-.964.75-2.53.817-4.303.188-4.792-1.714-7.428-6.144-7.455-6.191l-.308-.529-17.4 14.724-3.553 6.86Z" />
        <path fill="url(#A)"
            d="m293.812 190.939 10.486 12.448a3.117 3.117 0 0 0 3.172 1.018l68.743-17.755a.9.9 0 0 0 .669-.737l.428-2.911-14.91-9.891-68.548 13.813-.402 2.784a1.589 1.589 0 0 0 .362 1.231Z" />
        <mask id="B" width="85" height="32" x="293" y="173" maskUnits="userSpaceOnUse"
            style="mask-type:luminance">
            <path fill="#fff"
                d="m293.812 190.94 10.486 12.447a3.117 3.117 0 0 0 3.172 1.018l68.743-17.755a.9.9 0 0 0 .669-.737l.428-2.911-14.91-9.891-68.548 13.813-.402 2.784a1.589 1.589 0 0 0 .362 1.232Z" />
        </mask>
        <g fill="#000" mask="url(#B)">
            <path
                d="M345.495 185.077c-7.508-1.091-14.053 1.338-14.682 5.421-.629 4.082 5.012 8.292 12.521 9.369 7.509 1.078 14.054-1.338 14.676-5.421.622-4.082-5.006-8.272-12.515-9.369Z" />
            <path
                d="M343.287 200.215c7.683 1.118 14.435-1.439 15.058-5.702.622-4.263-5.12-8.646-12.803-9.764-7.682-1.118-14.435 1.439-15.057 5.702-.622 4.263 5.119 8.647 12.802 9.764Zm2.162-14.803c7.314 1.064 12.802 5.106 12.233 9.008-.569 3.901-6.98 6.204-14.301 5.133-7.321-1.071-12.802-5.107-12.234-9.008.569-3.902 6.98-6.204 14.302-5.133Z" />
        </g>
        <path fill="#000"
            d="M306.172 204.994c.476.069.96.044 1.426-.074l68.742-17.755c.266-.069.506-.215.69-.419.183-.205.302-.46.341-.732l.468-3.219-15.325-10.213-.201.04-68.889 13.854-.455 3.125a2.08 2.08 0 0 0 .475 1.66l10.486 12.448a3.655 3.655 0 0 0 2.242 1.285Zm70.59-21.717-.375 2.596a.403.403 0 0 1-.295.328l-68.742 17.755a2.629 2.629 0 0 1-2.677-.856l-10.493-12.448a1.087 1.087 0 0 1-.248-.87l.355-2.436 67.999-13.673 14.476 9.604Z" />
        <path fill="#000"
            d="m293.926 186.697 11.135 13.478a2.484 2.484 0 0 0 2.543.823l69.8-18.023a.128.128 0 0 0 .06-.036.13.13 0 0 0 .031-.132.14.14 0 0 0-.037-.059l-13.873-12.522a1.7 1.7 0 0 0-1.566-.394l-68.08 16.818v.047h-.013Z" />
        <path fill="#000"
            d="M306.574 201.38c.37.055.748.037 1.111-.054l69.806-18.029a.445.445 0 0 0 .328-.328.48.48 0 0 0-.134-.469l-13.879-12.521a2.015 2.015 0 0 0-1.868-.469l-68.18 16.838-.16.181v.315l.087.08 11.129 13.465c.441.54 1.069.894 1.76.991Zm70.388-18.632-69.438 17.929a2.165 2.165 0 0 1-2.202-.709l-10.841-13.111 67.591-16.731a1.342 1.342 0 0 1 1.258.308l13.632 12.314Z" />
        <path fill="url(#C)"
            d="M336.749 210.348c7.977.167 8.546-2.517 7.529-5.16-1.017-2.644-6.585-11.05-8.479-14.429-1.894-3.38-6.191-2.102-6.077 2.61.114 4.711 3.647 10.621 3.647 10.621l3.38 6.358Z" />
        <path fill="#000"
            d="M337.157 211.278c4.015.08 6.438-.616 7.502-2.128.729-1.051.77-2.403.1-4.136-.669-1.734-3.205-5.829-5.44-9.43-1.232-2.008-2.396-3.861-3.072-5.066-.95-1.68-2.577-2.483-4.149-2.048-1.82.502-2.958 2.436-2.898 4.926.12 4.798 3.574 10.627 3.721 10.875l.89-.529c0-.06-3.467-5.849-3.574-10.373-.06-2.429 1.111-3.621 2.135-3.902 1.024-.281 2.255.288 2.972 1.56.716 1.271 1.86 3.105 3.098 5.099 2.208 3.567 4.685 7.603 5.354 9.256.535 1.392.535 2.429 0 3.172-.837 1.191-3.5 1.881-7.061 1.807l.422.917Z" />
        <path fill="url(#D)"
            d="M340.972 199.252c-1.66-3.922-5.1-13.506-1.339-15.607 3.761-2.102 10.915 12.321 14.469 15.607 4.276 3.948 1.104 10.038-5.528 8.278-4.43-1.198-7.602-8.278-7.602-8.278Z" />
        <path fill="#000"
            d="M349.531 208.253c2.831.415 5.28-.562 6.418-2.624 1.184-2.161.589-4.811-1.519-6.759-1.145-1.064-2.751-3.426-4.457-5.936-3.795-5.588-7.716-11.377-10.614-9.738-4.317 2.423-.221 13.057 1.138 16.256.133.301 3.346 7.362 7.916 8.567.368.1.741.178 1.118.234Zm-8.894-24.287c2.222.328 5.789 5.588 8.479 9.55 1.74 2.557 3.346 4.973 4.611 6.11 1.747 1.62 2.262 3.775 1.338 5.501-.836 1.513-2.937 2.811-6.357 1.901-4.082-1.091-7.154-7.797-7.241-7.984-2.503-5.903-4.424-13.351-1.586-14.944.23-.128.496-.175.756-.134Z" />
        <path fill="url(#E)"
            d="M347.303 185.017c3.486-2.497 11.965 7.897 15.86 10.775 4.685 3.46 2.008 11.825-3.861 8.318-4.016-2.376-15.479-16.584-11.999-19.087v-.006Z" />
        <path fill="#000"
            d="M361.329 205.422a3.828 3.828 0 0 0 2.192-.28 3.827 3.827 0 0 0 1.67-1.447 6.311 6.311 0 0 0-1.72-8.318 52.928 52.928 0 0 1-4.015-3.648c-4.478-4.303-9.557-9.189-12.428-7.127l-.181.147a2.366 2.366 0 0 0-.669 1.941c.208 4.765 9.369 15.774 12.903 17.862.685.434 1.449.73 2.248.87Zm-12.367-20.245c2.543.368 6.625 4.29 9.751 7.295a50.35 50.35 0 0 0 4.142 3.734 5.356 5.356 0 0 1 1.479 6.92c-1.024 1.54-2.757 1.734-4.765.536-3.292-1.954-12.206-12.615-12.394-17.012a1.307 1.307 0 0 1 .429-1.205l.1-.074c.383-.21.829-.279 1.258-.194Z" />
        <path fill="url(#F)"
            d="m68.506 311.939-2.477 51.15-39.617 12.187S6.034 352.1 14.587 302.63c11.316-65.479 59.948-21.55 53.919 9.302v.007Z" />
        <path fill="#000"
            d="m26.244 375.872 40.28-12.395 2.49-51.478c2.677-13.806-5.354-29.139-14.636-37.13-7.107-6.103-14.682-8.151-21.321-5.768-6.418 2.308-14.93 9.985-18.98 33.462-8.498 49.149 11.739 72.84 11.946 73.075l.221.234Zm39.283-13.164-38.962 11.973c-2.128-2.677-19.407-26.054-11.497-71.964 3.969-22.962 12.147-30.424 18.317-32.639 6.17-2.216 13.478-.275 20.297 5.574 9.088 7.804 16.918 22.755 14.288 36.18v.087l-2.443 50.789Z" />
        <path fill="url(#G)"
            d="M117.238 230.478s-43.131 15.775-48.739 81.454c-5.1-26.1-49.355-22.366-55.619 12.047 0 0-9.195-147.683 132.225-149.242l20.15-4.283s14.053-18.016 30.965-13.271c16.911 4.745 61.896 59.991 61.896 59.991-9.577 3.018-14.797 16.309-11.558 23.517 0 0-72.577.763-135.624 65.74-.783-26.87 1.258-52.201 6.318-75.979l-.014.026Z" />
        <path fill="#000"
            d="m12.632 328.088.736-4.016c3.567-19.588 19.3-28.597 32.417-28.684 11.511-.073 20.231 6.459 22.225 16.638l.67 3.487.3-3.541c2.885-33.783 15.915-54.021 26.341-65.057 9.443-9.992 18.491-14.422 21.234-15.62-4.845 23.169-6.906 48.46-6.13 75.176l.034 1.178.816-.843c32.484-33.462 67.531-49.524 91.215-57.1 25.665-8.205 43.881-8.493 44.061-8.493h.757l-.308-.669c-1.493-3.306-1.138-8.205.91-12.783 2.249-5.026 6.023-8.7 10.346-10.038l.669-.215-.461-.568c-1.841-2.262-45.26-55.427-62.151-60.159-16.242-4.551-29.981 11.598-31.373 13.305l-19.929 4.236c-40.729.455-72.945 13.091-95.659 37.558-21.307 22.922-30.235 52.201-33.97 72.734-4.048 22.232-3.05 39.284-3.037 39.452l.287 4.022Zm37.584-33.395a29.94 29.94 0 0 0-4.437-.302c-12.628.087-27.612 8.185-32.51 25.686a191.813 191.813 0 0 1 3.138-35.37c3.714-20.392 12.581-49.47 33.722-72.211 22.56-24.267 54.514-36.809 94.982-37.237h.1l20.325-4.323.107-.141c.14-.18 14.053-17.695 30.443-13.104 15.686 4.397 56.442 53.493 61.193 59.275-4.303 1.607-8.031 5.354-10.266 10.36-2.007 4.531-2.456 9.37-1.178 12.923-3.64.141-20.672 1.185-43.599 8.507-23.597 7.535-58.43 23.423-90.84 56.524-.669-26.562 1.439-51.686 6.337-74.694l.288-1.339-1.031.803c-.997.388-11.45 4.631-22.378 16.189-10.24 10.842-22.974 30.464-26.347 62.862-2.584-7.83-9.263-13.09-18.05-14.429v.021Z" />
        <path fill="url(#H)"
            d="M111.449 116.352c-4.912-23.31 8.386-34.131 22.172-36.52 13.611-2.343 24.821 6.832 33.173 29.854 8.813 24.294-.83 35.049-10.447 38.649l7.971 18.799c6.197 13.385-19.194 21.818-26.254 6.164l-15.452-36.44a11.986 11.986 0 0 1-5.441 2.904 12.046 12.046 0 0 1-5.728-23.403l.006-.007Z" />
        <path fill="#000"
            d="M148.952 182.092c.275.04.556.074.837.101 5.648.548 11.524-1.807 14.301-5.729a9.193 9.193 0 0 0 .669-9.544l-7.696-18.29c6.806-2.731 20.171-11.772 10.246-39.124-8.151-22.48-19.508-32.64-33.742-30.183-8.218 1.412-14.991 5.501-19.079 11.524-4.444 6.546-5.655 14.998-3.608 25.144a12.626 12.626 0 0 0-8.659 14.911 12.489 12.489 0 0 0 5.608 7.816 12.532 12.532 0 0 0 9.496 1.553 12.705 12.705 0 0 0 5.126-2.55l15.171 35.778a14.346 14.346 0 0 0 11.33 8.593Zm-8.445-101.879c10.553 1.54 19.206 11.47 25.798 29.648 9.858 27.171-3.808 35.623-10.138 37.993l-.502.187 8.177 19.301c1.413 3.038 1.205 5.983-.595 8.526-2.57 3.627-8.031 5.809-13.385 5.294a13.444 13.444 0 0 1-11.376-8.078l-15.734-37.11-.542.509a11.567 11.567 0 0 1-5.2 2.777 11.442 11.442 0 0 1-8.699-1.425 11.427 11.427 0 0 1-5.153-7.168 11.588 11.588 0 0 1 8.378-13.806l.161-.074.288-.194-.061-.348c-2.121-10.039-.997-18.41 3.347-24.815 3.928-5.79 10.459-9.725 18.396-11.09a21.36 21.36 0 0 1 6.84-.127Z" />
        <path fill="#000"
            d="M119.828 106.327c7.288 16.477 16.095 31.454 19.588 29.661 3.493-1.794-1.706-10.226 17.099-8.955 8.358.569 12.715-3.065 13.277-6.692 0 0 16.523 15.62 2.101 28.162-14.421 12.541-45.333 13.652-48.491-24.602l-6.693-9.242 3.072-8.372.047.04Z" />
        <path fill="#000"
            d="M112.513 117.048c6.425 0 10.902 6.893 10.902 6.893a175.75 175.75 0 0 0-6.532-27.653s13.706 1.76 27.064-2.61c8.331-2.717 10.279-6.458 10.279-6.458s-9.463-12.843-30.557-6.117c-28.428 9.055-16.195 37.725-16.195 37.725a7.833 7.833 0 0 1 5.039-1.773v-.007ZM109.549 134.997a.496.496 0 0 0 .435-.829 7.653 7.653 0 0 1-2.349-6.479 4.585 4.585 0 0 1 2.496-3.64c4.544-2.202 7.569 2.516 7.696 2.717a.492.492 0 0 0 .669.154.49.49 0 0 0 .161-.67c-.04-.06-3.614-5.668-8.961-3.085a5.538 5.538 0 0 0-3.045 4.39 8.521 8.521 0 0 0 2.677 7.362.449.449 0 0 0 .221.08ZM163.314 111.969c-.669-2.885-2.162-5.006-3.313-4.739-1.151.268-1.532 2.831-.856 5.716.676 2.884 2.161 5.006 3.346 4.738 1.184-.268 1.499-2.844.823-5.715Z" />
        <path fill="#000"
            d="M159.131 108.134c.509-3.212 3.976-3.105 5.167-.221l-5.167.221ZM146.503 119.123c-.669-2.891-2.155-5.006-3.306-4.738-1.151.267-1.539 2.83-.856 5.715.682 2.884 2.154 5.006 3.305 4.738 1.151-.268 1.54-2.831.857-5.715Z" />
        <path fill="#000"
            d="M142.341 115.315c.508-3.213 3.968-3.105 5.159-.228l-5.159.228ZM134.805 114.177h.134a.498.498 0 0 0 .428-.549c-.87-7.248 2.751-9.008 3.888-9.369a4.25 4.25 0 0 1 5.08 1.807.504.504 0 0 0 .669.187.493.493 0 0 0 .187-.669 5.243 5.243 0 0 0-6.25-2.262c-2.677.877-5.354 4.082-4.558 10.434a.497.497 0 0 0 .422.421ZM153.135 104.065a.44.44 0 0 0 .228 0 .488.488 0 0 0 .314-.623c-.669-2.074.388-4.684 2.242-5.507 1.854-.824 3.627.368 5.133 3.105a.49.49 0 0 0 .295.234c.125.037.26.022.374-.04a.501.501 0 0 0 .194-.669c-1.76-3.193-4.156-4.511-6.397-3.534-2.242.977-3.628 4.149-2.784 6.693a.495.495 0 0 0 .401.341ZM154.206 128.7a.497.497 0 0 0 .254 0c.214-.087 5.314-2.202 5.354-5.354.04-3.152-5.508-5.495-5.749-5.595a.5.5 0 0 0-.669.268.505.505 0 0 0 .268.669c1.439.589 5.159 2.59 5.139 4.685-.02 2.094-3.413 3.928-4.724 4.457a.503.503 0 0 0-.31.474.506.506 0 0 0 .042.195.494.494 0 0 0 .395.201Z" />
        <path fill="url(#I)"
            d="M157.438 124.109s-4.015 3.138-4.684 2.061c-.67-1.077.1-5.394 1.204-5.929 1.104-.536 4.477 2.409 3.5 3.868h-.02Z" />
        <path fill="#fff"
            d="M153.108 135.392a12.869 12.869 0 0 0 8.627-1.639.496.496 0 0 0 .133-.67.498.498 0 0 0-.669-.127c-.234.154-5.702 3.728-13.009-.268a.5.5 0 0 0-.67.195.495.495 0 0 0 .201.669 15.935 15.935 0 0 0 5.387 1.84Z" />
        <path fill="url(#J)"
            d="M110.312 90.493c13.491 7.83 43.211-4.558 43.211-4.558s2.209-14.476-7.087-17.715c-9.295-3.24-14.723 7.362-14.723 7.362s-2.114-6.987-9.168-3.474c-7.053 3.514-12.267 18.358-12.267 18.358l.034.027Z" />
        <path fill="#000"
            d="M117.238 93.323c5.247.763 11.892.221 19.869-1.632a118.837 118.837 0 0 0 16.63-5.24l.288-.121.047-.315a28.492 28.492 0 0 0-.053-7.81c-.83-5.48-3.393-9.115-7.362-10.507-7.89-2.75-13.123 4.049-14.796 6.693a6.993 6.993 0 0 0-3.346-3.347c-1.781-.77-3.862-.569-6.191.59-7.174 3.573-12.327 18.069-12.548 18.671l-.602 1.72 1.178-.877a20.418 20.418 0 0 0 6.886 2.175Zm35.777-7.783c-3.099 1.238-29.446 11.444-42.021 4.685.931-2.483 5.729-14.563 11.825-17.601 2.008-1.004 3.782-1.191 5.247-.57 2.282.985 3.132 3.682 3.146 3.709l.401 1.338.622-1.225a18.746 18.746 0 0 1 3.768-4.765c3.166-2.824 6.619-3.614 10.253-2.349 8.024 2.778 7 14.697 6.792 16.778h-.033ZM17.317 295.536c.147-.77 3.694-18.9 24.553-18.98 19.354-.08 26.71 17.066 26.77 17.24l.916-.382c-.073-.18-7.662-17.942-27.699-17.855-21.703.087-25.49 19.602-25.53 19.796l.99.181Z" />
        <path fill="url(#K)"
            d="M52.518 382.457s17.801.904 19.347-11.959c1.546-12.863 3.969-20.492 9.516-26.596 5.548-6.103 1.874-10.982-4.918-10.286-6.793.696-12.863 15.62-12.863 15.62a35.02 35.02 0 0 1-23.891-3.48c-12.434-6.639-11.591-10.4-16.269-6.177-4.678 4.223-4.858 17.4-4.858 17.4S9.212 371.883 2.52 376.28c-6.692 4.397 4.892 11.732 13.264 2.677a86.404 86.404 0 0 1-5.42 10.989c-2.677 4.31 5.547 6.927 11.811-3.306 0 0-5.594 12.548-1.338 13.385 4.256.836 11.055-11.946 11.055-11.946s10.708 11.585 20.633-5.622h-.007Z" />
        <path fill="#000"
            d="M20.864 400.554c4.082.595 9.636-8.888 11.149-11.625 1.278 1.164 4.825 3.928 9.369 3.42 4.21-.469 8.03-3.621 11.43-9.37 3.027.041 6.044-.36 8.954-1.191 6.291-1.867 9.965-5.756 10.621-11.23 1.613-13.432 4.156-20.566 9.369-26.315 2.623-2.891 3.473-5.849 2.336-8.104-1.138-2.256-4.083-3.413-7.69-3.045-6.612.669-12.327 13.666-13.183 15.693a35.035 35.035 0 0 1-23.276-3.493 69.268 69.268 0 0 1-9.135-5.816c-3.406-2.503-4.43-3.259-7.722-.287-4.578 4.129-4.993 16.061-5.026 17.627-.91 1.426-9.65 14.945-15.84 19.02-1.607 1.064-2.39 2.416-2.19 3.815.228 1.606 1.72 3.018 3.896 3.701 2.723.843 6.692.562 10.406-2.383a73.515 73.515 0 0 1-4.423 8.701 2.969 2.969 0 0 0-.322 3.051 3.294 3.294 0 0 0 2.965 1.54c2.008.06 4.919-1.058 7.69-4.15-1.065 3.072-2.149 7.215-1.111 9.229a2.238 2.238 0 0 0 1.585 1.218l.148-.006Zm10.901-13.385-.341.669c-1.82 3.433-7.214 12.16-10.406 11.698h-.087a1.2 1.2 0 0 1-.877-.669c-1.218-2.362 1.459-9.476 2.59-12.046l-.917-.482c-3.159 5.16-6.793 6.926-9.142 6.86a2.355 2.355 0 0 1-2.08-.998 2.005 2.005 0 0 1 .287-2.007 87.724 87.724 0 0 0 5.467-11.07l1.071-2.636-1.934 2.094c-3.841 4.163-8.285 4.685-11.156 3.788-1.766-.549-3.011-1.666-3.178-2.851-.141-.997.455-1.967 1.733-2.811 6.692-4.403 15.84-18.839 16.222-19.455l.08-.12v-.147c0-.127.227-12.997 4.684-17.026 2.677-2.402 3.092-2.088 6.412.355a70.067 70.067 0 0 0 9.268 5.896 35.876 35.876 0 0 0 24.273 3.52l.248-.067.093-.234c.06-.147 6.023-14.643 12.434-15.299 3.172-.328 5.722.622 6.66 2.483.936 1.86.146 4.384-2.176 6.94-5.354 5.93-8.03 13.218-9.643 26.884-1.473 12.233-18.645 11.511-18.819 11.504h-.314l-.154.274c-3.24 5.615-6.873 8.7-10.802 9.122-5.072.569-8.967-3.547-9.007-3.594l-.489-.575Z" />
        <path fill="#000"
            d="M21.553 370.116a7.144 7.144 0 0 0 4.11-.95c6.691-3.346 9.315-9.697 7.722-18.812l-1.178.2c1.513 8.654-.803 14.389-7.08 17.535-1.907.957-3.346 1.124-4.303.508-2.149-1.405-1.888-6.625-1.714-10.079 0-.548.054-1.057.074-1.512l-1.204-.04c0 .448-.04.95-.067 1.492-.201 3.949-.476 9.37 2.255 11.143.419.27.892.446 1.385.515Z" />
        <path fill="#000"
            d="m29.015 385.844.85-.85c-.074-.074-7.582-7.737-3.46-16.35l-1.084-.515c-4.49 9.389 3.614 17.634 3.694 17.715ZM51.895 383.059c1.474.22 2.975.17 4.43-.147l-.26-1.171c-6.626 1.472-12.568-4.109-12.628-4.163l-.83.87c.207.195 4.102 3.855 9.288 4.611ZM33.33 357.728l-.525 1.077 9.199 4.496.526-1.076-9.2-4.497ZM61.653 357.006l1.198-.101a21.008 21.008 0 0 1 3.426-11.892l-1.017-.669a21.838 21.838 0 0 0-3.607 12.662Z" />
        <path fill="#000"
            d="m25.154 379.488-3.586 6.886 1.062.553 3.586-6.885-1.062-.554ZM22.292 369.155l-6.932 9.406.964.711 6.932-9.407-.964-.71ZM217.293 244.901l.984.12c2.677-21.757-4.537-37.478-11.082-46.847-7.087-10.146-14.937-15.212-15.018-15.265l-.535.843c.08.047 7.79 5.032 14.763 15.024 6.418 9.222 13.525 24.695 10.888 46.125Z" />
        <path fill="url(#L)"
            d="M135.28 166.72s-1.579-3.079-4.684-.576c-3.106 2.503-10.193 5.294-6.585 10.039 3.607 4.745 20.578 10.708 25.323 11.972 2.523.67 2.63-11.992 5.681-12.187l-19.755-9.208.02-.04Z" />
        <path fill="#000"
            d="M149.374 188.657c.276.041.558-.016.796-.16 1.064-.636 1.613-3.005 2.249-5.736.602-2.596 1.425-6.137 2.603-6.297l.429.067.16-.998-.421-.073-19.542-9.115a3.563 3.563 0 0 0-2.155-1.62 3.817 3.817 0 0 0-3.185 1.031c-.616.502-1.419 1.024-2.262 1.579-2.362 1.546-5.039 3.3-5.447 5.675a4.41 4.41 0 0 0 1.044 3.467c3.787 4.986 21.241 10.989 25.591 12.154l.14.026Zm4.537-12.715c-1.184 1.077-1.807 3.761-2.462 6.572-.509 2.195-1.085 4.684-1.787 5.106a.19.19 0 0 1-.09.022.191.191 0 0 1-.091-.022c-5.561-1.492-21.696-7.362-25.055-11.792a3.453 3.453 0 0 1-.857-2.677c.335-1.947 2.824-3.574 5.012-5.013.87-.568 1.693-1.104 2.349-1.639a2.88 2.88 0 0 1 2.343-.83 2.518 2.518 0 0 1 1.492 1.131v.194l19.146 8.948Z" />
        <path fill="#000"
            d="M154.728 175.433c2.215-.435 10.138 10.092 10.138 10.092l-15.017 2.563s1.82-12.046 4.879-12.655Z" />
        <path fill="url(#M)"
            d="M161.467 160.395a96.538 96.538 0 0 0 10.661 2.068c3.948.375 3.346 16.31.066 20.004-1.733 1.954-8.84-8.54-11.477-7.007 3.039-4.819 2.47-9.37.777-15.031l-.027-.034Z" />
        <path fill="#000"
            d="M171.418 183.19c.093.01.188.01.281 0a1.214 1.214 0 0 0 .863-.409c2.811-3.199 3.581-14.295 1.868-18.625-.543-1.338-1.339-2.108-2.256-2.202a97.52 97.52 0 0 1-10.58-2.054l-1.338-.341.789 1.057c1.713 5.749 2.128 9.978-.749 14.543l-.228.361.623.562.341-.234c.99-.569 3.674 1.961 5.641 3.808 1.968 1.847 3.527 3.353 4.745 3.534Zm.669-20.232c.669.101 1.125.911 1.386 1.58 1.72 4.35.709 14.87-1.687 17.601a.245.245 0 0 1-.167.074c-.817 0-2.677-1.72-4.323-3.266-2.102-2.008-4.116-3.889-5.695-4.116 2.382-4.324 2.007-8.553.555-13.753a86.066 86.066 0 0 0 9.891 1.874l.04.006Z" />
        <path fill="#000"
            d="M160.677 174.837c-2.088.864-.93 11.277-.93 11.277 4.624-.227 8.813-1.077 11.999-3.44 0 0-8.185-9.021-11.069-7.837Z" />
        <path fill="#000"
            d="M169.778 237.987c6.077-32.391-9.61-53.198-9.77-53.405l-.783.602c.154.207 15.566 20.686 9.576 52.616l.977.187Z" />
        <path fill="url(#N)"
            d="M110.927 306.465c.569 55.406 63.195 49.283 94.461 23.336l7.823 63.632c2.777 39.044 75.501 18.163 74.645-3.561 0 0 .569-116.361-19.106-143.887-28.83-40.309-150.106 38.896-157.816 60.466l-.007.014Z" />
        <path fill="#000"
            d="M234.586 415.424c3.429.475 6.898.605 10.353.388 20.13-1.117 44.021-12.949 43.499-25.966 0-4.732.355-116.837-19.213-144.196-6.866-9.597-19.22-13.217-36.72-10.775-20.652 2.885-48.492 14.543-76.385 31.984-23.57 14.723-42.161 30.624-45.574 38.95h-.221v.669c.194 18.933 7.703 32.371 21.703 38.863 21.991 10.186 54.053.743 72.898-14.389l7.689 62.561c.884 12.301 8.734 19.984 21.971 21.911Zm14.903-179.645c8.346 1.218 14.63 4.738 18.779 10.534 7.984 11.163 13.799 39.485 16.824 81.949 2.289 32.124 2.168 61.289 2.168 61.57.475 12.047-22.907 23.685-42.388 24.762-26.575 1.473-30.584-14.362-31.072-21.235l-7.957-64.742-.83.669c-18.437 15.299-50.58 25.056-72.476 14.911-13.532-6.271-20.793-19.295-21.014-37.672 5.909-16.062 75.247-64.121 121.129-70.532a59.808 59.808 0 0 1 16.837-.214Z" />
        <path fill="#000"
            d="m206.003 330.256-2.784-44.344-30.168 60.292c10.333-2.409 21.73-7.428 32.952-15.968v.02ZM256.854 413.495c18.873-4.507 32.349-15.799 30.099-25.222-2.25-9.423-19.373-13.408-38.247-8.901-18.873 4.507-32.349 15.799-30.099 25.222 2.25 9.423 19.374 13.408 38.247 8.901Z" />
        <path fill="url(#O)"
            d="m280.033 427.671-9.082-37.712c-11.925-7.743-31.098-3.413-37.396 6.572 0 0-4.142 6.291 6.184 26.59 10.326 20.298 40.294 4.544 40.294 4.544v.006Z" />
        <path fill="#000"
            d="M253.866 433.594c10.942 1.6 23.423-4.129 25.899-5.354l.368 1.506.402-2.784-.235.12-9.001-37.377-.127-.087c-5.902-3.828-13.9-5.006-21.957-3.239-7.067 1.553-13.05 5.267-15.994 9.932-.174.261-4.143 6.692 6.17 26.983a18.172 18.172 0 0 0 10.968 9.497c1.146.362 2.319.63 3.507.803Zm25.711-6.137c-2.221 1.105-17.399 8.279-28.977 4.591a17.392 17.392 0 0 1-10.506-9.108c-10.039-19.75-6.251-26.134-6.211-26.194 2.838-4.504 8.633-8.085 15.506-9.591 7.79-1.713 15.513-.595 21.221 3.045l8.967 37.257Z" />
        <path fill="url(#P)"
            d="M232.217 452.835c-15.499-4.645-4.109-42.959 0-45.649 4.109-2.691 18.738 6.625 28 1.66 9.262-4.966 3.661-10.809 13.926-7.315 22.848 7.783 61.167-33.864 72.698 2.871 4.972 15.827-25.123 75.27-114.638 48.44l.014-.007Z" />
        <mask id="Q" width="124" height="71" x="224" y="389" maskUnits="userSpaceOnUse"
            style="mask-type:luminance">
            <path fill="#fff"
                d="M232.217 452.835c-15.499-4.644-4.109-42.959 0-45.649 4.109-2.69 18.738 6.625 28 1.66 9.262-4.966 3.661-10.809 13.926-7.315 22.848 7.783 61.167-33.864 72.698 2.871 4.972 15.827-25.123 75.27-114.638 48.44l.014-.007Z" />
        </mask>
        <g mask="url(#Q)">
            <path fill="#000"
                d="M350.803 424.506c9.563-23.678-15.459-34.928-27.358-26.02-19.16 14.341-20.632 46.633-54.722 39.9-31.527-6.231-66.982 4.089-18.966 24.019 48.017 19.93 91.369-13.92 101.052-37.893l-.006-.006Z" />
        </g>
        <path fill="#000"
            d="M256.449 458.818c42.161 6.15 65.483-9.369 76.365-20.365 11.992-12.147 16.797-26.931 14.515-34.199-2.282-7.268-5.688-11.885-10.42-14.134-8.586-4.089-19.795.368-31.66 5.086-10.915 4.344-22.198 8.828-30.932 5.856-6.063-2.061-7.006-.95-8.425 1.56a13.026 13.026 0 0 1-5.903 5.788c-5.24 2.805-12.414.85-18.182-.716-4.444-1.211-7.951-2.161-9.851-.923-3.025 2.008-9.738 21.616-7.79 35.102.877 6.09 3.4 9.891 7.502 11.303l.415.121a170.736 170.736 0 0 0 24.366 5.521Zm75.622-69.113c1.527.223 3.011.674 4.403 1.339 4.464 2.121 7.703 6.551 9.891 13.532 2.189 6.98-2.543 21.322-14.274 33.208-12.635 12.796-42.321 31.688-99.359 14.723l-.382-.12c-3.941-1.185-6.364-4.759-7.214-10.628-1.86-12.87 4.538-32.298 7.362-34.132 1.526-.997 5.012-.046 9.048 1.051 5.936 1.613 13.324 3.627 18.912.669a13.943 13.943 0 0 0 6.304-6.177c1.191-2.121 1.686-2.998 7.234-1.111 9.081 3.099 20.538-1.465 31.621-5.869 9.683-3.908 18.919-7.582 26.467-6.485h-.013Z" />
        <path fill="url(#R)"
            d="M245.173 584.395c-16.169.462-17.4-39.485-14.335-43.34 3.065-3.855 19.856.408 27.104-7.221 7.247-7.63.08-11.418 10.935-11.317 24.132.207 47.421-51.365 69.913-20.118 9.697 13.472-.201 79.359-93.617 82.003v-.007Z" />
        <mask id="S" width="113" height="93" x="229" y="492" maskUnits="userSpaceOnUse"
            style="mask-type:luminance">
            <path fill="#fff"
                d="M245.173 584.395c-16.169.462-17.4-39.485-14.335-43.34 3.065-3.855 19.856.408 27.104-7.221 7.247-7.63.08-11.418 10.935-11.317 24.132.207 47.421-51.365 69.913-20.118 9.697 13.472-.201 79.359-93.617 82.003v-.007Z" />
        </mask>
        <g mask="url(#S)">
            <path fill="#000"
                d="M348.848 520.208c1.633-25.485-25.651-28.296-34.13-16.102-13.686 19.635-4.939 50.755-39.417 55.072-31.888 4.015-62.311 24.929-10.46 28.777 51.851 3.849 82.348-41.934 84.007-67.747Z" />
        </g>
        <path fill="#000"
            d="M243.48 584.797c.372.055.748.086 1.124.093h.589c60.31-1.706 82.883-29.393 90.974-45.742 7.569-15.306 7.488-30.853 3.031-37.043-4.457-6.191-9.121-9.483-14.328-10.146-9.442-1.178-18.684 6.572-28.462 14.784-8.994 7.549-18.296 15.352-27.525 15.272-6.404-.06-6.953 1.298-7.508 4.129a13.006 13.006 0 0 1-3.788 7.362c-4.096 4.31-11.517 4.684-17.487 5.032-4.597.248-8.231.449-9.643 2.222-2.249 2.831-2.45 23.598 3.64 35.785 2.47 4.926 5.615 7.703 9.383 8.252Zm2.208-.904h-.529c-4.102.114-7.528-2.516-10.178-7.817-5.809-11.631-5.843-32.123-3.755-34.72 1.138-1.426 4.745-1.62 8.921-1.847 6.143-.328 13.786-.743 18.156-5.354a13.958 13.958 0 0 0 4.015-7.844c.462-2.389.669-3.346 6.525-3.346 9.59.08 19.033-7.843 28.168-15.513 9.61-8.031 18.684-15.68 27.699-14.556 4.898.629 9.369 3.801 13.652 9.744 4.283 5.943 4.283 21.048-3.126 36.019-7.937 16.155-30.155 43.394-89.548 45.234Z" />
        <path fill="url(#T)"
            d="M471.8 219.869c17.986-6.314 30.733-16.658 28.47-23.103-2.262-6.445-18.677-6.551-36.663-.236-17.987 6.314-30.733 16.658-28.471 23.103 2.263 6.445 18.678 6.551 36.664.236Z" />
        <path fill="#000"
            d="M448.729 220.962c1.488.207 2.989.314 4.491.321 7.007.06 15.707-1.599 24.5-4.685 8.794-3.085 16.637-7.181 22.084-11.584 5.582-4.511 8.031-8.841 6.853-12.187-2.389-6.84-18.832-7.114-37.476-.623-8.794 3.066-16.637 7.175-22.084 11.578-5.588 4.511-8.031 8.841-6.853 12.187.937 2.61 3.915 4.324 8.485 4.993Zm49.402-32.044c4.016.589 6.793 2.008 7.583 4.263.997 2.878-1.386 6.914-6.539 11.083-5.353 4.33-13.103 8.386-21.783 11.377-8.68 2.992-17.272 4.685-24.165 4.605-6.626-.054-11.002-1.74-12.006-4.611-1.004-2.871 1.378-6.914 6.538-11.076 5.354-4.337 13.097-8.393 21.783-11.418 11.022-3.808 21.683-5.226 28.589-4.209v-.014Z" />
        <path fill="url(#U)"
            d="M480.865 224.355c7.804-2.804 15.453-6.418 21.917-11.665 2.825-2.409 6.438-5.836 6.572-9.764 0-.53-.086-1.057-.254-1.56l-2.911-8.352c2.007 6.739-9.905 14.315-14.951 17.086-11.483 6.391-32.055 13.084-45.031 9.818-2.202-.629-4.625-1.787-5.441-4.089.194.468 3.045 9.008 3.292 9.175 1.078 1.794 3.119 2.677 5.053 3.273 4.497 1.191 9.235.963 13.826.441a85.385 85.385 0 0 0 17.942-4.356l-.014-.007Z" />
        <mask id="V" width="70" height="37" x="440" y="193" maskUnits="userSpaceOnUse"
            style="mask-type:luminance">
            <path fill="#fff"
                d="M480.865 224.355c7.804-2.804 15.453-6.418 21.917-11.665 2.825-2.409 6.438-5.836 6.572-9.764 0-.53-.086-1.057-.254-1.56l-2.911-8.352c2.007 6.739-9.905 14.315-14.951 17.086-11.483 6.391-32.055 13.084-45.031 9.818-2.202-.629-4.625-1.787-5.441-4.089.194.468 3.045 9.008 3.292 9.175 1.078 1.794 3.119 2.677 5.053 3.273 4.497 1.191 9.235.963 13.826.441a85.385 85.385 0 0 0 17.942-4.356l-.014-.007Z" />
        </mask>
        <g fill="#fff" mask="url(#V)">
            <path
                d="m469.964 203.727-18.484 6.444 9.991 28.658 18.483-6.444-9.99-28.658ZM508.552 189.266l-18.483 6.445 9.99 28.658 18.484-6.444-9.991-28.659ZM444.912 207.037l-18.484 6.444 9.991 28.658 18.484-6.444-9.991-28.658Z" />
        </g>
        <path fill="#000"
            d="M451.754 229.321c3.73.444 7.502.41 11.223-.101a86.79 86.79 0 0 0 18.069-4.383l.288-.114c9.028-3.266 16.155-7.081 21.776-11.645 3.273-2.791 6.626-6.17 6.759-10.132 0-.592-.095-1.179-.281-1.74l-2.917-8.352-.951.307c2.061 6.867-11.892 14.951-14.723 16.504-12.601 7.014-32.537 12.816-44.663 9.771-2.677-.77-4.404-2.008-5.053-3.634l-.067-.167-.93.361.06.167c.121.335.395 1.138.669 2.008 2.008 5.749 2.396 6.853 2.604 7.148 1.271 2.074 3.647 2.964 5.353 3.453.917.238 1.846.421 2.784.549Zm28.656-5.354a85.44 85.44 0 0 1-17.547 4.229c-4.169.469-9.054.783-13.632-.435-2.415-.669-3.935-1.673-4.758-3.045l-.06-.093c-.288-.589-1.425-3.889-2.168-6.024a11.355 11.355 0 0 0 3.814 1.794h.067c13.846 3.48 35.174-4.21 45.36-9.871 3.527-1.948 13.759-8.071 15.245-14.443l1.894 5.435a4.4 4.4 0 0 1 .234 1.398c-.127 3.554-3.306 6.733-6.398 9.37-5.588 4.531-12.715 8.325-21.763 11.578l-.288.107Z" />
        <path fill="url(#W)"
            d="M475.499 261.558c16.033-.16 28.983-4.948 28.926-10.695-.057-5.748-13.101-10.277-29.133-10.118-16.032.16-28.983 4.948-28.926 10.695.057 5.747 13.101 10.277 29.133 10.118Z" />
        <path fill="#000"
            d="M451.313 257.63a28.134 28.134 0 0 0 3.473 1.452c5.548 1.927 12.896 2.945 20.699 2.864 7.803-.08 15.131-1.238 20.639-3.272 5.641-2.088 8.7-4.872 8.7-7.837-.061-6.07-13.044-10.708-29.553-10.534-7.803.08-15.131 1.245-20.639 3.279-5.642 2.088-8.733 4.872-8.7 7.837.02 2.296 1.901 4.437 5.381 6.211Zm47.795-12.207c3.052 1.552 4.859 3.42 4.879 5.421 0 2.549-2.945 5.119-8.158 7.04-5.414 2.008-12.648 3.152-20.351 3.226-7.702.073-14.957-.924-20.418-2.818-5.246-1.82-8.271-4.33-8.291-6.88-.02-2.549 2.944-5.119 8.151-7.04 5.42-2.008 12.648-3.152 20.357-3.226 9.778-.1 18.625 1.633 23.831 4.277Z" />
        <path fill="url(#X)"
            d="M475.913 268.933c6.94-.134 13.987-.957 20.525-3.393 2.891-1.151 6.692-2.904 7.83-6.023a4.09 4.09 0 0 0 .214-1.339l-.073-7.408c-.201 5.889-11.698 8.7-16.443 9.557-10.828 2.008-28.951 1.8-38.38-4.27-1.579-1.098-3.192-2.677-3.219-4.685 0 .422 0 7.964.154 8.165.375 1.713 1.747 2.978 3.132 3.949 3.252 2.155 7.074 3.239 10.855 4.055a72.139 72.139 0 0 0 15.392 1.339l.013.053Z" />
        <mask id="Y" width="59" height="19" x="446" y="250" maskUnits="userSpaceOnUse"
            style="mask-type:luminance">
            <path fill="#fff"
                d="M475.913 268.933c6.94-.134 13.987-.957 20.525-3.393 2.891-1.151 6.692-2.904 7.83-6.023a4.09 4.09 0 0 0 .214-1.339l-.073-7.408c-.201 5.889-11.698 8.7-16.443 9.557-10.828 2.008-28.951 1.8-38.38-4.27-1.579-1.098-3.192-2.677-3.219-4.685 0 .422 0 7.964.154 8.165.375 1.713 1.747 2.978 3.132 3.949 3.252 2.155 7.074 3.239 10.855 4.055a72.139 72.139 0 0 0 15.392 1.339l.013.053Z" />
        </mask>
        <g fill="#fff" mask="url(#Y)">
            <path
                d="m472.812 249.67-16.402.163.253 25.43 16.402-.163-.253-25.43ZM507.324 248.517l-16.402.163.253 25.43 16.402-.163-.253-25.43ZM452.04 245.588l-16.402.162.254 25.43 16.402-.162-.254-25.43Z" />
        </g>
        <path fill="#000"
            d="M451.467 265.078a37.042 37.042 0 0 0 8.94 2.925 72.744 72.744 0 0 0 15.506 1.339h.254c8.031-.181 14.723-1.292 20.418-3.414 3.346-1.338 6.907-3.125 8.078-6.23.158-.471.239-.963.241-1.459l-.074-7.416h-.836c-.208 6.024-13.452 8.701-16.102 9.162-11.885 2.189-29.265 1.459-38.078-4.209-1.941-1.339-2.965-2.764-3.039-4.236v-.154l-.836.04a.902.902 0 0 0 0 .147v1.76c0 5.093.06 6.084.154 6.371.448 2.008 2.094 3.347 3.299 4.17.667.443 1.359.845 2.075 1.204Zm24.185 3.447a71.707 71.707 0 0 1-15.071-1.338c-3.433-.743-7.361-1.801-10.707-4.016-1.727-1.205-2.677-2.382-2.958-3.694v-.094c-.074-.542-.094-3.467-.107-5.354a9.377 9.377 0 0 0 2.549 2.45h.047c10.039 6.478 29.051 6.09 38.654 4.316 3.347-.595 13.09-2.717 15.975-7.361l.053 4.818a3.758 3.758 0 0 1-.194 1.171c-1.05 2.791-4.423 4.464-7.589 5.729-5.648 2.101-12.32 3.206-20.384 3.346l-.268.027Z" />
        <path fill="url(#Z)"
            d="M467.552 159.973c21.226-13.181 34.604-30.032 29.881-37.637-4.722-7.605-25.757-3.084-46.982 10.097-21.226 13.181-34.604 30.032-29.881 37.637 4.722 7.605 25.757 3.084 46.982-10.097Z" />
        <path fill="#000"
            d="M432.22 174.208c9.228-.669 22.231-5.541 35.549-13.82 21.789-13.525 34.986-30.363 30.041-38.32-4.946-7.964-25.886-3.601-47.669 9.931-21.783 13.532-34.98 30.364-30.041 38.328 1.921 3.085 6.257 4.316 12.12 3.881Zm64.74-51.618c4.571 7.361-8.76 23.938-29.713 36.949-20.954 13.01-41.726 17.621-46.297 10.259-4.571-7.362 8.76-23.932 29.72-36.949s41.719-17.614 46.29-10.259Z" />
        <path fill="url(#aa)"
            d="M474.073 169.47c9.135-5.796 17.848-12.588 24.587-21.115 2.911-3.881 6.538-9.269 5.588-14.315a6.198 6.198 0 0 0-.776-1.914l-6.09-9.811c4.497 8.031-8.539 21.061-14.168 26.027-12.808 11.417-37.108 25.82-54.568 25.358-2.991-.174-6.404-.957-8.104-3.661.381.542 6.451 10.614 6.813 10.748 1.887 2.008 4.738 2.557 7.361 2.724 6.07.234 12.046-1.406 17.741-3.38a112.755 112.755 0 0 0 21.609-10.668l.007.007Z" />
        <mask id="ab" width="85" height="62" x="420" y="122" maskUnits="userSpaceOnUse"
            style="mask-type:luminance">
            <path fill="#fff"
                d="M474.073 169.47c9.135-5.795 17.848-12.588 24.587-21.115 2.911-3.881 6.538-9.269 5.588-14.315a6.198 6.198 0 0 0-.776-1.914l-6.09-9.811c4.497 8.031-8.539 21.061-14.168 26.027-12.808 11.417-37.108 25.82-54.568 25.358-2.991-.174-6.404-.957-8.104-3.661.381.542 6.451 10.614 6.813 10.748 1.887 2.008 4.738 2.557 7.361 2.724 6.07.234 12.046-1.406 17.741-3.38a112.755 112.755 0 0 0 21.609-10.668l.007.007Z" />
        </mask>
        <g fill="#fff" mask="url(#ab)">
            <path
                d="M454.367 146.317 432.655 159.8l20.901 33.658 21.711-13.484-20.9-33.657ZM499.388 116.88l-21.711 13.483 20.9 33.658 21.712-13.484-20.901-33.657ZM423.394 157.686l-21.712 13.484 20.9 33.657 21.712-13.483-20.9-33.658Z" />
        </g>
        <path fill="#000"
            d="M438.383 183.933c5.1-.382 9.985-1.861 14.235-3.347a113.039 113.039 0 0 0 21.281-10.447l.442-.254c10.707-6.806 18.798-13.753 24.714-21.235 3.346-4.457 6.632-9.684 5.682-14.723a6.57 6.57 0 0 0-.837-2.089l-6.09-9.811-.863.509c4.644 8.272-10.902 22.614-14.054 25.431-14.053 12.555-37.871 25.666-54.207 25.237-3.72-.22-6.277-1.338-7.602-3.265a2.767 2.767 0 0 0-.12-.188l-.83.556.12.187c.241.375.803 1.298 1.446 2.336 4.249 6.926 5.039 8.091 5.353 8.345 1.66 1.713 4.096 2.61 7.663 2.831 1.223.045 2.447.02 3.667-.073Zm35.844-15.166-.428.268a111.93 111.93 0 0 1-21.516 10.621c-5.173 1.794-11.31 3.601-17.547 3.346-3.346-.207-5.561-1.017-7.033-2.563l-.094-.087c-.509-.622-3.159-4.912-4.798-7.583a13.869 13.869 0 0 0 5.788 1.426h.067c18.591.489 43.533-15.393 54.876-25.485 4.016-3.54 15.687-14.616 15.252-23.169l4.249 6.846a5.59 5.59 0 0 1 .71 1.76c.87 4.632-2.289 9.624-5.501 13.901-5.755 7.281-13.619 14.054-24.025 20.746v-.027Z" />
        <path fill="url(#ac)"
            d="M432.44 102.854c17.14-22.987 24.357-46.602 16.12-52.744-8.237-6.142-28.809 7.514-45.949 30.502-17.14 22.987-24.357 46.602-16.12 52.744 8.237 6.142 28.809-7.514 45.949-30.502Z" />
        <path fill="#000"
            d="M395.975 134.602a39.23 39.23 0 0 0 10.386-5.153c8.7-5.789 18.116-15.131 26.441-26.294s14.589-22.822 17.654-32.84c3.105-10.18 2.529-17.494-1.64-20.6-4.169-3.105-11.376-1.579-20.21 4.31-8.7 5.79-18.116 15.132-26.434 26.295-8.319 11.163-14.596 22.821-17.654 32.84-3.112 10.179-2.53 17.494 1.632 20.599 2.376 1.774 5.736 2.035 9.825.843ZM439.3 49.809c3.754-1.097 6.799-.877 8.921.703 3.801 2.837 4.256 9.764 1.278 19.508-3.032 9.912-9.242 21.463-17.5 32.539-12.321 16.524-26.414 28.242-36.265 31.12-3.701 1.077-6.8.91-8.988-.716-8.031-5.97-.723-29.32 16.222-52.047 8.258-11.076 17.56-20.325 26.193-26.06a38.404 38.404 0 0 1 10.139-5.047Z" />
        <path fill="url(#ad)"
            d="M443.409 110.269c7.321-10.039 13.786-20.948 17.4-32.887 1.486-5.354 3.092-12.635-.04-17.628a7.226 7.226 0 0 0-1.626-1.72l-10.628-7.924c8.172 6.693-.281 26.1-4.209 33.757-8.894 17.568-28.776 43.146-47.655 49.993-3.273 1.07-7.241 1.659-10.186-.516.67.422 11.377 8.627 11.785 8.627 2.851 1.338 6.144.743 9.028-.187 6.585-2.289 12.274-6.559 17.527-11.056a129.288 129.288 0 0 0 18.618-20.466l-.014.007Z" />
        <mask id="ae" width="77" height="93" x="386" y="50" maskUnits="userSpaceOnUse"
            style="mask-type:luminance">
            <path fill="#fff"
                d="M443.409 110.269c7.321-10.039 13.786-20.948 17.4-32.887 1.486-5.354 3.092-12.635-.04-17.628a7.225 7.225 0 0 0-1.626-1.72l-10.628-7.924c8.172 6.693-.281 26.1-4.209 33.757-8.894 17.568-28.776 43.146-47.655 49.993-3.273 1.07-7.241 1.659-10.186-.516.67.422 11.377 8.627 11.785 8.627 2.851 1.338 6.144.743 9.028-.187 6.585-2.289 12.274-6.559 17.527-11.056a129.288 129.288 0 0 0 18.618-20.466l-.014.007Z" />
        </mask>
        <g fill="#fff" mask="url(#ae)">
            <path
                d="m412.621 93.79-17.534 23.516 36.455 27.183 17.534-23.515-36.455-27.183ZM448.377 43.448l-17.534 23.515 36.455 27.184 17.533-23.516-36.454-27.183ZM384.308 118.927l-17.533 23.515 36.455 27.183 17.533-23.515-36.455-27.183Z" />
        </g>
        <path fill="#000"
            d="M406.682 142.493c.248-.067.502-.147.757-.228 6.939-2.416 12.842-6.993 17.7-11.149a130.398 130.398 0 0 0 18.692-20.553l.883-1.191c8.231-11.457 13.525-21.603 16.624-31.85 1.699-6.143 3.018-13.083-.087-18.069a7.89 7.89 0 0 0-1.754-1.854l-10.654-7.87-.616.783c3.347 2.757 4.136 8.138 2.262 16.001-1.706 7.175-5.186 14.376-6.605 17.146-9.777 19.328-29.706 43.334-47.381 49.752-4.082 1.339-7.287 1.232-9.543-.308-.093-.073-.167-.12-.207-.147l-.569.823.208.148c.414.301 1.398 1.044 2.516 1.88 7.12 5.354 8.646 6.432 9.148 6.639 2.302 1.064 5.059 1.084 8.626.047Zm36.058-32.124a128.945 128.945 0 0 1-18.256 20.011c-4.785 4.095-10.594 8.599-17.367 10.955-3.654 1.185-6.404 1.245-8.646.208l-.12-.047c-.777-.415-5.675-4.096-8.56-6.271a15.442 15.442 0 0 0 7.02-.863c20.117-7.309 40.087-34.7 47.963-50.247 2.824-5.522 10.761-22.52 6.438-31.368l7.669 5.682a6.695 6.695 0 0 1 1.52 1.6c2.891 4.61 1.606 11.29 0 17.212-3.173 10.474-8.7 20.874-17.333 32.727l-.328.401Z" />
        <path fill="url(#af)"
            d="M355.877 66.625c7.084-31.719 3.612-59.49-7.754-62.028-11.366-2.539-26.322 21.116-33.406 52.835-7.084 31.718-3.613 59.489 7.753 62.028 11.366 2.539 26.323-21.116 33.407-52.835Z" />
        <path fill="#000"
            d="M332.961 116.285a44.366 44.366 0 0 0 8.365-10.146c6.345-10.038 11.732-24.039 15.172-39.438 3.439-15.4 4.524-30.37 3.051-42.162-1.492-11.973-5.481-19.275-11.229-20.56-5.749-1.285-12.461 3.628-18.912 13.82-6.345 10.039-11.732 24.046-15.172 39.445-3.439 15.4-4.524 30.37-3.051 42.163 1.492 11.973 5.481 19.267 11.229 20.552 3.293.71 6.873-.548 10.547-3.674Zm5.561-107.748c3.346-2.871 6.626-4.056 9.55-3.4 5.247 1.171 8.921 8.125 10.353 19.589 1.459 11.651.381 26.482-3.032 41.76-5.092 22.802-14.247 41.447-23.108 48.983-3.346 2.831-6.612 4.095-9.623 3.42-11.042-2.47-14.328-29.99-7.321-61.35 3.413-15.279 8.753-29.16 15.024-39.084 2.703-4.35 5.481-7.683 8.157-9.952v.034Z" />
        <path fill="url(#ag)"
            d="M370.765 69.137c2.931-13.773 4.564-28.055 2.778-42.075-.944-6.238-2.677-14.51-8.205-18.224a8.38 8.38 0 0 0-2.476-1.03l-14.663-3.273c11.538 3.112 11.785 27.11 11.276 36.868-1.064 22.3-9.824 57.984-26.146 73.785-2.884 2.623-6.692 5.073-10.774 4.189.856.141 15.74 3.661 16.188 3.46 3.554.054 6.692-2.075 9.249-4.37 5.748-5.421 9.657-12.468 13.016-19.555a146.567 146.567 0 0 0 9.777-29.795l-.02.02Z" />
        <mask id="ah" width="53" height="119" x="322" y="4" maskUnits="userSpaceOnUse"
            style="mask-type:luminance">
            <path fill="#fff"
                d="M370.765 69.137c2.931-13.773 4.564-28.055 2.778-42.075-.944-6.238-2.677-14.51-8.205-18.224a8.38 8.38 0 0 0-2.476-1.03l-14.663-3.273c11.538 3.112 11.785 27.11 11.276 36.869-1.064 22.299-9.824 57.983-26.146 73.784-2.884 2.623-6.692 5.073-10.774 4.189.856.141 15.74 3.661 16.188 3.46 3.554.054 6.692-2.074 9.249-4.37 5.748-5.421 9.657-12.468 13.016-19.555a146.565 146.565 0 0 0 9.777-29.795l-.02.02Z" />
        </mask>
        <g fill="#fff" mask="url(#ah)">
            <path
                d="m331.179 66.429-7.247 32.448 50.304 11.236 7.247-32.449-50.304-11.235ZM344.844-2.204l-7.247 32.449 50.304 11.235 7.247-32.448-50.304-11.236ZM313.529 105.544l-7.247 32.448 50.304 11.236 7.247-32.449-50.304-11.235Z" />
        </g>
        <path fill="#000"
            d="M347.684 119.491c.221-.187.448-.382.669-.589 6.057-5.702 10.038-13.171 13.144-19.73a147.21 147.21 0 0 0 9.817-29.908l.368-1.646c3.206-15.66 4.016-28.61 2.45-40.643-1.085-7.148-2.938-14.931-8.446-18.626a8.975 8.975 0 0 0-2.677-1.104l-14.663-3.28-.274 1.105c4.765 1.285 8.031 6.499 9.744 15.5 1.559 8.212 1.298 17.273 1.111 20.793-1.171 24.528-10.668 58.586-25.973 73.41-3.607 3.272-6.973 4.684-10.038 4.102l-.281-.06-.214 1.118.288.053c.569.121 1.934.435 3.473.783 9.844 2.249 11.925 2.677 12.541 2.63 2.898.067 5.762-1.184 8.961-3.908Zm22.412-49.946a145.57 145.57 0 0 1-9.617 29.153c-3.051 6.451-6.98 13.806-12.889 19.374-3.232 2.918-6.023 4.257-8.854 4.216h-.147c-.99-.067-7.763-1.606-11.758-2.516a17.52 17.52 0 0 0 6.866-4.149c17.4-16.872 25.431-54.457 26.341-74.193.368-7.014.709-28.275-7.857-35.423l10.554 2.356a7.734 7.734 0 0 1 2.309.957c5.126 3.433 6.893 10.935 7.943 17.822 1.566 12.3.669 25.612-2.777 41.874l-.114.53Z" />
        <path fill="#9BF4EE"
            d="M239.779 38.439a2.768 2.768 0 0 0 2.554-1.707 2.78 2.78 0 0 0 .21-1.057V22.29a2.762 2.762 0 0 0-2.764-2.764 2.768 2.768 0 0 0-2.553 1.706 2.763 2.763 0 0 0-.211 1.058v13.385a2.762 2.762 0 0 0 1.706 2.553c.336.14.695.21 1.058.21ZM230.517 42.14a2.777 2.777 0 0 0 0-3.915l-9.49-9.484a2.749 2.749 0 0 0-1.954-.812 2.757 2.757 0 0 0-1.954.812 2.764 2.764 0 0 0 0 3.909l9.483 9.49a2.776 2.776 0 0 0 3.915 0ZM226.575 51.302a2.761 2.761 0 0 0-2.764-2.764h-13.384a2.762 2.762 0 0 0-1.954 4.718 2.758 2.758 0 0 0 1.954.81h13.384a2.764 2.764 0 0 0 2.764-2.764ZM230.276 60.564a2.776 2.776 0 0 0-3.915 0l-9.483 9.49a2.764 2.764 0 0 0-.601 3.012 2.774 2.774 0 0 0 2.555 1.706c.733 0 1.436-.292 1.954-.81l9.49-9.51a2.764 2.764 0 0 0 0-3.888ZM239.438 64.5a2.766 2.766 0 0 0-2.764 2.763v13.385a2.762 2.762 0 0 0 4.718 1.954 2.76 2.76 0 0 0 .81-1.954V67.263a2.766 2.766 0 0 0-2.764-2.764ZM248.7 60.805a2.765 2.765 0 0 0 0 3.908l9.489 9.49a2.765 2.765 0 0 0 3.908-3.908l-9.489-9.49a2.763 2.763 0 0 0-3.908 0ZM252.635 51.643a2.763 2.763 0 0 0 2.804 2.77h13.384a2.76 2.76 0 0 0 2.555-3.822 2.76 2.76 0 0 0-1.496-1.497 2.761 2.761 0 0 0-1.059-.208h-13.384a2.767 2.767 0 0 0-2.588 1.692c-.142.337-.215.699-.216 1.065ZM248.941 42.367a2.763 2.763 0 0 0 3.908 0l9.489-9.49a2.761 2.761 0 0 0 0-3.908 2.748 2.748 0 0 0-1.954-.812 2.76 2.76 0 0 0-1.954.812l-9.489 9.483a2.777 2.777 0 0 0 0 3.915ZM401.074 432.41a2.282 2.282 0 0 0 2.282-2.282v-11.083a2.287 2.287 0 0 0-3.157-2.115 2.3 2.3 0 0 0-1.239 1.239 2.29 2.29 0 0 0-.174.876v11.083a2.287 2.287 0 0 0 2.288 2.282ZM393.418 435.461a2.28 2.28 0 0 0 0-3.225l-7.836-7.837a2.284 2.284 0 0 0-1.616-.674 2.284 2.284 0 0 0-1.617.674 2.284 2.284 0 0 0 0 3.226l7.837 7.836a2.274 2.274 0 0 0 3.232 0ZM390.166 443.037a2.287 2.287 0 0 0-2.282-2.289h-11.082a2.291 2.291 0 0 0-2.289 2.289 2.288 2.288 0 0 0 2.289 2.282h11.082a2.283 2.283 0 0 0 2.282-2.282ZM393.218 450.687a2.28 2.28 0 0 0-3.226 0l-7.843 7.837a2.288 2.288 0 0 0 0 3.232 2.287 2.287 0 0 0 3.232 0l7.837-7.837a2.292 2.292 0 0 0 0-3.232ZM400.78 469.593h.007a2.282 2.282 0 0 0 2.282-2.282v-11.09a2.282 2.282 0 0 0-2.282-2.282h-.007a2.282 2.282 0 0 0-2.282 2.282v11.09a2.282 2.282 0 0 0 2.282 2.282ZM408.442 450.888a2.287 2.287 0 0 0 0 3.232l7.837 7.837a2.287 2.287 0 0 0 3.232 0 2.287 2.287 0 0 0 0-3.233l-7.836-7.836a2.29 2.29 0 0 0-3.233 0ZM411.695 443.318a2.281 2.281 0 0 0 2.282 2.282h11.082a2.287 2.287 0 0 0 2.289-2.282 2.288 2.288 0 0 0-2.289-2.289h-11.082a2.29 2.29 0 0 0-2.282 2.289ZM408.643 435.662a2.28 2.28 0 0 0 3.226 0l7.836-7.837a2.27 2.27 0 0 0 .499-2.491 2.263 2.263 0 0 0-.499-.741 2.28 2.28 0 0 0-3.225 0l-7.837 7.843a2.262 2.262 0 0 0-.498 2.487c.116.277.285.528.498.739Z" />
    </g>
    <defs>
        <linearGradient id="b" x1="381.051" x2="586.181" y1="558.589" y2="558.589"
            gradientUnits="userSpaceOnUse">
            <stop offset=".1" stop-color="#00E7D8" />
            <stop offset=".25" stop-color="#00E7D9" />
            <stop offset=".39" stop-color="#2EE9DC" />
            <stop offset=".53" stop-color="#66EDE1" />
            <stop offset=".66" stop-color="#94F1E9" />
            <stop offset=".79" stop-color="#C8F7F2" />
            <stop offset=".91" stop-color="#FEFEFE" />
            <stop offset=".92" stop-color="#fff" />
        </linearGradient>
        <linearGradient id="d" x1="768.898" x2="409.804" y1="283.737" y2="435.425"
            gradientUnits="userSpaceOnUse">
            <stop offset=".1" stop-color="#fff" />
            <stop offset=".18" stop-color="#F2EDFF" />
            <stop offset=".54" stop-color="#BC9CFF" />
            <stop offset=".79" stop-color="#9868FF" />
            <stop offset=".92" stop-color="#8954FF" />
        </linearGradient>
        <linearGradient id="f" x1="292.58" x2="459.551" y1="369.929" y2="378.066"
            gradientUnits="userSpaceOnUse">
            <stop offset=".1" stop-color="#fff" />
            <stop offset=".18" stop-color="#F2EDFF" />
            <stop offset=".54" stop-color="#BC9CFF" />
            <stop offset=".79" stop-color="#9868FF" />
            <stop offset=".92" stop-color="#8954FF" />
        </linearGradient>
        <linearGradient id="g" x1="528.761" x2="596.46" y1="272.761" y2="272.761"
            gradientUnits="userSpaceOnUse">
            <stop offset=".1" stop-color="#FFE153" />
            <stop offset=".14" stop-color="#FFE25D" />
            <stop offset=".52" stop-color="#FFF1B7" />
            <stop offset=".78" stop-color="#FFFBEB" />
            <stop offset=".92" stop-color="#fff" />
        </linearGradient>
        <linearGradient id="h" x1="567.563" x2="530.903" y1="269.823" y2="266.584"
            gradientUnits="userSpaceOnUse">
            <stop offset=".1" stop-color="#FFE153" />
            <stop offset=".14" stop-color="#FFE25D" />
            <stop offset=".52" stop-color="#FFF1B7" />
            <stop offset=".78" stop-color="#FFFBEB" />
            <stop offset=".92" stop-color="#fff" />
        </linearGradient>
        <linearGradient id="i" x1="509.602" x2="586.247" y1="355.406" y2="355.406"
            gradientUnits="userSpaceOnUse">
            <stop offset=".1" stop-color="#FFE153" />
            <stop offset=".14" stop-color="#FFE25D" />
            <stop offset=".52" stop-color="#FFF1B7" />
            <stop offset=".78" stop-color="#FFFBEB" />
            <stop offset=".92" stop-color="#fff" />
        </linearGradient>
        <linearGradient id="j" x1="397.407" x2="441.924" y1="330.183" y2="330.183"
            gradientUnits="userSpaceOnUse">
            <stop offset=".1" stop-color="#FFE153" />
            <stop offset=".14" stop-color="#FFE25D" />
            <stop offset=".52" stop-color="#FFF1B7" />
            <stop offset=".78" stop-color="#FFFBEB" />
            <stop offset=".92" stop-color="#fff" />
        </linearGradient>
        <linearGradient id="k" x1="72.528" x2="212.315" y1="730.873" y2="508.568"
            gradientUnits="userSpaceOnUse">
            <stop offset=".1" stop-color="#FFE153" />
            <stop offset=".14" stop-color="#FFE25D" />
            <stop offset=".52" stop-color="#FFF1B7" />
            <stop offset=".78" stop-color="#FFFBEB" />
            <stop offset=".92" stop-color="#fff" />
        </linearGradient>
        <linearGradient id="l" x1="72.521" x2="212.315" y1="696.48" y2="474.175"
            gradientUnits="userSpaceOnUse">
            <stop offset=".1" stop-color="#FFE153" />
            <stop offset=".14" stop-color="#FFE25D" />
            <stop offset=".52" stop-color="#FFF1B7" />
            <stop offset=".78" stop-color="#FFFBEB" />
            <stop offset=".92" stop-color="#fff" />
        </linearGradient>
        <linearGradient id="m" x1="42.038" x2="223.919" y1="655.087" y2="657.637"
            gradientUnits="userSpaceOnUse">
            <stop offset=".22" stop-color="#FFE153" />
            <stop offset=".25" stop-color="#FFE25D" />
            <stop offset=".57" stop-color="#FFF1B7" />
            <stop offset=".8" stop-color="#FFFBEB" />
            <stop offset=".92" stop-color="#fff" />
        </linearGradient>
        <linearGradient id="o" x1="72.521" x2="212.315" y1="662.79" y2="440.479"
            gradientUnits="userSpaceOnUse">
            <stop offset=".1" stop-color="#FFE153" />
            <stop offset=".14" stop-color="#FFE25D" />
            <stop offset=".52" stop-color="#FFF1B7" />
            <stop offset=".78" stop-color="#FFFBEB" />
            <stop offset=".92" stop-color="#fff" />
        </linearGradient>
        <linearGradient id="p" x1="42.038" x2="223.919" y1="621.404" y2="623.947"
            gradientUnits="userSpaceOnUse">
            <stop offset=".22" stop-color="#FFE153" />
            <stop offset=".25" stop-color="#FFE25D" />
            <stop offset=".57" stop-color="#FFF1B7" />
            <stop offset=".8" stop-color="#FFFBEB" />
            <stop offset=".92" stop-color="#fff" />
        </linearGradient>
        <linearGradient id="r" x1="167.323" x2="245.595" y1="686.863" y2="686.863"
            gradientUnits="userSpaceOnUse">
            <stop offset=".1" stop-color="#FFE153" />
            <stop offset=".14" stop-color="#FFE25D" />
            <stop offset=".52" stop-color="#FFF1B7" />
            <stop offset=".78" stop-color="#FFFBEB" />
            <stop offset=".92" stop-color="#fff" />
        </linearGradient>
        <linearGradient id="t" x1="180.198" x2="310.991" y1="686.87" y2="686.87"
            gradientUnits="userSpaceOnUse">
            <stop offset=".1" stop-color="#FFE153" />
            <stop offset=".14" stop-color="#FFE25D" />
            <stop offset=".52" stop-color="#FFF1B7" />
            <stop offset=".78" stop-color="#FFFBEB" />
            <stop offset=".92" stop-color="#fff" />
        </linearGradient>
        <linearGradient id="v" x1="305.738" x2="144.525" y1="330.556" y2="445.007"
            gradientUnits="userSpaceOnUse">
            <stop offset=".1" stop-color="#fff" />
            <stop offset=".18" stop-color="#F2EDFF" />
            <stop offset=".54" stop-color="#BC9CFF" />
            <stop offset=".79" stop-color="#9868FF" />
            <stop offset=".92" stop-color="#8954FF" />
        </linearGradient>
        <linearGradient id="x" x1="-14.774" x2="241.194" y1="295.723" y2="506.106"
            gradientUnits="userSpaceOnUse">
            <stop offset=".1" stop-color="#fff" />
            <stop offset=".18" stop-color="#F2EDFF" />
            <stop offset=".54" stop-color="#BC9CFF" />
            <stop offset=".79" stop-color="#9868FF" />
            <stop offset=".92" stop-color="#8954FF" />
        </linearGradient>
        <linearGradient id="y" x1="227.374" x2="262.897" y1="547.773" y2="519.082"
            gradientUnits="userSpaceOnUse">
            <stop offset=".1" stop-color="#FFE153" />
            <stop offset=".14" stop-color="#FFE25D" />
            <stop offset=".52" stop-color="#FFF1B7" />
            <stop offset=".78" stop-color="#FFFBEB" />
            <stop offset=".92" stop-color="#fff" />
        </linearGradient>
        <linearGradient id="z" x1="217.46" x2="389.594" y1="264.887" y2="162.218"
            gradientUnits="userSpaceOnUse">
            <stop offset=".1" stop-color="#FFE153" />
            <stop offset=".14" stop-color="#FFE25D" />
            <stop offset=".52" stop-color="#FFF1B7" />
            <stop offset=".78" stop-color="#FFFBEB" />
            <stop offset=".92" stop-color="#fff" />
        </linearGradient>
        <linearGradient id="A" x1="285.971" x2="367.164" y1="186.796" y2="198.277"
            gradientUnits="userSpaceOnUse">
            <stop offset=".1" stop-color="#00E7D8" />
            <stop offset=".25" stop-color="#00E7D9" />
            <stop offset=".39" stop-color="#2EE9DC" />
            <stop offset=".53" stop-color="#66EDE1" />
            <stop offset=".66" stop-color="#94F1E9" />
            <stop offset=".79" stop-color="#C8F7F2" />
            <stop offset=".91" stop-color="#FEFEFE" />
            <stop offset=".92" stop-color="#fff" />
        </linearGradient>
        <linearGradient id="C" x1="250.32" x2="374.606" y1="249.855" y2="175.729"
            gradientUnits="userSpaceOnUse">
            <stop offset=".1" stop-color="#FFE153" />
            <stop offset=".14" stop-color="#FFE25D" />
            <stop offset=".52" stop-color="#FFF1B7" />
            <stop offset=".78" stop-color="#FFFBEB" />
            <stop offset=".92" stop-color="#fff" />
        </linearGradient>
        <linearGradient id="D" x1="217.574" x2="392.938" y1="270.965" y2="166.382"
            gradientUnits="userSpaceOnUse">
            <stop offset=".1" stop-color="#FFE153" />
            <stop offset=".14" stop-color="#FFE25D" />
            <stop offset=".52" stop-color="#FFF1B7" />
            <stop offset=".78" stop-color="#FFFBEB" />
            <stop offset=".92" stop-color="#fff" />
        </linearGradient>
        <linearGradient id="E" x1="247.739" x2="382.704" y1="271.56" y2="169.336"
            gradientUnits="userSpaceOnUse">
            <stop offset=".1" stop-color="#FFE153" />
            <stop offset=".14" stop-color="#FFE25D" />
            <stop offset=".52" stop-color="#FFF1B7" />
            <stop offset=".78" stop-color="#FFFBEB" />
            <stop offset=".92" stop-color="#fff" />
        </linearGradient>
        <linearGradient id="F" x1="4.34" x2="63.431" y1="323.96" y2="332.316"
            gradientUnits="userSpaceOnUse">
            <stop offset=".1" stop-color="#FFE153" />
            <stop offset=".14" stop-color="#FFE25D" />
            <stop offset=".52" stop-color="#FFF1B7" />
            <stop offset=".78" stop-color="#FFFBEB" />
            <stop offset=".92" stop-color="#fff" />
        </linearGradient>
        <linearGradient id="G" x1="15.73" x2="243.488" y1="233.757" y2="265.964"
            gradientUnits="userSpaceOnUse">
            <stop offset=".1" stop-color="#00E7D8" />
            <stop offset=".25" stop-color="#00E7D9" />
            <stop offset=".39" stop-color="#2EE9DC" />
            <stop offset=".53" stop-color="#66EDE1" />
            <stop offset=".66" stop-color="#94F1E9" />
            <stop offset=".79" stop-color="#C8F7F2" />
            <stop offset=".91" stop-color="#FEFEFE" />
            <stop offset=".92" stop-color="#fff" />
        </linearGradient>
        <linearGradient id="H" x1="170.686" x2="104.772" y1="124.5" y2="139.972"
            gradientUnits="userSpaceOnUse">
            <stop offset=".1" stop-color="#FFE153" />
            <stop offset=".14" stop-color="#FFE25D" />
            <stop offset=".52" stop-color="#FFF1B7" />
            <stop offset=".78" stop-color="#FFFBEB" />
            <stop offset=".92" stop-color="#fff" />
        </linearGradient>
        <linearGradient id="I" x1="132.24" x2="167.194" y1="130.507" y2="118.969"
            gradientUnits="userSpaceOnUse">
            <stop offset=".1" stop-color="#FFE153" />
            <stop offset=".14" stop-color="#FFE25D" />
            <stop offset=".52" stop-color="#FFF1B7" />
            <stop offset=".78" stop-color="#FFFBEB" />
            <stop offset=".92" stop-color="#fff" />
        </linearGradient>
        <linearGradient id="J" x1="128.985" x2="129.391" y1="99.81" y2="79.199"
            gradientUnits="userSpaceOnUse">
            <stop offset=".1" />
            <stop offset=".39" stop-color="#321C67" />
            <stop offset=".65" stop-color="#623BBC" />
            <stop offset=".83" stop-color="#7E4DEF" />
            <stop offset=".92" stop-color="#8954FF" />
        </linearGradient>
        <linearGradient id="K" x1="83.15" x2="20.522" y1="260.115" y2="406.819"
            gradientUnits="userSpaceOnUse">
            <stop offset=".1" stop-color="#FFE153" />
            <stop offset=".14" stop-color="#FFE25D" />
            <stop offset=".52" stop-color="#FFF1B7" />
            <stop offset=".78" stop-color="#FFFBEB" />
            <stop offset=".92" stop-color="#fff" />
        </linearGradient>
        <linearGradient id="L" x1="114.478" x2="146.207" y1="178.58" y2="183.067"
            gradientUnits="userSpaceOnUse">
            <stop offset=".1" stop-color="#00E7D8" />
            <stop offset=".25" stop-color="#00E7D9" />
            <stop offset=".39" stop-color="#2EE9DC" />
            <stop offset=".53" stop-color="#66EDE1" />
            <stop offset=".66" stop-color="#94F1E9" />
            <stop offset=".79" stop-color="#C8F7F2" />
            <stop offset=".91" stop-color="#FEFEFE" />
            <stop offset=".92" stop-color="#fff" />
        </linearGradient>
        <linearGradient id="M" x1="174.583" x2="161.484" y1="164.59" y2="176.347"
            gradientUnits="userSpaceOnUse">
            <stop offset=".1" stop-color="#00E7D8" />
            <stop offset=".25" stop-color="#00E7D9" />
            <stop offset=".39" stop-color="#2EE9DC" />
            <stop offset=".53" stop-color="#66EDE1" />
            <stop offset=".66" stop-color="#94F1E9" />
            <stop offset=".79" stop-color="#C8F7F2" />
            <stop offset=".91" stop-color="#FEFEFE" />
            <stop offset=".92" stop-color="#fff" />
        </linearGradient>
        <linearGradient id="N" x1="383.277" x2="129.44" y1="263.636" y2="373.057"
            gradientUnits="userSpaceOnUse">
            <stop offset=".1" stop-color="#fff" />
            <stop offset=".18" stop-color="#F2EDFF" />
            <stop offset=".54" stop-color="#BC9CFF" />
            <stop offset=".79" stop-color="#9868FF" />
            <stop offset=".92" stop-color="#8954FF" />
        </linearGradient>
        <linearGradient id="O" x1="232.126" x2="267.649" y1="421.159" y2="392.468"
            gradientUnits="userSpaceOnUse">
            <stop offset=".1" stop-color="#FFE153" />
            <stop offset=".14" stop-color="#FFE25D" />
            <stop offset=".52" stop-color="#FFF1B7" />
            <stop offset=".78" stop-color="#FFFBEB" />
            <stop offset=".92" stop-color="#fff" />
        </linearGradient>
        <linearGradient id="P" x1="219.671" x2="336.905" y1="418.046" y2="434.624"
            gradientUnits="userSpaceOnUse">
            <stop offset=".1" stop-color="#00E7D8" />
            <stop offset=".25" stop-color="#00E7D9" />
            <stop offset=".39" stop-color="#2EE9DC" />
            <stop offset=".53" stop-color="#66EDE1" />
            <stop offset=".66" stop-color="#94F1E9" />
            <stop offset=".79" stop-color="#C8F7F2" />
            <stop offset=".91" stop-color="#FEFEFE" />
            <stop offset=".92" stop-color="#fff" />
        </linearGradient>
        <linearGradient id="R" x1="234.777" x2="350.821" y1="556.672" y2="536.543"
            gradientUnits="userSpaceOnUse">
            <stop offset=".1" stop-color="#00E7D8" />
            <stop offset=".25" stop-color="#00E7D9" />
            <stop offset=".39" stop-color="#2EE9DC" />
            <stop offset=".53" stop-color="#66EDE1" />
            <stop offset=".66" stop-color="#94F1E9" />
            <stop offset=".79" stop-color="#C8F7F2" />
            <stop offset=".91" stop-color="#FEFEFE" />
            <stop offset=".92" stop-color="#fff" />
        </linearGradient>
        <linearGradient id="T" x1="460.862" x2="484.393" y1="238.569" y2="135.17"
            gradientUnits="userSpaceOnUse">
            <stop offset=".1" stop-color="#FFE153" />
            <stop offset=".14" stop-color="#FFE25D" />
            <stop offset=".52" stop-color="#FFF1B7" />
            <stop offset=".78" stop-color="#FFFBEB" />
            <stop offset=".92" stop-color="#fff" />
        </linearGradient>
        <linearGradient id="U" x1="439.272" x2="508.917" y1="245.278" y2="221.917"
            gradientUnits="userSpaceOnUse">
            <stop offset=".22" stop-color="#FFE153" />
            <stop offset=".25" stop-color="#FFE25D" />
            <stop offset=".57" stop-color="#FFF1B7" />
            <stop offset=".8" stop-color="#FFFBEB" />
            <stop offset=".92" stop-color="#fff" />
        </linearGradient>
        <linearGradient id="W" x1="461.764" x2="508.488" y1="273.494" y2="197.522"
            gradientUnits="userSpaceOnUse">
            <stop offset=".1" stop-color="#FFE153" />
            <stop offset=".14" stop-color="#FFE25D" />
            <stop offset=".52" stop-color="#FFF1B7" />
            <stop offset=".78" stop-color="#FFFBEB" />
            <stop offset=".92" stop-color="#fff" />
        </linearGradient>
        <linearGradient id="X" x1="451.093" x2="512.878" y1="259.199" y2="259.444"
            gradientUnits="userSpaceOnUse">
            <stop offset=".22" stop-color="#FFE153" />
            <stop offset=".25" stop-color="#FFE25D" />
            <stop offset=".57" stop-color="#FFF1B7" />
            <stop offset=".8" stop-color="#FFFBEB" />
            <stop offset=".92" stop-color="#fff" />
        </linearGradient>
        <linearGradient id="Z" x1="458.913" x2="459.693" y1="187.467" y2="48.506"
            gradientUnits="userSpaceOnUse">
            <stop offset=".1" stop-color="#FFE153" />
            <stop offset=".14" stop-color="#FFE25D" />
            <stop offset=".52" stop-color="#FFF1B7" />
            <stop offset=".78" stop-color="#FFFBEB" />
            <stop offset=".92" stop-color="#fff" />
        </linearGradient>
        <linearGradient id="aa" x1="420.792" x2="503.316" y1="171.534" y2="121.668"
            gradientUnits="userSpaceOnUse">
            <stop offset=".22" stop-color="#FFE153" />
            <stop offset=".25" stop-color="#FFE25D" />
            <stop offset=".57" stop-color="#FFF1B7" />
            <stop offset=".8" stop-color="#FFFBEB" />
            <stop offset=".92" stop-color="#fff" />
        </linearGradient>
        <linearGradient id="ac" x1="434.211" x2="376.701" y1="135.522" y2="-13.27"
            gradientUnits="userSpaceOnUse">
            <stop offset=".1" stop-color="#FFE153" />
            <stop offset=".14" stop-color="#FFE25D" />
            <stop offset=".52" stop-color="#FFF1B7" />
            <stop offset=".78" stop-color="#FFFBEB" />
            <stop offset=".92" stop-color="#fff" />
        </linearGradient>
        <linearGradient id="ad" x1="415.993" x2="483.525" y1="126.079" y2="38.615"
            gradientUnits="userSpaceOnUse">
            <stop offset=".22" stop-color="#FFE153" />
            <stop offset=".25" stop-color="#FFE25D" />
            <stop offset=".57" stop-color="#FFF1B7" />
            <stop offset=".8" stop-color="#FFFBEB" />
            <stop offset=".92" stop-color="#fff" />
        </linearGradient>
        <linearGradient id="af" x1="373.23" x2="244.843" y1="99.61" y2="-27.661"
            gradientUnits="userSpaceOnUse">
            <stop offset=".1" stop-color="#FFE153" />
            <stop offset=".14" stop-color="#FFE25D" />
            <stop offset=".52" stop-color="#FFF1B7" />
            <stop offset=".78" stop-color="#FFFBEB" />
            <stop offset=".92" stop-color="#fff" />
        </linearGradient>
        <linearGradient id="ag" x1="321.179" x2="350.447" y1="96.066" y2="-26.266"
            gradientUnits="userSpaceOnUse">
            <stop offset=".22" stop-color="#FFE153" />
            <stop offset=".25" stop-color="#FFE25D" />
            <stop offset=".57" stop-color="#FFF1B7" />
            <stop offset=".8" stop-color="#FFFBEB" />
            <stop offset=".92" stop-color="#fff" />
        </linearGradient>
        <clipPath id="a">
            <path fill="#fff" d="M0 0h689v661H0z" />
        </clipPath>
    </defs>
</svg>
