<svg xmlns="http://www.w3.org/2000/svg" width="442" height="284" fill="none">
    <path fill="url(#a)"
        d="M383.505 265.993c31.997 0 57.936-9.317 57.936-20.81 0-11.493-25.939-20.81-57.936-20.81s-57.936 9.317-57.936 20.81c0 11.493 25.939 20.81 57.936 20.81Z" />
    <path fill="#000"
        d="M383.505 266.526c15.537 0 30.15-2.179 41.149-6.146 11.17-4.012 17.318-9.417 17.318-15.214 0-5.798-6.148-11.206-17.318-15.218-10.999-3.95-25.612-6.145-41.149-6.145-15.536 0-30.146 2.178-41.146 6.145-11.169 4.012-17.318 9.417-17.318 15.218s6.149 11.202 17.318 15.214c11 3.967 25.613 6.146 41.146 6.146Zm0-41.624c15.417 0 29.901 2.155 40.788 6.064 10.717 3.851 16.62 8.897 16.62 14.217 0 5.319-5.903 10.362-16.62 14.214-10.9 3.909-25.371 6.063-40.788 6.063-15.417 0-29.898-2.154-40.785-6.063-10.716-3.852-16.619-8.898-16.619-14.214 0-5.316 5.903-10.366 16.619-14.217 10.887-3.909 25.371-6.064 40.785-6.064Z" />
    <path fill="url(#b)"
        d="M382.807 280.801c-13.861-.14-27.933-1.639-41.027-6.375-5.791-2.253-13.373-5.674-15.751-11.823a8.104 8.104 0 0 1-.45-2.595v-14.821c.515 11.779 23.521 17.18 33.008 18.778 21.648 3.776 57.817 3.018 76.511-9.304 3.141-2.216 6.312-5.384 6.339-9.478-.054.847.147 15.941-.153 16.334-.719 3.438-3.43 6.002-6.186 7.966-6.441 4.37-14.051 6.62-21.586 8.33-10.08 2.175-20.418 3.036-30.719 3.001l.014-.013Z" />
    <mask id="c" width="117" height="36" x="325" y="245" maskUnits="userSpaceOnUse"
        style="mask-type:luminance">
        <path fill="#fff"
            d="M382.807 280.801c-13.861-.14-27.932-1.639-41.027-6.375-5.79-2.253-13.373-5.674-15.751-11.823a8.103 8.103 0 0 1-.449-2.595v-14.821c.514 11.779 23.521 17.18 33.007 18.778 21.648 3.776 57.817 3.018 76.511-9.304 3.141-2.216 6.312-5.384 6.34-9.478-.055.847.146 15.941-.154 16.334-.718 3.438-3.43 6.002-6.186 7.966-6.441 4.37-14.051 6.62-21.586 8.33-10.079 2.175-20.418 3.036-30.719 3.001l.014-.013Z" />
    </mask>
    <g fill="#fff" mask="url(#c)">
        <path
            d="M421.367 242.165h-32.735v50.862h32.735v-50.862ZM352.483 240.56h-32.735v50.863h32.735V240.56ZM462.748 233.588h-32.735v50.863h32.735v-50.863Z" />
    </g>
    <path fill="#000"
        d="M383.328 281.351c10.829 0 21.017-1.025 30.296-3.015 6.966-1.578 14.989-3.811 21.771-8.41 3.747-2.67 5.791-5.302 6.41-8.296.147-.571.208-2.612.164-12.514V245.19l-1.059-.038v.304c-.133 3.056-2.184 6.002-6.101 8.768-17.53 11.554-52.305 13.377-76.13 9.219-5.344-.909-32.02-6.047-32.565-18.291l-1.062.024v14.822c.007.948.17 1.888.483 2.782 2.361 6.108 9.443 9.56 16.058 12.145 11.343 4.097 24.066 6.146 39.957 6.395l-.017.017h1.812l-.017.014Zm57.473-20.073-.028.116c-.565 2.731-2.462 5.142-5.974 7.641-6.616 4.49-14.529 6.689-21.393 8.246-9.197 1.983-19.317 2.991-30.068 2.991h-.524c-16.351-.164-29.34-2.182-40.853-6.341-6.391-2.492-13.231-5.804-15.438-11.516a7.561 7.561 0 0 1-.416-2.421v-10.779c4.936 9.847 25.548 14.118 32.388 15.276 19.114 3.332 56.805 3.756 76.757-9.297h.054l.136-.127c2.596-1.833 4.429-3.755 5.474-5.783.011 3.984.038 11.031-.115 11.994Z" />
    <path fill="#000"
        d="M405.848 253.538c2.838-1.505 4.557-3.689 5.157-6.552h8.431v-3.117h-8.356a12.586 12.586 0 0 0-2.044-5.32 12.485 12.485 0 0 0-4.217-3.991l-7.6 1.707a14.147 14.147 0 0 1 3.798 3.414 9.545 9.545 0 0 1 1.922 4.176h-15.06a20.178 20.178 0 0 0-2.824-4.5c-1.029-1.204-2.533-2.211-4.513-3.022-1.981-.81-4.604-1.215-7.869-1.215-4.067 0-7.531.748-10.39 2.243-2.859 1.495-4.562 3.658-5.109 6.487h-8.516v3.117h8.359a10.174 10.174 0 0 0 1.427 4.159 12.628 12.628 0 0 0 3.165 3.551l7.606-1.53c-2.21-1.925-3.559-3.977-4.067-6.146h15.21a20.548 20.548 0 0 0 2.789 4.514c1.004 1.202 2.497 2.216 4.48 3.042 1.982.827 4.605 1.239 7.869 1.236 4.067 0 7.517-.753 10.352-2.26v.007Zm-29.636-12.513a8.06 8.06 0 0 1 2.558 2.847h-13.401a4.719 4.719 0 0 1 2.409-2.885 9.438 9.438 0 0 1 4.428-.953c1.656 0 2.986.33 3.992.991h.014Zm24.243 8.945a8.664 8.664 0 0 1-4.295.97c-1.706 0-3.074-.342-4.105-1.025a8.236 8.236 0 0 1-2.599-2.926h13.326a4.864 4.864 0 0 1-2.334 2.981h.007Z" />
    <path fill="url(#d)"
        d="M383.505 243.107c31.997 0 57.936-9.317 57.936-20.81 0-11.493-25.939-20.81-57.936-20.81s-57.936 9.317-57.936 20.81c0 11.493 25.939 20.81 57.936 20.81Z" />
    <path fill="#000"
        d="M383.505 243.64c15.537 0 30.15-2.179 41.149-6.129 11.17-4.012 17.318-9.413 17.318-15.214s-6.148-11.206-17.318-15.217c-10.999-3.951-25.612-6.126-41.149-6.126-15.536 0-30.146 2.175-41.146 6.126-11.169 4.011-17.318 9.416-17.318 15.217s6.149 11.202 17.318 15.214c11 3.95 25.613 6.129 41.146 6.129Zm0-41.624c15.417 0 29.901 2.155 40.788 6.064 10.717 3.851 16.62 8.898 16.62 14.217 0 5.32-5.903 10.362-16.62 14.214-10.9 3.909-25.371 6.063-40.788 6.063-15.417 0-29.898-2.154-40.785-6.063-10.716-3.852-16.619-8.898-16.619-14.214 0-5.316 5.903-10.366 16.619-14.217 10.887-3.909 25.371-6.064 40.785-6.064Z" />
    <path fill="url(#e)"
        d="M382.807 257.925c-13.861-.14-27.933-1.639-41.027-6.374-5.791-2.254-13.373-5.675-15.751-11.824a8.105 8.105 0 0 1-.453-2.609v-14.821c.514 11.779 23.521 17.181 33.008 18.779 21.647 3.776 57.816 3.018 76.511-9.304 3.14-2.216 6.312-5.385 6.339-9.478-.054.846.146 15.941-.153 16.334-.719 3.438-3.431 6.002-6.186 7.965-6.442 4.37-14.052 6.624-21.587 8.331-10.079 2.175-20.417 3.035-30.718 3.001h.017Z" />
    <mask id="f" width="117" height="36" x="325" y="222" maskUnits="userSpaceOnUse"
        style="mask-type:luminance">
        <path fill="#fff"
            d="M382.807 257.925c-13.861-.14-27.932-1.639-41.027-6.374-5.79-2.254-13.373-5.675-15.751-11.824a8.105 8.105 0 0 1-.453-2.609v-14.821c.515 11.779 23.521 17.181 33.008 18.779 21.648 3.776 57.817 3.018 76.511-9.304 3.141-2.216 6.312-5.385 6.339-9.478-.054.846.147 15.941-.153 16.334-.719 3.438-3.43 6.002-6.186 7.965-6.442 4.37-14.051 6.624-21.586 8.331-10.08 2.175-20.418 3.035-30.719 3.001h.017Z" />
    </mask>
    <g fill="#fff" mask="url(#f)">
        <path
            d="M421.367 219.279h-32.735v50.862h32.735v-50.862ZM352.483 217.674h-32.735v50.863h32.735v-50.863ZM462.748 210.706h-32.735v50.862h32.735v-50.862Z" />
    </g>
    <path fill="#000"
        d="M383.328 258.468c10.829 0 21.017-1.024 30.296-3.018 6.966-1.578 14.989-3.814 21.771-8.41 3.747-2.666 5.791-5.302 6.41-8.296.147-.571.208-2.612.164-12.514V222.304l-1.059-.038v.304c-.133 3.056-2.187 6.006-6.108 8.772-17.529 11.55-52.305 13.373-76.126 9.218-5.345-.908-32.02-6.047-32.565-18.29l-1.063.024v14.821a8.64 8.64 0 0 0 .484 2.786c2.36 6.105 9.442 9.56 16.058 12.145 11.343 4.097 24.062 6.145 39.956 6.391l-.017.017h1.813l-.014.014Zm57.473-20.076v.017l-.028.116c-.565 2.732-2.462 5.145-5.974 7.641-6.616 4.49-14.529 6.689-21.393 8.246-9.197 1.983-19.317 2.991-30.068 2.991h-.524c-16.351-.164-29.343-2.182-40.853-6.341-6.391-2.492-13.231-5.804-15.438-11.516a7.556 7.556 0 0 1-.416-2.421v-10.779c4.936 9.847 25.548 14.118 32.388 15.276 19.114 3.332 56.805 3.756 76.757-9.297h.057l.137-.126c2.593-1.837 4.417-3.765 5.47-5.784.011 3.967.038 11.024-.115 11.977Z" />
    <path fill="#000"
        d="M405.848 230.655c2.838-1.509 4.557-3.694 5.157-6.555h8.431v-3.117h-8.356a12.586 12.586 0 0 0-2.044-5.32 12.523 12.523 0 0 0-4.217-3.991l-7.6 1.707a14.067 14.067 0 0 1 3.798 3.414 9.534 9.534 0 0 1 1.922 4.179h-15.06a20.125 20.125 0 0 0-2.824-4.503c-1.029-1.204-2.533-2.211-4.513-3.022-1.981-.81-4.604-1.215-7.869-1.215-4.067 0-7.531.748-10.39 2.243-2.859 1.495-4.562 3.658-5.109 6.487h-8.516v3.114h8.359a10.179 10.179 0 0 0 1.427 4.159 12.667 12.667 0 0 0 3.165 3.554l7.599-1.561c-2.21-1.925-3.559-3.977-4.067-6.145h15.21a20.71 20.71 0 0 0 2.796 4.548c1.004 1.197 2.497 2.21 4.48 3.038 1.982.829 4.605 1.241 7.869 1.236 4.067 0 7.517-.753 10.352-2.26v.01Zm-29.636-12.517a8.072 8.072 0 0 1 2.558 2.848h-13.401a4.719 4.719 0 0 1 2.409-2.885 9.438 9.438 0 0 1 4.428-.953c1.656 0 2.986.33 3.992.99h.014Zm24.243 8.946a8.664 8.664 0 0 1-4.295.97c-1.706 0-3.074-.342-4.105-1.025a8.209 8.209 0 0 1-2.599-2.926h13.326a4.864 4.864 0 0 1-2.334 2.981h.007Z" />
    <path fill="url(#g)"
        d="M383.505 219.74c31.997 0 57.936-9.317 57.936-20.81 0-11.493-25.939-20.81-57.936-20.81s-57.936 9.317-57.936 20.81c0 11.493 25.939 20.81 57.936 20.81Z" />
    <path fill="#000"
        d="M383.505 220.272c15.537 0 30.15-2.174 41.149-6.125 11.17-4.012 17.318-9.416 17.318-15.217s-6.148-11.206-17.318-15.218c-10.999-3.95-25.612-6.125-41.149-6.125-15.536 0-30.146 2.175-41.146 6.125-11.169 4.012-17.318 9.417-17.318 15.218s6.149 11.205 17.318 15.217c11 3.951 25.613 6.125 41.146 6.125Zm0-41.62c15.417 0 29.901 2.155 40.788 6.064 10.717 3.848 16.62 8.898 16.62 14.214 0 5.316-5.903 10.366-16.62 14.213-10.9 3.913-25.371 6.064-40.788 6.064-15.417 0-29.898-2.151-40.785-6.064-10.716-3.847-16.619-8.897-16.619-14.213 0-5.316 5.903-10.366 16.619-14.214 10.887-3.909 25.371-6.064 40.785-6.064Z" />
    <path fill="url(#h)"
        d="M382.807 234.565c-13.861-.144-27.933-1.643-41.027-6.375-5.791-2.257-13.373-5.678-15.751-11.823a8.105 8.105 0 0 1-.453-2.609v-14.825c.514 11.779 23.521 17.184 33.008 18.779 21.647 3.755 57.816 3.018 76.511-9.304 3.14-2.216 6.312-5.381 6.339-9.478-.054.85.146 15.941-.153 16.337-.719 3.438-3.431 6.002-6.186 7.962-6.442 4.374-14.052 6.624-21.587 8.331-10.079 2.175-20.417 3.035-30.718 3.005h.017Z" />
    <mask id="i" width="117" height="37" x="325" y="198" maskUnits="userSpaceOnUse"
        style="mask-type:luminance">
        <path fill="#fff"
            d="M382.807 234.565c-13.861-.144-27.932-1.643-41.027-6.375-5.79-2.257-13.373-5.678-15.751-11.823a8.105 8.105 0 0 1-.453-2.609v-14.825c.515 11.779 23.521 17.184 33.008 18.779 21.648 3.755 57.817 3.018 76.511-9.304 3.141-2.216 6.312-5.381 6.339-9.478-.054.85.147 15.941-.153 16.337-.719 3.438-3.43 6.002-6.186 7.962-6.442 4.374-14.051 6.624-21.586 8.331-10.08 2.175-20.418 3.035-30.719 3.005h.017Z" />
    </mask>
    <g fill="#fff" mask="url(#i)">
        <path
            d="M421.367 195.918h-32.735v50.863h32.735v-50.863ZM352.49 194.314h-32.735v50.862h32.735v-50.862ZM462.748 187.338h-32.735v50.863h32.735v-50.863Z" />
    </g>
    <path fill="#000"
        d="M383.328 235.101c10.829 0 21.017-1.025 30.296-3.015 6.966-1.581 14.989-3.814 21.771-8.413 3.747-2.667 5.791-5.299 6.41-8.293.147-.574.208-2.612.164-12.517v-3.926l-1.059-.038v.304c-.133 3.073-2.187 6.006-6.105 8.771-17.529 11.558-52.305 13.381-76.129 9.219-5.345-.905-32.02-6.044-32.565-18.287l-1.063.02v14.825a8.65 8.65 0 0 0 .484 2.783c2.36 6.105 9.442 9.56 16.058 12.144 11.343 4.098 24.062 6.146 39.956 6.395h-.017 1.813l-.014.028Zm57.473-20.073-.028.116c-.565 2.732-2.462 5.142-5.974 7.638-6.616 4.493-14.529 6.688-21.393 8.245-9.197 1.988-19.317 2.991-30.068 2.991h-.531c-16.351-.167-29.343-2.181-40.853-6.343-6.39-2.493-13.23-5.805-15.438-11.513a7.56 7.56 0 0 1-.415-2.421v-10.782c4.936 9.85 25.548 14.118 32.388 15.279 19.113 3.328 56.805 3.755 76.756-9.298h.061l.136-.133c2.589-1.833 4.429-3.755 5.468-5.777.017 3.985.044 11.035-.109 11.998Z" />
    <path fill="#000"
        d="M405.848 207.288c2.838-1.509 4.557-3.694 5.157-6.555h8.431v-3.118h-8.356a12.562 12.562 0 0 0-2.044-5.316 12.447 12.447 0 0 0-4.217-3.991l-7.6 1.707a14.147 14.147 0 0 1 3.798 3.414 9.502 9.502 0 0 1 1.922 4.176h-15.06a20.102 20.102 0 0 0-2.824-4.503c-1.029-1.204-2.533-2.212-4.513-3.022-1.981-.81-4.604-1.214-7.869-1.212-4.067 0-7.531.747-10.39 2.24-2.859 1.493-4.562 3.655-5.109 6.487h-8.516v3.117h8.359a10.208 10.208 0 0 0 1.427 4.159 12.628 12.628 0 0 0 3.165 3.551l7.599-1.557c-2.21-1.926-3.559-3.978-4.067-6.146h15.21a20.76 20.76 0 0 0 2.796 4.544c1.004 1.202 2.497 2.215 4.48 3.039 1.982.824 4.605 1.236 7.869 1.236 4.067 0 7.517-.753 10.352-2.26v.01Zm-29.636-12.517a8.072 8.072 0 0 1 2.558 2.851h-13.401a4.719 4.719 0 0 1 2.409-2.885 9.45 9.45 0 0 1 4.428-.953c1.656 0 2.986.329 3.992.987h.014Zm24.243 8.949a8.695 8.695 0 0 1-4.295.966c-1.706 0-3.074-.341-4.105-1.024a8.272 8.272 0 0 1-2.599-2.926h13.326a4.878 4.878 0 0 1-2.334 2.981l.007.003Z" />
    <path fill="url(#j)"
        d="M383.505 196.854c31.997 0 57.936-9.317 57.936-20.81 0-11.493-25.939-20.81-57.936-20.81s-57.936 9.317-57.936 20.81c0 11.493 25.939 20.81 57.936 20.81Z" />
    <path fill="#000"
        d="M383.505 197.387c15.537 0 30.15-2.175 41.149-6.126 11.17-4.011 17.318-9.416 17.318-15.217s-6.148-11.202-17.318-15.218c-10.999-3.95-25.612-6.125-41.149-6.125-15.536 0-30.146 2.175-41.146 6.125-11.169 4.016-17.318 9.417-17.318 15.218s6.149 11.206 17.318 15.217c11 3.951 25.613 6.126 41.146 6.126Zm0-41.62c15.417 0 29.901 2.154 40.788 6.063 10.717 3.848 16.62 8.898 16.62 14.214 0 5.316-5.903 10.366-16.62 14.214-10.9 3.912-25.371 6.067-40.788 6.067-15.417 0-29.898-2.155-40.785-6.067-10.716-3.848-16.619-8.878-16.619-14.214 0-5.337 5.903-10.366 16.619-14.214 10.887-3.909 25.371-6.063 40.785-6.063Z" />
    <path fill="url(#k)"
        d="M382.807 211.679c-13.861-.14-27.933-1.642-41.027-6.375-5.791-2.257-13.373-5.678-15.751-11.823a8.105 8.105 0 0 1-.453-2.609v-14.821c.514 11.776 23.521 17.18 33.008 18.778 21.647 3.756 57.816 3.019 76.511-9.304 3.14-2.215 6.312-5.38 6.339-9.474-.054.847.146 15.938-.153 16.334-.719 3.438-3.431 6.002-6.186 7.962-6.442 4.373-14.052 6.624-21.587 8.331-10.079 2.175-20.417 3.035-30.718 3.004l.017-.003Z" />
    <mask id="l" width="117" height="36" x="325" y="176" maskUnits="userSpaceOnUse"
        style="mask-type:luminance">
        <path fill="#fff"
            d="M382.807 211.679c-13.861-.14-27.932-1.642-41.027-6.375-5.79-2.257-13.373-5.678-15.751-11.823a8.105 8.105 0 0 1-.453-2.609v-14.821c.515 11.776 23.521 17.18 33.008 18.778 21.648 3.756 57.817 3.019 76.511-9.304 3.141-2.215 6.312-5.38 6.339-9.474-.054.847.147 15.938-.153 16.334-.719 3.438-3.43 6.002-6.186 7.962-6.442 4.373-14.051 6.624-21.586 8.331-10.08 2.175-20.418 3.035-30.719 3.004l.017-.003Z" />
    </mask>
    <g fill="#fff" mask="url(#l)">
        <path
            d="M421.367 173.033h-32.735v50.862h32.735v-50.862ZM352.49 171.428h-32.735v50.862h32.735v-50.862ZM462.748 164.453h-32.735v50.862h32.735v-50.862Z" />
    </g>
    <path fill="#000"
        d="M383.325 212.215c10.829 0 21.02-1.025 30.317-3.015 6.966-1.581 14.988-3.814 21.77-8.413 3.747-2.666 5.791-5.299 6.411-8.293.146-.574.207-2.612.163-12.517v-3.923l-1.059-.037v.3c-.133 3.073-2.184 6.006-6.101 8.768-17.529 11.554-52.305 13.377-76.13 9.218-5.344-.904-32.02-6.043-32.565-18.286l-1.062.024v14.821c.007.948.171 1.888.483 2.783 2.361 6.104 9.443 9.559 16.058 12.144 11.343 4.097 24.063 6.146 39.957 6.395l-.017.017h1.809l-.034.014Zm57.476-20.073v.017l-.028.116c-.565 2.732-2.462 5.142-5.974 7.638-6.619 4.493-14.529 6.692-21.393 8.246-9.197 1.987-19.317 2.991-30.071 2.991h-.528c-16.351-.168-29.343-2.182-40.853-6.344-6.39-2.493-13.23-5.804-15.438-11.513a7.56 7.56 0 0 1-.415-2.421V180.08c4.936 9.85 25.548 14.118 32.388 15.278 19.113 3.329 56.805 3.756 76.756-9.297h.054l.137-.126c2.595-1.837 4.42-3.765 5.474-5.784.017 3.978.044 11.028-.109 11.991Z" />
    <path fill="#000"
        d="M405.848 184.402c2.838-1.509 4.557-3.694 5.157-6.555h8.431v-3.118h-8.356a12.562 12.562 0 0 0-2.044-5.316 12.457 12.457 0 0 0-4.217-3.991l-7.6 1.707a14.134 14.134 0 0 1 3.798 3.415 9.514 9.514 0 0 1 1.922 4.175h-15.06a20.102 20.102 0 0 0-2.824-4.503c-1.029-1.207-2.533-2.214-4.513-3.022-1.981-.808-4.604-1.212-7.869-1.212-4.067 0-7.531.748-10.39 2.243-2.859 1.496-4.562 3.658-5.109 6.487h-8.516v3.118h8.359a10.204 10.204 0 0 0 1.427 4.158 12.628 12.628 0 0 0 3.165 3.551l7.599-1.557c-2.21-1.925-3.559-3.977-4.067-6.146h15.21a20.69 20.69 0 0 0 2.783 4.538c1.004 1.202 2.497 2.215 4.479 3.039 1.983.824 4.606 1.237 7.869 1.239 4.067 0 7.518-.754 10.352-2.264l.014.014Zm-29.636-12.517a8.072 8.072 0 0 1 2.558 2.851h-13.401a4.719 4.719 0 0 1 2.409-2.885 9.437 9.437 0 0 1 4.428-.952c1.656 0 2.986.329 3.992.986h.014Zm24.243 8.949a8.707 8.707 0 0 1-4.295.97c-1.706 0-3.074-.342-4.105-1.024a8.28 8.28 0 0 1-2.599-2.926h13.326a4.882 4.882 0 0 1-2.334 2.98h.007Z" />
    <path fill="url(#m)"
        d="M338.663 237.259c.191-24.604-19.348-46.288-44.324-46.216 4.473.096 11.419-.29 15.738.58 10.042 1.626 19.348 7.03 25.96 14.75 25.292 29.363 5.733 76.886-32.964 77.098h-8.734c24.485 0 44.324-20.691 44.324-46.212Z" />
    <mask id="n" width="54" height="93" x="294" y="191" maskUnits="userSpaceOnUse"
        style="mask-type:luminance">
        <path fill="#fff"
            d="M338.664 237.258c.19-24.603-19.349-46.287-44.324-46.215 4.472.095 11.418-.29 15.737.58 10.042 1.625 19.348 7.03 25.96 14.75 25.293 29.363 5.733 76.886-32.963 77.098h-8.734c24.485 0 44.324-20.691 44.324-46.213Z" />
    </mask>
    <g fill="#fff" mask="url(#n)">
        <path
            d="M350.78 241.591h-50.745v32.812h50.745v-32.812ZM362.563 201.2h-50.745v32.812h50.745V201.2Z" />
    </g>
    <path fill="#000"
        d="M294.339 284h8.734a43.566 43.566 0 0 0 24.799-7.723 46.413 46.413 0 0 0 15.639-19.011c7.885-17.413 5.177-37.028-7.072-51.241-6.745-7.874-16.324-13.316-26.277-14.928-3.178-.638-7.715-.607-11.725-.58h-4.098v1.065h1.278c10.88.294 21.167 4.804 29.087 12.783a46.432 46.432 0 0 1 9.982 15.1 46.51 46.51 0 0 1 3.456 17.78c0 25.187-19.645 45.679-43.792 45.679l-.011 1.076Zm9.76-92.394a35.96 35.96 0 0 1 5.876.54c9.728 1.577 19.075 6.886 25.66 14.575 11.973 13.893 14.62 33.091 6.908 50.105a45.376 45.376 0 0 1-15.26 18.577 42.45 42.45 0 0 1-23.331 7.511c20.122-4.582 35.253-23.316 35.253-45.655a47.547 47.547 0 0 0-13.759-33.621 44.066 44.066 0 0 0-21.347-12.032Z" />
    <path fill="url(#o)"
        d="M294.34 191.043c-24.482 0-44.321 20.69-44.321 46.216 0 25.525 19.839 46.212 44.321 46.212 24.481 0 44.323-20.691 44.323-46.212 0-25.522-19.838-46.216-44.323-46.216Z" />
    <mask id="p" width="89" height="93" x="250" y="191" maskUnits="userSpaceOnUse"
        style="mask-type:luminance">
        <path fill="#fff"
            d="M294.34 191.043c-24.482 0-44.321 20.69-44.321 46.216 0 25.525 19.839 46.212 44.321 46.212 24.481 0 44.323-20.691 44.323-46.212 0-25.522-19.838-46.216-44.323-46.216Z" />
    </mask>
    <g mask="url(#p)">
        <path fill="#fff"
            d="m245.681 199.614-35.439 35.521 89.582 89.788 35.439-35.521-89.582-89.788Z" />
    </g>
    <path fill="#000"
        d="M294.339 284c24.734 0 44.866-20.953 44.866-46.741 0-25.789-20.122-46.749-44.855-46.749-24.734 0-44.862 20.981-44.862 46.749 0 25.767 20.121 46.741 44.851 46.741Zm0-92.424c24.148 0 43.793 20.485 43.793 45.683 0 25.197-19.645 45.679-43.793 45.679-24.147 0-43.789-20.486-43.789-45.679 0-25.194 19.645-45.683 43.789-45.683Z" />
    <path fill="#000"
        d="M280.186 257.358c2.725 2.843 6.667 4.566 11.827 5.17v8.453h5.634v-8.378a35.307 35.307 0 0 0 9.599-2.049c3.018-1.104 5.418-2.513 7.198-4.227l-3.096-7.62a22.265 22.265 0 0 1-6.169 3.81 25.414 25.414 0 0 1-7.532 1.936v-15.091a47.16 47.16 0 0 0 8.124-2.834 14.323 14.323 0 0 0 5.451-4.524c1.464-1.992 2.196-4.621 2.193-7.887 0-4.077-1.349-7.548-4.047-10.414-2.697-2.865-6.605-4.572-11.721-5.121v-8.536h-5.624v8.372a29.54 29.54 0 0 0-7.494 1.431 23.617 23.617 0 0 0-6.411 3.172l2.811 7.617a26.89 26.89 0 0 1 11.108-4.077v15.245a49.75 49.75 0 0 0-8.193 2.789 14.32 14.32 0 0 0-5.487 4.49c-1.49 1.987-2.233 4.616-2.228 7.887 0 4.077 1.362 7.537 4.088 10.38l-.031.006Zm22.595-29.704c-1.19 1.004-2.905 1.859-5.144 2.564v-13.432c2.33.403 4.066 1.208 5.208 2.414a6.225 6.225 0 0 1 1.703 4.439 5 5 0 0 1-1.778 4.001l.011.014Zm-16.15 24.3a5.821 5.821 0 0 1-1.751-4.306 5.107 5.107 0 0 1 .45-2.265 5.105 5.105 0 0 1 1.403-1.832c1.235-1.031 2.995-1.899 5.28-2.605v13.353c-2.421-.403-4.215-1.182-5.382-2.339v-.006Z" />
    <path fill="url(#q)"
        d="M236.904 82.636s20.401 54.144 40.151 62.481c16.388 6.911 23.845-11.499 16.351-24.582-7.494-13.084-19.662-35.26-26.91-48.773-7.249-13.514-21.648-34.621-21.648-34.621l-7.957 45.492.013.003Z" />
    <path fill="#000"
        d="M283.831 147.019a17.787 17.787 0 0 1-6.926-1.553c-8.277-3.49-17.587-15.112-27.676-34.539a295.75 295.75 0 0 1-12.686-28.154l-.027-.065v-.144l8.124-46.434.535.785c.143.212 14.46 21.268 21.637 34.642 7.624 14.21 19.645 36.126 26.911 48.759 4.282 7.453 3.883 17.194-.934 22.657a11.691 11.691 0 0 1-8.958 4.046Zm-46.528-64.424c.991 2.595 20.922 54.151 39.902 62.14 6.108 2.578 11.439 1.765 14.988-2.284 4.606-5.227 4.967-14.583.845-21.759-7.266-12.633-19.29-34.563-26.91-48.78-6.367-11.865-18.395-29.817-21.059-33.778l-7.766 44.461Z" />
    <path fill="url(#r)"
        d="M213.128 29.83s46.902 40.931 56.808 50.037c9.906 9.106 26.362 23.975 36.377 32.654 10.015 8.679 7.528 21.541-6.472 25.126-14.001 3.585-80.333-66.237-80.333-66.237l-6.394-41.586.014.007Z" />
    <path fill="#000"
        d="M298.751 138.162c-16.14 0-76.866-63.7-79.509-66.486l-.085-.085-6.39-41.562-.028-.024v-.18l.419-.032.222-.256c.47.41 47.008 41.04 56.818 50.047 10.407 9.56 26.689 24.241 36.37 32.644 4.882 4.23 7.086 9.782 5.893 14.845-1.226 5.234-5.791 9.218-12.508 10.949a4.727 4.727 0 0 1-1.202.14Zm-78.865-66.92c2.636 2.763 63.325 66.166 78.773 66.169.37.004.74-.038 1.1-.126 6.435-1.652 10.791-5.436 11.953-10.379 1.121-4.78-.991-10.045-5.651-14.081-9.685-8.396-25.974-23.094-36.387-32.66-9.078-8.345-49.775-43.898-56.005-49.337l6.217 40.415Z" />
    <path fill="url(#s)"
        d="M139.931 136.78s34.176-9.816 67.556-26.331c20.629-10.202 40.955-22.961 52.724-37.557 0 0 52.387 53.809 70.297 47.933 17.911-5.876 20.054-22.849 6.258-33.29-13.796-10.44-36.506-28.4-50.193-39.407-13.687-11.008-67.614-9.966-67.614-9.966L141.12 48.384l-1.203 88.396h.014Z" />
    <path fill="#000"
        d="m139.481 137.37 1.217-89.375 78.261-10.29c2.208-.042 54.23-.902 67.883 10.078 14.354 11.547 36.819 29.278 50.186 39.401 6.704 5.074 10.042 12.09 8.932 18.778-1.148 6.904-6.735 12.48-15.329 15.3-1.027.32-2.097.478-3.171.468-19.417 0-62.535-43.362-67.232-48.142-10.315 12.589-27.994 25.126-52.561 37.274-33.042 16.341-67.283 26.259-67.627 26.358l-.559.15Zm2.092-88.597-1.189 87.406c4.619-1.366 36.292-10.984 66.905-26.13 24.7-12.213 42.393-24.804 52.578-37.42l.313-.39.341.342c.521.536 52.404 53.536 69.831 47.8 8.263-2.711 13.625-8.034 14.722-14.596 1.056-6.347-2.156-13.046-8.591-17.918-13.373-10.127-35.845-27.864-50.203-39.415-13.285-10.69-65.887-9.901-67.29-9.884l-77.417 10.205Z" />
    <path fill="#000"
        d="M239.602 82.93s-69.535-33.549-85.977 53.727l-6.094-91.196 98.502 16.908-6.431 20.567v-.006Z" />
    <path fill="url(#t)"
        d="M8.942 157.498s101.19-95.942 128.806-136.913c27.615-40.971 61.778-9.219 108.425 6.115 30.058 9.901 25.224 43.361 43.064 74.09 4.864 8.392 1.846 19.318-6.759 23.767-12.161 6.292-27.023 2.885-34.919-10.551-16.187-21.329-13.359-43.92-13.359-43.92L183.604 54.38s-25.408 39.322-18.922 68.2c3.335 14.835 25.047 29.735 33.294 27.874 19.651-15.525 36.826-14.682 51.515-7.771 7.596 3.575 8.342 14.142 1.4 18.867-16.15 10.987-39.068 30.196-57.698 37.923-24.222 10.041-59.659-20.892-59.659-20.892l-56.737 65.632c-32.231 25.341-100.093-61.385-67.859-86.722l.004.007Z" />
    <path fill="#000"
        d="M63.264 249.27c-3.921 0-8.142-.891-12.58-2.68-10.832-4.364-22.625-13.999-32.36-26.437C8.587 207.715 2.067 193.938.418 182.354c-1.567-11.035 1.278-19.759 8.23-25.225 2.415-2.295 101.626-96.624 128.704-136.786C147.108 5.869 158.271-.584 172.466.04c12.825.564 26.59 6.638 42.528 13.657 9.93 4.38 20.2 8.908 31.315 12.565 19.519 6.426 24.502 22.691 30.273 41.528 3.287 10.72 6.683 21.81 13.046 32.777a17.835 17.835 0 0 1 1.68 13.872 17.12 17.12 0 0 1-8.625 10.547c-12.982 6.712-27.933 2.212-35.522-10.707-14.937-19.694-13.745-40.726-13.472-43.847l-49.89-15.49c-2.313 3.698-24.744 40.507-18.671 67.545 1.458 6.487 6.929 13.937 14.648 19.929 6.901 5.363 14.116 8.409 17.999 7.61 17.202-13.555 34.187-16.091 51.917-7.757a11.155 11.155 0 0 1 6.397 9.321 11.32 11.32 0 0 1-1.063 5.855 11.283 11.283 0 0 1-3.886 4.5c-4.514 3.073-9.562 6.788-14.903 10.721-13.786 10.154-29.415 21.66-42.877 27.246-12.682 5.258-28.382-.744-39.316-6.702a131.86 131.86 0 0 1-20.476-13.968l-56.457 65.319-.038.027a21.856 21.856 0 0 1-13.81 4.681ZM9.102 157.969c-6.584 5.251-9.265 13.633-7.756 24.241 1.625 11.424 8.08 25.037 17.713 37.349 9.633 12.312 21.287 21.851 31.969 26.146 9.977 4.019 18.773 3.384 25.442-1.84l57.013-65.953.341.307c.34.307 35.494 30.629 59.175 20.827 13.36-5.541 28.938-17.01 42.679-27.133 5.351-3.94 10.403-7.662 14.934-10.742a10.367 10.367 0 0 0 3.566-4.133 10.399 10.399 0 0 0 .978-5.375 10.267 10.267 0 0 0-1.784-5.07 10.22 10.22 0 0 0-4.099-3.466c-17.407-8.194-34.098-5.658-51.024 7.713l-.082.068-.106.024c-8.434 1.905-30.48-13.217-33.852-28.229-3.373-15.013 1.972-32.887 7.051-45.212a161.388 161.388 0 0 1 11.922-23.347l.191-.297 51.31 15.93-.047.39c-.031.225-2.613 22.66 13.264 43.577l.034.047c3.723 6.337 9.112 10.646 15.581 12.459 6.132 1.707 12.788.98 18.735-2.086a16.174 16.174 0 0 0 5.118-4.14 16.225 16.225 0 0 0 3.051-5.84 16.892 16.892 0 0 0-1.588-13.138c-6.417-11.052-9.984-22.695-13.131-32.968-5.696-18.584-10.615-34.635-29.673-40.91-11.16-3.67-21.461-8.194-31.397-12.599-31.114-13.722-55.688-24.562-76.494 6.303C110.807 61.412 10.277 156.89 9.266 157.849l-.164.12Z" />
    <path fill="#000"
        d="M225.97 171.827a8.608 8.608 0 0 1 1.046-9.812l7.552-8.638a8.141 8.141 0 0 1 10.961-1.294c4.163 3.014 7.494 7.412 7.617 7.596l-.749.564c-.034-.045-3.373-4.47-7.416-7.399a7.211 7.211 0 0 0-9.705 1.157l-7.552 8.638a7.665 7.665 0 0 0-.933 8.741l-.821.447ZM290.926 106.826c-3.842-6.169-13.997-9.454-14.099-9.488l-.249-.079-2.5-9.997a4.475 4.475 0 0 1 2.017-4.957 4.418 4.418 0 0 1 5.297.413l.047.048-.681.645.341-.32-.341.34a3.462 3.462 0 0 0-4.18-.31 3.537 3.537 0 0 0-1.597 3.93l2.384 9.495c1.656.556 10.635 3.817 14.362 9.799l-.801.481ZM339.607 94.723c-5.726-4.46-16.388-4.04-16.494-4.033h-.262l-5.791-8.535c-1.458-2.148-.804-5.08.722-6.487 1.315-1.195 3.008-1.148 4.537.126l-.596.72c-1.171-.973-2.347-1.024-3.311-.15-1.209 1.103-1.744 3.53-.579 5.248l5.491 8.095c1.748-.044 11.296-.089 16.852 4.237l-.569.779ZM133.537 178.588c-16.074-13.999-19.205-21.828-19.205-21.828-5.048 12.396-3.85 25.69 3.594 39.882l15.608-18.054h.003Z" />
    <mask id="u" width="105" height="90" x="197" y="98" maskUnits="userSpaceOnUse"
        style="mask-type:luminance">
        <path fill="#fff"
            d="M197.979 150.464c19.652-15.525 36.827-14.681 51.515-7.771 7.597 3.575 8.343 14.146 1.4 18.868-6.591 4.489-14.306 10.348-22.421 16.238l22.905 9.584 40.965-13.166 8.816-73.973-81.413-1.387-21.767 51.607Z" />
    </mask>
    <g mask="url(#u)">
        <path fill="url(#v)"
            d="M223.088 136.66c-.146-18.993 14.937-35.73 34.217-35.679-3.454.078-8.812-.222-12.15.451a33.805 33.805 0 0 0-20.04 11.386c-19.522 22.654-4.428 59.357 25.452 59.521h6.738c-18.895-.003-34.217-15.978-34.217-35.679Z" />
        <mask id="w" width="42" height="73" x="216" y="100" maskUnits="userSpaceOnUse"
            style="mask-type:luminance">
            <path fill="#fff"
                d="M223.088 136.66c-.146-18.993 14.937-35.73 34.217-35.679-3.454.078-8.812-.222-12.15.451a33.805 33.805 0 0 0-20.04 11.386c-19.522 22.654-4.428 59.357 25.452 59.521h6.738c-18.895-.003-34.217-15.978-34.217-35.679Z" />
        </mask>
        <g fill="#fff" mask="url(#w)">
            <path
                d="M252.908 139.999h-39.177v25.331h39.177v-25.331ZM243.809 108.824h-39.177v25.33h39.177v-25.33Z" />
        </g>
        <path fill="#000"
            d="M257.305 172.746h-6.738c-13.724-.075-25.394-7.795-31.219-20.646-6.087-13.429-3.996-28.585 5.45-39.555 5.205-6.074 12.604-10.273 20.282-11.52 2.442-.491 5.934-.467 9.013-.447h3.199v.82h-1.022c-8.387.239-16.313 3.718-22.421 9.87a35.893 35.893 0 0 0-10.376 25.382c0 19.461 15.165 35.263 33.808 35.263l.024.833Zm-7.531-71.328a28.07 28.07 0 0 0-4.538.413c-7.494 1.219-14.725 5.316-19.808 11.267-9.245 10.728-11.288 25.546-5.338 38.681 5.597 12.342 16.692 19.837 29.813 20.144-15.547-3.544-27.224-18.004-27.224-35.253a36.733 36.733 0 0 1 2.73-14.042 36.67 36.67 0 0 1 7.885-11.927 33.983 33.983 0 0 1 16.48-9.283Z" />
        <path fill="url(#x)"
            d="M257.305 100.988c18.896 0 34.217 15.972 34.217 35.676 0 19.703-15.328 35.675-34.217 35.675-18.888 0-34.217-15.972-34.217-35.675 0-19.704 15.329-35.676 34.217-35.676Z" />
        <mask id="y" width="69" height="73" x="223" y="100" maskUnits="userSpaceOnUse"
            style="mask-type:luminance">
            <path fill="#fff"
                d="M257.305 100.988c18.896 0 34.217 15.972 34.217 35.676 0 19.703-15.328 35.675-34.217 35.675-18.888 0-34.217-15.972-34.217-35.675 0-19.704 15.329-35.676 34.217-35.676Z" />
        </mask>
        <g mask="url(#y)">
            <path fill="#fff"
                d="m294.865 107.604-69.153 69.314 27.355 27.419 69.154-69.314-27.356-27.419Z" />
        </g>
        <path fill="#000"
            d="M257.305 172.749c-19.093 0-34.626-16.187-34.626-36.085 0-19.899 15.533-36.086 34.626-36.086 19.093 0 34.626 16.187 34.626 36.086 0 19.898-15.533 36.085-34.626 36.085Zm0-71.358c-18.643 0-33.808 15.821-33.808 35.266 0 19.444 15.165 35.266 33.808 35.266s33.809-15.819 33.809-35.266c0-19.448-15.169-35.259-33.809-35.259v-.007Z" />
        <path fill="#000"
            d="M268.233 152.182c-2.101 2.192-5.144 3.522-9.129 3.991v6.521h-4.34v-6.463a27.343 27.343 0 0 1-7.412-1.574c-2.327-.85-4.18-1.943-5.56-3.261l2.385-5.883a17.103 17.103 0 0 0 4.769 2.94 19.552 19.552 0 0 0 5.821 1.485v-11.653a36.549 36.549 0 0 1-6.274-2.181 11.101 11.101 0 0 1-4.214-3.483c-1.131-1.536-1.703-3.561-1.703-6.091a11.333 11.333 0 0 1 3.124-8.041c2.084-2.212 5.102-3.531 9.054-3.957v-6.582h4.34v6.463c1.969.117 3.916.489 5.79 1.106a18.16 18.16 0 0 1 4.95 2.448l-2.17 5.883a20.643 20.643 0 0 0-8.57-3.145v11.769a38.162 38.162 0 0 1 6.325 2.158 11.032 11.032 0 0 1 4.241 3.452c1.147 1.536 1.722 3.566 1.724 6.088a11.164 11.164 0 0 1-3.151 8.01Zm-17.441-22.924c.909.779 2.231 1.439 3.969 1.98v-10.369c-1.799.314-3.141.932-4.023 1.868a4.792 4.792 0 0 0-1.004 1.587 4.798 4.798 0 0 0-.321 1.851c-.021.586.092 1.17.331 1.706.24.535.598 1.009 1.048 1.384v-.007Zm12.464 18.758a4.485 4.485 0 0 0 1.363-3.319 3.936 3.936 0 0 0-1.428-3.175c-.953-.799-2.309-1.465-4.087-2.011v10.308c1.87-.311 3.253-.908 4.152-1.806v.003Z" />
    </g>
    <path fill="#000"
        d="m228.749 178.178-.548-.762a1048.52 1048.52 0 0 0 7.436-5.462c5.372-3.961 10.451-7.696 14.988-10.793a10.382 10.382 0 0 0 4.544-9.505 10.224 10.224 0 0 0-1.778-5.072 10.198 10.198 0 0 0-4.101-3.464c-17.41-8.194-34.101-5.661-51.028 7.713l-.579-.738c17.233-13.612 34.245-16.173 52.002-7.825a11.121 11.121 0 0 1 4.479 3.784 11.163 11.163 0 0 1 1.939 5.54 11.322 11.322 0 0 1-1.065 5.855 11.282 11.282 0 0 1-3.885 4.501c-4.534 3.073-9.602 6.828-14.971 10.772a1273.394 1273.394 0 0 1-7.433 5.456Z" />
    <defs>
        <linearGradient id="a" x1="411.645" x2="316.586" y1="290.033" y2="139.211"
            gradientUnits="userSpaceOnUse">
            <stop offset=".1" stop-color="#FFE05F" />
            <stop offset=".14" stop-color="#FFE167" />
            <stop offset=".52" stop-color="#FFF1B8" />
            <stop offset=".78" stop-color="#FFFBEB" />
            <stop offset=".92" stop-color="#fff" />
        </linearGradient>
        <linearGradient id="b" x1="432.308" x2="309.031" y1="261.92" y2="263.643"
            gradientUnits="userSpaceOnUse">
            <stop offset=".22" stop-color="#FFE05F" />
            <stop offset=".25" stop-color="#FFE167" />
            <stop offset=".57" stop-color="#FFF1B8" />
            <stop offset=".8" stop-color="#FFFBEB" />
            <stop offset=".92" stop-color="#fff" />
        </linearGradient>
        <linearGradient id="d" x1="411.645" x2="316.586" y1="267.147" y2="116.325"
            gradientUnits="userSpaceOnUse">
            <stop offset=".1" stop-color="#FFE05F" />
            <stop offset=".14" stop-color="#FFE167" />
            <stop offset=".52" stop-color="#FFF1B8" />
            <stop offset=".78" stop-color="#FFFBEB" />
            <stop offset=".92" stop-color="#fff" />
        </linearGradient>
        <linearGradient id="e" x1="432.308" x2="309.031" y1="239.034" y2="240.757"
            gradientUnits="userSpaceOnUse">
            <stop offset=".22" stop-color="#FFE05F" />
            <stop offset=".25" stop-color="#FFE167" />
            <stop offset=".57" stop-color="#FFF1B8" />
            <stop offset=".8" stop-color="#FFFBEB" />
            <stop offset=".92" stop-color="#fff" />
        </linearGradient>
        <linearGradient id="g" x1="411.645" x2="316.589" y1="243.787" y2="92.965"
            gradientUnits="userSpaceOnUse">
            <stop offset=".1" stop-color="#FFE05F" />
            <stop offset=".14" stop-color="#FFE167" />
            <stop offset=".52" stop-color="#FFF1B8" />
            <stop offset=".78" stop-color="#FFFBEB" />
            <stop offset=".92" stop-color="#fff" />
        </linearGradient>
        <linearGradient id="h" x1="432.308" x2="309.031" y1="215.667" y2="217.39"
            gradientUnits="userSpaceOnUse">
            <stop offset=".22" stop-color="#FFE05F" />
            <stop offset=".25" stop-color="#FFE167" />
            <stop offset=".57" stop-color="#FFF1B8" />
            <stop offset=".8" stop-color="#FFFBEB" />
            <stop offset=".92" stop-color="#fff" />
        </linearGradient>
        <linearGradient id="j" x1="411.645" x2="316.589" y1="220.901" y2="70.075"
            gradientUnits="userSpaceOnUse">
            <stop offset=".1" stop-color="#FFE05F" />
            <stop offset=".14" stop-color="#FFE167" />
            <stop offset=".52" stop-color="#FFF1B8" />
            <stop offset=".78" stop-color="#FFFBEB" />
            <stop offset=".92" stop-color="#fff" />
        </linearGradient>
        <linearGradient id="k" x1="432.308" x2="309.031" y1="192.784" y2="194.504"
            gradientUnits="userSpaceOnUse">
            <stop offset=".22" stop-color="#FFE05F" />
            <stop offset=".25" stop-color="#FFE167" />
            <stop offset=".57" stop-color="#FFF1B8" />
            <stop offset=".8" stop-color="#FFFBEB" />
            <stop offset=".92" stop-color="#fff" />
        </linearGradient>
        <linearGradient id="m" x1="347.394" x2="294.339" y1="237.255" y2="237.255"
            gradientUnits="userSpaceOnUse">
            <stop offset=".1" stop-color="#FFE05F" />
            <stop offset=".14" stop-color="#FFE167" />
            <stop offset=".52" stop-color="#FFF1B8" />
            <stop offset=".78" stop-color="#FFFBEB" />
            <stop offset=".92" stop-color="#fff" />
        </linearGradient>
        <linearGradient id="o" x1="338.663" x2="250.016" y1="237.259" y2="237.259"
            gradientUnits="userSpaceOnUse">
            <stop offset=".1" stop-color="#FFE05F" />
            <stop offset=".14" stop-color="#FFE167" />
            <stop offset=".52" stop-color="#FFF1B8" />
            <stop offset=".78" stop-color="#FFFBEB" />
            <stop offset=".92" stop-color="#fff" />
        </linearGradient>
        <linearGradient id="q" x1="238.359" x2="304.79" y1="87.944" y2="100.117"
            gradientUnits="userSpaceOnUse">
            <stop offset=".1" stop-color="#7AE6D8" />
            <stop offset=".25" stop-color="#7DE6D9" />
            <stop offset=".39" stop-color="#88E8DC" />
            <stop offset=".53" stop-color="#9BECE1" />
            <stop offset=".66" stop-color="#B4F1E9" />
            <stop offset=".79" stop-color="#D6F7F2" />
            <stop offset=".91" stop-color="#FEFEFE" />
            <stop offset=".92" stop-color="#fff" />
        </linearGradient>
        <linearGradient id="r" x1="217.272" x2="300.16" y1="87.89" y2="74.525"
            gradientUnits="userSpaceOnUse">
            <stop offset=".1" stop-color="#7AE6D8" />
            <stop offset=".25" stop-color="#7DE6D9" />
            <stop offset=".39" stop-color="#88E8DC" />
            <stop offset=".53" stop-color="#9BECE1" />
            <stop offset=".66" stop-color="#B4F1E9" />
            <stop offset=".79" stop-color="#D6F7F2" />
            <stop offset=".91" stop-color="#FEFEFE" />
            <stop offset=".92" stop-color="#fff" />
        </linearGradient>
        <linearGradient id="s" x1="133.032" x2="337.379" y1="103.964" y2="58.197"
            gradientUnits="userSpaceOnUse">
            <stop offset=".1" stop-color="#7AE6D8" />
            <stop offset=".25" stop-color="#7DE6D9" />
            <stop offset=".39" stop-color="#88E8DC" />
            <stop offset=".53" stop-color="#9BECE1" />
            <stop offset=".66" stop-color="#B4F1E9" />
            <stop offset=".79" stop-color="#D6F7F2" />
            <stop offset=".91" stop-color="#FEFEFE" />
            <stop offset=".92" stop-color="#fff" />
        </linearGradient>
        <linearGradient id="t" x1="-7.045" x2="287.124" y1="148.536" y2="82.651"
            gradientUnits="userSpaceOnUse">
            <stop offset=".1" stop-color="#7AE6D8" />
            <stop offset=".25" stop-color="#7DE6D9" />
            <stop offset=".39" stop-color="#88E8DC" />
            <stop offset=".53" stop-color="#9BECE1" />
            <stop offset=".66" stop-color="#B4F1E9" />
            <stop offset=".79" stop-color="#D6F7F2" />
            <stop offset=".91" stop-color="#FEFEFE" />
            <stop offset=".92" stop-color="#fff" />
        </linearGradient>
        <linearGradient id="v" x1="216.35" x2="257.305" y1="136.657" y2="136.657"
            gradientUnits="userSpaceOnUse">
            <stop offset=".1" stop-color="#FFE05F" />
            <stop offset=".14" stop-color="#FFE167" />
            <stop offset=".52" stop-color="#FFF1B8" />
            <stop offset=".78" stop-color="#FFFBEB" />
            <stop offset=".92" stop-color="#fff" />
        </linearGradient>
        <linearGradient id="x" x1="223.088" x2="291.522" y1="136.664" y2="136.664"
            gradientUnits="userSpaceOnUse">
            <stop offset=".1" stop-color="#FFE05F" />
            <stop offset=".14" stop-color="#FFE167" />
            <stop offset=".52" stop-color="#FFF1B8" />
            <stop offset=".78" stop-color="#FFFBEB" />
            <stop offset=".92" stop-color="#fff" />
        </linearGradient>
    </defs>
</svg>
