<svg xmlns="http://www.w3.org/2000/svg" data-name="Layer 1" viewBox="0 0 24 24"><path fill="currentColor" d="M9 12c3.309 0 6-2.691 6-6s-2.691-6-6-6-6 2.691-6 6 2.691 6 6 6M9 2c2.206 0 4 1.794 4 4s-1.794 4-4 4-4-1.794-4-4 1.794-4 4-4M5 14h6.037l-.627 2H5c-1.654 0-3 1.346-3 3v5H0v-5c0-2.757 2.243-5 5-5m19 4.664V19a2 2 0 0 1-4 0v-.336l.854-2.42L19 15.896v6.105h3v2h-8v-2h3v-6.48l-1.752-.328.861 2.406v.575A2.067 2.067 0 0 1 14.055 20a2.054 2.054 0 0 1-2.054-2.054v-.333l1.5-4.782 3.5.649V12h2v1.851l3.5.649z"/></svg>