<svg xmlns="http://www.w3.org/2000/svg" data-name="Layer 1" viewBox="0 0 24 24"><path fill="currentColor" d="M19.427 6.513C18.941 2.843 15.8 0 12 0 8.77 0 5.985 2.039 4.943 5.028A5.51 5.51 0 0 0 0 10.5a5.46 5.46 0 0 0 2.93 4.844l.156.156-1.5 1.5 1.5 1.5-1.5 1.5 3.915 3.914L9 20.414v-5.673a5.49 5.49 0 0 0 2-4.241c0-2.51-1.693-4.629-3.996-5.286A5.47 5.47 0 0 1 12 2c2.745 0 5.021 2.025 5.429 4.657L13 11.086V24h11V11.086zM9 10.5a3.5 3.5 0 0 1-1.557 2.909L7 13.707v5.879l-1.499 1.5L4.414 20l1.5-1.5-1.5-1.5 1.5-1.5-1.799-1.799-.148-.073A3.48 3.48 0 0 1 2 10.5C2 8.57 3.57 7 5.5 7S9 8.57 9 10.5M22 22h-7V11.914l3.5-3.5 3.5 3.5zM5.5 8a1.5 1.5 0 1 1-.001 3.001A1.5 1.5 0 0 1 5.5 8"/></svg>