<svg xmlns="http://www.w3.org/2000/svg" data-name="Layer 1" viewBox="0 0 24 24"><path fill="currentColor" d="m23.957 22.543-6.219-6.219A9.95 9.95 0 0 0 20 10c0-5.514-4.486-10-10-10S0 4.486 0 10s4.486 10 10 10c2.397 0 4.599-.85 6.324-2.262l6.219 6.219zM10 18c-4.411 0-8-3.589-8-8s3.589-8 8-8 8 3.589 8 8-3.589 8-8 8M8 7.979a.77.77 0 0 0 .644.761l3.041.507A2.76 2.76 0 0 1 14 11.979c0 1.654-1.346 3-3 3v1H9v-1c-1.654 0-3-1.346-3-3h2c0 .552.449 1 1 1h2c.551 0 1-.448 1-1 0-.378-.292-.697-.665-.76l-3.021-.507a2.76 2.76 0 0 1-2.315-2.733c0-1.654 1.346-3 3-3v-1h2v1c1.654 0 3 1.346 3 3h-2c0-.552-.449-1-1-1h-2c-.551 0-1 .448-1 1Z"/></svg>