<svg xmlns="http://www.w3.org/2000/svg" data-name="Layer 1" viewBox="0 0 24 24"><path fill="currentColor" d="M5 20h2.888a4 4 0 0 0-1.246 2H5a3 3 0 0 1-3-3v-2h2v2a1 1 0 0 0 1 1M5 2a3 3 0 0 0-3 3v1.297A4 4 0 0 1 3.5 6c.171 0 .335.029.5.05V5a1 1 0 0 1 1-1h2.914c.144-.126.28-.262.443-.366A4 4 0 0 1 8 2zm15 3v1.05c.165-.022.329-.05.5-.05.531 0 1.036.109 1.5.297V5a3 3 0 0 0-3-3h-3a4 4 0 0 1-.357 1.634c.163.104.298.24.443.366H19a1 1 0 0 1 1 1m0 14a1 1 0 0 1-1 1h-2.888a4 4 0 0 1 1.246 2H19a3 3 0 0 0 3-3v-2h-2zM12 4a2 2 0 1 0 .001-3.999A2 2 0 0 0 12 4m1.5 1h-3c-1.103 0-2 .897-2 2v1h2V7h3v1h2V7c0-1.103-.897-2-2-2M12 20a2 2 0 1 0 .001-3.999A2 2 0 0 0 12 20m1.5 1h-3c-1.103 0-2 .897-2 2v1h2v-1h3v1h2v-1c0-1.103-.897-2-2-2m8.5-8h-3c-1.103 0-2 .897-2 2v1h2v-1h3v1h2v-1c0-1.103-.897-2-2-2M2 15h3v1h2v-1c0-1.103-.897-2-2-2H2c-1.103 0-2 .897-2 2v1h2zm18.5-7a2 2 0 1 0-.001 3.999A2 2 0 0 0 20.5 8m-17 4a2 2 0 1 0 .001-3.999A2 2 0 0 0 3.5 12"/></svg>