<svg xmlns="http://www.w3.org/2000/svg" fill="none" viewBox="0 0 39 39"><path fill="currentColor" d="M38.517 15.312a5.525 5.525 0 1 0-7.893 4.973v5.288a7.893 7.893 0 0 1-15.787 0v-.238a11.86 11.86 0 0 0 9.472-11.602V5.84A5.525 5.525 0 0 0 18.784.315h-3.947V5.05h3.947a.79.79 0 0 1 .79.789v7.893a7.104 7.104 0 0 1-14.209 0V5.84a.79.79 0 0 1 .79-.79H10.1V.316H6.155A5.525 5.525 0 0 0 .629 5.84v7.893a11.86 11.86 0 0 0 9.472 11.602v.238a12.63 12.63 0 0 0 25.259 0v-5.288a5.51 5.51 0 0 0 3.157-4.973"/></svg>