<svg xmlns="http://www.w3.org/2000/svg" fill="none" viewBox="0 0 24 24"><g fill="currentColor" clip-path="url(#a)"><path d="M23.126 1.861a2.943 2.943 0 0 0-4.276.118l-8.136 9.093a4.98 4.98 0 0 1 4.008 3.356l8.4-8.4a2.947 2.947 0 0 0 .004-4.167M5 19s1-6 5-6a3 3 0 1 1 0 6z"/><path d="M21 10.979V16h-5v5H3V3.409A.41.41 0 0 1 3.409 3h11.844L17.359.646q.324-.358.711-.646H3.409A3.413 3.413 0 0 0 0 3.409V24h18.348L24 18.348V7.979z"/></g><defs><clipPath id="a"><path fill="#fff" d="M0 0h24v24H0z"/></clipPath></defs></svg>
