<svg xmlns="http://www.w3.org/2000/svg" fill="none" viewBox="0 0 24 24"><g clip-path="url(#a)"><path fill="currentColor" d="M23.365 6.134 20 1.416a3.42 3.42 0 0 0-2.779-1.428H6.78a3.42 3.42 0 0 0-2.774 1.428L.635 6.135a3.43 3.43 0 0 0 .108 4.105L12 24.11l11.271-13.888a3.43 3.43 0 0 0 .094-4.088M3.076 7.878l3.37-4.718a.41.41 0 0 1 .333-.172H9.7L8.275 8.5h7.45L14.3 2.988h2.923a.41.41 0 0 1 .333.172l3.37 4.717a.41.41 0 0 1 .004.473l-.122.15h-5.083L12 19.348 8.275 8.5h-5.08l-.108-.132a.41.41 0 0 1-.01-.49"/></g><defs><clipPath id="a"><path fill="#fff" d="M0 0h24v24H0z"/></clipPath></defs></svg>
