<svg xmlns="http://www.w3.org/2000/svg" fill="none" viewBox="0 0 24 24"><g fill="currentColor" clip-path="url(#a)"><path d="M21 21h-5v3h5.546A2.457 2.457 0 0 0 24 21.545V16h-3zM3 3h5V0H2.455A2.457 2.457 0 0 0 0 2.455V8h3zM3 16H0v5.545A2.457 2.457 0 0 0 2.455 24H8v-3H3zM21.546 0H16v3h5v5h3V2.455A2.457 2.457 0 0 0 21.546 0M12 11a3.5 3.5 0 1 0 0-7 3.5 3.5 0 0 0 0 7"/><path d="M6 15v4h12v-4a2 2 0 0 0-2-2H8a2 2 0 0 0-2 2"/></g><defs><clipPath id="a"><path fill="#fff" d="M0 0h24v24H0z"/></clipPath></defs></svg>
