<svg xmlns="http://www.w3.org/2000/svg" fill="none" viewBox="0 0 24 24"><g clip-path="url(#a)"><path fill="currentColor" d="M22.024 1.975C18.5-1.554 9.377-.178 4.6 4.6s-6.151 13.9-2.624 17.424A8.32 8.32 0 0 0 7.913 24c4.27-.039 8.37-1.68 11.487-4.6 4.777-4.779 6.15-13.9 2.624-17.424m-4.746 15.3a14.16 14.16 0 0 1-8.49 3.677l-5.742-5.74a14.17 14.17 0 0 1 3.676-8.49 14.17 14.17 0 0 1 8.49-3.677l5.742 5.741a14.17 14.17 0 0 1-3.676 8.491zm1.039-7.595L16.2 11.8l-.94-.94L14.12 12l.94.938-2.121 2.122-.94-.94-1.121 1.122.939.94L9.7 18.3l-4-4 2.12-2.12.94.938L9.88 12l-.94-.939 2.122-2.122.939.94 1.136-1.136L12.2 7.8l2.12-2.12z"/></g><defs><clipPath id="a"><path fill="#fff" d="M0 0h24v24H0z"/></clipPath></defs></svg>
