<svg xmlns="http://www.w3.org/2000/svg" fill="none" viewBox="0 0 24 24"><g fill="currentColor" clip-path="url(#a)"><path d="M17.41 24a6.589 6.589 0 0 1-4.657-11.247l4.658-4.94 4.69 4.97a6.584 6.584 0 0 1-.031 9.287A6.55 6.55 0 0 1 17.41 24m0-11.814-2.51 2.656a3.588 3.588 0 1 0 5.045.031zM5.625 13.5a5.625 5.625 0 0 1-3.978-9.6L5.625.004l3.966 3.88a5.65 5.65 0 0 1 .009 7.966A5.58 5.58 0 0 1 5.625 13.5m0-9.3L3.757 6.03a2.624 2.624 0 0 0 .012 3.7 2.69 2.69 0 0 0 3.711 0 2.634 2.634 0 0 0 0-3.713z"/></g><defs><clipPath id="a"><path fill="#fff" d="M0 0h24v24H0z"/></clipPath></defs></svg>
