<svg xmlns="http://www.w3.org/2000/svg" fill="none" viewBox="0 0 24 24"><g clip-path="url(#a)"><path fill="currentColor" d="M22.833 1.167a4.08 4.08 0 0 0-5.634 0l-9.849 9.85C7.235 11.01 7.121 11 7.005 11a5.96 5.96 0 0 0-4.238 1.755C.716 14.806.207 21.048.125 22.279l-.112 1.708 1.708-.112c1.23-.082 7.472-.59 9.523-2.641a5.96 5.96 0 0 0 1.722-4.566L22.833 6.8a3.986 3.986 0 0 0 0-5.633M9.123 19.112c-.678.678-3.276 1.288-5.836 1.6.314-2.56.923-5.158 1.6-5.836a2.995 2.995 0 1 1 4.235 4.235zM20.712 4.679l-8.843 8.843a6 6 0 0 0-.625-.767 6 6 0 0 0-.756-.634l8.832-8.832a1.01 1.01 0 0 1 1.392 0 .984.984 0 0 1 0 1.39"/></g><defs><clipPath id="a"><path fill="#fff" d="M0 0h24v24H0z"/></clipPath></defs></svg>
