<svg xmlns="http://www.w3.org/2000/svg" fill="none" viewBox="0 0 24 24"><g clip-path="url(#a)"><path fill="currentColor" d="M13.5 11.69a2 2 0 1 1-3 0V7h3zm6.9-5.779a11 11 0 1 1-16.8 0l-.66-.732-.756.757-2.12-2.122 3.75-3.75 2.122 2.122-.869.868.762.846A10.9 10.9 0 0 1 10.5 2.115V0h3v2.115c1.674.226 3.273.837 4.671 1.785l.762-.846-.869-.868L20.186.064l3.75 3.75-2.122 2.122-.756-.757zM20 13a8 8 0 1 0-8 8 8.01 8.01 0 0 0 8-8"/></g><defs><clipPath id="a"><path fill="#fff" d="M0 0h24v24H0z"/></clipPath></defs></svg>
