<svg xmlns="http://www.w3.org/2000/svg" fill="none" viewBox="0 0 24 24"><g clip-path="url(#a)"><path fill="currentColor" d="M24 24H0V3.5A3.5 3.5 0 0 1 3.5 0h17A3.5 3.5 0 0 1 24 3.5zM3 21h18V3.5a.5.5 0 0 0-.5-.5h-17a.5.5 0 0 0-.5.5zm7.5-9a1.5 1.5 0 1 0 3 0 1.5 1.5 0 0 0-3 0M6 7.5a1.5 1.5 0 1 0 3 0 1.5 1.5 0 0 0-3 0m9 0a1.5 1.5 0 1 0 3 0 1.5 1.5 0 0 0-3 0m-9 9a1.5 1.5 0 1 0 3 0 1.5 1.5 0 0 0-3 0m9 0a1.5 1.5 0 1 0 3 0 1.5 1.5 0 0 0-3 0"/></g><defs><clipPath id="a"><path fill="#fff" d="M0 0h24v24H0z"/></clipPath></defs></svg>
