<svg xmlns="http://www.w3.org/2000/svg" fill="none" viewBox="0 0 24 24"><g clip-path="url(#a)"><path fill="currentColor" d="M18.257 15.005a5.7 5.7 0 0 0-4.06 1.681l-3 3A4.47 4.47 0 0 1 8.016 21H3.607a.62.62 0 0 1-.439-1.06l1.3-1.3a4.11 4.11 0 0 0 4.588-.848L13.867 13h.153a6.1 6.1 0 0 0 4.3-1.776l.914-.913a6.07 6.07 0 0 0-.4-8.948 6.244 6.244 0 0 0-8.355.533l-.579.58a6.4 6.4 0 0 0-1.869 4.663l-4.819 4.8a4.115 4.115 0 0 0-.863 4.575l-1.3 1.3A3.62 3.62 0 0 0 3.607 24h4.409a7.45 7.45 0 0 0 5.3-2.194l3-3A2.744 2.744 0 0 1 21 20.744V24h3v-3.256a5.746 5.746 0 0 0-5.743-5.739M12.019 4.6l.578-.578A3.45 3.45 0 0 1 15.021 3a2.9 2.9 0 0 1 1.881.665 3.07 3.07 0 0 1 .207 4.527L16.2 9.1a3.074 3.074 0 0 1-4.538-.2 3.216 3.216 0 0 1 .357-4.3m-6.688 9.47 3.718-3.706q.147.24.317.464c.372.44.804.824 1.284 1.142l-3.712 3.7a1.138 1.138 0 0 1-1.851-.367 1.13 1.13 0 0 1 .245-1.233z"/></g><defs><clipPath id="a"><path fill="#fff" d="M0 0h24v24H0z"/></clipPath></defs></svg>
