<svg xmlns="http://www.w3.org/2000/svg" fill="none" viewBox="0 0 24 24"><g clip-path="url(#a)"><path fill="currentColor" d="M24 10.091 21.794 0H2.206L.036 9.766 0 11.046c.004.98.34 1.928.955 2.69V21a3 3 0 0 0 3 3h16.09a3 3 0 0 0 3-3v-7.264c.614-.762.951-1.71.955-2.69zm-21 .165L4.612 3h2.07v3.272h3V3h4.636v3.272h3V3h2.07L21 10.256v.79a1.365 1.365 0 0 1-1.364 1.363h-.954a1.365 1.365 0 0 1-1.364-1.363h-3a1.364 1.364 0 0 1-1.363 1.363h-1.91a1.364 1.364 0 0 1-1.363-1.363h-3a1.365 1.365 0 0 1-1.364 1.363h-.954A1.365 1.365 0 0 1 3 11.046zM3.955 21v-5.632c.136.013.269.041.409.041h.954a4.33 4.33 0 0 0 2.864-1.1 4.33 4.33 0 0 0 2.863 1.1h1.91c1.053 0 2.07-.38 2.863-1.073a4.35 4.35 0 0 0 2.864 1.073h.954c.14 0 .273-.028.409-.041V21z"/></g><defs><clipPath id="a"><path fill="#fff" d="M0 0h24v24H0z"/></clipPath></defs></svg>
