<svg xmlns="http://www.w3.org/2000/svg" fill="none" viewBox="0 0 24 24"><g fill="currentColor" clip-path="url(#a)"><path d="M12 7.638a4.363 4.363 0 1 0 0 8.726 4.363 4.363 0 0 0 0-8.726m0 5.726a1.363 1.363 0 1 1 0-2.725 1.363 1.363 0 0 1 0 2.725"/><path d="M22 12a9.9 9.9 0 0 0-.7-3.636L23.145 7.3l-1.5-2.6-1.84 1.066A10 10 0 0 0 13.5 2.125V0h-3v2.125a10 10 0 0 0-6.3 3.637L2.358 4.7l-1.5 2.6L2.7 8.359a9.87 9.87 0 0 0 0 7.277L.855 16.7l1.5 2.6 1.839-1.061a10 10 0 0 0 6.306 3.636V24h3v-2.125a10 10 0 0 0 6.3-3.637l1.84 1.063 1.5-2.6-1.84-1.06c.46-1.16.697-2.394.7-3.641m-10 7a7 7 0 1 1 7-7 7.01 7.01 0 0 1-7 7"/></g><defs><clipPath id="a"><path fill="#fff" d="M0 0h24v24H0z"/></clipPath></defs></svg>
