<svg xmlns="http://www.w3.org/2000/svg" fill="none" viewBox="0 0 24 24"><g clip-path="url(#a)"><path fill="currentColor" d="m2.123 24 6.444-6.444 4.9 4.9 1.06-1.06a8.51 8.51 0 0 0 2.185-8.17l3.343-3.355.493.494a2.05 2.05 0 0 0 2.621.292 1.992 1.992 0 0 0 .254-3.026L16.455.641A2.05 2.05 0 0 0 13.834.35a1.99 1.99 0 0 0-.254 3.026l.559.56-3.35 3.365-.064-.02a8.49 8.49 0 0 0-8.114 2.2L1.55 10.537l4.9 4.9L0 21.877zm7.761-13.847 1.733.561 4.64-4.654 1.677 1.681-4.634 4.65.525 1.642a5.48 5.48 0 0 1-.51 4.024l-7.373-7.37a5.4 5.4 0 0 1 3.942-.534"/></g><defs><clipPath id="a"><path fill="#fff" d="M0 0h24v24H0z"/></clipPath></defs></svg>
