<svg xmlns="http://www.w3.org/2000/svg" fill="none" viewBox="0 0 24 24"><g clip-path="url(#a)"><path fill="currentColor" d="M20.682 3.561 18.44 1.319A4.53 4.53 0 0 0 15.258 0H5.5A3.5 3.5 0 0 0 2 3.5V24h20V6.743a4.47 4.47 0 0 0-1.318-3.182M5 21V3.5a.5.5 0 0 1 .5-.5H15v4h4v14zm11-8H8v-3h8zm-2.132 2.023 2.848.946C16.346 17.1 15.176 19 13.135 19a3.7 3.7 0 0 1-2.275-.8 1.4 1.4 0 0 0-.308-.2 3.2 3.2 0 0 0-.8.825l-2.5-1.664C7.59 16.659 8.826 15 10.487 15a3.4 3.4 0 0 1 2.11.756c.3.217.355.244.538.244.204 0 .586-.55.733-.977"/></g><defs><clipPath id="a"><path fill="#fff" d="M0 0h24v24H0z"/></clipPath></defs></svg>
