<svg xmlns="http://www.w3.org/2000/svg" fill="none" viewBox="0 0 24 24"><g fill="currentColor" clip-path="url(#a)"><path d="M13.5 11.281v-.676A6 6 0 0 1 19 7a2 2 0 0 0 0-4 6 6 0 0 0-5.5 3.605V0h-3v6.605A6 6 0 0 0 5 3a2 2 0 1 0 0 4 6 6 0 0 1 5.5 3.605v.676A34.3 34.3 0 0 0 1.5 10H0v1.5C0 22.376 4.528 24 7.227 24a5.5 5.5 0 0 0 3.245-1.27c.426-.39.958-.644 1.528-.73a2.9 2.9 0 0 1 1.527.729A5.5 5.5 0 0 0 16.772 24C19.472 24 24 22.376 24 11.5V10h-1.5a34.3 34.3 0 0 0-9 1.281M16.772 21a2.9 2.9 0 0 1-1.527-.729A5.5 5.5 0 0 0 12 19c-1.19.06-2.33.506-3.245 1.27-.426.39-.957.644-1.528.73-3.182 0-4.022-4.456-4.191-7.955a31.6 31.6 0 0 1 8.427 1.689l.538.2.536-.2a31.6 31.6 0 0 1 8.427-1.689C20.8 16.544 19.955 21 16.772 21"/><path d="M18.686 15.37a28.6 28.6 0 0 0-5.21 1.348l-.8.315c1.858.182 3.075 1.717 4.053 1.967 1.28.328 1.564-1.287 1.957-3.63M5.314 15.37c.393 2.343.677 3.958 1.958 3.63.978-.25 2.2-1.785 4.053-1.967l-.8-.315a28.6 28.6 0 0 0-5.21-1.347"/></g><defs><clipPath id="a"><path fill="#fff" d="M0 0h24v24H0z"/></clipPath></defs></svg>
