<svg xmlns="http://www.w3.org/2000/svg" fill="none" viewBox="0 0 24 24"><g clip-path="url(#a)"><path fill="currentColor" d="M24 19h-8.85a3.5 3.5 0 0 0-1.65-1.65V14h2.25a5.25 5.25 0 0 0 .884-10.426A5.49 5.49 0 0 0 6.006 5.255 4.5 4.5 0 0 0 7.5 14h3v3.35A3.5 3.5 0 0 0 8.85 19H0v3h8.85a3.48 3.48 0 0 0 6.3 0H24zM6 9.5A1.5 1.5 0 0 1 7.438 8l2.181.112A20.5 20.5 0 0 1 9 5.5a2.49 2.49 0 0 1 4.964-.293l.169 1.431q.822-.125 1.655-.138a2.25 2.25 0 0 1-.038 4.5H7.5A1.5 1.5 0 0 1 6 9.5"/></g><defs><clipPath id="a"><path fill="#fff" d="M0 0h24v24H0z"/></clipPath></defs></svg>
