<svg xmlns="http://www.w3.org/2000/svg" fill="none" viewBox="0 0 24 24"><g clip-path="url(#a)"><path fill="currentColor" d="M22.692 7.447 14.1.725a3.4 3.4 0 0 0-4.2 0L1.308 7.447A3.39 3.39 0 0 0 0 10.132V24h24V10.132a3.39 3.39 0 0 0-1.308-2.685M21 21H3V10.132a.41.41 0 0 1 .157-.322l8.591-6.723a.41.41 0 0 1 .5 0l8.595 6.723a.41.41 0 0 1 .157.322zM12 8a5 5 0 0 0-3.523 8.547L12 19.994l3.535-3.458A5 5 0 0 0 12 8m0 7a2 2 0 1 1 0-4 2 2 0 0 1 0 4"/></g><defs><clipPath id="a"><path fill="#fff" d="M0 0h24v24H0z"/></clipPath></defs></svg>
