<svg xmlns="http://www.w3.org/2000/svg" fill="none" viewBox="0 0 24 24"><g clip-path="url(#a)"><path fill="currentColor" d="M23.268.734A2.49 2.49 0 0 0 20.961.06L16.99 1.355 5.422 12.923a15 15 0 0 0-4.21-1.407l-.429 2.969c1.674.317 3.264.98 4.668 1.944l-2.244 2.244-1.055-1.055-2.12 2.12 4.24 4.242 2.12-2.121-1.064-1.065 2.243-2.243a12.3 12.3 0 0 1 1.945 4.667l2.97-.43a15 15 0 0 0-1.408-4.208L22.646 7.013l1.295-3.973a2.49 2.49 0 0 0-.673-2.306M20.018 5.4 9.4 16.016q-.313-.379-.673-.743a11 11 0 0 0-.74-.672L18.6 3.98l2.1-.688z"/></g><defs><clipPath id="a"><path fill="#fff" d="M0 0h24v24H0z"/></clipPath></defs></svg>
