<svg xmlns="http://www.w3.org/2000/svg" fill="none" viewBox="0 0 24 24"><g fill="currentColor" clip-path="url(#a)"><path d="M10 9H7v9h3zM17 12h-3v6h3zM24 8h-3v10h3zM16.128 8.033c-.6 0-1.176-.239-1.6-.663l-4.156-4.152L8.3 5.3 6.174 3.174 8.77.579a2.32 2.32 0 0 1 3.207 0l4.152 4.151L20.44.419l2.122 2.122-4.83 4.829a2.26 2.26 0 0 1-1.603.663"/><path d="M24 24H3.5A3.5 3.5 0 0 1 0 20.5V0h3v20.5a.5.5 0 0 0 .5.5H24z"/></g><defs><clipPath id="a"><path fill="#fff" d="M0 0h24v24H0z"/></clipPath></defs></svg>
