<svg xmlns="http://www.w3.org/2000/svg" fill="none" viewBox="0 0 24 24"><g fill="currentColor" clip-path="url(#a)"><path d="M7.253 24a7.251 7.251 0 0 1-5.129-12.38l4.067-4.07 2.122 2.12-4.067 4.071a4.253 4.253 0 1 0 6.016 6.014l4.068-4.068 2.121 2.121-4.068 4.068A7.23 7.23 0 0 1 7.253 24M17.808 16.452l-2.12-2.12 4.067-4.069a4.254 4.254 0 0 0-6.015-6.017L9.67 8.314 7.547 6.192l4.071-4.068a7.254 7.254 0 0 1 10.257 10.26z"/><path d="M14.33 7.55 7.548 14.33l2.122 2.121 6.781-6.781z"/></g><defs><clipPath id="a"><path fill="#fff" d="M0 0h24v24H0z"/></clipPath></defs></svg>
