<svg xmlns="http://www.w3.org/2000/svg" fill="none" viewBox="0 0 24 24"><g clip-path="url(#a)"><path fill="currentColor" d="M14.447 4.326 1.149 17.3A3.924 3.924 0 0 0 3.924 24a3.9 3.9 0 0 0 2.762-1.136L20 9.875zm1.28 5.523-2.607 2.545-1.307-1.307 2.608-2.545zm-11.15 10.88a.943.943 0 0 1-1.306 0 .924.924 0 0 1-.014-1.293l6.409-6.254 1.307 1.307zm16.756-5.062L24 17l-2.667 1.333L20 21l-1.333-2.667L16 17l2.667-1.333L20 13zM5.667 5.333 3 4l2.667-1.333L7 0l1.333 2.667L11 4 8.333 5.333 7 8zm13.666-.666L17 3.5l2.333-1.167L20.5 0l1.167 2.333L24 3.5l-2.333 1.167L20.5 7z"/></g><defs><clipPath id="a"><path fill="#fff" d="M0 0h24v24H0z"/></clipPath></defs></svg>
