<svg xmlns="http://www.w3.org/2000/svg" fill="none" viewBox="0 0 24 24"><g fill="currentColor" clip-path="url(#a)"><path d="M9.5 13a1.5 1.5 0 1 0 0-3 1.5 1.5 0 0 0 0 3M14.5 13a1.5 1.5 0 1 0 0-3 1.5 1.5 0 0 0 0 3"/><path d="M24 11a3.99 3.99 0 0 0-2.64-3.767A9.73 9.73 0 0 0 12.444.019V0c-.042 0-.082.012-.124.014C12.212.01 12.107 0 12 0a9.73 9.73 0 0 0-9.36 7.233 4 4 0 0 0 .983 7.749c.226.603.516 1.18.866 1.72A4.98 4.98 0 0 0 1.999 21v3h3v-3a1.994 1.994 0 0 1 1.63-1.949A8.77 8.77 0 0 0 12 21a8.78 8.78 0 0 0 5.386-1.961A2 2 0 0 1 19 21v3h3v-3a4.98 4.98 0 0 0-2.49-4.3c.35-.54.64-1.117.867-1.72A4.006 4.006 0 0 0 24 11m-5.961 1-.255 1.186A6.26 6.26 0 0 1 12 18a6.26 6.26 0 0 1-5.784-4.814L5.96 12H4a1 1 0 1 1-.034-2l1.252-.045.182-1.241a6.66 6.66 0 0 1 2.62-4.378c0 .055-.016.108-.016.164a4.5 4.5 0 0 0 7.683 3.182L13.56 5.561a1.535 1.535 0 0 1-2.121 0 1.485 1.485 0 0 1 .955-2.542 6.7 6.7 0 0 1 6.21 5.7l.178 1.24 1.252.041A1 1 0 1 1 20 12z"/></g><defs><clipPath id="a"><path fill="#fff" d="M0 0h24v24H0z"/></clipPath></defs></svg>
