<svg xmlns="http://www.w3.org/2000/svg" fill="none" viewBox="0 0 24 24"><g clip-path="url(#a)"><path fill="currentColor" d="M12 0a12 12 0 1 0 12 12A12.013 12.013 0 0 0 12 0M3 12c0-1.876.59-3.705 1.688-5.227.501.46.934.99 1.284 1.573l-1.03.307.858 2.875 1.15-.342q.048.405.05.814a7 7 0 0 1-.05.814l-1.15-.342-.858 2.875 1.03.307a7 7 0 0 1-1.284 1.573A8.94 8.94 0 0 1 3 12m3.81 7.34a10.1 10.1 0 0 0 2.1-2.809l1.517.452.857-2.875-1.445-.431q.15-.831.161-1.677a10 10 0 0 0-.157-1.677l1.445-.431-.857-2.875-1.517.452A10.1 10.1 0 0 0 6.81 4.66a8.94 8.94 0 0 1 10.38 0 10.1 10.1 0 0 0-2.1 2.809l-1.517-.452-.857 2.875 1.445.431q-.15.831-.161 1.677.008.845.157 1.677l-1.445.431.857 2.875 1.517-.452a10.1 10.1 0 0 0 2.1 2.809 8.94 8.94 0 0 1-10.38 0zm12.5-2.113a7 7 0 0 1-1.284-1.573l1.03-.307-.856-2.875-1.15.342a6.7 6.7 0 0 1 0-1.628l1.15.342.858-2.875-1.03-.307a7 7 0 0 1 1.284-1.573 8.94 8.94 0 0 1 0 10.454z"/></g><defs><clipPath id="a"><path fill="#fff" d="M0 0h24v24H0z"/></clipPath></defs></svg>
