<svg xmlns="http://www.w3.org/2000/svg" fill="none" viewBox="0 0 24 24"><g clip-path="url(#a)"><path fill="currentColor" d="M21.5 0h-3.306a3.48 3.48 0 0 0-2.474 1.025L8.712 8.033A8 8 0 1 0 15.7 18.166c.27-.952.36-1.946.264-2.931L17 14.072V12h3V9h1.96l1.015-.72A3.48 3.48 0 0 0 24 5.806V2.5A2.5 2.5 0 0 0 21.5 0M21 5.806a.5.5 0 0 1-.04.194H17v3h-3v3.928l-1.32 1.359c.207.547.315 1.127.32 1.713a5 5 0 1 1-5-5c.573.005 1.14.11 1.678.31l8.163-8.164A.5.5 0 0 1 18.194 3H21zM5 17.5a1.5 1.5 0 1 0 3 0 1.5 1.5 0 0 0-3 0"/></g><defs><clipPath id="a"><path fill="#fff" d="M0 0h24v24H0z"/></clipPath></defs></svg>
