<svg xmlns="http://www.w3.org/2000/svg" fill="none" viewBox="0 0 24 24"><g clip-path="url(#a)"><path fill="currentColor" d="M24 10h-3a7.01 7.01 0 0 0-7-7V0a10.01 10.01 0 0 1 10 10M14 5v3a2 2 0 0 1 2 2h3a5.006 5.006 0 0 0-5-5m6.265 17.235 3.645-3.645-6.641-6.642-2.969 2.975a10.7 10.7 0 0 1-5.212-5.229l2.964-2.963L5.41.09 1.766 3.734A6.06 6.06 0 0 0 0 8.058C0 15.209 8.791 24 15.942 24a6.05 6.05 0 0 0 4.323-1.765M7.809 6.731 5.541 9l.369.919a13.94 13.94 0 0 0 8.2 8.182l.908.346 2.255-2.256 2.4 2.4-1.524 1.525a3.08 3.08 0 0 1-2.2.885C10.949 21 3 13.934 3 8.058a3.08 3.08 0 0 1 .886-2.2L5.41 4.332z"/></g><defs><clipPath id="a"><path fill="#fff" d="M0 0h24v24H0z"/></clipPath></defs></svg>
