<svg xmlns="http://www.w3.org/2000/svg" fill="none" viewBox="0 0 24 24"><g fill="currentColor" clip-path="url(#a)"><path d="M22 15.5a3.495 3.495 0 0 0-3-3.449V10.5a3.5 3.5 0 0 0-2.678-3.392l-.661-3.3A1 1 0 0 0 14.68 3h-.36a1 1 0 0 0-.981.8L12.7 7h-1.95l.75-3a1 1 0 0 0-1-1h-2a1 1 0 0 0-1 1l.756 3.025A3.493 3.493 0 0 0 5 10.5v1.551A3.494 3.494 0 0 0 2 15.5V21H0v3h24v-3h-2zM8.5 10h7a.5.5 0 0 1 .5.5V12H8v-1.5a.5.5 0 0 1 .5-.5M5 17.666c.411.216.868.33 1.333.334a2.765 2.765 0 0 0 2.834-2.5A2.78 2.78 0 0 0 12 18a2.764 2.764 0 0 0 2.833-2.5 2.78 2.78 0 0 0 2.834 2.5A2.9 2.9 0 0 0 19 17.666V21H5z"/><path d="M9.5 3a1.5 1.5 0 1 0 0-3 1.5 1.5 0 0 0 0 3M14.5 3a1.5 1.5 0 1 0 0-3 1.5 1.5 0 0 0 0 3"/></g><defs><clipPath id="a"><path fill="#fff" d="M0 0h24v24H0z"/></clipPath></defs></svg>
