<svg xmlns="http://www.w3.org/2000/svg" fill="none" viewBox="0 0 24 24"><g clip-path="url(#a)"><path fill="currentColor" d="M15.942 24C8.791 24 0 15.209 0 8.058a6.06 6.06 0 0 1 1.766-4.324L5.41.09l6.642 6.641L9.089 9.7a10.7 10.7 0 0 0 5.211 5.222l2.974-2.973 6.636 6.641-3.645 3.645A6.06 6.06 0 0 1 15.942 24M5.41 4.333 3.886 5.856A3.08 3.08 0 0 0 3 8.058C3 13.933 10.949 21 15.942 21a3.08 3.08 0 0 0 2.2-.885l1.525-1.525-2.4-2.4-2.255 2.255-.909-.347a13.94 13.94 0 0 1-8.192-8.18L5.542 9 7.81 6.731zm6.824-.248a5.49 5.49 0 0 1 7.681 7.681l2.139 2.14a8.5 8.5 0 0 0-11.96-11.96zm4.205 7.354L14 9V5h3v2.758l1.561 1.56z"/></g><defs><clipPath id="a"><path fill="#fff" d="M0 0h24v24H0z"/></clipPath></defs></svg>
