<svg xmlns="http://www.w3.org/2000/svg" fill="none" viewBox="0 0 24 24"><g clip-path="url(#a)"><path fill="currentColor" d="M17.728 0c-1.33-.001-2.65.215-3.91.64A6 6 0 0 1 12 1a6 6 0 0 1-1.82-.36A12.2 12.2 0 0 0 6.272 0 6.1 6.1 0 0 0 0 6.272c0 6.29 3.175 12.39 5.94 17l.438.728H11v-9a1 1 0 0 1 2 0v9h4.622l.437-.73c2.766-4.607 5.94-10.705 5.94-16.998A6.1 6.1 0 0 0 17.729 0M16 20.86V15a4 4 0 1 0-8 0v5.86c-2.431-4.154-5-9.4-5-14.588A3.125 3.125 0 0 1 6.272 3c1.033-.001 2.06.172 3.036.51.866.305 1.774.47 2.692.49a8.7 8.7 0 0 0 2.69-.49A9.2 9.2 0 0 1 17.729 3 3.12 3.12 0 0 1 21 6.272c0 5.188-2.57 10.435-5 14.589"/></g><defs><clipPath id="a"><path fill="#fff" d="M0 0h24v24H0z"/></clipPath></defs></svg>
