<svg xmlns="http://www.w3.org/2000/svg" fill="none" viewBox="0 0 24 24"><g clip-path="url(#a)"><path fill="currentColor" d="M24 13.5v-3h-4.146a7.9 7.9 0 0 0-1.24-2.993l2.932-2.932-2.121-2.121-2.932 2.932a7.9 7.9 0 0 0-2.993-1.24V0h-3v4.146a7.9 7.9 0 0 0-2.993 1.24L4.575 2.454 2.454 4.575l2.932 2.932a7.9 7.9 0 0 0-1.24 2.993H0v3h4.146a7.9 7.9 0 0 0 1.24 2.993l-2.932 2.932 2.121 2.121 2.932-2.932a7.9 7.9 0 0 0 2.993 1.24V24h3v-4.146a7.9 7.9 0 0 0 2.993-1.24l2.932 2.932 2.121-2.121-2.932-2.932a7.9 7.9 0 0 0 1.24-2.993zM12 17c-6.608-.21-6.606-9.791 0-10 6.608.21 6.606 9.791 0 10"/></g><defs><clipPath id="a"><path fill="#fff" d="M0 0h24v24H0z"/></clipPath></defs></svg>
