<svg xmlns="http://www.w3.org/2000/svg" fill="none" viewBox="0 0 24 24"><g clip-path="url(#a)"><path fill="currentColor" d="M12.014 23.666a2.52 2.52 0 0 1-1.675-.636L6.741 20H0V3.5A3.5 3.5 0 0 1 3.5 0h17A3.5 3.5 0 0 1 24 3.5V20h-6.672l-3.708 3.065a2.4 2.4 0 0 1-1.606.601M3 17h4.836L12 20.511 16.248 17H21V3.5a.5.5 0 0 0-.5-.5h-17a.5.5 0 0 0-.5.5zm9-7a2.5 2.5 0 1 0 0-5 2.5 2.5 0 0 0 0 5m-4 3v2h8v-2a2 2 0 0 0-2-2h-4a2 2 0 0 0-2 2"/></g><defs><clipPath id="a"><path fill="#fff" d="M0 0h24v24H0z"/></clipPath></defs></svg>
