<svg xmlns="http://www.w3.org/2000/svg" fill="none" viewBox="0 0 24 24"><g clip-path="url(#a)"><path fill="currentColor" d="m23.136 13.153-4.176 1.133L17 13.163v-2.276l1.957-1.122 4.179 1.134.785-2.9-3.33-.9.9-3.328-2.891-.786-1.134 4.177-1.866 1.07-2.1-1.212v-1.8l3.06-3.061L14.44.042l-2.44 2.439L9.562.04 7.439 2.164l3.06 3.06v1.8l-2.1 1.21-1.865-1.07L5.4 2.984l-2.894.787.9 3.329L.079 8l.785 2.9 4.179-1.135L7 10.888v2.275l-1.96 1.124-4.176-1.133-.785 2.894 3.329.9-.9 3.33 2.894.785 1.134-4.177 2.034-1.164 1.93 1.114v1.94l-3.061 3.062 2.122 2.12L12 21.519l2.439 2.44 2.122-2.121-3.061-3.061v-1.94l1.93-1.114 2.036 1.167 1.134 4.177 2.894-.785-.9-3.33 3.329-.9zM14 13.083l-2 1.153-2-1.154v-2.31l2-1.154 2 1.155z"/></g><defs><clipPath id="a"><path fill="#fff" d="M0 0h24v24H0z"/></clipPath></defs></svg>
