<svg xmlns="http://www.w3.org/2000/svg" fill="none" viewBox="0 0 24 24"><g clip-path="url(#a)"><path fill="currentColor" d="M20.389 3.3a3.51 3.51 0 0 0-3.29-2.3H6.9a3.49 3.49 0 0 0-3.271 2.263L1.468 8.7A24.3 24.3 0 0 0 0 17.032V20h3v3h4v-3h10v3h4v-3h3v-2.968a24.4 24.4 0 0 0-1.484-8.375zm-3.39 12.2a1.5 1.5 0 1 1 3.001 0 1.5 1.5 0 0 1-3 0M4.272 9.765l2.16-5.436A.5.5 0 0 1 6.9 4h10.2a.52.52 0 0 1 .485.37l2.128 5.354c.153.421.285.847.406 1.276H3.878c.122-.416.246-.829.393-1.235M5.5 17a1.5 1.5 0 1 1 0-3 1.5 1.5 0 0 1 0 3"/></g><defs><clipPath id="a"><path fill="#fff" d="M0 0h24v24H0z"/></clipPath></defs></svg>
