<svg xmlns="http://www.w3.org/2000/svg" fill="none" viewBox="0 0 24 24"><g clip-path="url(#a)"><path fill="currentColor" d="M10.257 5.723V4.25h.715a.735.735 0 0 1 0 1.47zM24 3v14.471L17.471 24H0V3a3 3 0 0 1 3-3h18a3 3 0 0 1 3 3M14 7.084a1.993 1.993 0 0 0 2 1.985 2 2 0 0 0 2-1.984V6h-2v1h.749v.084a.76.76 0 0 1-1.038.68.74.74 0 0 1-.461-.696V5a.742.742 0 0 1 1.274-.524c.14.14.22.327.226.524H18a2.013 2.013 0 0 0-2-2 1.99 1.99 0 0 0-2 1.985zM9 9.069h1.25v-2.1h.717a1.985 1.985 0 1 0 0-3.97H9zM4 7.084a2 2 0 0 0 2 1.984 1.99 1.99 0 0 0 2-1.984V3H6.75v4.068a.74.74 0 0 1-.75.751.76.76 0 0 1-.75-.735V7H4zM21 11H3v10h12v-6h6z"/></g><defs><clipPath id="a"><path fill="#fff" d="M0 0h24v24H0z"/></clipPath></defs></svg>
