<svg xmlns="http://www.w3.org/2000/svg" fill="none" viewBox="0 0 24 24"><g clip-path="url(#a)"><path fill="currentColor" d="M21 15h3v9H0V6.5A3.5 3.5 0 0 1 3.5 3H13v3H3.5a.5.5 0 0 0-.5.5v.46l7.361 7.361a2.373 2.373 0 0 0 3.278 0l.327-.327A3.34 3.34 0 0 0 16.356 15h.847l-1.443 1.442a5.32 5.32 0 0 1-7.521 0L3 11.2V21h18zM15 0v11.647a1.351 1.351 0 0 0 2.193 1.053l2.307-1.844 2.307 1.844A1.35 1.35 0 0 0 24 11.647V0z"/></g><defs><clipPath id="a"><path fill="#fff" d="M0 0h24v24H0z"/></clipPath></defs></svg>
