<svg xmlns="http://www.w3.org/2000/svg" fill="none" viewBox="0 0 24 24"><path fill="currentColor" d="M13.5 18h-3v-3h3zm-.543 5.555C15.077 22.7 22 19.345 22 11.975V5.813A3.38 3.38 0 0 0 19.679 2.6L11.999.054 4.322 2.599A3.38 3.38 0 0 0 2 5.813v6.162c0 6.515 6.85 10.449 8.953 11.5l.983.488zm5.777-18.107a.38.38 0 0 1 .266.364v6.163c0 5.26-5.034 7.9-6.932 8.7-1.926-1-7.068-4.1-7.068-8.7V5.813a.38.38 0 0 1 .266-.365L12 3.214zm-5.055 7.182a4 4 0 1 0-4.127-6.794A3.97 3.97 0 0 0 8 9h3a1 1 0 0 1 .819-.983c.156-.03.317-.022.47.021a.98.98 0 0 1 .67.672 1 1 0 0 1-.542 1.2 3.42 3.42 0 0 0-1.92 3.12h3a.45.45 0 0 1 .182-.399"/></svg>
