<svg xmlns="http://www.w3.org/2000/svg" fill="none" viewBox="0 0 24 24"><g clip-path="url(#a)"><path fill="currentColor" d="M16 24H8v-4.663l-3.64 2.345-4.333-6.724L4.617 12 .027 9.042 4.36 2.318 8 4.663V0h8v4.663l3.639-2.345 4.334 6.724L19.383 12l4.59 2.958-4.334 6.724-3.64-2.345zm-5-3h2v-7.166l5.742 3.7 1.084-1.682L13.846 12l5.98-3.854-1.084-1.682L13 10.166V3h-2v7.166l-5.742-3.7-1.084 1.68L10.154 12l-5.98 3.854 1.084 1.682L11 13.834z"/></g><defs><clipPath id="a"><path fill="#fff" d="M0 0h24v24H0z"/></clipPath></defs></svg>
