<svg xmlns="http://www.w3.org/2000/svg" fill="none" viewBox="0 0 24 24"><g clip-path="url(#a)"><path fill="currentColor" d="M1.783 5.407.217 2.849 4.717.1l1.566 2.553zm19.6 12.305-2.777 4.5 2.553 1.576 2.777-4.5zm-.476-2.926-4.691 7.607a3.27 3.27 0 0 1-2.42 1.58 3.29 3.29 0 0 1-2.766-.945l-1.085-1.083a4.172 4.172 0 0 1-5.89-5.891L.973 12.968a3.318 3.318 0 0 1 .513-5.11l7.392-4.522a8.49 8.49 0 0 1 9.46.205l1.977-1.977 2.122 2.122-1.976 1.975a8.59 8.59 0 0 1 .445 9.125zm-3.52-8.145a5.53 5.53 0 0 0-6.92-.76L3.1 10.389a.3.3 0 0 0-.1.2.31.31 0 0 0 .09.255l10.057 10.06a.3.3 0 0 0 .264.09.3.3 0 0 0 .23-.152l4.68-7.584a5.56 5.56 0 0 0-.936-6.617z"/></g><defs><clipPath id="a"><path fill="#fff" d="M0 0h24v24H0z"/></clipPath></defs></svg>
