<svg xmlns="http://www.w3.org/2000/svg" fill="none" viewBox="0 0 24 24"><g fill="currentColor" clip-path="url(#a)"><path d="M10.984 5.716a.735.735 0 1 0 0-1.47h-.715V5.72z"/><path d="M21 0H3a3 3 0 0 0-3 3v21h17.471L24 17.471V3a3 3 0 0 0-3-3m-4.741 6.62c-.752-.277-1.43-.58-1.43-.58a1.57 1.57 0 0 1-.777-1.579 1.71 1.71 0 0 1 1.239-1.38 2.81 2.81 0 0 1 2.452.537l.479.4-.8.956-.475-.4a1.57 1.57 0 0 0-1.29-.3.46.46 0 0 0-.363.361.3.3 0 0 0 .13.3c.016 0 .614.263 1.273.507A1.827 1.827 0 0 1 18.1 7.461a2 2 0 0 1-2.04 1.552 2.87 2.87 0 0 1-2.13-.913l-.42-.462.926-.841.42.463a1.64 1.64 0 0 0 1.2.5.78.78 0 0 0 .809-.521c.066-.339-.447-.56-.606-.619M9.017 3h1.967a1.985 1.985 0 1 1 0 3.97h-.717v2.1h-1.25zM4 3h3.261v1.25H5.248v1.134h1.864v1.25H5.248v1.137h2.013v1.25H4zm17 12h-6v6H3V11h18z"/></g><defs><clipPath id="a"><path fill="#fff" d="M0 0h24v24H0z"/></clipPath></defs></svg>
