<svg xmlns="http://www.w3.org/2000/svg" fill="none" viewBox="0 0 24 24"><g fill="currentColor" clip-path="url(#a)"><path d="m4 24 1.333-2.667L8 20l-2.667-1.333L4 16l-1.333 2.667L0 20l2.667 1.333zM20 16l-1.333 2.667L16 20l2.667 1.333L20 24l1.333-2.667L24 20l-2.667-1.333zM13.333 2.667 12 0l-1.333 2.667L8 4l2.667 1.333L12 8l1.333-2.667L16 4zM5.5 15a1.5 1.5 0 1 0 0-3 1.5 1.5 0 0 0 0 3M1.5 11a1.5 1.5 0 1 0 0-3 1.5 1.5 0 0 0 0 3M5.5 7a1.5 1.5 0 1 0 0-3 1.5 1.5 0 0 0 0 3M1.5 3a1.5 1.5 0 1 0 0-3 1.5 1.5 0 0 0 0 3M22.5 15a1.5 1.5 0 1 0 0-3 1.5 1.5 0 0 0 0 3M18.5 11a1.5 1.5 0 1 0 0-3 1.5 1.5 0 0 0 0 3M22.5 7a1.5 1.5 0 1 0 0-3 1.5 1.5 0 0 0 0 3M18.5 3a1.5 1.5 0 1 0 0-3 1.5 1.5 0 0 0 0 3M14.5 24a1.5 1.5 0 1 0 0-3 1.5 1.5 0 0 0 0 3M10.5 20a1.5 1.5 0 1 0 0-3 1.5 1.5 0 0 0 0 3M14.5 16a1.5 1.5 0 1 0 0-3 1.5 1.5 0 0 0 0 3M10.5 12a1.5 1.5 0 1 0 0-3 1.5 1.5 0 0 0 0 3"/></g><defs><clipPath id="a"><path fill="#fff" d="M0 0h24v24H0z"/></clipPath></defs></svg>
