<svg xmlns="http://www.w3.org/2000/svg" fill="none" viewBox="0 0 24 24"><g fill="currentColor" clip-path="url(#a)"><path d="M15 15.626a4.25 4.25 0 1 0-8.5 0V16h3v-.375a1.25 1.25 0 1 1 2.5 0c0 .625-1.192 1.519-2.15 2.237C8.28 19.04 6.5 20.376 6.5 22.5A1.5 1.5 0 0 0 8 24h7v-3h-4.3c.31-.254.645-.5.955-.737C13.22 19.086 15 17.75 15 15.626M21 12v5h-.75A1.25 1.25 0 0 1 19 15.75V12h-3v3.75A4.255 4.255 0 0 0 20.25 20H21v4h3V12z"/><path d="M20.471 3.53a11.978 11.978 0 0 0-18.64 14.812l2.192-2.193A8.984 8.984 0 0 1 12 3a9.02 9.02 0 0 1 6.353 2.647L16 8h5.91A1.09 1.09 0 0 0 23 6.91V1z"/></g><defs><clipPath id="a"><path fill="#fff" d="M0 0h24v24H0z"/></clipPath></defs></svg>
