<svg xmlns="http://www.w3.org/2000/svg" fill="none" viewBox="0 0 24 24"><g clip-path="url(#a)"><path fill="currentColor" d="m15.446 6.7-1.542.89a4.5 4.5 0 0 0-1.4-.815V5h-3v1.776c-.512.184-.987.46-1.4.815l-1.55-.89-1.5 2.6 1.53.882c-.111.54-.111 1.097 0 1.636l-1.53.881 1.5 2.6 1.542-.89c.413.355.888.631 1.4.815V17h3v-1.776c.513-.184.987-.46 1.4-.815l1.542.89 1.5-2.6-1.529-.883c.11-.54.11-1.096 0-1.636l1.537-.88zM11 12.5a1.5 1.5 0 1 1 0-3 1.5 1.5 0 0 1 0 3m12.871-.108c-.223-.5-.446-1.017-.669-1.53a31 31 0 0 0-3.32-6.425A11.041 11.041 0 0 0 .39 8.1a10.94 10.94 0 0 0 2.261 9.961c.225.267.349.605.35.954V24h14v-3h.893a3.514 3.514 0 0 0 3.467-3.022l.34-2.478H24v-2.817zm-4.785.108-.7 5.068a.5.5 0 0 1-.5.432H14v3H6v-1.985a4.5 4.5 0 0 0-1.047-2.877 7.98 7.98 0 0 1-1.668-7.26 8.045 8.045 0 0 1 14.231-2.6 30.4 30.4 0 0 1 2.934 5.777l.193.444z"/></g><defs><clipPath id="a"><path fill="#fff" d="M0 0h24v24H0z"/></clipPath></defs></svg>
