<svg xmlns="http://www.w3.org/2000/svg" fill="none" viewBox="0 0 24 24"><g fill="currentColor" clip-path="url(#a)"><path d="M11 15a2 2 0 1 0 0-4 2 2 0 0 0 0 4M7.301 14.2 5.18 16.32l2.5 2.5 2.121-2.12z"/><path d="M23.38.621a2.12 2.12 0 0 0-3 0L18 3.001v.955l-2.167 2.136a6.07 6.07 0 0 0-7.614.538 5.7 5.7 0 0 0-.995 1.364A6.95 6.95 0 0 0 2.106 9.93c-3 3-2.756 8.125.541 11.423a8.84 8.84 0 0 0 6.208 2.641 7.3 7.3 0 0 0 5.215-2.1 6.96 6.96 0 0 0 1.936-5.128 5.3 5.3 0 0 0 1.364-.985 6.06 6.06 0 0 0 .573-7.557L20.2 6h.8l2.38-2.379a2.12 2.12 0 0 0 0-3m-8.13 13.04q-.275.269-.62.44A2.68 2.68 0 0 0 13 16.5a4.23 4.23 0 0 1-1.052 3.272c-1.83 1.83-5.053 1.587-7.18-.54-2.127-2.129-2.372-5.35-.54-7.18a4.1 4.1 0 0 1 3.01-1.058q.13-.001.263.005a2.69 2.69 0 0 0 2.4-1.628 2.4 2.4 0 0 1 .44-.62 2.935 2.935 0 0 1 3.26-.459L12.575 9.3l2.106 2.136 1.034-1.02a2.93 2.93 0 0 1-.466 3.244"/></g><defs><clipPath id="a"><path fill="#fff" d="M0 0h24v24H0z"/></clipPath></defs></svg>
