<svg xmlns="http://www.w3.org/2000/svg" fill="none" viewBox="0 0 24 24"><g clip-path="url(#a)"><path fill="currentColor" d="M8 9V6h8v3zm13.814 14.936-2.514-2.52A4.93 4.93 0 0 1 17 22a4.999 4.999 0 1 1 5-5 4.93 4.93 0 0 1-.584 2.3l2.52 2.519zM19 17a2 2 0 1 0-4 0 2 2 0 0 0 4 0m-8.921 4h-4.58a.5.5 0 0 1-.5-.5v-17a.5.5 0 0 1 .5-.5H19v6.262a8 8 0 0 1 3 1.5V0H5.5A3.5 3.5 0 0 0 2 3.5v17A3.5 3.5 0 0 0 5.5 24h7.63a8.03 8.03 0 0 1-3.05-3"/></g><defs><clipPath id="a"><path fill="#fff" d="M0 0h24v24H0z"/></clipPath></defs></svg>
