<svg xmlns="http://www.w3.org/2000/svg" fill="none" viewBox="0 0 24 24"><g clip-path="url(#a)"><path fill="currentColor" d="M16.514 4.213c-1.122-.953-2.282-1.937-3.446-3.1L12 .048l-1.059 1.066a14.4 14.4 0 0 0-3.317 6.1c-.015-.052-.029-.1-.043-.157L6.947 4.6 5.1 6.334c-1.855 1.739-3.569 3.82-3.57 7.246A10.376 10.376 0 0 0 9.3 23.71c.88.224 1.783.337 2.69.338a10.465 10.465 0 0 0 10.48-10.466c0-4.312-2.761-6.656-5.956-9.37m.069 15.26c-.109.085-.225.155-.337.233.23-.556.35-1.152.35-1.753 0-2.54-2.3-3.552-4.6-5.85-2.507 2.507-4.6 3.31-4.6 5.85.005.637.142 1.266.404 1.847a7.47 7.47 0 0 1-3.264-6.22 5.46 5.46 0 0 1 1.137-3.45q.163.259.346.5a2.25 2.25 0 0 0 2.32.855A2.31 2.31 0 0 0 10.1 9.7a15.8 15.8 0 0 1 2.043-5.316c.844.776 1.67 1.477 2.426 2.12 3.218 2.73 4.9 4.287 4.9 7.078a7.42 7.42 0 0 1-2.886 5.892"/></g><defs><clipPath id="a"><path fill="#fff" d="M0 0h24v24H0z"/></clipPath></defs></svg>
