<svg xmlns="http://www.w3.org/2000/svg" fill="none" viewBox="0 0 24 24"><g clip-path="url(#a)"><path fill="currentColor" d="M.4 10.513a2.99 2.99 0 0 0 .026 3c2.16 3.61 8.114 6.567 10.274 7.55A4.6 4.6 0 0 0 9 24h6a4.6 4.6 0 0 0-1.694-2.937l.138-.063H16a2 2 0 0 1 2 2h3a4.99 4.99 0 0 0-2.886-4.514 16.9 16.9 0 0 0 5.469-4.975 2.99 2.99 0 0 0-1.12-4.13c.53-1.957.685-3.997.455-6.011l-.145-1.67-1.645.33c-1.031.208-4.221.94-5.765 2.28a23.4 23.4 0 0 0-2.221-3.077L12-.108l-1.142 1.34a23.4 23.4 0 0 0-2.221 3.077C7.094 2.969 3.9 2.237 2.872 2.029l-1.645-.33-.145 1.67a16 16 0 0 0 .454 6.012A3 3 0 0 0 .4 10.513m15.13 6.02c.31-.809.469-1.667.47-2.533h-3a4.82 4.82 0 0 1-1 2.789 4.8 4.8 0 0 1-1-2.79H8c.003.866.163 1.723.472 2.53C6.274 15.252 3.95 13.608 2.95 12h18.036c-.98 1.625-3.28 3.263-5.461 4.535zm5.48-4.558 1.289.768zM17.3 6.6A7.55 7.55 0 0 1 20 5.4a7.9 7.9 0 0 1-.377 3.007 1.437 1.437 0 0 1-2.034.3 1.524 1.524 0 0 1-.29-2.107M12 4.65a8.05 8.05 0 0 1 1.5 2.837A1.44 1.44 0 0 1 12 9a1.44 1.44 0 0 1-1.5-1.513A8.1 8.1 0 0 1 12 4.65M6.7 6.595a1.526 1.526 0 0 1-.3 2.112 1.437 1.437 0 0 1-2.033-.3A7.9 7.9 0 0 1 4 5.4c.97.217 1.887.623 2.7 1.194"/></g><defs><clipPath id="a"><path fill="#fff" d="M0 0h24v24H0z"/></clipPath></defs></svg>
