<svg xmlns="http://www.w3.org/2000/svg" fill="none" viewBox="0 0 24 24"><g clip-path="url(#a)"><path fill="currentColor" d="M19.834 15.072A4.42 4.42 0 0 0 22 11.5c0-2.327-2.252-4.227-5.626-5.053.401-.57.62-1.25.626-1.947C17 1.977 14.145 0 10.5 0S4 1.977 4 4.5a3.87 3.87 0 0 0 1.721 3.073A4.7 4.7 0 0 0 3 11.5a4.28 4.28 0 0 0 1.879 3.355C2.023 15.646 0 17 0 19c0 3.454 6.027 5 12 5s12-1.546 12-5c0-1.827-1.694-3.115-4.166-3.928M19 11.5c0 .995-2.593 2.5-6.5 2.5S6 12.5 6 11.5 8.592 9 12.5 9s6.5 1.505 6.5 2.5M10.5 3c2.171 0 3.5.971 3.5 1.5S12.671 6 10.5 6 7 5.029 7 4.5 8.329 3 10.5 3M12 21c-5.385 0-8.438-1.356-8.957-2 .519-.644 3.572-2 8.957-2s8.438 1.356 8.956 2c-.518.644-3.571 2-8.956 2"/></g><defs><clipPath id="a"><path fill="#fff" d="M0 0h24v24H0z"/></clipPath></defs></svg>
