<svg xmlns="http://www.w3.org/2000/svg" fill="none" viewBox="0 0 24 24"><g clip-path="url(#a)"><path fill="currentColor" d="M22.5 0a6.17 6.17 0 0 0-5.92 3.335 34 34 0 0 0-9.16 0A6.17 6.17 0 0 0 1.5 0H0v11.955a6.23 6.23 0 0 0 1.837 4.435l6.633 6.633a3.39 3.39 0 0 0 2.412 1h2.236a3.38 3.38 0 0 0 2.41-1l6.635-6.634A6.23 6.23 0 0 0 24 11.955V0zM5.077 5.474l.415 1.244 1.287-.244c1.724-.3 3.47-.46 5.22-.474a32 32 0 0 1 5.223.474l1.287.243.414-1.243A3.21 3.21 0 0 1 21 3.209v4.234a12.52 12.52 0 0 0-8.854 5.979A12.45 12.45 0 0 0 3 6.867V3.209a3.21 3.21 0 0 1 2.077 2.265m-1.12 8.8A3.25 3.25 0 0 1 3 11.954V9.919c.687.157 1.357.382 2 .67v.253s.18 2.533 3.7 2.648a9.82 9.82 0 0 1 1.8 6.019V20h-.8zm16.085 0L14.31 20h-.8a9.5 9.5 0 0 1 2.273-6.51c3.085-.09 3.622-2.032 3.706-2.532a10.5 10.5 0 0 1 1.51-.464v1.46a3.25 3.25 0 0 1-.957 2.315z"/></g><defs><clipPath id="a"><path fill="#fff" d="M0 0h24v24H0z"/></clipPath></defs></svg>
