<svg xmlns="http://www.w3.org/2000/svg" fill="none" viewBox="0 0 24 24"><g clip-path="url(#a)"><path fill="currentColor" d="M12 0a12 12 0 1 0 12 12A12.013 12.013 0 0 0 12 0m-1.358 20.886L9.076 16l-5.129-.007a8.9 8.9 0 0 1-.832-2.628l4.153-2.927-1.515-4.9a9 9 0 0 1 2.128-1.531L12 7l4.119-2.993c.78.404 1.496.919 2.128 1.528l-1.515 4.9 4.153 2.927a8.9 8.9 0 0 1-.832 2.629L14.924 16l-1.566 4.886A9 9 0 0 1 12 21a9 9 0 0 1-1.358-.114M14.924 16H9.076l-1.808-5.562L12 7l4.732 3.438z"/></g><defs><clipPath id="a"><path fill="#fff" d="M0 0h24v24H0z"/></clipPath></defs></svg>
