<svg xmlns="http://www.w3.org/2000/svg" fill="none" viewBox="0 0 24 24"><g clip-path="url(#a)"><path fill="currentColor" d="M4 7a3.48 3.48 0 0 1-2.475-1.025L-.061 4.39 2.06 2.268l1.585 1.585a.5.5 0 0 0 .707 0L7.939.268l2.122 2.12-3.586 3.587A3.48 3.48 0 0 1 4 7m20-5H12v3h12zM6.475 13.975l3.586-3.586-2.122-2.121-3.586 3.586a.5.5 0 0 1-.707 0L2.06 10.268-.061 12.39l1.586 1.585a3.5 3.5 0 0 0 4.95 0M24 10H12v3h12zM6.475 21.975l3.586-3.586-2.122-2.121-3.586 3.586a.5.5 0 0 1-.707 0L2.06 18.268-.061 20.39l1.586 1.585a3.5 3.5 0 0 0 4.95 0M24 18H12v3h12z"/></g><defs><clipPath id="a"><path fill="#fff" d="M0 0h24v24H0z"/></clipPath></defs></svg>
