<svg xmlns="http://www.w3.org/2000/svg" fill="none" viewBox="0 0 24 24"><g clip-path="url(#a)"><path fill="currentColor" d="m21.621 19.5 2.44 2.439-2.122 2.122-2.439-2.44-2.439 2.44-2.122-2.122 2.44-2.439-2.44-2.439 2.122-2.122 2.439 2.44 2.439-2.44 2.122 2.122zM3 12a9 9 0 1 1 17.941 1h3.008c.028-.331.051-.662.051-1a12 12 0 1 0-12 12c.338 0 .669-.023 1-.051v-3.008A8.97 8.97 0 0 1 3 12m7-6v5.379l-2.561 2.56 2.122 2.122L13 12.621V6z"/></g><defs><clipPath id="a"><path fill="#fff" d="M0 0h24v24H0z"/></clipPath></defs></svg>
