<svg xmlns="http://www.w3.org/2000/svg" fill="none" viewBox="0 0 24 24"><path fill="currentColor" d="M9 15h6v3H9zm4.44-9.06L12 7.38l-1.439-1.44L8.44 8.06l1.44 1.44-1.44 1.438 2.122 2.122 1.44-1.44 1.438 1.44 2.122-2.122-1.44-1.439 1.44-1.439zM17 18h6v-3h-6zm6.561-9.939L21.44 5.94 20 7.38l-1.439-1.44-2.122 2.122 1.44 1.44-1.44 1.438 2.122 2.122 1.44-1.44 1.438 1.44 2.122-2.122-1.44-1.439zm-22.56 9.94h6v-3H1zM5.438 5.938 4 7.38 2.561 5.94.44 8.061l1.44 1.44-1.44 1.438 2.122 2.122 1.44-1.44 1.438 1.44 2.122-2.122L6.121 9.5l1.44-1.439z"/></svg>
