<svg xmlns="http://www.w3.org/2000/svg" fill="none" viewBox="0 0 24 24"><g clip-path="url(#a)"><path fill="currentColor" d="M20.143 3.857A3.88 3.88 0 0 0 16.286 0C15.515 0 15 .384 15 1.155V7.02l-.97.01a35 35 0 0 0-3.03.218v-2.4a15.1 15.1 0 0 0-6.915 1.7A2.01 2.01 0 0 0 3 8.322v2.3C.833 13.033 0 16.821 0 22.5V24h1.5c8.345 0 12.6-1.812 14.4-7h1.114a1.98 1.98 0 0 0 1.953-1.662L19.343 13h-2.591a35 35 0 0 0 .218-3.03l.01-.97h5.865C23.616 9 24 8.485 24 7.714a3.88 3.88 0 0 0-3.857-3.857M4.5 21a1.5 1.5 0 1 1 0-3 1.5 1.5 0 0 1 0 3m5.175-1.174a9.16 9.16 0 0 0-5.517-5.466c1.4-3.109 4.292-4.189 9.822-4.34-.151 5.509-1.223 8.399-4.305 9.806"/></g><defs><clipPath id="a"><path fill="#fff" d="M0 0h24v24H0z"/></clipPath></defs></svg>
