<svg xmlns="http://www.w3.org/2000/svg" fill="none" viewBox="0 0 24 24"><g clip-path="url(#a)"><path fill="currentColor" d="M9.5 8a1.5 1.5 0 1 1 0 3 1.5 1.5 0 0 1 0-3m11-1a3.493 3.493 0 0 0-.186 6.981A11.57 11.57 0 0 1 11 20.907v-2.04a9.5 9.5 0 0 0 5.65-3.138 6.5 6.5 0 0 1-1.968-2.344 6.493 6.493 0 1 1 .62-6.776 6.5 6.5 0 0 1 2.343-1.942A9.485 9.485 0 1 0 8 18.87V24h1.5c8 0 14.5-6.056 14.5-13.5A3.5 3.5 0 0 0 20.5 7"/></g><defs><clipPath id="a"><path fill="#fff" d="M0 0h24v24H0z"/></clipPath></defs></svg>
