<svg xmlns="http://www.w3.org/2000/svg" fill="none" viewBox="0 0 24 24"><g clip-path="url(#a)"><path fill="currentColor" d="M19.875 21a1.17 1.17 0 0 1-.9-.466A9.34 9.34 0 0 0 22 13.5v-1.062l-2-.7V7.5A3.5 3.5 0 0 0 16.5 4H15V2a2 2 0 0 0-2-2h-2a2 2 0 0 0-2 2v2H7.5A3.5 3.5 0 0 0 4 7.5v4.233l-2 .705V13.5a9.34 9.34 0 0 0 3.02 7.029 1.15 1.15 0 0 1-.895.471A1.17 1.17 0 0 1 3 20H0a4.17 4.17 0 0 0 4.125 4 4.15 4.15 0 0 0 2.63-.969 4.08 4.08 0 0 0 5.261.015 4.076 4.076 0 0 0 5.259-.015A4.085 4.085 0 0 0 24 20h-3a1.16 1.16 0 0 1-1.125 1M7 7.5a.5.5 0 0 1 .5-.5h9a.5.5 0 0 1 .5.5v3.174l-5-1.765-5 1.765zM9.375 21a1.17 1.17 0 0 1-1.125-1l-.012-.828-.691-.443a6.15 6.15 0 0 1-2.475-4.193L10.5 12.62V20a1.16 1.16 0 0 1-1.125 1m5.25 0a1.17 1.17 0 0 1-1.125-1v-7.38l5.428 1.916a6.16 6.16 0 0 1-2.472 4.192l-.706.434V20a1.16 1.16 0 0 1-1.125 1"/></g><defs><clipPath id="a"><path fill="#fff" d="M0 0h24v24H0z"/></clipPath></defs></svg>
