<svg xmlns="http://www.w3.org/2000/svg" fill="none" viewBox="0 0 24 24"><g clip-path="url(#a)"><path fill="currentColor" d="M21.973 11.216A11.17 11.17 0 0 0 12 1.077V0H5.5A3.5 3.5 0 0 0 2 3.5v17A3.5 3.5 0 0 0 5.5 24H12v-1.039a10.93 10.93 0 0 0 7.032-3.436 11.09 11.09 0 0 0 2.941-8.309m-5.135 6.263A7.8 7.8 0 0 1 11.088 20H9v1H5.5a.5.5 0 0 1-.5-.5V19h2v-3H5v-2.5h2v-3H5V8h2V5H5V3.5a.5.5 0 0 1 .5-.5H9v1h1.663a8.21 8.21 0 0 1 8.317 7.426 7.97 7.97 0 0 1-2.142 6.053M15 12a4.167 4.167 0 0 1-4.167 4.167H10V7.833h.833A4.167 4.167 0 0 1 15 12"/></g><defs><clipPath id="a"><path fill="#fff" d="M0 0h24v24H0z"/></clipPath></defs></svg>
