<svg xmlns="http://www.w3.org/2000/svg" fill="none" viewBox="0 0 24 24"><g clip-path="url(#a)"><path fill="currentColor" d="M17 24c-1.844-.023-3.1-1.013-5-1-1.9-.013-3.157.977-5 1a3.675 3.675 0 0 1-4-4 9.356 9.356 0 0 1 9-9 9.356 9.356 0 0 1 9 9 3.675 3.675 0 0 1-4 4m-5-4c1.204.024 2.396.246 3.53.656 1.045.313 2.605.873 2.47-.656a6.407 6.407 0 0 0-6-6 6.407 6.407 0 0 0-6 6c-.138 1.53 1.428.968 2.471.656a11 11 0 0 1 3.53-.656m9.844-14.986c-1.364-.163-2.6 1.128-2.814 3.46-.433 5.508 4.307 6.225 4.941.589.213-2.331-.763-3.886-2.127-4.05M.03 9.063C.664 14.7 5.4 13.978 4.97 8.473c-.214-2.331-1.45-3.622-2.814-3.46C.792 5.178-.184 6.733.03 9.064m5.948-5c.635 5.639 5.374 4.915 4.94-.59C10.7 1.143 9.468-.148 8.1.014c-1.368.164-2.337 1.719-2.123 4.05m9.9-4.05c-1.364-.162-2.6 1.129-2.813 3.46-.433 5.509 4.307 6.226 4.94.59.218-2.331-.757-3.886-2.122-4.05z"/></g><defs><clipPath id="a"><path fill="#fff" d="M0 0h24v24H0z"/></clipPath></defs></svg>
