<svg xmlns="http://www.w3.org/2000/svg" fill="none" viewBox="0 0 24 24"><g clip-path="url(#a)"><path fill="currentColor" d="M17.994 2.287a9 9 0 0 0-14.92 5.538 9.8 9.8 0 0 0 3.107 8.1A5.32 5.32 0 0 1 8 19.8V24h8v-4.048a6.17 6.17 0 0 1 1.933-4.188 9 9 0 0 0 .061-13.477m-2.039 11.221A8.6 8.6 0 0 0 14.046 16H13.5v-4.3A4 4 0 0 0 16 8h-3a1 1 0 0 1-2 0H8a4 4 0 0 0 2.5 3.7V16H10a9 9 0 0 0-1.773-2.269 6.94 6.94 0 0 1-2.176-5.526 6.02 6.02 0 0 1 5.243-5.165 6 6 0 0 1 4.661 10.468"/></g><defs><clipPath id="a"><path fill="#fff" d="M0 0h24v24H0z"/></clipPath></defs></svg>
