<svg xmlns="http://www.w3.org/2000/svg" fill="none" viewBox="0 0 24 24"><g fill="currentColor" clip-path="url(#a)"><path d="M2 14a10 10 0 1 0 11.5-9.875V3H16V0H8v3h2.5v1.125A10.006 10.006 0 0 0 2 14m7.167 6.4v-3.716a25 25 0 0 1-3.87-.675 6.94 6.94 0 0 1 0-4.021c1.27-.324 2.564-.55 3.869-.672V7.605a6.94 6.94 0 0 1 5.666 0v3.71c1.306.124 2.6.35 3.87.677a6.94 6.94 0 0 1 0 4.021c-1.27.323-2.564.548-3.869.671V20.4a6.93 6.93 0 0 1-5.666 0"/><path d="M14.833 16.684v-5.37c-.938-.092-1.9-.147-2.833-.147s-1.895.056-2.833.149v5.368c.938.094 1.9.149 2.833.149s1.9-.055 2.833-.15"/></g><defs><clipPath id="a"><path fill="#fff" d="M0 0h24v24H0z"/></clipPath></defs></svg>
