<svg xmlns="http://www.w3.org/2000/svg" fill="none" viewBox="0 0 24 24"><g clip-path="url(#a)"><path fill="currentColor" d="M19.436 8.64 24 4.074l-2.119-2.121-4.591 4.59-1.75-1.71a2.46 2.46 0 0 0-3.333-.09 18.3 18.3 0 0 1-5.871 3.579L0 10.18v1.12A12.845 12.845 0 0 0 12.961 24h1.353l.387-.27a14.82 14.82 0 0 0 6.805-11.957 2.47 2.47 0 0 0-.744-1.837zM13.36 21h-.4c-.942 0-1.88-.13-2.786-.387a11.6 11.6 0 0 0 3.282-3.18l.494-.726-2.48-1.687-.493.725a8.6 8.6 0 0 1-3.224 2.817l-.853.428a10 10 0 0 1-1.65-1.567 11.6 11.6 0 0 0 3.637-2.4l-2.1-2.142a8.6 8.6 0 0 1-3.1 1.93 9.4 9.4 0 0 1-.619-2.406L7.18 11.2a16.9 16.9 0 0 0 4.32-2.157l6.326 6.157A12.5 12.5 0 0 1 13.36 21"/></g><defs><clipPath id="a"><path fill="#fff" d="M0 0h24v24H0z"/></clipPath></defs></svg>
