<svg xmlns="http://www.w3.org/2000/svg" fill="none" viewBox="0 0 24 24"><g clip-path="url(#a)"><path fill="currentColor" d="M21.255 6.27A3.37 3.37 0 0 0 18.61 5h-3.546l.256-2H20V0h-7.32l-.64 5H5.39a3.39 3.39 0 0 0-3.325 4.051L4.077 24h15.846l2.011-14.944a3.37 3.37 0 0 0-.679-2.786M18.61 8a.378.378 0 0 1 .38.474L18.784 10h-4.36l.255-2zm-13.524.146A.38.38 0 0 1 5.39 8h6.264l-.254 2H5.22l-.21-1.526a.38.38 0 0 1 .076-.328M6.7 21l-1.076-8H18.38L17.3 21zm4.057-6h3.025l-.513 4h-3.025z"/></g><defs><clipPath id="a"><path fill="#fff" d="M0 0h24v24H0z"/></clipPath></defs></svg>
