<svg xmlns="http://www.w3.org/2000/svg" fill="none" viewBox="0 0 24 24"><g clip-path="url(#a)"><path fill="currentColor" d="M6 8.5a1.5 1.5 0 1 1 3 0 1.5 1.5 0 0 1-3 0m5.5-.5a1.5 1.5 0 1 0 0-3 1.5 1.5 0 0 0 0 3M23 15.723V19.5a4.504 4.504 0 0 1-4.5 4.5h-13A4.505 4.505 0 0 1 1 19.5v-3.777a2 2 0 0 1 0-3.446V9.136A9.147 9.147 0 0 1 10.137 0h3.726A9.147 9.147 0 0 1 23 9.136v3.141a2 2 0 0 1 0 3.446M4 9.136V12h16V9.136A6.144 6.144 0 0 0 13.863 3h-3.726A6.144 6.144 0 0 0 4 9.136M20 19.5V16h-3c-3.13 0-3.182.287-5.5 2.3a2.814 2.814 0 0 1-3.716 0C6.172 16.9 5.592 16.152 4 16.026V19.5A1.5 1.5 0 0 0 5.5 21h13a1.5 1.5 0 0 0 1.5-1.5"/></g><defs><clipPath id="a"><path fill="#fff" d="M0 0h24v24H0z"/></clipPath></defs></svg>
