<svg xmlns="http://www.w3.org/2000/svg" fill="none" viewBox="0 0 24 24"><g clip-path="url(#a)"><path fill="currentColor" d="M5.391 16.538c-.24.407-.373.866-.391 1.337 0 1.9 1.716 2.725 2.852 3.27q.586.253 1.113.614-.142.3-.322.577l2.543 1.593A4.3 4.3 0 0 0 12 21.71c0-1.9-1.716-2.727-2.852-3.27a7.6 7.6 0 0 1-1.066-.579q.288-.53.635-1.023a8 8 0 0 0 4.743-4.078 6.6 6.6 0 0 0 2.833 2.85c-.29.72-.36 1.51-.2 2.27a4.8 4.8 0 0 0 2.7 2.878c1.432.816 1.423.834.922 1.763l2.643 1.422c1.9-3.526-.79-5.056-2.081-5.792-.506-.288-1.2-.683-1.264-.957-.018-.075-.059-.5.62-1.553C22.268 14.48 24 10.635 24 7.115A5.86 5.86 0 0 0 18 1a5.9 5.9 0 0 0-4.461 1.907A7.63 7.63 0 0 0 7.5 0 7.316 7.316 0 0 0 0 7.1c0 3.78 2.236 8.058 5.391 9.438M18 4a2.9 2.9 0 0 1 3 3.115C21 10.09 19.282 13 18 13s-3-2.91-3-5.885A2.9 2.9 0 0 1 18 4M7.5 3A4.32 4.32 0 0 1 12 7.1c0 3.013-2.183 6.9-4.5 6.9S3 10.113 3 7.1A4.32 4.32 0 0 1 7.5 3"/></g><defs><clipPath id="a"><path fill="#fff" d="M0 0h24v24H0z"/></clipPath></defs></svg>
