<svg xmlns="http://www.w3.org/2000/svg" fill="none" viewBox="0 0 24 24"><g clip-path="url(#a)"><path fill="currentColor" d="M21 19a2 2 0 0 1-2 2h-2v-3h5v-4.156a6.264 6.264 0 0 0-5.024-6.128L13.3 6.98a1.35 1.35 0 0 1-1.074-1.154l-.4-2.9A3.42 3.42 0 0 0 10.394.6 3.46 3.46 0 0 0 7.638.1L0 2.267V18h4v3H0v3h19a5.006 5.006 0 0 0 5-5zM3 4.534 8.372 3.01a.4.4 0 0 1 .482.324l.225 1.653H7v3h2.9q.236.378.546.7l-1.236 2.1 2.586 1.52 1.35-2.3 3.245.65A3.26 3.26 0 0 1 19 13.843V15H3zM7 18h7v3H7z"/></g><defs><clipPath id="a"><path fill="#fff" d="M0 0h24v24H0z"/></clipPath></defs></svg>
