<svg xmlns="http://www.w3.org/2000/svg" fill="none" viewBox="0 0 24 24"><g clip-path="url(#a)"><path fill="currentColor" d="M20.5 9h-2.366l-3.825-7.177A3.5 3.5 0 0 0 11.236 0h-4.8l2.745 9H7.017L4.892 7.285a2.9 2.9 0 0 0-4.5.661 2.85 2.85 0 0 0-.037 2.844L3.575 17h5.612l-3 7h5.049a3.5 3.5 0 0 0 3.018-1.727L18.1 17H24v-4.5A3.5 3.5 0 0 0 20.5 9M10.487 3h.749a.5.5 0 0 1 .432.247L14.734 9h-2.417zM21 14h-4.431l-4.79 6.575-.1.164a.5.5 0 0 1-.439.261h-.5l3-7H5.391L3.13 9.719 5.957 12H20.5a.5.5 0 0 1 .5.5z"/></g><defs><clipPath id="a"><path fill="#fff" d="M0 0h24v24H0z"/></clipPath></defs></svg>
