<svg xmlns="http://www.w3.org/2000/svg" fill="none" viewBox="0 0 24 24"><g clip-path="url(#a)"><path fill="currentColor" d="M22.775 1.747a3.4 3.4 0 0 0-2.795-.737l-5.9 1.073a4.35 4.35 0 0 0-2.083 1 4.34 4.34 0 0 0-2.083-1L4.02 1.01A3.41 3.41 0 0 0 0 4.364v16.524l12 2.182 12-2.182V4.364a3.4 3.4 0 0 0-1.225-2.617m-12.275 18L3 18.384V4.364a.41.41 0 0 1 .482-.4l5.9 1.073A1.36 1.36 0 0 1 10.5 6.375zM21 18.384l-7.5 1.364V6.375a1.36 1.36 0 0 1 1.12-1.341l5.9-1.072a.408.408 0 0 1 .482.4z"/></g><defs><clipPath id="a"><path fill="#fff" d="M0 0h24v24H0z"/></clipPath></defs></svg>
