<svg xmlns="http://www.w3.org/2000/svg" fill="none" viewBox="0 0 24 24"><g clip-path="url(#a)"><path fill="currentColor" d="M19.412 9.59A7.498 7.498 0 0 0 8.866 1.63a7.5 7.5 0 0 0-4.278 7.96A7.5 7.5 0 1 0 12 22.485a7.494 7.494 0 1 0 7.412-12.9zM12 4a4.505 4.505 0 0 1 4.5 4.5 4 4 0 0 1-.051.5 7.45 7.45 0 0 0-4.45 1.514A7.45 7.45 0 0 0 7.552 9a4 4 0 0 1-.051-.5A4.505 4.505 0 0 1 12 4M3 16.5a4.5 4.5 0 0 1 2.62-4.076 7.53 7.53 0 0 0 3.468 2.987q-.084.541-.088 1.09c0 1.311.347 2.6 1.006 3.734A4.5 4.5 0 0 1 3 16.5M16.5 21a4.47 4.47 0 0 1-2.506-.765A7.44 7.44 0 0 0 15 16.5a7.5 7.5 0 0 0-.088-1.089 7.53 7.53 0 0 0 3.467-2.987A4.492 4.492 0 0 1 16.499 21"/></g><defs><clipPath id="a"><path fill="#fff" d="M0 0h24v24H0z"/></clipPath></defs></svg>
