<svg xmlns="http://www.w3.org/2000/svg" fill="none" viewBox="0 0 24 24"><g clip-path="url(#a)"><path fill="currentColor" d="M22.319 15.465c-4.629-4.629-16.009-4.629-20.638 0a5.63 5.63 0 0 0-1.681 4V24h9v-3.464A8.6 8.6 0 0 1 11.992 20a8.9 8.9 0 0 1 3.008.551V24h9v-4.533a5.63 5.63 0 0 0-1.681-4.002M21 21h-3v-2.462l-.911-.39A12.7 12.7 0 0 0 12.007 17c-1.77.009-3.518.404-5.12 1.159l-.887.4V21H3v-1.535a2.65 2.65 0 0 1 .8-1.879c3.163-3.163 12.674-3.722 16.4 0a2.65 2.65 0 0 1 .8 1.88zM5.5 4.5 3 7V1a1 1 0 0 1 1-1h6L7.627 2.373 12.5 6.892 19.189.2l2.122 2.121L14.427 9.2a2.7 2.7 0 0 1-1.927.8 2.7 2.7 0 0 1-1.927-.8z"/></g><defs><clipPath id="a"><path fill="#fff" d="M0 0h24v24H0z"/></clipPath></defs></svg>
