<svg xmlns="http://www.w3.org/2000/svg" fill="none" viewBox="0 0 24 24"><g clip-path="url(#a)"><path fill="currentColor" d="M21 13c-.775 0-1.52.3-2.078.837l-1.556-.631Q17.5 12.61 17.5 12a5.5 5.5 0 0 0-6.54-5.4L9.928 4.76a3 3 0 1 0-2.755 1.221L8.28 7.953a5.49 5.49 0 0 0-1.168 6.566l-3.076 2.665a3 3 0 1 0 1.92 2.306l3.207-2.78a5.49 5.49 0 0 0 6.754-.854l2.175.88A3 3 0 1 0 21 13m-9 1.5a2.5 2.5 0 1 1 0-5 2.5 2.5 0 0 1 0 5"/></g><defs><clipPath id="a"><path fill="#fff" d="M0 0h24v24H0z"/></clipPath></defs></svg>
