<svg xmlns="http://www.w3.org/2000/svg" fill="none" viewBox="0 0 24 24"><g fill="currentColor" clip-path="url(#a)"><path d="M9 0H2.5A2.5 2.5 0 0 0 0 2.5V9h2.99l-.01 1.993 3 .014L5.99 9H9V6.01l1.992.01.016-3L9 3.01zM6 6H3V3h3zM21.5 0H15v2.99l-1.992-.01-.016 3L15 5.99V9h2.99l-.01 1.993 3 .014L20.99 9H24V2.5A2.5 2.5 0 0 0 21.5 0M21 6h-3V3h3zM21.02 13.007l-3-.014L18.01 15H15v2.99l-1.992-.01-.016 3 2.008.01V24h6.5a2.5 2.5 0 0 0 2.5-2.5V15h-2.99zM21 21h-3v-3h3zM9 15H6.01l.01-1.993-3-.014L3.01 15H0v6.5A2.5 2.5 0 0 0 2.5 24H9v-2.99l1.992.01.016-3L9 18.01zm-3 6H3v-3h3z"/></g><defs><clipPath id="a"><path fill="#fff" d="M0 0h24v24H0z"/></clipPath></defs></svg>
