<svg xmlns="http://www.w3.org/2000/svg" fill="none" viewBox="0 0 24 24"><g clip-path="url(#a)"><path fill="currentColor" d="M12 24a12 12 0 1 1 12-12 12.013 12.013 0 0 1-12 12m0-21a9 9 0 1 0 9 9 9.01 9.01 0 0 0-9-9m5.5 12.181A9.16 9.16 0 0 0 12 13a9.16 9.16 0 0 0-5.5 2.181l1.993 2.242A6.15 6.15 0 0 1 12 16a6.15 6.15 0 0 1 3.506 1.423zM6 9.667V11h5V9.667A2.587 2.587 0 0 0 8.5 7 2.587 2.587 0 0 0 6 9.667m7 0V11h5V9.667A2.587 2.587 0 0 0 15.5 7 2.587 2.587 0 0 0 13 9.667"/></g><defs><clipPath id="a"><path fill="#fff" d="M0 0h24v24H0z"/></clipPath></defs></svg>
