<svg xmlns="http://www.w3.org/2000/svg" fill="none" viewBox="0 0 24 24"><g clip-path="url(#a)"><path fill="currentColor" d="M8.743 22.57 7.2 20c3.3-1.981 3.3-6.374 3.3-9h3c0 2.829 0 8.717-4.757 11.57m8.277-3.837-2.856-.918a11.2 11.2 0 0 1-2.38 4.206l2.204 2.034a14.15 14.15 0 0 0 3.032-5.322M18 11A6 6 0 0 0 7.736 6.779l2.133 2.11A2.97 2.97 0 0 1 12 7.999a3 3 0 0 1 3 3 31 31 0 0 1-.149 3.48l2.982.326Q18.024 12.906 18 11M6.537 18.338C9 16.858 9 13.747 9 11q0-.307.061-.606l-2.939-.6Q6 10.39 6 11c0 2.514-.07 4.2-1.006 4.766A2.04 2.04 0 0 1 4 16v3a5.06 5.06 0 0 0 2.537-.662M23 11a10.9 10.9 0 0 0-1.1-4.794l-2.7 1.31A7.9 7.9 0 0 1 20 11a25.7 25.7 0 0 1-2.107 11.089l2.707 1.29A28.46 28.46 0 0 0 23 11M4 11a8.01 8.01 0 0 1 8-8 7.92 7.92 0 0 1 4.8 1.6l1.805-2.4A10.9 10.9 0 0 0 12 0 11.013 11.013 0 0 0 1 11v3h3z"/></g><defs><clipPath id="a"><path fill="#fff" d="M0 0h24v24H0z"/></clipPath></defs></svg>
