<svg xmlns="http://www.w3.org/2000/svg" fill="none" viewBox="0 0 24 24"><g clip-path="url(#a)"><path fill="currentColor" d="M11.273 24A3.48 3.48 0 0 1 8.8 22.975l-2.587-2.586 2.121-2.121 2.586 2.586a.5.5 0 0 0 .706 0l5.114-5.114 2.121 2.12-5.113 5.115A3.48 3.48 0 0 1 11.273 24m-9.388-3.525 2.129-2.13A2.75 2.75 0 0 1 3 16.226a3.025 3.025 0 0 1 2.218-2.792l2.165-.557-1.335-1.792A5.1 5.1 0 0 1 5.03 8.03 4.935 4.935 0 0 1 10.091 3a5.18 5.18 0 0 1 5.129 4.465l.153 1.135 1.137.15a5.17 5.17 0 0 1 4.49 5.1 5 5 0 0 1-.288 1.619L23 17.754a8.07 8.07 0 0 0 1-3.9A8.18 8.18 0 0 0 17.976 6a8.2 8.2 0 0 0-7.885-6A7.96 7.96 0 0 0 2.03 8.03a8.05 8.05 0 0 0 .69 3.27A5.95 5.95 0 0 0 0 16.225a5.75 5.75 0 0 0 1.885 4.25"/></g><defs><clipPath id="a"><path fill="#fff" d="M0 0h24v24H0z"/></clipPath></defs></svg>
