<svg xmlns="http://www.w3.org/2000/svg" fill="none" viewBox="0 0 24 24"><g clip-path="url(#a)"><path fill="currentColor" d="m21.866 7.987 2.143-2.1-5.75-5.874-2.143 2.1 1.894 1.934-1.65 1.535-.56-.557a3.5 3.5 0 0 0-4.95 0L3 12.879v6l-3.061 3.06 2.122 2.122L5.12 21h6l7.854-7.854a3.5 3.5 0 0 0 0-4.949l-.492-.492 1.626-1.513zm-5.012 3.038L9.879 18h-3.88v-3.8l2.4 2.4 2.122-2.121-2.438-2.44L9.73 10.39l2.439 2.44 2.122-2.122-2.44-2.439 1.123-1.123a.5.5 0 0 1 .707 0l3.172 3.172a.5.5 0 0 1 0 .707"/></g><defs><clipPath id="a"><path fill="#fff" d="M0 0h24v24H0z"/></clipPath></defs></svg>
