<svg xmlns="http://www.w3.org/2000/svg" fill="none" viewBox="0 0 24 24"><g clip-path="url(#a)"><path fill="currentColor" d="M15 16a2 2 0 1 1 4 0 2 2 0 0 1-4 0m-7 1a2 2 0 1 0 0-4 2 2 0 0 0 0 4m16-8.229v15.23H5.227a4.46 4.46 0 0 1-4.085-2.615 13.32 13.32 0 0 1-.518-9.41c.4-1.443 2.257-7.282 7.12-10.917A5.46 5.46 0 0 1 14.03.933zm-18.419-.77h12.586l-5.846-4.6a2.54 2.54 0 0 0-1.338-.4 2.26 2.26 0 0 0-1.443.461A15.5 15.5 0 0 0 5.581 8m15.42 3H5.226a1.46 1.46 0 0 0-1.347.837A11.2 11.2 0 0 0 3 16c0 1.434.3 2.851.88 4.162A1.46 1.46 0 0 0 5.227 21H9a3 3 0 0 1 3.305-2.984A3.075 3.075 0 0 1 14.99 21H21z"/></g><defs><clipPath id="a"><path fill="#fff" d="M0 0h24v24H0z"/></clipPath></defs></svg>
