<svg xmlns="http://www.w3.org/2000/svg" fill="none" viewBox="0 0 24 24"><g clip-path="url(#a)"><path fill="currentColor" d="M16 15.5a1.5 1.5 0 1 1-3 0 1.5 1.5 0 0 1 3 0m1 0a1.5 1.5 0 1 0 3 0 1.5 1.5 0 0 0-3 0m1-3a1.5 1.5 0 1 0-3 0 1.5 1.5 0 0 0 3 0m6 3a8.488 8.488 0 0 1-13.479 6.877q-.27.519-.6 1L9.469 24H2.531l-.448-.624A12.34 12.34 0 0 1 0 16.773c.104-1.918.735-3.77 1.825-5.353A6.54 6.54 0 0 0 3 8.5q-.198-1.208-.548-2.381A9.6 9.6 0 0 1 2 4a3.827 3.827 0 0 1 4-4 3.827 3.827 0 0 1 4 4 9.6 9.6 0 0 1-.452 2.119A19 19 0 0 0 9 8.5c.018.414.114.822.285 1.2A8.5 8.5 0 0 1 24 15.5M5 4c.02.117.21.824.349 1.339q.387 1.312.611 2.66h.08q.224-1.348.611-2.66c.139-.515.329-1.222.349-1.417C7 3.29 6.71 3 6 3s-1 .29-1 1m2.856 17A9.2 9.2 0 0 0 9 16.773a7.86 7.86 0 0 0-1.423-3.854q-.558-.93-1.007-1.92H5.43q-.448.99-1.007 1.92A7.86 7.86 0 0 0 3 16.773 9.2 9.2 0 0 0 4.144 21zM21 15.5a5.49 5.49 0 0 0-10.163-2.895A8.8 8.8 0 0 1 12 16.773c-.004.897-.118 1.79-.339 2.66A5.5 5.5 0 0 0 21 15.5"/></g><defs><clipPath id="a"><path fill="#fff" d="M0 0h24v24H0z"/></clipPath></defs></svg>
