<svg xmlns="http://www.w3.org/2000/svg" fill="none" viewBox="0 0 24 24"><g clip-path="url(#a)"><path fill="currentColor" d="M14.327 14.891A10.7 10.7 0 0 1 9.12 9.662L12.083 6.7 5.442.058 1.8 3.7c-7.39 7.908 10.583 25.889 18.5 18.5l3.646-3.645-6.646-6.639zm3.847 5.192c-4.75 4.334-18.732-8.74-14.256-14.259L5.442 4.3l2.4 2.4-2.269 2.267.369.919a13.94 13.94 0 0 0 8.2 8.181l.908.347 2.25-2.256 2.4 2.4zm2.963-15.1 2.83 2.83-2.12 2.123-2.831-2.831-2.83 2.831-2.122-2.122 2.836-2.83-2.836-2.831L16.186.032l2.83 2.831 2.83-2.831 2.122 2.121z"/></g><defs><clipPath id="a"><path fill="#fff" d="M0 0h24v24H0z"/></clipPath></defs></svg>
