<svg xmlns="http://www.w3.org/2000/svg" fill="none" viewBox="0 0 24 24"><g clip-path="url(#a)"><path fill="currentColor" d="M21 11.555v-1.56a9 9 0 1 0-18 0v1.56a5.31 5.31 0 0 0-3 4.763v.364A5.324 5.324 0 0 0 5.318 22H8V11H6V9.994a6 6 0 1 1 12 0V11h-2v8h-3v3h5.682A5.324 5.324 0 0 0 24 16.682v-.364a5.31 5.31 0 0 0-3-4.763M5 18.978a2.32 2.32 0 0 1-2-2.3v-.364a2.32 2.32 0 0 1 2-2.3zm16-2.3a2.32 2.32 0 0 1-2 2.3v-4.956a2.32 2.32 0 0 1 2 2.3z"/></g><defs><clipPath id="a"><path fill="#fff" d="M0 0h24v24H0z"/></clipPath></defs></svg>
