<svg xmlns="http://www.w3.org/2000/svg" fill="none" viewBox="0 0 24 24"><g fill="currentColor" clip-path="url(#a)"><path d="M23.8 11.478C23.67 11.13 20.5 2.94 12 2.94S.326 11.13.2 11.478L0 12l.2.522c.13.35 3.3 8.538 11.8 8.538s11.674-8.189 11.8-8.538L24 12zM12 18.085c-5.418 0-8.041-4.514-8.79-6.085.751-1.575 3.375-6.085 8.79-6.085s8.038 4.51 8.79 6.085c-.752 1.576-3.375 6.085-8.79 6.085"/><path d="M12 16a4 4 0 1 0 0-8 4 4 0 0 0 0 8"/></g><defs><clipPath id="a"><path fill="#fff" d="M0 0h24v24H0z"/></clipPath></defs></svg>
