<svg xmlns="http://www.w3.org/2000/svg" fill="none" viewBox="0 0 24 24"><g fill="currentColor" clip-path="url(#a)"><path d="M8 10.073a4 4 0 0 1 8 0V12h6V9h-3.091a6.9 6.9 0 0 0-1.031-2.714L20.162 4 18.04 1.881 15.75 4.172a7 7 0 0 0-2.25-.933V0h-3v3.239c-.8.176-1.56.492-2.25.933L5.958 1.881 3.837 4l2.285 2.286A6.9 6.9 0 0 0 5.09 9H2v3h6zM22.592 14h-3.184a1.5 1.5 0 0 1-2.816 0h-3.184a1.5 1.5 0 0 1-2.816 0H7.408a1.5 1.5 0 0 1-2.816 0H1.408A1.5 1.5 0 0 1 0 15v3a4.47 4.47 0 0 0 3-1.17 4.484 4.484 0 0 0 6 0 4.484 4.484 0 0 0 6 0 4.484 4.484 0 0 0 6 0c.82.75 1.89 1.167 3 1.17v-3a1.5 1.5 0 0 1-1.408-1M22.592 20h-3.184a1.5 1.5 0 0 1-2.816 0h-3.184a1.5 1.5 0 0 1-2.816 0H7.408a1.5 1.5 0 0 1-2.816 0H1.408A1.5 1.5 0 0 1 0 21v3a4.47 4.47 0 0 0 3-1.17 4.484 4.484 0 0 0 6 0 4.484 4.484 0 0 0 6 0 4.484 4.484 0 0 0 6 0c.82.75 1.89 1.167 3 1.17v-3a1.5 1.5 0 0 1-1.408-1"/></g><defs><clipPath id="a"><path fill="#fff" d="M0 0h24v24H0z"/></clipPath></defs></svg>
