<svg xmlns="http://www.w3.org/2000/svg" fill="none" viewBox="0 0 24 24"><g clip-path="url(#a)"><path fill="currentColor" d="M9.5 0h-6A3.5 3.5 0 0 0 0 3.5V10h5v1H3v3h7v-3H8v-1h5V3.5A3.5 3.5 0 0 0 9.5 0m.5 7H3V3.5a.5.5 0 0 1 .5-.5h6a.5.5 0 0 1 .5.5zm7.5-1H15V3h2.5A3.5 3.5 0 0 1 21 6.5V9h-3V6.5a.5.5 0 0 0-.5-.5m-9 13H13v3H8.5A3.5 3.5 0 0 1 5 18.5V16h3v2.5a.5.5 0 0 0 .5.5M21 11h-3a3 3 0 0 0-3 3v10h9V14a3 3 0 0 0-3-3m-1.5 11a1.5 1.5 0 1 1 0-3 1.5 1.5 0 0 1 0 3"/></g><defs><clipPath id="a"><path fill="#fff" d="M0 0h24v24H0z"/></clipPath></defs></svg>
