<svg xmlns="http://www.w3.org/2000/svg" fill="none" viewBox="0 0 24 24"><g fill="currentColor" clip-path="url(#a)"><path d="M11.937 7.442c.527 0 1.049.093 1.543.273l.471.171a4.487 4.487 0 1 0-6.064 6.066l-.17-.469a4.505 4.505 0 0 1 4.22-6.04"/><path d="M3 10a7 7 0 0 1 13.915-1.036L20 10.084V10a10 10 0 1 0-10 10h.085l-1.12-3.081A7 7 0 0 1 3 10"/><path d="m24 13.669-11.2-4.07a2.5 2.5 0 0 0-3.2 3.2L13.669 24l4.105-4.1 4.105 4.1 2.12-2.12-4.1-4.105zm-11.218-.887 5.765 2.1-3.67 3.669z"/></g><defs><clipPath id="a"><path fill="#fff" d="M0 0h24v24H0z"/></clipPath></defs></svg>
