<svg xmlns="http://www.w3.org/2000/svg" fill="none" viewBox="0 0 24 24"><g fill="currentColor" clip-path="url(#a)"><path d="M17.485 23.3 24 16.785l-2.121-2.121-6.08 6.077-3.1-3.19-2.157 2.079 3.512 3.616a2.38 2.38 0 0 0 1.71.754h.036a2.37 2.37 0 0 0 1.685-.7M10 6v5.379l-2.561 2.56 2.122 2.122L13 12.621V6z"/><path d="M12 0a11.992 11.992 0 0 0-3 23.605v-3.13A9.013 9.013 0 1 1 20.941 13h3.008c.028-.331.051-.662.051-1A12.013 12.013 0 0 0 12 0"/></g><defs><clipPath id="a"><path fill="#fff" d="M0 0h24v24H0z"/></clipPath></defs></svg>
