<svg xmlns="http://www.w3.org/2000/svg" fill="none" viewBox="0 0 24 24"><g clip-path="url(#a)"><path fill="currentColor" d="M23.2 11.214a3.4 3.4 0 0 0-2.012-1.149c.452-1.805.724-3.65.812-5.509l.062-1.632L20.43 3c-1.34.069-2.672.239-3.986.508A2.982 2.982 0 0 0 11.421.871c-.166.166-.42.372-.42.372s-.255-.206-.422-.372a2.968 2.968 0 0 0-4.77 3.4 5.51 5.51 0 0 0-3.747 6.02 3.38 3.38 0 0 0-2.014 3.672 13.42 13.42 0 0 0 7.492 9.892l.3.144h8.31l.3-.144a13.41 13.41 0 0 0 7.492-9.892 3.37 3.37 0 0 0-.742-2.749M18.057 10h-5.012a2.72 2.72 0 0 1 .707-2.237c.774-.8 3.075-1.349 5.108-1.61A19.3 19.3 0 0 1 18.057 10M7.5 7a2.49 2.49 0 0 1 2.437 3H5.063A2.49 2.49 0 0 1 7.5 7m7.971 14H8.53a10.42 10.42 0 0 1-5.524-7.537.38.38 0 0 1 .09-.312.42.42 0 0 1 .323-.15h17.164a.42.42 0 0 1 .404.296q.022.082.01.166A10.42 10.42 0 0 1 15.47 21"/></g><defs><clipPath id="a"><path fill="#fff" d="M0 0h24v24H0z"/></clipPath></defs></svg>
