<svg xmlns="http://www.w3.org/2000/svg" fill="none" viewBox="0 0 24 24"><g fill="currentColor" clip-path="url(#a)"><path d="M12 .02A10.077 10.077 0 0 0 1.935 10.088c0 5.274 8.166 12.329 9.1 13.117l.967.817.967-.817c.932-.788 9.1-7.843 9.1-13.117A10.077 10.077 0 0 0 12 .02m0 20.044c-3.065-2.792-7.067-7.328-7.067-9.977a7.067 7.067 0 1 1 14.134 0c0 2.644-4.003 7.182-7.067 9.977"/><path d="M12 12.999a2.997 2.997 0 1 0 0-5.994 2.997 2.997 0 0 0 0 5.994"/></g><defs><clipPath id="a"><path fill="#fff" d="M0 0h24v24H0z"/></clipPath></defs></svg>
