<svg xmlns="http://www.w3.org/2000/svg" fill="none" viewBox="0 0 24 24"><g clip-path="url(#a)"><path fill="currentColor" d="M24 7V1a1 1 0 0 0-1-1h-6l2.439 2.439-2.534 2.535a6.45 6.45 0 0 0-6.9.054A6.5 6.5 0 1 0 5 16.818V19H3v3h2v2h3v-2h2v-3H8v-2.181a6.4 6.4 0 0 0 2.006-.847 6.487 6.487 0 0 0 9.02-8.872l2.535-2.534zM3 10.5a3.494 3.494 0 0 1 4.862-3.221 6.45 6.45 0 0 0 0 6.442A3.494 3.494 0 0 1 3 10.5M13.5 14a3.5 3.5 0 1 1 0-7 3.5 3.5 0 0 1 0 7"/></g><defs><clipPath id="a"><path fill="#fff" d="M0 0h24v24H0z"/></clipPath></defs></svg>
