<svg xmlns="http://www.w3.org/2000/svg" fill="none" viewBox="0 0 24 24"><g fill="currentColor" clip-path="url(#a)"><path d="M20.3 3H3.7l-.4.4C1.2 5.8 0 8.8 0 12c0 4.9 2 10 5.3 10 2.2 0 3.6-2.4 4.2-4h4.9c.7 1.6 2 4 4.2 4C22 22 24 16.9 24 12c0-3.2-1.2-6.2-3.3-8.6zm-1.6 16c-.4-.1-1.3-1.5-1.8-3l-.3-1H7.4l-.3 1c-.4 1.4-1.3 2.8-1.7 3-.7-.1-2.4-2.6-2.4-7 0-2.2.7-4.3 2.1-6H19c1.3 1.7 2 3.8 2 6 0 4.4-1.7 6.9-2.3 7"/><path d="M10 7H7v2H5v3h2v2h3v-2h2V9h-2zM17 12a2 2 0 1 0 0-4 2 2 0 0 0 0 4"/></g><defs><clipPath id="a"><path fill="#fff" d="M0 0h24v24H0z"/></clipPath></defs></svg>
