<svg xmlns="http://www.w3.org/2000/svg" fill="none" viewBox="0 0 24 24"><g clip-path="url(#a)"><path fill="currentColor" d="M24 7.5a7.486 7.486 0 0 0-11.995-5.99A7.5 7.5 0 1 0 6 14.847V19H4v3h2v2h3v-2h2v-3H9v-4.156a7.5 7.5 0 0 0 3.005-1.354A7.5 7.5 0 0 0 15 14.85v4.15h-2v3h2v2h3v-2h2v-3h-2v-4.15a7.51 7.51 0 0 0 6-7.35m-21 0a4.479 4.479 0 0 1 7-3.725 7.44 7.44 0 0 0 0 7.448A4.48 4.48 0 0 1 3 7.5m9 0a4.5 4.5 0 1 1 9 0 4.5 4.5 0 0 1-9 0"/></g><defs><clipPath id="a"><path fill="#fff" d="M0 0h24v24H0z"/></clipPath></defs></svg>
