<svg xmlns="http://www.w3.org/2000/svg" fill="none" viewBox="0 0 24 24"><g clip-path="url(#a)"><path fill="currentColor" d="M9.768 23H5.8A5.79 5.79 0 0 1 0 17.225 5.95 5.95 0 0 1 2.72 12.3 8.04 8.04 0 0 1 10.091 1a8.2 8.2 0 0 1 7.885 6A8.176 8.176 0 0 1 24 14.85a8 8 0 0 1-.3 2.15h-3.19c.32-.672.486-1.406.49-2.15a5.17 5.17 0 0 0-4.49-5.1l-1.138-.15-.151-1.137A5.18 5.18 0 0 0 10.091 4a4.935 4.935 0 0 0-5.062 5.03c0 1.102.358 2.174 1.019 3.055l1.333 1.792-2.163.556A3.025 3.025 0 0 0 3 17.225 2.79 2.79 0 0 0 5.8 20h.937zM17 20v-7h-3v7h-3l3.75 3.707a1 1 0 0 0 1.414 0L20 20z"/></g><defs><clipPath id="a"><path fill="#fff" d="M0 0h24v24H0z"/></clipPath></defs></svg>
