<svg xmlns="http://www.w3.org/2000/svg" fill="none" viewBox="0 0 24 24"><g clip-path="url(#a)"><path fill="currentColor" d="M14.3 14.923a10.7 10.7 0 0 1-5.212-5.229l2.964-2.963L5.41.091 1.766 3.733A6.06 6.06 0 0 0 0 8.058C0 15.21 8.791 24 15.942 24a6.06 6.06 0 0 0 4.323-1.765l3.645-3.645-6.641-6.642zm3.848 5.191a3.07 3.07 0 0 1-2.2.886C10.949 21 3 13.934 3 8.058a3.08 3.08 0 0 1 .886-2.2L5.41 4.332l2.4 2.4L5.541 9l.369.92a13.94 13.94 0 0 0 8.2 8.181l.909.346 2.255-2.256 2.4 2.4zM15 8V2.5l2.189 2.19L21.814.063l2.122 2.122-4.625 4.625 2.189 2.19H16a1 1 0 0 1-1-1"/></g><defs><clipPath id="a"><path fill="#fff" d="M0 0h24v24H0z"/></clipPath></defs></svg>
