<svg xmlns="http://www.w3.org/2000/svg" fill="none" viewBox="0 0 24 24"><g clip-path="url(#a)"><path fill="currentColor" d="M20.5 0h-5.121l-5.38 5.379V11.5c-2.814 2.044-6.6 4.821-7.111 5.33a3.02 3.02 0 0 0-.768 2.934l-2.1 2.1 2.12 2.116 2.1-2.1a2.95 2.95 0 0 0 2.938-.77c.509-.509 3.286-4.3 5.33-7.112h6.115L24 8.621V3.5A3.5 3.5 0 0 0 20.5 0m.5 7.379L17.379 11H15.12l4.44-4.439-2.122-2.122-4.44 4.44V6.621L16.622 3H20.5a.5.5 0 0 1 .5.5z"/></g><defs><clipPath id="a"><path fill="#fff" d="M0 0h24v24H0z"/></clipPath></defs></svg>
