<svg xmlns="http://www.w3.org/2000/svg" fill="none" viewBox="0 0 24 24"><g clip-path="url(#a)"><path fill="currentColor" d="M19.5 0A4.505 4.505 0 0 0 15 4.5V5h3v-.5A1.5 1.5 0 0 1 19.5 3H21v10.607A5.484 5.484 0 0 0 13.213 17h-2.426A5.484 5.484 0 0 0 3 13.607V3h1.5A1.5 1.5 0 0 1 6 4.5V5h3v-.5A4.505 4.505 0 0 0 4.5 0H0v18.5A5.5 5.5 0 0 0 10.787 20h2.426A5.5 5.5 0 0 0 24 18.5V0zm-14 21a2.5 2.5 0 1 1 0-5 2.5 2.5 0 0 1 0 5m13 0a2.5 2.5 0 1 1 0-5 2.5 2.5 0 0 1 0 5"/></g><defs><clipPath id="a"><path fill="#fff" d="M0 0h24v24H0z"/></clipPath></defs></svg>
