<svg xmlns="http://www.w3.org/2000/svg" fill="none" viewBox="0 0 24 24"><g clip-path="url(#a)"><path fill="currentColor" d="m21.521 17.11-1.061-1.06a7 7 0 0 0-9.9 0L9.5 17.11l-2.121-2.12 1.06-1.061a10 10 0 0 1 14.142 0l1.061 1.06zm-1.415 1.414-1.06-1.06a5.01 5.01 0 0 0-7.071 0l-1.061 1.06 2.121 2.122 1.061-1.06a2 2 0 0 1 2.829 0l1.06 1.06zM14.01 22.5a1.5 1.5 0 1 0 3 0 1.5 1.5 0 0 0-3 0M9.5 21.328 7.172 19H5.8A2.79 2.79 0 0 1 3 16.225a3.025 3.025 0 0 1 2.218-2.792l2.163-.556-1.333-1.792A5.1 5.1 0 0 1 5.029 8.03 4.935 4.935 0 0 1 10.091 3a5.18 5.18 0 0 1 5.13 4.465l.07.529c.074 0 .145-.015.219-.015a12.9 12.9 0 0 1 7.8 2.614A8.2 8.2 0 0 0 17.976 6a8.2 8.2 0 0 0-7.885-6 7.96 7.96 0 0 0-8.062 8.03 8 8 0 0 0 .691 3.27A5.95 5.95 0 0 0 0 16.225 5.79 5.79 0 0 0 5.8 22h4.376z"/></g><defs><clipPath id="a"><path fill="#fff" d="M0 0h24v24H0z"/></clipPath></defs></svg>
