<svg xmlns="http://www.w3.org/2000/svg" fill="none" viewBox="0 0 24 24"><g clip-path="url(#a)"><path fill="currentColor" d="M17.954 5.954c-2.693 0-4.726 1.838-5.954 3.364-1.228-1.526-3.261-3.364-5.954-3.364a6.046 6.046 0 0 0 0 12.092c2.693 0 4.726-1.838 5.954-3.364 1.228 1.526 3.261 3.364 5.954 3.364a6.046 6.046 0 0 0 0-12.092M6.046 15.046a3.046 3.046 0 1 1 0-6.092c1.816 0 3.407 1.821 4.213 3.046-.806 1.225-2.397 3.046-4.213 3.046m11.908 0c-1.816 0-3.407-1.82-4.213-3.046.806-1.225 2.4-3.046 4.213-3.046a3.046 3.046 0 1 1 0 6.092"/></g><defs><clipPath id="a"><path fill="#fff" d="M0 0h24v24H0z"/></clipPath></defs></svg>
