<svg xmlns="http://www.w3.org/2000/svg" fill="none" viewBox="0 0 24 24"><g fill="currentColor" clip-path="url(#a)"><path d="M12 19a7.01 7.01 0 0 0 7-7V7A7 7 0 0 0 5 7v5a7.01 7.01 0 0 0 7 7m0-16a4 4 0 0 1 4 4v1h-3v3h3v1a4 4 0 1 1-8 0v-1h3V8H8V7a4 4 0 0 1 4-4"/><path d="M21 13v.39A7.62 7.62 0 0 1 13.389 21h-2.778A7.62 7.62 0 0 1 3 13.39V13H0v.39A10.623 10.623 0 0 0 10.611 24h2.778A10.623 10.623 0 0 0 24 13.39V13z"/></g><defs><clipPath id="a"><path fill="#fff" d="M0 0h24v24H0z"/></clipPath></defs></svg>
