<svg xmlns="http://www.w3.org/2000/svg" fill="none" viewBox="0 0 24 24"><g clip-path="url(#a)"><path fill="currentColor" d="M22 12.5A3.5 3.5 0 0 0 18.5 9h-5V7.006A2.99 2.99 0 0 0 15 4.423c0-1.257-1.211-2.67-1.933-3.4L12-.057l-1.067 1.079C10.211 1.753 9 3.166 9 4.423a2.99 2.99 0 0 0 1.5 2.583V9h-5A3.5 3.5 0 0 0 2 12.5V21H0v3h24v-3h-2zM5 15.693c.398.199.837.304 1.282.307a2.764 2.764 0 0 0 2.833-2.5 2.78 2.78 0 0 0 2.834 2.5 2.764 2.764 0 0 0 2.833-2.5 2.78 2.78 0 0 0 2.833 2.5c.484-.004.96-.127 1.385-.36V21H5z"/></g><defs><clipPath id="a"><path fill="#fff" d="M0 0h24v24H0z"/></clipPath></defs></svg>
