<svg xmlns="http://www.w3.org/2000/svg" fill="none" viewBox="0 0 24 24"><g clip-path="url(#a)"><path fill="currentColor" d="M24 3.5A3.5 3.5 0 0 0 20.5 0h-10A3.5 3.5 0 0 0 7 3.5V5h-.5A3.5 3.5 0 0 0 3 8.5v1.551A3.494 3.494 0 0 0 0 13.5V24h16v-5h4v-5h4zM3.5 13h9a.507.507 0 0 1 .5.5V16l-2 2-2-2-6 4.875V13.5a.5.5 0 0 1 .5-.5M17 16h-1v-2.5a3.5 3.5 0 0 0-3.5-3.5H6V8.5a.5.5 0 0 1 .5-.5h10a.507.507 0 0 1 .5.5zm4-5h-1V8.5A3.5 3.5 0 0 0 16.5 5H10V3.5a.5.5 0 0 1 .5-.5h10a.507.507 0 0 1 .5.5zM4 15.5a1.5 1.5 0 1 1 3 0 1.5 1.5 0 0 1-3 0"/></g><defs><clipPath id="a"><path fill="#fff" d="M0 0h24v24H0z"/></clipPath></defs></svg>
