<svg xmlns="http://www.w3.org/2000/svg" fill="none" viewBox="0 0 24 24"><g fill="currentColor" clip-path="url(#a)"><path d="M16 8a7.96 7.96 0 0 0-5.087 1.83 7.4 7.4 0 0 0-1.952-.684L10.333 6.4 9 5H6L4.733 6.4 6.1 9.137a7.5 7.5 0 1 0 5.58 13.587A8 8 0 1 0 16 8M3 16.5A4.505 4.505 0 0 1 7.5 12c.49.006.974.093 1.435.257a7.96 7.96 0 0 0 .493 8.293c-.6.293-1.26.447-1.928.45A4.505 4.505 0 0 1 3 16.5M16 21a4.9 4.9 0 0 1-2.16-.51 7.46 7.46 0 0 0-.512-8.7A4.995 4.995 0 1 1 16 21M12.472.652 10.184 2.94l2.12 2.121 2.29-2.288zM2.594.652.473 2.773l2.25 2.25 2.121-2.121zM9 0H6v3h3z"/></g><defs><clipPath id="a"><path fill="#fff" d="M0 0h24v24H0z"/></clipPath></defs></svg>
