<svg xmlns="http://www.w3.org/2000/svg" fill="none" viewBox="0 0 24 24"><g clip-path="url(#a)"><path fill="currentColor" d="m24 21.887-5.08-5.08c3.476-4.64 2.533-11.22-2.107-14.697S5.593-.423 2.117 4.217s-2.533 11.22 2.107 14.696a10.5 10.5 0 0 0 12.581.006l5.08 5.08zM3.082 10.552a7.47 7.47 0 1 1 7.47 7.47 7.48 7.48 0 0 1-7.47-7.47M15.009 9.53c0 2.582-4.482 5.752-4.482 5.752s-4.483-3.17-4.483-5.752a2.36 2.36 0 0 1 2.242-2.465 2.36 2.36 0 0 1 2.24 2.465 2.36 2.36 0 0 1 2.242-2.465A2.36 2.36 0 0 1 15.01 9.53"/></g><defs><clipPath id="a"><path fill="#fff" d="M0 0h24v24H0z"/></clipPath></defs></svg>
