<svg xmlns="http://www.w3.org/2000/svg" fill="none" viewBox="0 0 24 24"><g clip-path="url(#a)"><path fill="currentColor" d="M14.12 1.627a3.9 3.9 0 0 0-4.24 0L0 8l5 3.225v8.794l.32.408C5.527 20.69 7.473 23 12 23s6.473-2.31 6.68-2.573l.32-.408v-8.794l2-1.29V20h3V8zm-2.614 2.52a.9.9 0 0 1 .988 0L18.465 8l-5.971 3.85a.89.89 0 0 1-.988 0L5.535 8zM16 18.858A6.4 6.4 0 0 1 12 20a6.42 6.42 0 0 1-4-1.14v-5.7l1.88 1.214a3.9 3.9 0 0 0 4.24 0L16 13.16z"/></g><defs><clipPath id="a"><path fill="#fff" d="M0 0h24v24H0z"/></clipPath></defs></svg>
