<svg xmlns="http://www.w3.org/2000/svg" fill="none" viewBox="0 0 24 24"><g clip-path="url(#a)"><path fill="currentColor" d="M20 3.5V5h4v3h-4v2h4v3h-4v2h4v3h-4v6h-3V3.5A3.5 3.5 0 0 1 20.5 0H24v3h-3.5a.5.5 0 0 0-.5.5m-4 15.75a4.736 4.736 0 0 1-8 3.45 4.736 4.736 0 1 1-5.41-7.652l3.7-6.7L4.193 4.55A9.46 9.46 0 0 1 3 0h3a6.37 6.37 0 0 0 .82 3.1L8 5.239 9.18 3.1A6.37 6.37 0 0 0 10 0h3a9.46 9.46 0 0 1-1.193 4.55L9.713 8.344l3.7 6.7A4.74 4.74 0 0 1 16 19.25m-8-7.8-1.818 3.3c.677.21 1.298.568 1.818 1.05a4.7 4.7 0 0 1 1.818-1.059zm-1.5 7.8a1.75 1.75 0 1 0-3.5 0 1.75 1.75 0 0 0 3.5 0m6.5 0a1.75 1.75 0 1 0-3.5 0 1.75 1.75 0 0 0 3.5 0"/></g><defs><clipPath id="a"><path fill="#fff" d="M0 0h24v24H0z"/></clipPath></defs></svg>
