<svg xmlns="http://www.w3.org/2000/svg" fill="none" viewBox="0 0 24 24"><g fill="currentColor" clip-path="url(#a)"><path d="M7 24a2 2 0 1 0 0-4 2 2 0 0 0 0 4M17 24a2 2 0 1 0 0-4 2 2 0 0 0 0 4M18.112 15H7.217a.33.33 0 0 1-.325-.3L6.036 8H11V5H5.653l-.262-2.061A3.327 3.327 0 0 0 2.087 0H0v3h2.087a.33.33 0 0 1 .325.3l1.5 11.76A3.327 3.327 0 0 0 7.217 18H20.4l1.65-6h-3.112z"/><path d="M17.07 10.043h.04a2.4 2.4 0 0 0 1.69-.7l5.261-5.261L21.94 1.96l-4.82 4.82-1.89-1.967-2.163 2.08 2.3 2.4a2.4 2.4 0 0 0 1.703.749"/></g><defs><clipPath id="a"><path fill="#fff" d="M0 0h24v24H0z"/></clipPath></defs></svg>
