<svg xmlns="http://www.w3.org/2000/svg" fill="none" viewBox="0 0 24 24"><g clip-path="url(#a)"><path fill="currentColor" d="M24 3.5A3.5 3.5 0 0 0 20.5 0h-17A3.5 3.5 0 0 0 0 3.5v3c0 .716.223 1.415.635 2a3.5 3.5 0 0 0-.635 2v3c0 .716.223 1.415.635 2a3.5 3.5 0 0 0-.635 2V24h24v-6.5a3.5 3.5 0 0 0-.635-2 3.5 3.5 0 0 0 .635-2v-3a3.5 3.5 0 0 0-.635-2 3.5 3.5 0 0 0 .635-2zm-21 0a.5.5 0 0 1 .5-.5H5v2h3V3h2v2h3V3h7.5a.5.5 0 0 1 .5.5v3a.5.5 0 0 1-.5.5h-17a.5.5 0 0 1-.5-.5zm18 7v3a.5.5 0 0 1-.5.5h-17a.5.5 0 0 1-.5-.5v-3a.5.5 0 0 1 .5-.5H5v2h3v-2h2v2h3v-2h7.5a.5.5 0 0 1 .5.5M21 21H3v-3.5a.5.5 0 0 1 .5-.5H5v2h3v-2h2v2h3v-2h7.5a.5.5 0 0 1 .5.5z"/></g><defs><clipPath id="a"><path fill="#fff" d="M0 0h24v24H0z"/></clipPath></defs></svg>
