<svg xmlns="http://www.w3.org/2000/svg" fill="none" viewBox="0 0 24 24"><g clip-path="url(#a)"><path fill="currentColor" d="M21.561 19.439 19.4 17.28c1.929-2.121 3.6-4.659 3.6-7.119A5.973 5.973 0 0 0 17.25 4 6 6 0 0 0 13 5.934 6 6 0 0 0 8.75 4c-.747 0-1.486.157-2.17.459L2.121 0 0 2.121l4.236 4.236A6.4 6.4 0 0 0 3 10.161c0 5.259 7.609 10.9 9.135 11.974l.865.61.865-.61a38 38 0 0 0 3.408-2.74l2.166 2.166L17 24h6a1 1 0 0 0 1-1v-6zM13 19.051c-3.606-2.732-7-6.476-7-8.89A2.98 2.98 0 0 1 8.75 7c1.757 0 2.921 2.071 2.929 2.085l1.307 2.415 1.331-2.409C14.329 9.071 15.493 7 17.25 7A2.98 2.98 0 0 1 20 10.161c0 2.414-3.394 6.158-7 8.89"/></g><defs><clipPath id="a"><path fill="#fff" d="M0 0h24v24H0z"/></clipPath></defs></svg>
