<svg xmlns="http://www.w3.org/2000/svg" fill="none" viewBox="0 0 24 24"><g clip-path="url(#a)"><path fill="currentColor" d="M24 13.5a3.51 3.51 0 0 0-3-3.466V4.5A3.5 3.5 0 0 0 17.5 1h-14A3.5 3.5 0 0 0 0 4.5V20h3.058a2.4 2.4 0 0 0-.058.5 2.5 2.5 0 0 0 5 0 2.4 2.4 0 0 0-.058-.5h8.116a2.4 2.4 0 0 0-.058.5 2.5 2.5 0 0 0 5 0 2.4 2.4 0 0 0-.058-.5H24zM6 6v4H3V6zm3 0h3v11H9zm6 0h3v4h-3zM3 13h3v4H3zm18 4h-6v-4h5.5a.5.5 0 0 1 .5.5z"/></g><defs><clipPath id="a"><path fill="#fff" d="M0 0h24v24H0z"/></clipPath></defs></svg>
