<svg xmlns="http://www.w3.org/2000/svg" fill="none" viewBox="0 0 24 24"><g clip-path="url(#a)"><path fill="currentColor" d="M17.31 4.094a5.505 5.505 0 0 0-10.621 0 5.543 5.543 0 0 0-3.9 8.312l9.21 11.704 9.208-11.7a5.542 5.542 0 0 0-3.896-8.316M19 9.5a2.7 2.7 0 0 1-.065.5h-5.412c-.346-3.572 5.239-4.166 5.477-.5M12 3a2.49 2.49 0 0 1 2.22 1.377A5.8 5.8 0 0 0 12 5.881a5.8 5.8 0 0 0-2.221-1.5 2.49 2.49 0 0 1 2.22-1.38M7.75 7a2.736 2.736 0 0 1 2.727 3H5.065A2.564 2.564 0 0 1 7.75 7m-.688 6h9.876L12 19.265z"/></g><defs><clipPath id="a"><path fill="#fff" d="M0 0h24v24H0z"/></clipPath></defs></svg>
