<svg xmlns="http://www.w3.org/2000/svg" fill="none" viewBox="0 0 24 24"><g clip-path="url(#a)"><path fill="currentColor" d="M13 0C6.729 0 2 4.084 2 9.5c.002.56.059 1.119.168 1.668a3.985 3.985 0 0 0-.853 4.368A6.6 6.6 0 0 0 0 19.5 4.373 4.373 0 0 0 4.5 24l.018-3A1.377 1.377 0 0 1 3 19.5c0-.69.196-1.366.565-1.95 1.316.343 2.674.5 4.033.463.134 0 .259-.009.393-.011A12.8 12.8 0 0 0 13 19c6.271 0 11-4.084 11-9.5S19.271 0 13 0m0 16c-.87.002-1.738-.107-2.581-.324a18.9 18.9 0 0 0-2.613-4.508 3.97 3.97 0 0 0-2.777-1.126A6 6 0 0 1 5 9.5C5 5.794 8.439 3 13 3s8 2.794 8 6.5-3.439 6.5-8 6.5"/></g><defs><clipPath id="a"><path fill="#fff" d="M0 0h24v24H0z"/></clipPath></defs></svg>
