<svg xmlns="http://www.w3.org/2000/svg" fill="none" viewBox="0 0 24 24"><g clip-path="url(#a)"><path fill="currentColor" d="M10 2a2 2 0 1 1 4 0 2 2 0 0 1-4 0m11.554 11.6c2.822 3.318.792 8.28-.6 9.741l-.6.707-.9-.225a15.6 15.6 0 0 1-5.945-3.2V23h-3v-2.382a15.6 15.6 0 0 1-5.945 3.2l-.9.225-.6-.707c-1.412-1.489-3.418-6.423-.6-9.741A7.1 7.1 0 0 1 .006 8.529 12.33 12.33 0 0 1 1.4 2.688a3.41 3.41 0 0 1 4.283-1.424A20.2 20.2 0 0 1 12 6.034a20.2 20.2 0 0 1 6.317-4.77 3.41 3.41 0 0 1 4.288 1.424 12.33 12.33 0 0 1 1.389 5.841 7.1 7.1 0 0 1-2.44 5.071M10.5 14.994c-.997.29-2.03.435-3.068.433a7.5 7.5 0 0 1-2.313-.334c-1.652 1.538-1.184 4.055-.308 5.508 2.96-1.106 5.689-3.7 5.689-5.11zm0-6.133a18.3 18.3 0 0 0-5.976-4.83.41.41 0 0 0-.524.138 9.4 9.4 0 0 0-1 4.247 4.34 4.34 0 0 0 4.389 4.011 6 6 0 0 0 3.107-.7zm9.5 8.886a3.76 3.76 0 0 0-1.12-2.654 7.5 7.5 0 0 1-2.312.334 11 11 0 0 1-3.068-.433v.5c0 1.412 2.729 4 5.689 5.11a5.97 5.97 0 0 0 .81-2.857m0-13.578a.41.41 0 0 0-.52-.138 18.3 18.3 0 0 0-5.98 4.83v2.871c.954.508 2.027.75 3.107.7A4.34 4.34 0 0 0 21 8.416a9.4 9.4 0 0 0-1-4.247"/></g><defs><clipPath id="a"><path fill="#fff" d="M0 0h24v24H0z"/></clipPath></defs></svg>
