<svg xmlns="http://www.w3.org/2000/svg" fill="none" viewBox="0 0 24 24"><g clip-path="url(#a)"><path fill="currentColor" d="M24 14.562c.002-.91-.19-1.81-.561-2.641l-2.776-6.249A4.5 4.5 0 0 0 16.55 3h-1.8L14.243.97a1.28 1.28 0 0 0-2.486 0L11.25 3H3.5A3.5 3.5 0 0 0 0 6.5V20h3.05q-.05.248-.05.5a2.5 2.5 0 1 0 4.95-.5h8.1q-.05.248-.05.5a2.5 2.5 0 1 0 4.95-.5H24zM21 17H3V6.5a.5.5 0 0 1 .5-.5H16v7h4.636l.062.14c.199.447.301.932.3 1.422zm-10-7h2v3h-2v2H8v-2H6v-3h2V8h3z"/></g><defs><clipPath id="a"><path fill="#fff" d="M0 0h24v24H0z"/></clipPath></defs></svg>
