<svg xmlns="http://www.w3.org/2000/svg" fill="none" viewBox="0 0 24 24"><g fill="currentColor" clip-path="url(#a)"><path d="M5.947 5.72a.735.735 0 1 0 0-1.47h-.715v1.473zM16.336 7.693c.855-.015 1.237-.866 1.237-1.7 0-.4-.091-1.713-1.263-1.713h-.7l.022 3.42c.262 0 .54 0 .704-.007"/><path d="M21 0H3a3 3 0 0 0-3 3v21h17.471L24 17.471V3a3 3 0 0 0-3-3m-6.641 3.035v-.008h1.951c1.5 0 2.513 1.191 2.513 2.963 0 1.479-.913 2.79-2.385 2.946l-.079.007c-.379.007-1.988.01-1.988.01zm-3.136 3.589c-.752-.277-1.43-.58-1.43-.58a1.57 1.57 0 0 1-.777-1.579 1.71 1.71 0 0 1 1.239-1.38 2.82 2.82 0 0 1 2.452.536l.479.4-.8.956-.476-.4a1.56 1.56 0 0 0-1.29-.3.46.46 0 0 0-.362.362.3.3 0 0 0 .13.3c.015 0 .614.263 1.272.506a1.826 1.826 0 0 1 1.408 2.014 2 2 0 0 1-2.04 1.552 2.87 2.87 0 0 1-2.134-.91l-.42-.464L9.4 6.8l.42.463c.314.325.748.506 1.2.5a.78.78 0 0 0 .81-.522c.07-.341-.448-.558-.607-.617M3.98 3h1.967a1.985 1.985 0 0 1 0 3.97H5.23v2.1H3.98zM21 15h-6v6H3V11h18z"/></g><defs><clipPath id="a"><path fill="#fff" d="M0 0h24v24H0z"/></clipPath></defs></svg>
