<svg xmlns="http://www.w3.org/2000/svg" fill="none" viewBox="0 0 24 24"><g clip-path="url(#a)"><path fill="currentColor" d="M19.975 11h4v1.5A11.514 11.514 0 0 1 12.478 24H0v-3h12.478a8.514 8.514 0 0 0 8.367-7h-5.533l-2.863 2H0v-3h11.506l2.863-2H16.6a19.7 19.7 0 0 0-3.48-4.35A2.45 2.45 0 0 0 11.435 6H0V3h2.89l-.914-3h4.157l.915 3h4.387a5.43 5.43 0 0 1 3.734 1.462A21.8 21.8 0 0 1 19.975 11M10 8H0v3h10zM3 18.5a1.5 1.5 0 1 0-3 0 1.5 1.5 0 0 0 3 0m5 0a1.5 1.5 0 1 0-3 0 1.5 1.5 0 0 0 3 0m5 0a1.5 1.5 0 1 0-3 0 1.5 1.5 0 0 0 3 0"/></g><defs><clipPath id="a"><path fill="#fff" d="M0 0h24v24H0z"/></clipPath></defs></svg>
