<svg xmlns="http://www.w3.org/2000/svg" fill="none" viewBox="0 0 24 24"><g clip-path="url(#a)"><path fill="currentColor" d="M24 19V5.5A3.5 3.5 0 0 0 20.5 2h-1.842A3.49 3.49 0 0 0 14.533.138L13.038.57A3.5 3.5 0 0 0 12 1.064a3.5 3.5 0 0 0-1.033-.492L9.462.136A3.49 3.49 0 0 0 5.342 2H3.5A3.5 3.5 0 0 0 0 5.5V19h10.5v2H7v3h10v-3h-3.5v-2zM13.5 3.936a.5.5 0 0 1 .367-.483l1.495-.432A.5.5 0 0 1 16 3.5v4.447l-2.5.717zM8 3.5a.49.49 0 0 1 .2-.4.48.48 0 0 1 .434-.083l1.505.436a.5.5 0 0 1 .362.48v4.73L8 7.948zm-5 2a.5.5 0 0 1 .5-.5H5v5.207l7 2.008 7-2.008V5h1.5a.5.5 0 0 1 .5.5V16H3z"/></g><defs><clipPath id="a"><path fill="#fff" d="M0 0h24v24H0z"/></clipPath></defs></svg>
