<svg xmlns="http://www.w3.org/2000/svg" fill="none" viewBox="0 0 24 24"><g fill="currentColor" clip-path="url(#a)"><path d="m23.117 9.879-4.95-4.95-2.12 2.12L19.5 10.5H6.617v3H19.5l-3.45 3.45 2.121 2.122 4.95-4.95a3 3 0 0 0-.004-4.242"/><path d="M9.994 20.5a.5.5 0 0 1-.5.5H3.506a.5.5 0 0 1-.5-.5V3.53a.5.5 0 0 1 .5-.5h5.988a.5.5 0 0 1 .5.5v4.814h3V3.53a3.505 3.505 0 0 0-3.5-3.5H3.506a3.505 3.505 0 0 0-3.5 3.5V20.5a3.5 3.5 0 0 0 3.5 3.5h5.988a3.5 3.5 0 0 0 3.5-3.5v-4.818h-3z"/></g><defs><clipPath id="a"><path fill="#fff" d="M0 0h24v24H0z"/></clipPath></defs></svg>
