<svg xmlns="http://www.w3.org/2000/svg" fill="none" viewBox="0 0 24 24"><g clip-path="url(#a)"><path fill="currentColor" d="M12 10.5a1.5 1.5 0 1 1 3 0 1.5 1.5 0 0 1-3 0M16.5 9a1.5 1.5 0 1 0 0-3 1.5 1.5 0 0 0 0 3m-6 6a1.5 1.5 0 1 0 0-3 1.5 1.5 0 0 0 0 3M23.841 3.555l-.075.209c-1.488 4.126-2.906 8.05-5.823 11.538a14 14 0 0 1-4.772 8.7H9v-3.333l-1.773-1.773L5.2 20.92 3.08 18.8l2.026-2.027L3.333 15H0V10.83A13.2 13.2 0 0 1 8.766 6c3.47-2.88 7.372-4.287 11.472-5.765l.209-.075a2.652 2.652 0 0 1 3.394 3.394m-3.073-.321C16.412 4.806 12.635 6.24 9.4 9.473a24 24 0 0 0-3.16 4.2l4.088 4.088a24.2 24.2 0 0 0 4.2-3.16c3.232-3.235 4.672-7.012 6.24-11.368"/></g><defs><clipPath id="a"><path fill="#fff" d="M0 0h24v24H0z"/></clipPath></defs></svg>
