<svg xmlns="http://www.w3.org/2000/svg" fill="none" viewBox="0 0 24 24"><g clip-path="url(#a)"><path fill="currentColor" d="M16.435 6.08a5.5 5.5 0 0 0 1.976-1.22c1.806-1.806 1.58-4.85 1.58-4.85s-3.045-.227-4.851 1.58a7.1 7.1 0 0 0-1.7 4.157c-.196-2-.773-3.945-1.7-5.729l-2.659 1.39A12.7 12.7 0 0 1 10.451 6H8.659A8.845 8.845 0 0 0 0 15c-.107 6.252 6.377 10.838 12 8.3 5.624 2.537 12.106-2.048 12-8.3a8.9 8.9 0 0 0-7.565-8.92M15.341 21a5.34 5.34 0 0 1-2.614-.68l-.727-.4-.727.4C7.545 22.45 2.916 19.35 3 15a5.843 5.843 0 0 1 5.659-6h6.682c7.479.247 7.473 11.756 0 12"/></g><defs><clipPath id="a"><path fill="#fff" d="M0 0h24v24H0z"/></clipPath></defs></svg>
