<svg xmlns="http://www.w3.org/2000/svg" fill="none" viewBox="0 0 24 24"><g clip-path="url(#a)"><path fill="currentColor" d="m21.871 15.992 2.121-2.121L10.122 0 8 2.121l.93.929-1.88 1.879-2.989-2.99L1.94 4.061 4.93 7.05 1.04 10.939a3.5 3.5 0 0 0 0 4.95l7.07 7.07a3.5 3.5 0 0 0 4.951 0l7.89-7.889zM10.94 20.839a.5.5 0 0 1-.707 0l-7.07-7.071a.5.5 0 0 1 0-.707l3.888-3.89 4.39 4.39 2.121-2.122-4.39-4.389 1.88-1.879 7.778 7.779zM24 21.5a2.5 2.5 0 1 1-5 0c0-1.25 2.5-4.5 2.5-4.5s2.5 3.119 2.5 4.5"/></g><defs><clipPath id="a"><path fill="#fff" d="M0 0h24v24H0z"/></clipPath></defs></svg>
