<svg xmlns="http://www.w3.org/2000/svg" fill="none" viewBox="0 0 24 24"><g clip-path="url(#a)"><path fill="currentColor" d="M14.3 14.923a10.7 10.7 0 0 1-5.211-5.229l2.963-2.963L5.41.09 1.765 3.734A6.06 6.06 0 0 0 0 8.058C0 15.209 8.79 24 15.942 24a6.06 6.06 0 0 0 4.323-1.765l3.645-3.645-6.641-6.642zm3.848 5.191a3.08 3.08 0 0 1-2.2.886C10.948 21 3 13.934 3 8.058a3.08 3.08 0 0 1 .886-2.2L5.41 4.332l2.4 2.4L5.542 9l.369.919a13.94 13.94 0 0 0 8.194 8.181l.909.346 2.255-2.256 2.4 2.4zM24 1v5.5l-2.19-2.189-4.624 4.625-2.122-2.122 4.625-4.625L17.499 0H23a1 1 0 0 1 1 1"/></g><defs><clipPath id="a"><path fill="#fff" d="M0 0h24v24H0z"/></clipPath></defs></svg>
