<svg xmlns="http://www.w3.org/2000/svg" fill="none" viewBox="0 0 24 24"><g clip-path="url(#a)"><path fill="currentColor" d="M13.5 4h-3V0h3zm0 16h-3v4h3zM4 10.5H0v3h4zm20 0h-4v3h4zm-.874 6.232-3.458-2.009-1.508 2.593 3.458 2.01zm-3.8-14.354L16.729.87 14.72 4.329l2.593 1.508zm3.811 4.876-1.51-2.592-3.458 2.014 1.51 2.592zM19.35 21.613l-2.014-3.456-2.592 1.51 2.014 3.456zm-13.494-4.3-1.507-2.59L.89 16.732l1.51 2.594zM9.3 4.329 7.287.87 4.693 2.378 6.7 5.837zM5.848 6.676 2.392 4.662.882 7.254l3.456 2.014zm3.424 12.992-2.591-1.512-2.015 3.456 2.592 1.512z"/></g><defs><clipPath id="a"><path fill="#fff" d="M0 0h24v24H0z"/></clipPath></defs></svg>
