<svg xmlns="http://www.w3.org/2000/svg" fill="none" viewBox="0 0 24 24"><g clip-path="url(#a)"><path fill="currentColor" d="M21 24H3v-3.409A11.94 11.94 0 0 1 6.986 12 11.94 11.94 0 0 1 3 3.409 3.41 3.41 0 0 1 6.409 0h11.182A3.413 3.413 0 0 1 21 3.409 11.96 11.96 0 0 1 17.028 12 11.96 11.96 0 0 1 21 20.591zM6 21h12v-.409c0-3.384-2.271-5.9-4.177-7.417L12.348 12l1.475-1.174C15.729 9.311 18 6.793 18 3.409A.41.41 0 0 0 17.591 3H6.409A.41.41 0 0 0 6 3.409c0 3.386 2.281 5.9 4.2 7.414L11.682 12 10.2 13.176C8.281 14.691 6 17.207 6 20.591z"/></g><defs><clipPath id="a"><path fill="#fff" d="M0 0h24v24H0z"/></clipPath></defs></svg>
