<svg xmlns="http://www.w3.org/2000/svg" fill="none" viewBox="0 0 24 24"><g clip-path="url(#a)"><path fill="currentColor" d="M23.585 4.41a3.33 3.33 0 0 0-1.994-1.61L12.781.135a3.366 3.366 0 0 0-4.17 2.278L8.134 4H3.5A3.5 3.5 0 0 0 0 7.5V24h16v-2.334l3.234 1.2 4.63-15.9a3.34 3.34 0 0 0-.279-2.556M13 21H3V7.5a.5.5 0 0 1 .5-.5h9a.5.5 0 0 1 .5.5zm7.984-14.868-3.728 12.8L16 18.467V7.5A3.5 3.5 0 0 0 12.5 4h-1.233l.221-.736a.366.366 0 0 1 .439-.253l8.809 2.666a.363.363 0 0 1 .248.455M12 13c0 2.332-4 5-4 5s-4-2.668-4-5a2 2 0 0 1 4 0 2 2 0 0 1 4 0"/></g><defs><clipPath id="a"><path fill="#fff" d="M0 0h24v24H0z"/></clipPath></defs></svg>
