<svg xmlns="http://www.w3.org/2000/svg" fill="none" viewBox="0 0 24 24"><g clip-path="url(#a)"><path fill="currentColor" d="m23.9 19.391-1-5.642a3.995 3.995 0 0 0-1.54-6.516A9.73 9.73 0 0 0 12 0a10.016 10.016 0 0 0-9.855 8.3c-.1.553-.491 3.7-.491 3.7H3.5a12.8 12.8 0 0 0 4.637-1.119 1.5 1.5 0 1 0 1.671-.849 16.8 16.8 0 0 0 4.78-4.225A4.63 4.63 0 0 0 12 5h-.655A12.63 12.63 0 0 1 5.11 8.761 7.01 7.01 0 0 1 12 3a6.7 6.7 0 0 1 6.6 5.714l.179 1.24 1.255.046A1 1 0 1 1 20 12h-1.96l-.255 1.186A6.264 6.264 0 0 1 12 18a6.27 6.27 0 0 1-5.659-4.421A13 13 0 0 1 3.5 14H1.061l-.956 5.391A3.736 3.736 0 0 0 3.739 24H10v-3.264c1.31.35 2.689.352 4 .007V24h6.262a3.737 3.737 0 0 0 3.633-4.61zM7 21H3.738a.736.736 0 0 1-.713-.921l.817-4.586A9.5 9.5 0 0 0 7 19.326zm13.845-.285a.73.73 0 0 1-.583.286H17v-1.669a9.5 9.5 0 0 0 3.159-3.827l.791 4.46.025.115a.72.72 0 0 1-.13.635M14.5 13a1.5 1.5 0 1 1 0-3 1.5 1.5 0 0 1 0 3"/></g><defs><clipPath id="a"><path fill="#fff" d="M0 0h24v24H0z"/></clipPath></defs></svg>
