<svg xmlns="http://www.w3.org/2000/svg" fill="none" viewBox="0 0 24 24"><g fill="currentColor" clip-path="url(#a)"><path d="M16 10a2 2 0 1 0 0-4 2 2 0 0 0 0 4M9 10a2 2 0 1 0 0-4 2 2 0 0 0 0 4M8 17a2 2 0 1 0 0-4 2 2 0 0 0 0 4"/><path d="M12.5.007A12 12 0 1 0 12.083 24c.338 0 .669-.022 1-.049l1.389-.115-.043-4.818a2.86 2.86 0 0 1 4.88-2.047l.1.1a2.38 2.38 0 0 0 2.19.644 2.35 2.35 0 0 0 1.71-1.463c.551-1.452.813-2.999.77-4.552A12.156 12.156 0 0 0 12.5.007m8.285 14.286a5.86 5.86 0 0 0-9.359 4.751l.017 1.934A9 9 0 0 1 12.082 3h.318a9.114 9.114 0 0 1 8.68 8.768 9 9 0 0 1-.293 2.525z"/></g><defs><clipPath id="a"><path fill="#fff" d="M0 0h24v24H0z"/></clipPath></defs></svg>
