<svg xmlns="http://www.w3.org/2000/svg" fill="none" viewBox="0 0 24 24"><g clip-path="url(#a)"><path fill="currentColor" d="M21 4.5a3.22 3.22 0 0 0-2.2-3.049A19 19 0 0 0 12 0a19 19 0 0 0-6.8 1.451A3.225 3.225 0 0 0 3 4.5v13.584l.232.367A6.1 6.1 0 0 0 4.678 19.9L3 24h3.077l1.132-2.767A14 14 0 0 0 12 22a14 14 0 0 0 4.791-.767L17.923 24H21l-1.678-4.1a6.1 6.1 0 0 0 1.447-1.447l.231-.369zM6.312 4.238A20 20 0 0 1 9 3.388V5h6V3.388c.915.219 1.814.503 2.688.85a.49.49 0 0 1 .306.443C17.927 8.64 15.7 11 12 11S6.073 8.64 6.006 4.681a.49.49 0 0 1 .306-.443M6 17.113v-5.178A8.94 8.94 0 0 0 12 14a8.94 8.94 0 0 0 6-2.065v5.174C17.41 17.7 15.694 19 12 19c-3.712 0-5.426-1.311-6-1.887m7.5-.613a1.5 1.5 0 1 1-3 0 1.5 1.5 0 0 1 3 0"/></g><defs><clipPath id="a"><path fill="#fff" d="M0 0h24v24H0z"/></clipPath></defs></svg>
