<svg xmlns="http://www.w3.org/2000/svg" fill="none" viewBox="0 0 24 24"><g clip-path="url(#a)"><path fill="currentColor" d="M24 11a4.006 4.006 0 0 1-3.623 3.982A9.44 9.44 0 0 1 17 19.332V24h-3v-3.257a7.8 7.8 0 0 1-4-.007V24H7v-4.674A9.3 9.3 0 0 1 3.33 14h.17a13 13 0 0 0 2.84-.421A6.27 6.27 0 0 0 12 18a6.26 6.26 0 0 0 5.784-4.814L18.039 12h1.96a1 1 0 1 0 .035-2l-1.252-.045-.182-1.241A6.7 6.7 0 0 0 12 3a7.01 7.01 0 0 0-6.89 5.761A12.63 12.63 0 0 0 11.345 5H12a4.63 4.63 0 0 1 2.588.807 16.8 16.8 0 0 1-4.78 4.225 1.507 1.507 0 1 1-1.671.849A12.8 12.8 0 0 1 3.5 12H2v-2A10.01 10.01 0 0 1 12 0a9.73 9.73 0 0 1 9.36 7.233A3.99 3.99 0 0 1 24 11m-8 .5a1.5 1.5 0 1 0-3 0 1.5 1.5 0 0 0 3 0"/></g><defs><clipPath id="a"><path fill="#fff" d="M0 0h24v24H0z"/></clipPath></defs></svg>
