<svg xmlns="http://www.w3.org/2000/svg" fill="none" viewBox="0 0 24 24"><g clip-path="url(#a)"><path fill="currentColor" d="M12 0a12 12 0 1 0 12 12A12.013 12.013 0 0 0 12 0M3.044 12c.518-.645 3.572-2 8.956-2s8.437 1.355 8.956 2c-.519.645-3.572 2-8.956 2s-8.438-1.355-8.956-2M12 3a9 9 0 0 1 8.132 5.17A25.5 25.5 0 0 0 12 7a25.5 25.5 0 0 0-8.132 1.17A9 9 0 0 1 12 3m0 18a9 9 0 0 1-8.132-5.17A25.5 25.5 0 0 0 12 17a25.5 25.5 0 0 0 8.132-1.17A9 9 0 0 1 12 21"/></g><defs><clipPath id="a"><path fill="#fff" d="M0 0h24v24H0z"/></clipPath></defs></svg>
