<svg xmlns="http://www.w3.org/2000/svg" fill="none" viewBox="0 0 24 24"><g fill="currentColor" clip-path="url(#a)"><path d="M2.442 7.436.658 9.927a3.4 3.4 0 0 0 .416 4.49L12 24l10.994-9.64a3.4 3.4 0 0 0 .287-4.5L21.24 7.421A3.42 3.42 0 0 0 18.5 6.03H5.2a3.43 3.43 0 0 0-2.758 1.406m.646 4.251L4.872 9.2a.4.4 0 0 1 .328-.17h3.988L8 12h8l-1.188-2.97H18.5a.48.48 0 0 1 .386.242l2.036 2.428c.063.087.09.194.078.3h-5l-4 8.006L8 12H3.018a.4.4 0 0 1 .07-.313M13.5 0h-3v4h3zM17.735.302l-2 3.143 2.533 1.611 2-3.143zM6.266.308 3.735 1.92l2 3.141 2.53-1.611z"/></g><defs><clipPath id="a"><path fill="#fff" d="M0 0h24v24H0z"/></clipPath></defs></svg>
