<svg xmlns="http://www.w3.org/2000/svg" fill="none" viewBox="0 0 24 24"><g clip-path="url(#a)"><path fill="currentColor" d="M24 14V8a1 1 0 0 0-1-1h-6l2.439 2.439-2.534 2.535A6.45 6.45 0 0 0 13.5 11c-.18 0-.356.017-.532.032.014-.176.032-.352.032-.532a6.45 6.45 0 0 0-.974-3.4l2.535-2.534L17 7V1a1 1 0 0 0-1-1h-6l2.439 2.439-2.54 2.535A6.5 6.5 0 1 0 6.5 17c.179 0 .353-.018.527-.032a6.5 6.5 0 1 0 12-2.868l2.535-2.534zM3 10.5a3.5 3.5 0 1 1 7 0 3.5 3.5 0 0 1-7 0M13.5 21a3.5 3.5 0 1 1 0-7 3.5 3.5 0 0 1 0 7"/></g><defs><clipPath id="a"><path fill="#fff" d="M0 0h24v24H0z"/></clipPath></defs></svg>
