<svg xmlns="http://www.w3.org/2000/svg" fill="none" viewBox="0 0 24 24"><g clip-path="url(#a)"><path fill="currentColor" d="M21.5 2.5a8.54 8.54 0 0 0-12.064 0C6.361 5.574 6.03 12.82 6 13.637l-.022.65.806.807-3.436 3.437A2 2 0 1 0 2 22a2 2 0 1 0 3.47-1.348l3.436-3.437.806.806.651-.021c.817-.028 8.063-.36 11.138-3.436a8.57 8.57 0 0 0 0-12.064m-2.12 9.942c-1.719 1.719-6.23 2.366-8.48 2.524L9.035 13.1c.158-2.188.814-6.772 2.523-8.481C16.9-.388 24.39 7.124 19.38 12.442"/></g><defs><clipPath id="a"><path fill="#fff" d="M0 0h24v24H0z"/></clipPath></defs></svg>
