<svg xmlns="http://www.w3.org/2000/svg" fill="none" viewBox="0 0 24 24"><g fill="currentColor" clip-path="url(#a)"><path d="M20 11a4 4 0 0 0-4 4v5a4 4 0 1 0 8 0v-5a4 4 0 0 0-4-4m1 9a1 1 0 1 1-2 0v-5a1 1 0 1 1 2 0zM10.5 15a4.4 4.4 0 0 0-1.5.275v-.193C9 14.484 9.485 14 10.083 14H13.5v-3h-3.417A4.09 4.09 0 0 0 6 15.082v3.875s.007.36 0 .542a4.5 4.5 0 1 0 4.5-4.5m0 6a1.5 1.5 0 1 1 0-3 1.5 1.5 0 0 1 0 3"/><path d="M20.471 3.53c-4.664-4.692-12.248-4.714-16.94-.05a11.98 11.98 0 0 0-1.7 14.861l2.192-2.193A8.984 8.984 0 0 1 12 3a9.02 9.02 0 0 1 6.353 2.647L16 8h5.91A1.09 1.09 0 0 0 23 6.911V1z"/></g><defs><clipPath id="a"><path fill="#fff" d="M0 0h24v24H0z"/></clipPath></defs></svg>
