<svg xmlns="http://www.w3.org/2000/svg" fill="none" viewBox="0 0 24 24"><g fill="currentColor" clip-path="url(#a)"><path d="M10.7 2.625a3.481 3.481 0 0 0-6.3 0H0v3h4.395a3.481 3.481 0 0 0 6.3 0H24v-3zM16.455 8.5a3.49 3.49 0 0 0-3.151 2H0v3h13.3a3.482 3.482 0 0 0 6.3 0H24v-3h-4.395a3.49 3.49 0 0 0-3.15-2M7.545 16.374a3.49 3.49 0 0 0-3.15 2H0v3h4.395a3.482 3.482 0 0 0 6.3 0H24v-3H10.7a3.49 3.49 0 0 0-3.155-2"/></g><defs><clipPath id="a"><path fill="#fff" d="M0 0h24v24H0z"/></clipPath></defs></svg>
