<svg xmlns="http://www.w3.org/2000/svg" fill="none" viewBox="0 0 24 24"><g clip-path="url(#a)"><path fill="currentColor" d="M24 4v3h-4v4h-3V7h-4V4h4V0h3v4zm-3 17H3v-9.8l5.239 5.24a5.317 5.317 0 0 0 7.521 0l2.457-2.456a8.5 8.5 0 0 1-3.406-.837l-1.172 1.172a2.373 2.373 0 0 1-3.278 0L3 6.96V6.5a.5.5 0 0 1 .5-.5h6.525c-.009-.166-.025-.331-.025-.5a8.5 8.5 0 0 1 .375-2.5H3.5A3.5 3.5 0 0 0 0 6.5V24h24V11.974a8.5 8.5 0 0 1-3 1.651z"/></g><defs><clipPath id="a"><path fill="#fff" d="M0 0h24v24H0z"/></clipPath></defs></svg>
