<svg xmlns="http://www.w3.org/2000/svg" fill="none" viewBox="0 0 24 24"><g clip-path="url(#a)"><path fill="currentColor" d="M22.566 7.423C23.812 6.042 24 3.63 24 2h-4.424A4.95 4.95 0 0 0 20 0h-3a2 2 0 0 1-2 2H9a2 2 0 0 1-2-2H4c0 .689.145 1.37.424 2H0c0 1.57.178 3.648 1.3 4.9l3.731 14.908A2.49 2.49 0 0 0 7.5 24h9a2.49 2.49 0 0 0 2.469-2.192zM16.5 19h-3v-4.5c0-1.171.46-2.296 1.28-3.133a1.5 1.5 0 0 0 2.646-1.309A4 4 0 0 1 18 10h.829l-2.252 9.008c-.026-.001-.051-.008-.077-.008m-9.077.008L5.171 10H6q.289.01.574.058a1.5 1.5 0 0 0 2.646 1.309A4.48 4.48 0 0 1 10.5 14.5V19h-3c-.026 0-.051.007-.077.008M15 5q.45-.005.89-.09c.852.61 1.634 1.31 2.333 2.09H18a7.49 7.49 0 0 0-6 3.019A7.49 7.49 0 0 0 6 7h-.223c.699-.78 1.481-1.48 2.333-2.09q.44.085.89.09z"/></g><defs><clipPath id="a"><path fill="#fff" d="M0 0h24v24H0z"/></clipPath></defs></svg>
