<svg xmlns="http://www.w3.org/2000/svg" fill="none" viewBox="0 0 24 24"><g clip-path="url(#a)"><path fill="currentColor" d="M19 7h-.124A8.5 8.5 0 0 0 17 5.124V5A5 5 0 0 0 7 5v.124A8.5 8.5 0 0 0 5.124 7H5a5 5 0 1 0 0 10h.127A8.6 8.6 0 0 0 7 18.872V19a5 5 0 1 0 10 0v-.121A8.4 8.4 0 0 0 18.879 17H19a5 5 0 1 0 0-10M8.989 8.989a4.99 4.99 0 0 0 6.022 0 4.99 4.99 0 0 0 0 6.022 4.99 4.99 0 0 0-6.022 0 4.99 4.99 0 0 0 0-6.022M12 3a2 2 0 1 1 0 4 2 2 0 0 1 0-4m-9 9a2 2 0 1 1 4 0 2 2 0 0 1-4 0m9 9a2 2 0 1 1 0-4 2 2 0 0 1 0 4m7-7a2 2 0 1 1 0-4 2 2 0 0 1 0 4"/></g><defs><clipPath id="a"><path fill="#fff" d="M0 0h24v24H0z"/></clipPath></defs></svg>
