<svg xmlns="http://www.w3.org/2000/svg" fill="none" viewBox="0 0 24 24"><g clip-path="url(#a)"><path fill="currentColor" d="M24 21H0V6.5A3.5 3.5 0 0 1 3.5 3h17A3.5 3.5 0 0 1 24 6.5zM3 18h18V6.5a.5.5 0 0 0-.5-.5h-17a.5.5 0 0 0-.5.5zm9-3a3 3 0 1 1 0-5.999A3 3 0 0 1 12 15M5.5 7a1.5 1.5 0 1 0 0 3 1.5 1.5 0 0 0 0-3M17 8.5a1.5 1.5 0 1 0 3 0 1.5 1.5 0 0 0-3 0M5.5 14a1.5 1.5 0 1 0 0 3 1.5 1.5 0 0 0 0-3M17 15.5a1.5 1.5 0 1 0 3 0 1.5 1.5 0 0 0-3 0"/></g><defs><clipPath id="a"><path fill="#fff" d="M0 0h24v24H0z"/></clipPath></defs></svg>
