<svg xmlns="http://www.w3.org/2000/svg" fill="none" viewBox="0 0 24 24"><g clip-path="url(#a)"><path fill="currentColor" d="M17.9 17a6.1 6.1 0 0 0-3.387 1.025l-3.333 2.219c-.74.494-1.61.757-2.5.756H3.626a.622.622 0 0 1-.439-1.062l1.093-1.094L18.3 15.1a3.635 3.635 0 0 0 2.7-3.5V3.634A3.64 3.64 0 0 0 17.366 0H9.4a3.635 3.635 0 0 0-3.5 2.7L2.153 16.728l-1.088 1.089A3.62 3.62 0 0 0 3.626 24h5.058a7.48 7.48 0 0 0 4.16-1.26l3.327-2.218a3.106 3.106 0 0 1 4.83 2.583V24h3v-.895A6.11 6.11 0 0 0 17.9 17M8.794 3.47a.6.6 0 0 1 .125-.232l4.626 4.355 4.325-4.325a.62.62 0 0 1 .13.366V11.6a.6.6 0 0 1-.029.174l-4.426-4.181-7.9 7.783-.027.007z"/></g><defs><clipPath id="a"><path fill="#fff" d="M0 0h24v24H0z"/></clipPath></defs></svg>
