<svg xmlns="http://www.w3.org/2000/svg" fill="none" viewBox="0 0 24 24"><g clip-path="url(#a)"><path fill="currentColor" d="M12 24a12 12 0 1 1 12-12 12.013 12.013 0 0 1-12 12m0-21a9 9 0 1 0 9 9 9.01 9.01 0 0 0-9-9m5.5 12.819-1.993-2.242A6.15 6.15 0 0 1 12 15a6.14 6.14 0 0 1-3.5-1.418l-2 2.237A9.17 9.17 0 0 0 12 18a9.16 9.16 0 0 0 5.5-2.181M13 9.667V11h5V9.667A2.587 2.587 0 0 0 15.5 7 2.587 2.587 0 0 0 13 9.667M11 8H6v3h5z"/></g><defs><clipPath id="a"><path fill="#fff" d="M0 0h24v24H0z"/></clipPath></defs></svg>
