<svg xmlns="http://www.w3.org/2000/svg" fill="none" viewBox="0 0 24 24"><g clip-path="url(#a)"><path fill="currentColor" d="M23.258 4.947a11 11 0 0 0-9.317-3.91A3.2 3.2 0 0 0 13.3.5a3.34 3.34 0 0 0-2.763-.345 15.72 15.72 0 0 0-9.384 7.954c-.405.8-.741 1.634-1.006 2.49A3.33 3.33 0 0 0 .5 13.338q.233.362.552.65a11 11 0 0 0 3.907 9.269 3.2 3.2 0 0 0 2.7.678 3.3 3.3 0 0 0 2.3-1.743l2.949-5.761.471.073 3.131-3.143-.074-.46 5.757-2.951a3.3 3.3 0 0 0 1.74-2.3 3.2 3.2 0 0 0-.675-2.702M3.015 11.483a12.83 12.83 0 0 1 8.421-8.466.34.34 0 0 1 .281.032.27.27 0 0 1 .132.2l1.457 9.08-.971.976-9.083-1.42a.29.29 0 0 1-.2-.135.31.31 0 0 1-.037-.267m4.278 9.342a.284.284 0 0 1-.406.13 7.94 7.94 0 0 1-2.847-5.912l5.751.9zM20.825 7.279l-4.889 2.506-.925-5.768a7.93 7.93 0 0 1 5.944 2.852.2.2 0 0 1 .038.185.32.32 0 0 1-.168.225"/></g><defs><clipPath id="a"><path fill="#fff" d="M0 0h24v24H0z"/></clipPath></defs></svg>
