<svg xmlns="http://www.w3.org/2000/svg" fill="none" viewBox="0 0 24 24"><g clip-path="url(#a)"><path fill="currentColor" d="M23.122.879a2.98 2.98 0 0 0-2.559-.847A28.43 28.43 0 0 0 5.3 7.617a7.86 7.86 0 0 0-.968 9.932L.064 21.814l2.122 2.122 4.268-4.27a7.6 7.6 0 0 0 4.285 1.327 8.32 8.32 0 0 0 6-2.588 28.73 28.73 0 0 0 7.23-14.99A2.96 2.96 0 0 0 23.122.88M6.006 13.419a4.9 4.9 0 0 1 1.417-3.685c.19-.19.384-.362.577-.541v4.686l-1.488 1.488a4.9 4.9 0 0 1-.506-1.947m8.566 2.912A5.13 5.13 0 0 1 8.623 17.5l4.5-4.5h4.061a22 22 0 0 1-2.612 3.33M18.836 10h-2.715l1.94-1.94L15.94 5.94 11 10.879V6.853A26.7 26.7 0 0 1 21 2.99 26.5 26.5 0 0 1 18.836 10"/></g><defs><clipPath id="a"><path fill="#fff" d="M0 0h24v24H0z"/></clipPath></defs></svg>
