<svg xmlns="http://www.w3.org/2000/svg" fill="none" viewBox="0 0 24 24"><g clip-path="url(#a)"><path fill="currentColor" d="M16.154 24h-8.31l-.3-.144a13.42 13.42 0 0 1-7.497-9.893A3.38 3.38 0 0 1 .8 11.215 3.42 3.42 0 0 1 3.417 10h17.164a3.42 3.42 0 0 1 3.3 2.505c.13.475.155.973.073 1.458a13.42 13.42 0 0 1-7.492 9.893zM8.53 21h6.941a10.42 10.42 0 0 0 5.524-7.538.38.38 0 0 0-.089-.311.42.42 0 0 0-.324-.151H3.417a.42.42 0 0 0-.403.297.4.4 0 0 0-.009.165A10.42 10.42 0 0 0 8.53 21M12 6.414a4.89 4.89 0 0 0-1.439-3.475 1.93 1.93 0 0 1-.56-1.353V0H7v1.586a4.89 4.89 0 0 0 1.438 3.475c.358.36.56.846.561 1.353V8h3zm5-1a4.89 4.89 0 0 0-1.439-3.475 1.9 1.9 0 0 1-.56-1.353V0h-3v.586a4.88 4.88 0 0 0 1.438 3.475A1.9 1.9 0 0 1 14 5.414V7h3z"/></g><defs><clipPath id="a"><path fill="#fff" d="M0 0h24v24H0z"/></clipPath></defs></svg>
