<svg xmlns="http://www.w3.org/2000/svg" fill="none" viewBox="0 0 24 24"><g clip-path="url(#a)"><path fill="currentColor" d="M12 10q-1.508 0-3 .211V7.022L14 4.5 8 .134a1.383 1.383 0 0 0-2 1.393v9.357C2.361 12.06 0 14.3 0 17c0 3.991 5.159 7 12 7s12-3.009 12-7-5.159-7-12-7m0 11c-5.151 0-9-2.112-9-4 0-1.025 1.14-2.113 3-2.9V17h3v-3.746A17.7 17.7 0 0 1 12 13c5.151 0 9 2.112 9 4s-3.849 4-9 4m5-4a2 2 0 1 1-4 0 2 2 0 0 1 4 0"/></g><defs><clipPath id="a"><path fill="#fff" d="M0 0h24v24H0z"/></clipPath></defs></svg>
