<svg xmlns="http://www.w3.org/2000/svg" fill="none" viewBox="0 0 24 24"><g clip-path="url(#a)"><path fill="currentColor" d="m22.975 7.268-2.061-2.061L23.06 3.06 20.939.939l-2.146 2.147-2.061-2.061a3.505 3.505 0 0 0-4.95 0L8.6 4.207l4.535 4.536-4.407 4.407-4.521-4.521-3.182 3.182a3.5 3.5 0 0 0 0 4.949l2.047 2.047-2.133 2.132L3.06 23.06l2.132-2.133L7.268 23a3.5 3.5 0 0 0 4.95 0l3.182-3.18-4.55-4.55 4.408-4.406 4.535 4.536 3.182-3.182a3.5 3.5 0 0 0 0-4.95M10.1 20.882a.5.5 0 0 1-.708 0l-6.246-6.243a.5.5 0 0 1 0-.707l1.06-1.061 6.95 6.95zM20.854 10.1l-1.061 1.06-6.95-6.95L13.9 3.147a.5.5 0 0 1 .708 0l6.246 6.244a.5.5 0 0 1 0 .706z"/></g><defs><clipPath id="a"><path fill="#fff" d="M0 0h24v24H0z"/></clipPath></defs></svg>
