<svg xmlns="http://www.w3.org/2000/svg" fill="none" viewBox="0 0 24 24"><g clip-path="url(#a)"><path fill="currentColor" d="M21.226 2.774A9.89 9.89 0 0 0 8.73 1.7a4.989 4.989 0 1 0-4.7 8.2A11.4 11.4 0 0 0 5.081 15a.48.48 0 0 1-.08.578l-3.719 2.575A3.36 3.36 0 0 0 0 20.566a2.82 2.82 0 0 0 .853 2.15l.445.423a2.95 2.95 0 0 0 2.083.86 3.26 3.26 0 0 0 2.275-1.08L8.4 19a.5.5 0 0 1 .6-.118A10.4 10.4 0 0 0 13.5 20c.5 0 1.81-.182 1.841-.187a9.96 9.96 0 0 0 5.516-2.774A10.57 10.57 0 0 0 24 9.876a9.52 9.52 0 0 0-2.774-7.102M5 7a2 2 0 1 1 0-4 2 2 0 0 1 0 4m13.736 7.918a6.9 6.9 0 0 1-3.4 1.845L7.746 9.17A5 5 0 0 0 10 5c0-.164-.033-.32-.048-.48a7.05 7.05 0 0 1 9.148.38A6.54 6.54 0 0 1 21 9.785a7.6 7.6 0 0 1-2.264 5.133"/></g><defs><clipPath id="a"><path fill="#fff" d="M0 0h24v24H0z"/></clipPath></defs></svg>
