<svg xmlns="http://www.w3.org/2000/svg" fill="none" viewBox="0 0 24 24"><g clip-path="url(#a)"><path fill="currentColor" d="M24 5.5a3.51 3.51 0 0 0-2.236-3.264A3.51 3.51 0 0 0 18.5 0h-13a3.51 3.51 0 0 0-3.264 2.236A3.51 3.51 0 0 0 0 5.5V8h1.616l2.065 16h16.638l2.064-16H24zm-19-2a.5.5 0 0 1 .5-.5h13a.5.5 0 0 1 .5.5V5H5zM6.319 21l-.645-5h3.51c.9 3.959 4.733 3.957 5.632 0h3.51l-.645 5zm12.394-8h-3.9c-.9-3.959-4.733-3.957-5.632 0h-3.9l-.639-5h14.717z"/></g><defs><clipPath id="a"><path fill="#fff" d="M0 0h24v24H0z"/></clipPath></defs></svg>
