<svg xmlns="http://www.w3.org/2000/svg" fill="none" viewBox="0 0 24 24"><g clip-path="url(#a)"><path fill="currentColor" d="M19.954 9.082C19.5 1.45 15.529 0 14.984 0A5.33 5.33 0 0 0 12 1a5.2 5.2 0 0 0-2.933-1C8.471 0 4.5 1.45 4.046 9.082 1.57 9.7 0 10.605 0 11.613 0 13.484 5.373 15 12 15s12-1.516 12-3.387c0-1.008-1.57-1.913-4.046-2.531M12 10a21.4 21.4 0 0 1-4.975-.486c.224-4.728 1.893-6.143 2.42-6.477a1.8 1.8 0 0 1 1.222.95L12 6.571l1.333-2.584a1.8 1.8 0 0 1 1.207-.949c.575.363 2.213 1.8 2.435 6.475-1.634.356-3.303.52-4.975.487m9 10a3.99 3.99 0 0 1-7.8 1.193A5.8 5.8 0 0 0 12 21a5.8 5.8 0 0 0-1.2.193 4 4 0 1 1-.259-3.018Q11.262 18.016 12 18q.739.016 1.461.175A3.987 3.987 0 0 1 21 20"/></g><defs><clipPath id="a"><path fill="#fff" d="M0 0h24v24H0z"/></clipPath></defs></svg>
