<svg xmlns="http://www.w3.org/2000/svg" fill="none" viewBox="0 0 24 24"><g clip-path="url(#a)"><path fill="currentColor" d="M24 13.59c0-5.244-4.59-9.732-10.342-10.471a2 2 0 1 0-3.315 0C4.64 3.864.09 8.349.09 13.59a3.49 3.49 0 0 0 1.563 2.9l.82 4.618a3.5 3.5 0 0 0 3.447 2.89H18.08a3.5 3.5 0 0 0 3.445-2.886l.81-4.553A3.47 3.47 0 0 0 24 13.59M12 6c4.794 0 9 3.547 9 7.56-.021.44-.191.44-.41.44H18a1 1 0 1 1-2 0h-3a1 1 0 1 1-2 0H8a1 1 0 0 1-2 0H3.5c-.217 0-.39 0-.41-.41C3.09 9.548 7.255 6 12 6m6.08 15H5.92a.5.5 0 0 1-.491-.412l-.574-3.223A3.97 3.97 0 0 0 9.5 17.1a3.96 3.96 0 0 0 5 0 3.97 3.97 0 0 0 4.645.268l-.573 3.223a.5.5 0 0 1-.492.409"/></g><defs><clipPath id="a"><path fill="#fff" d="M0 0h24v24H0z"/></clipPath></defs></svg>
