<svg xmlns="http://www.w3.org/2000/svg" fill="none" viewBox="0 0 24 24"><g clip-path="url(#a)"><path fill="currentColor" d="M20.379 5.393A3.5 3.5 0 0 0 17.059 3H16l-.544-1.632A2 2 0 0 0 13.558 0h-3.116a2 2 0 0 0-1.9 1.368L8 3H6.941a3.5 3.5 0 0 0-3.32 2.394L2.752 8H0v3h1.752L1.1 12.969A3.48 3.48 0 0 0 0 15.5V21h3v3h4v-3h10v3h4v-3h3v-5.5a3.48 3.48 0 0 0-1.1-2.531L22.248 11H24V8h-2.752zM17 16.5a1.5 1.5 0 1 1 3 0 1.5 1.5 0 0 1-3 0M6.941 6h10.118a.5.5 0 0 1 .474.342L19.419 12H4.581l1.886-5.658A.5.5 0 0 1 6.941 6M5.5 18a1.5 1.5 0 1 1 0-3 1.5 1.5 0 0 1 0 3"/></g><defs><clipPath id="a"><path fill="#fff" d="M0 0h24v24H0z"/></clipPath></defs></svg>
