<svg xmlns="http://www.w3.org/2000/svg" fill="none" viewBox="0 0 24 24"><g clip-path="url(#a)"><path fill="currentColor" d="m22.655 8.162-6.894-6.6a5.32 5.32 0 0 0-7.5-.022L1.346 8.162A4.38 4.38 0 0 0 0 11.312V24h24V11.313a4.38 4.38 0 0 0-1.345-3.151M10.36 3.679a2.33 2.33 0 0 1 3.3.022l5.923 5.675-5.943 5.945a2.376 2.376 0 0 1-3.28 0L4.415 9.376zM3 20.999v-8.8l5.239 5.24a5.32 5.32 0 0 0 7.522 0L21 12.2V21z"/></g><defs><clipPath id="a"><path fill="#fff" d="M0 0h24v24H0z"/></clipPath></defs></svg>
