<svg xmlns="http://www.w3.org/2000/svg" fill="none" viewBox="0 0 24 24"><g clip-path="url(#a)"><path fill="currentColor" d="M15.942 23.942C8.791 23.942 0 15.152 0 8a6.06 6.06 0 0 1 1.766-4.323L5.41.033l6.642 6.641-2.963 2.963a10.7 10.7 0 0 0 5.211 5.227l2.974-2.973 6.641 6.641-3.645 3.646a6.06 6.06 0 0 1-4.328 1.764M5.41 4.275 3.886 5.8A3.08 3.08 0 0 0 3 8c0 5.875 7.949 12.942 12.942 12.942a3.08 3.08 0 0 0 2.2-.885l1.525-1.525-2.4-2.4-2.255 2.255-.909-.346a13.94 13.94 0 0 1-8.192-8.18l-.369-.919L7.81 6.674zM23 0h-3v8h3zm-5 0h-3v8h3z"/></g><defs><clipPath id="a"><path fill="#fff" d="M0 0h24v24H0z"/></clipPath></defs></svg>
