<svg xmlns="http://www.w3.org/2000/svg" fill="none" viewBox="0 0 24 24"><g clip-path="url(#a)"><path fill="currentColor" d="M19 14a4.97 4.97 0 0 0-3.818 1.81l-5.4-2.437c.137-.445.21-.907.218-1.373a5 5 0 0 0-.211-1.36l5.394-2.45A4.972 4.972 0 1 0 14 5c0 .142.03.276.042.415L8.1 8.112A4.95 4.95 0 0 0 5 7a5 5 0 0 0 0 10 4.95 4.95 0 0 0 3.09-1.1l5.952 2.687c-.012.139-.042.272-.042.413a5 5 0 1 0 5-5m0-11a2 2 0 1 1 0 4 2 2 0 0 1 0-4M5 14a2 2 0 1 1 0-4.001 2 2 0 0 1 0 4m14 7a2 2 0 1 1 0-4 2 2 0 0 1 0 4"/></g><defs><clipPath id="a"><path fill="#fff" d="M0 0h24v24H0z"/></clipPath></defs></svg>
