<svg xmlns="http://www.w3.org/2000/svg" fill="none" viewBox="0 0 24 24"><g clip-path="url(#a)"><path fill="currentColor" d="M22.864 14.923a9.47 9.47 0 0 0-9.364 2.313v-1.949a6.62 6.62 0 0 0 5.113-6.436c0-2.432-1.369-5.062-4.068-7.814a3.643 3.643 0 0 0-5.09 0C6.755 3.79 5.386 6.42 5.386 8.851a6.62 6.62 0 0 0 5.114 6.436v1.95a9.47 9.47 0 0 0-9.364-2.314L0 15.206v1.172a6.76 6.76 0 0 0 2.292 5.355c2.557 2.218 6.582 2.345 8.637 2.242h2.133c4.28.376 11.117-1.266 10.938-7.6v-1.169zm-18.61 4.54A3.48 3.48 0 0 1 3.135 17.6 6.6 6.6 0 0 1 9.712 21c-1.793-.027-4.1-.355-5.459-1.537M8.385 8.851a7.62 7.62 0 0 1 2.114-4.49V8h3V4.36c6.57 7.39-4.3 11.517-5.114 4.49m11.361 10.612c-1.359 1.182-3.667 1.51-5.459 1.538a6.72 6.72 0 0 1 6.576-3.4 3.48 3.48 0 0 1-1.117 1.862"/></g><defs><clipPath id="a"><path fill="#fff" d="M0 0h24v24H0z"/></clipPath></defs></svg>
