<svg xmlns="http://www.w3.org/2000/svg" fill="none" viewBox="0 0 24 24"><g clip-path="url(#a)"><path fill="currentColor" d="M22.375.065C21.037.12 9.179.721 4.92 4.979a10.02 10.02 0 0 0-.981 12.961L.007 21.879 2.128 24l3.932-3.939a10.02 10.02 0 0 0 12.961-.981c4.342-4.342 4.868-16.134 4.914-17.464L23.991 0zM16.9 16.958a7 7 0 0 1-8.683.947l8.72-8.719-2.123-2.122-8.714 8.72A7 7 0 0 1 7.042 7.1c2.512-2.513 9.738-3.595 13.8-3.932-.319 4.038-1.377 11.225-3.942 13.79"/></g><defs><clipPath id="a"><path fill="#fff" d="M0 0h24v24H0z"/></clipPath></defs></svg>
