<svg xmlns="http://www.w3.org/2000/svg" fill="none" viewBox="0 0 24 24"><g clip-path="url(#a)"><path fill="currentColor" d="M21.542 7A2.46 2.46 0 0 0 24 4.542V0h-3v4h-3.374A6.675 6.675 0 0 0 6.374 4H3V0H0v4.542A2.46 2.46 0 0 0 2.458 7h2.8L4.24 11H0v3h3.572c-.016.2-.042.4-.042.614.001.808.118 1.611.348 2.386h-1.42A2.46 2.46 0 0 0 0 19.458V24h3v-4h2.468a8.46 8.46 0 0 0 13.064 0H21v4h3v-4.542A2.46 2.46 0 0 0 21.542 17h-1.42c.23-.775.347-1.578.348-2.386 0-.209-.026-.41-.042-.614H24v-3h-4.246l-1.007-4zM12 20.083a5.476 5.476 0 0 1-5.47-5.469q.002-.3.038-.6l1.944-7.671a3.72 3.72 0 0 1 6.976 0l1.944 7.675q.036.3.038.6A5.476 5.476 0 0 1 12 20.083"/></g><defs><clipPath id="a"><path fill="#fff" d="M0 0h24v24H0z"/></clipPath></defs></svg>
