<svg xmlns="http://www.w3.org/2000/svg" fill="none" viewBox="0 0 24 24"><g clip-path="url(#a)"><path fill="currentColor" d="m12 4.243 1.393 1.393.879.879h3.213v3.213l.879.879L19.757 12l-1.393 1.393-.879.879v3.213h-3.213l-.879.879L12 19.757l-1.393-1.393-.879-.879H6.515v-3.213l-.879-.879L4.243 12l1.393-1.393.879-.879V6.515h3.213l.879-.879zM12 0 8.485 3.515h-4.97v4.97L0 12l3.515 3.515v4.97h4.97L12 24l3.515-3.515h4.97v-4.97L24 12l-3.515-3.515v-4.97h-4.97z"/></g><defs><clipPath id="a"><path fill="#fff" d="M0 0h24v24H0z"/></clipPath></defs></svg>
