<svg xmlns="http://www.w3.org/2000/svg" fill="none" viewBox="0 0 24 24"><path fill="currentColor" d="M11.16 11.693 9.4 9.866l-2.16 2.079 2.2 2.287a2.36 2.36 0 0 0 1.674.74h.037a2.37 2.37 0 0 0 1.662-.688l5.021-5.023-2.122-2.12z"/><path fill="currentColor" d="m11.922 24-.531-.238C11.007 23.588 2 19.5 2 12V5.524a3 3 0 0 1 2.052-2.846L12 .03l7.949 2.65A2.99 2.99 0 0 1 22 5.524V12c0 8.54-9.137 11.682-9.526 11.812zM12 3.19 5 5.524V12c0 4.67 5.344 7.847 7.077 8.753C13.819 20.025 19 17.407 19 12V5.524z"/></svg>
