<svg xmlns="http://www.w3.org/2000/svg" fill="none" viewBox="0 0 24 24"><g fill="currentColor" clip-path="url(#a)"><path d="M22.419 10a8.27 8.27 0 0 0-4.443-3.063 8.24 8.24 0 0 0-2.961-4.377A8.177 8.177 0 0 0 2.6 12.375a5.78 5.78 0 0 0-2.412 6.319A5.85 5.85 0 0 0 5.944 23H10v-3H5.944A2.89 2.89 0 0 1 3.1 17.958a2.8 2.8 0 0 1 2-3.446l2.155-.557-1.325-1.789a5.17 5.17 0 0 1 4.157-8.256 5.14 5.14 0 0 1 3.118 1.042A5.22 5.22 0 0 1 15.22 8.4l.15 1.135 1.137.153A5.23 5.23 0 0 1 20 11.774a5.068 5.068 0 0 1-2 7.659v3.224A8.12 8.12 0 0 0 22.419 10"/><path d="m18 16-3.293-3.293a1 1 0 0 0-1.414 0L10 16h2.5v8h3v-8z"/></g><defs><clipPath id="a"><path fill="#fff" d="M0 0h24v24H0z"/></clipPath></defs></svg>
