<svg xmlns="http://www.w3.org/2000/svg" fill="none" viewBox="0 0 24 24"><g clip-path="url(#a)"><path fill="currentColor" d="M18.75 24H10.5a4.508 4.508 0 0 1-1.495-8.745 5.5 5.5 0 0 1 10.625-1.682A5.255 5.255 0 0 1 18.75 24m-8.25-6a1.5 1.5 0 1 0 0 3h8.25a2.25 2.25 0 0 0 0-4.5h-1.626l-.166-1.312a2.481 2.481 0 1 0-4.864.933l.491 1.88zm7.333-12.44-.023.011A8.11 8.11 0 0 0 8.883.088 8.174 8.174 0 0 0 2.6 11.466a5.78 5.78 0 0 0 1.862 10.427 6.36 6.36 0 0 1-.373-3.41 2.6 2.6 0 0 1-.989-1.435 2.8 2.8 0 0 1 2-3.446l2.155-.556-1.325-1.789a5.176 5.176 0 1 1 9.29-3.765l.074.563a7.53 7.53 0 0 1 5.746 3.813A7.2 7.2 0 0 1 24 13.75C24 9 19.93 6.27 17.833 5.56"/></g><defs><clipPath id="a"><path fill="#fff" d="M0 0h24v24H0z"/></clipPath></defs></svg>
