<svg xmlns="http://www.w3.org/2000/svg" fill="none" viewBox="0 0 24 24"><g clip-path="url(#a)"><path fill="currentColor" d="M23.021.979a3.38 3.38 0 0 0-2.732-.98c-1.8.177-8 1.088-12.35 5.44A28.5 28.5 0 0 0 .449 17.9l-.3.88 5.071 5.07.879-.294a28.5 28.5 0 0 0 12.457-7.49C22.914 11.705 23.825 5.506 24 3.711a3.39 3.39 0 0 0-.979-2.733m-6.582 12.96a25.2 25.2 0 0 1-10.411 6.467l-.157-.156 11.69-11.69-2.122-2.121L3.75 18.129l-.156-.157a25.2 25.2 0 0 1 6.467-10.411c3.648-3.65 8.974-4.425 10.52-4.576a.39.39 0 0 1 .319.115.4.4 0 0 1 .116.318c-.152 1.547-.928 6.873-4.577 10.52"/></g><defs><clipPath id="a"><path fill="#fff" d="M0 0h24v24H0z"/></clipPath></defs></svg>
