<svg xmlns="http://www.w3.org/2000/svg" fill="none" viewBox="0 0 24 24"><g fill="currentColor" clip-path="url(#a)"><path d="M8.35 19H5.8A2.79 2.79 0 0 1 3 16.225a3.025 3.025 0 0 1 2.218-2.792l2.165-.557-1.335-1.792A5.1 5.1 0 0 1 5.03 8.03 4.935 4.935 0 0 1 10.091 3a5.18 5.18 0 0 1 5.129 4.465l.153 1.135L17.982 6h-.006a8.2 8.2 0 0 0-7.885-6A7.96 7.96 0 0 0 2.03 8.03a8.05 8.05 0 0 0 .69 3.27A5.95 5.95 0 0 0 0 16.225 5.79 5.79 0 0 0 5.8 22h4.9a6.03 6.03 0 0 1-2.35-3"/><path d="M21 18a2.97 2.97 0 0 0-1.5.416L17.023 17l2.477-1.416c.454.27.972.413 1.5.416a3 3 0 1 0-3-3.014l-2.5 1.43A2.97 2.97 0 0 0 14 14a3 3 0 1 0 0 6 2.97 2.97 0 0 0 1.5-.416l2.5 1.43A3 3 0 1 0 21 18"/></g><defs><clipPath id="a"><path fill="#fff" d="M0 0h24v24H0z"/></clipPath></defs></svg>
