<svg xmlns="http://www.w3.org/2000/svg" fill="none" viewBox="0 0 24 24"><g fill="currentColor" clip-path="url(#a)"><path d="M9.614 11.59a2 2 0 1 0 0-3.999 2 2 0 0 0 0 4M20 4a2 2 0 1 0 0-4 2 2 0 0 0 0 4M12 18a2 2 0 1 0 0-4 2 2 0 0 0 0 4"/><path d="M12 23.978A12 12 0 1 1 13.15.035l1.231.12.119 1.23a9 9 0 0 0 8.093 8.094l1.235.117.116 1.235q.057.565.058 1.147a12.013 12.013 0 0 1-12.002 12m-.29-21A9 9 0 1 0 21 12.267a12.01 12.01 0 0 1-9.29-9.285z"/></g><defs><clipPath id="a"><path fill="#fff" d="M0 0h24v24H0z"/></clipPath></defs></svg>
