<svg xmlns="http://www.w3.org/2000/svg" fill="none" viewBox="0 0 24 24"><g clip-path="url(#a)"><path fill="currentColor" d="M20.5 7h-2.172A8.06 8.06 0 0 0 20 2h-3a4.8 4.8 0 0 1-3.214 4.689A8.4 8.4 0 0 0 15 3a3 3 0 0 0-6 0 8.4 8.4 0 0 0 1.214 3.689A4.8 4.8 0 0 1 7 2H4a8.06 8.06 0 0 0 1.672 5H3.5A3.5 3.5 0 0 0 0 10.5V15h2v9h20v-9h2v-4.5A3.5 3.5 0 0 0 20.5 7m.5 3.5V12h-7.5v-2h7a.5.5 0 0 1 .5.5m-18 0a.5.5 0 0 1 .5-.5h7v2H3zM5 15h5.5v6H5zm14 6h-5.5v-6H19z"/></g><defs><clipPath id="a"><path fill="#fff" d="M0 0h24v24H0z"/></clipPath></defs></svg>
