<svg xmlns="http://www.w3.org/2000/svg" fill="none" viewBox="0 0 24 24"><g clip-path="url(#a)"><path fill="currentColor" d="m8.123 11.926 1.936-1.935-1.936-1.934 2.118-2.118 1.934 1.936 1.935-1.936 2.117 2.118-1.935 1.934 1.935 1.935-2.117 2.117-1.935-1.935-1.934 1.935zm-3.116 5.2C1.05 13.294.948 6.977 4.782 3.018s10.151-4.059 14.11-.225q.108.105.214.215c3.897 3.896 3.897 10.214 0 14.11l-7.055 6.902zm.059-7.066A6.94 6.94 0 0 0 7.11 15l4.94 4.83L17 14.987A6.985 6.985 0 1 0 5.066 10.06"/></g><defs><clipPath id="a"><path fill="#fff" d="M0 0h24v24H0z"/></clipPath></defs></svg>
