<svg xmlns="http://www.w3.org/2000/svg" fill="none" viewBox="0 0 24 24"><g clip-path="url(#a)"><path fill="currentColor" d="M19.9 12.188a32.7 32.7 0 0 0-1.5-6.851c.338-.124.7-.246 1.022-.333a.4.4 0 0 1 .318.02c.213.277.306.629.26.976h3a4.08 4.08 0 0 0-1.435-3.355 3.34 3.34 0 0 0-2.918-.54q-1.415.414-2.762 1.016l-1.309.59.53 1.334c.008.02.318.809.683 2.008l-3.9 3.214L8.621 7H10V4H3v3h1.379l5.182 5.183-.953.784a5.513 5.513 0 1 0 1.918 2.308l6.072-5c.124.639.228 1.3.3 1.966a5.508 5.508 0 1 0 3-.052zM5.5 20a2.5 2.5 0 1 1 0-5 2.5 2.5 0 0 1 0 5m13 0a2.5 2.5 0 1 1 0-5 2.5 2.5 0 0 1 0 5"/></g><defs><clipPath id="a"><path fill="#fff" d="M0 0h24v24H0z"/></clipPath></defs></svg>
