<svg xmlns="http://www.w3.org/2000/svg" fill="none" viewBox="0 0 24 24"><g clip-path="url(#a)"><path fill="currentColor" d="M20 8v-.687A5.32 5.32 0 0 0 14.687 2H13.5V0h-3v2H9.313a5.313 5.313 0 0 0-1.54 10.4l2.727.746V19H9.313A2.316 2.316 0 0 1 7 16.687V16H4v.687A5.32 5.32 0 0 0 9.313 22H10.5v2h3v-2h1.187a5.313 5.313 0 0 0 1.541-10.4l-2.728-.744V5h1.187A2.316 2.316 0 0 1 17 7.313V8zm-4.618 6.479a2.314 2.314 0 0 1-.7 4.521H13.5v-5.035zM10.5 10.035l-1.882-.514A2.314 2.314 0 0 1 9.313 5H10.5z"/></g><defs><clipPath id="a"><path fill="#fff" d="M0 0h24v24H0z"/></clipPath></defs></svg>
