<svg xmlns="http://www.w3.org/2000/svg" fill="none" viewBox="0 0 24 24"><g clip-path="url(#a)"><path fill="currentColor" d="M21.5 15v-3a9.5 9.5 0 0 0-5.092-8.407 4.5 4.5 0 0 0-8.816 0A9.5 9.5 0 0 0 2.5 12v3H0v6.5A2.5 2.5 0 0 0 2.5 24H9v-9H5.5v-3a6.49 6.49 0 0 1 2.643-5.22 4.462 4.462 0 0 0 7.714 0 6.49 6.49 0 0 1 2.643 5.22v3H15v9h6.5a2.5 2.5 0 0 0 2.5-2.5V15zM6 18v3H3v-3zm6-12a1.5 1.5 0 1 1 0-3 1.5 1.5 0 0 1 0 3m9 15h-3v-3h3z"/></g><defs><clipPath id="a"><path fill="#fff" d="M0 0h24v24H0z"/></clipPath></defs></svg>
