<svg xmlns="http://www.w3.org/2000/svg" fill="none" viewBox="0 0 24 24"><g fill="currentColor" clip-path="url(#a)"><path d="M22.6 6.9 14.006.652a3.4 3.4 0 0 0-4.011 0L1.4 6.9A3.42 3.42 0 0 0 0 9.657V13h10.5v11h3V13H24V9.657A3.42 3.42 0 0 0 22.6 6.9M14 10h-4V8.972a.5.5 0 0 1 .053-.223L12 4.854l1.947 3.9a.5.5 0 0 1 .053.218zM3 9.657a.41.41 0 0 1 .168-.33l5.094-3.7-.893 1.78A3.5 3.5 0 0 0 7 8.972V10H3zM21 10h-4V8.972a3.5 3.5 0 0 0-.369-1.565l-.893-1.786 5.094 3.705a.41.41 0 0 1 .168.331z"/><path d="M5.5 19H3v-4H0v9h3v-2h2v2h3v-2.5A2.5 2.5 0 0 0 5.5 19M21 19h-2.5a2.5 2.5 0 0 0-2.5 2.5V24h3v-2h2v2h3v-9h-3z"/></g><defs><clipPath id="a"><path fill="#fff" d="M0 0h24v24H0z"/></clipPath></defs></svg>
