<svg xmlns="http://www.w3.org/2000/svg" fill="none" viewBox="0 0 24 24"><g fill="currentColor" clip-path="url(#a)"><path d="M20.471 3.53a11.978 11.978 0 0 0-18.64 14.812l2.192-2.193A8.984 8.984 0 0 1 12 3a9.02 9.02 0 0 1 6.353 2.647L16 8h5.91A1.09 1.09 0 0 0 23 6.91V1zM20 24a4 4 0 0 1-4-4v-5a4 4 0 1 1 8 0v5a4 4 0 0 1-4 4m0-10a1 1 0 0 0-1 1v5a1 1 0 1 0 2 0v-5a1 1 0 0 0-1-1"/><path d="M14 24h-3v-7.878L9.311 17.81 7.19 15.69l4.25-4.25A1.5 1.5 0 0 1 14 12.5z"/></g><defs><clipPath id="a"><path fill="#fff" d="M0 0h24v24H0z"/></clipPath></defs></svg>
