<svg xmlns="http://www.w3.org/2000/svg" fill="none" viewBox="0 0 24 24"><g clip-path="url(#a)"><path fill="currentColor" d="M17.5 13A6.5 6.5 0 1 0 11 6.5a6.51 6.51 0 0 0 6.5 6.5m0-3a3.5 3.5 0 0 1-1.164-.214l4.45-4.45c.138.373.21.767.214 1.164a3.5 3.5 0 0 1-3.5 3.5m0-7c.397.004.791.076 1.164.214l-4.45 4.45A3.5 3.5 0 0 1 14 6.5 3.5 3.5 0 0 1 17.5 3m6.5 8.966V24H0V6.5A3.5 3.5 0 0 1 3.5 3h6.263a8.4 8.4 0 0 0-.738 3H3.5a.5.5 0 0 0-.5.5v.46l7.361 7.361a2.373 2.373 0 0 0 3.278 0l.174-.174a8.4 8.4 0 0 0 3.4.839l-1.453 1.456a5.32 5.32 0 0 1-7.521 0L3 11.2V21h18v-6.763a8.55 8.55 0 0 0 3-2.271"/></g><defs><clipPath id="a"><path fill="#fff" d="M0 0h24v24H0z"/></clipPath></defs></svg>
