<svg xmlns="http://www.w3.org/2000/svg" fill="none" viewBox="0 0 24 24"><g clip-path="url(#a)"><path fill="currentColor" d="M21.313 8.105a10.01 10.01 0 0 0-5.428-5.449A3.5 3.5 0 0 0 12.5 0h-1a3.5 3.5 0 0 0-3.385 2.656 10.01 10.01 0 0 0-5.428 5.449A3.5 3.5 0 0 0 0 11.5V16h2.759a10.03 10.03 0 0 0 5.4 5.291L7.237 24h2.909l.69-2.028q.58.07 1.164.074.62-.003 1.235-.082L13.878 24h2.885l-.922-2.708a10.03 10.03 0 0 0 5.4-5.292H24v-4.5a3.5 3.5 0 0 0-2.687-3.395M21 11.5V13h-2v-1.5a.5.5 0 0 1 .5-.5h1a.5.5 0 0 1 .5.5M11 5V3.5a.5.5 0 0 1 .5-.5h1a.5.5 0 0 1 .5.5V5zm-8 6.5a.5.5 0 0 1 .5-.5h1a.5.5 0 0 1 .5.5V13H3zm11.866 6.925-1.919-5.642a1 1 0 0 0-1.894 0l-1.92 5.641A7.03 7.03 0 0 1 6.182 16H8v-4.5a3.5 3.5 0 0 0-2.074-3.189A7.2 7.2 0 0 1 8 6.114V8h8V6.114a7.2 7.2 0 0 1 2.074 2.2A3.5 3.5 0 0 0 16 11.5V16h1.82a7.03 7.03 0 0 1-2.954 2.425"/></g><defs><clipPath id="a"><path fill="#fff" d="M0 0h24v24H0z"/></clipPath></defs></svg>
