<svg xmlns="http://www.w3.org/2000/svg" fill="none" viewBox="0 0 24 24"><g clip-path="url(#a)"><path fill="currentColor" d="M22 13a10.01 10.01 0 0 0-8.5-9.875V0h-3v3.125A9.982 9.982 0 0 0 4.323 19.4l-2.417 2.574 2.188 2.052 2.477-2.64a9.94 9.94 0 0 0 10.858 0l2.477 2.64 2.188-2.052-2.417-2.574A9.96 9.96 0 0 0 22 13M5 13a7 7 0 1 1 7 7 7.01 7.01 0 0 1-7-7m8.5-1.945 2.408 1.461-1.592 2.543-3.816-2.344V8h3zM2.511 5.674.017 4.011A15.2 15.2 0 0 1 4.457.056l1.6 2.53A12 12 0 0 0 2.51 5.674m15.435-3.088 1.6-2.53a15.2 15.2 0 0 1 4.44 3.955l-2.497 1.663a12 12 0 0 0-3.543-3.088"/></g><defs><clipPath id="a"><path fill="#fff" d="M0 0h24v24H0z"/></clipPath></defs></svg>
