<svg xmlns="http://www.w3.org/2000/svg" fill="none" viewBox="0 0 24 24"><g fill="currentColor" clip-path="url(#a)"><path d="M3.017 13.5h11.438l-2.689 2.689 2.121 2.122 4.19-4.19a3 3 0 0 0 0-4.242l-4.2-4.2-2.124 2.12 2.7 2.7H3.017z"/><path d="M20.5 0h-17A3.53 3.53 0 0 0 0 3.552V7.9h3V3.552A.526.526 0 0 1 3.5 3h17a.526.526 0 0 1 .5.548v16.9a.526.526 0 0 1-.5.548h-17a.526.526 0 0 1-.5-.548V16.1H0v4.352A3.53 3.53 0 0 0 3.5 24h17a3.53 3.53 0 0 0 3.5-3.552V3.552A3.53 3.53 0 0 0 20.5 0"/></g><defs><clipPath id="a"><path fill="#fff" d="M0 0h24v24H0z"/></clipPath></defs></svg>
