<svg xmlns="http://www.w3.org/2000/svg" fill="none" viewBox="0 0 24 24"><g clip-path="url(#a)"><path fill="currentColor" d="M12 0a12 12 0 1 0 12 12A12.013 12.013 0 0 0 12 0m8.617 9.415-2.871.861a6 6 0 0 0-4.022-4.022l.861-2.871a9.03 9.03 0 0 1 6.032 6.032M12 15.818 9.136 12 12 8.182 14.864 12zM9.415 3.383l.861 2.871a6 6 0 0 0-4.022 4.022l-2.871-.861a9.03 9.03 0 0 1 6.032-6.032m-6.032 11.2 2.871-.861a6.01 6.01 0 0 0 4.022 4.022l-.861 2.871a9.03 9.03 0 0 1-6.032-6.03zm11.2 6.032-.861-2.871a6.01 6.01 0 0 0 4.022-4.022l2.871.861a9.03 9.03 0 0 1-6.03 6.034z"/></g><defs><clipPath id="a"><path fill="#fff" d="M0 0h24v24H0z"/></clipPath></defs></svg>
