<svg xmlns="http://www.w3.org/2000/svg" fill="none" viewBox="0 0 24 24"><g clip-path="url(#a)"><path fill="currentColor" d="M16.243 9.757a6 6 0 0 0-8.486 8.486L12 22.392l4.243-4.15a6 6 0 0 0 0-8.485M12 16a2 2 0 1 1 0-4.002A2 2 0 0 1 12 16m12-5.868V24h-9.353l3.067-3H21V10.132a.4.4 0 0 0-.158-.323l-8.59-6.722a.41.41 0 0 0-.505 0L3.157 9.81a.4.4 0 0 0-.157.322V21h3.286l3.067 3H0V10.132a3.4 3.4 0 0 1 1.307-2.685L9.9.724a3.41 3.41 0 0 1 4.2 0l8.592 6.723A3.4 3.4 0 0 1 24 10.132"/></g><defs><clipPath id="a"><path fill="#fff" d="M0 0h24v24H0z"/></clipPath></defs></svg>
