<svg xmlns="http://www.w3.org/2000/svg" fill="none" viewBox="0 0 24 24"><g clip-path="url(#a)"><path fill="currentColor" d="M15.58 23H5.944a5.85 5.85 0 0 1-5.756-4.306A5.78 5.78 0 0 1 2.6 12.375a8.178 8.178 0 0 1 12.415-9.816 8.25 8.25 0 0 1 2.962 4.377A8.27 8.27 0 0 1 22.419 10a8.13 8.13 0 0 1 1.459 6.242A8.29 8.29 0 0 1 15.58 23M10.087 3.91q-.391.001-.776.056a5.17 5.17 0 0 0-3.381 8.2l1.325 1.788-2.155.558a2.8 2.8 0 0 0-2 3.446A2.89 2.89 0 0 0 5.944 20h9.636a5.365 5.365 0 0 0 5.34-4.268 5.16 5.16 0 0 0-.92-3.958 5.23 5.23 0 0 0-3.494-2.085l-1.136-.152-.15-1.137a5.2 5.2 0 0 0-2.015-3.449 5.14 5.14 0 0 0-3.118-1.041"/></g><defs><clipPath id="a"><path fill="#fff" d="M0 0h24v24H0z"/></clipPath></defs></svg>
