<svg xmlns="http://www.w3.org/2000/svg" fill="none" viewBox="0 0 24 24"><g clip-path="url(#a)"><path fill="currentColor" d="M23.072.929A3.15 3.15 0 0 0 19.716.21L0 8.12v1.016A14.88 14.88 0 0 0 14.864 24h1.014l7.929-19.762a3.13 3.13 0 0 0-.735-3.31m-3.631 6.135a3.785 3.785 0 0 0-2.753 6.86l-2.412 6.012A11.34 11.34 0 0 1 4.063 9.725l16.724-6.711a.13.13 0 0 1 .164.036.15.15 0 0 1 .049.119zM12 11.999a2 2 0 1 1-4 0 2 2 0 0 1 4 0"/></g><defs><clipPath id="a"><path fill="#fff" d="M0 0h24v24H0z"/></clipPath></defs></svg>
