<svg xmlns="http://www.w3.org/2000/svg" fill="none" viewBox="0 0 24 24"><g clip-path="url(#a)"><path fill="currentColor" d="M21 0H3a3 3 0 0 0-3 3v21h17.471L24 17.471V3a3 3 0 0 0-3-3m-8.25 2.916h3.263v1.25H14V5.3h1.864v1.25H14v2.391h-1.25zm-3 0H11v6.069H9.75zM4 4.9a1.99 1.99 0 0 1 2-1.984 2.013 2.013 0 0 1 2 2H6.75a.77.77 0 0 0-.75-.75.74.74 0 0 0-.749.751v2.067A.74.74 0 0 0 6 7.735.76.76 0 0 0 6.75 7v-.084H6v-1h2V7a2 2 0 0 1-2 1.984A1.99 1.99 0 0 1 4 7zM21 15h-6v6H3V11h18z"/></g><defs><clipPath id="a"><path fill="#fff" d="M0 0h24v24H0z"/></clipPath></defs></svg>
