<svg xmlns="http://www.w3.org/2000/svg" fill="none" viewBox="0 0 24 24"><g clip-path="url(#a)"><path fill="currentColor" d="M24 12a11.93 11.93 0 0 0-2.532-7.346l1.593-1.593L20.939.939l-1.593 1.593a11.92 11.92 0 0 0-14.692 0L3.061.939.939 3.061l1.593 1.593a11.92 11.92 0 0 0 0 14.692L.939 20.939l2.122 2.122 1.593-1.593a11.92 11.92 0 0 0 14.692 0l1.593 1.593 2.122-2.122-1.593-1.593A11.93 11.93 0 0 0 24 12m-3 0a8.94 8.94 0 0 1-1.672 5.206l-2.678-2.677a5.12 5.12 0 0 0 0-5.058l2.678-2.677A8.94 8.94 0 0 1 21 12M9.682 12a2.318 2.318 0 1 1 4.636 0 2.318 2.318 0 0 1-4.636 0M12 3c1.867 0 3.688.585 5.206 1.672L14.529 7.35a5.12 5.12 0 0 0-5.058 0L6.794 4.672A8.94 8.94 0 0 1 12 3m-9 9c0-1.867.585-3.688 1.672-5.206L7.35 9.471a5.12 5.12 0 0 0 0 5.058l-2.678 2.677A8.94 8.94 0 0 1 3 12m9 9a8.94 8.94 0 0 1-5.206-1.672l2.677-2.678a5.12 5.12 0 0 0 5.058 0l2.677 2.678A8.94 8.94 0 0 1 12 21"/></g><defs><clipPath id="a"><path fill="#fff" d="M0 0h24v24H0z"/></clipPath></defs></svg>
