<svg xmlns="http://www.w3.org/2000/svg" fill="none" viewBox="0 0 24 24"><g clip-path="url(#a)"><path fill="currentColor" d="M22.9 1.1a3.754 3.754 0 0 0-5.3 0l-2.488 2.484a3.45 3.45 0 0 1-4.836.071l-2.09 2.152 2.175 2.175-8.189 8.19a4 4 0 0 0-.854 4.39L0 21.878 2.121 24l1.318-1.318a4 4 0 0 0 4.389-.854l8.19-8.189 2.175 2.175 2.152-2.09a3.453 3.453 0 0 1 .071-4.837L22.9 6.4a3.754 3.754 0 0 0 0-5.3M5.707 19.707a1.023 1.023 0 0 1-1.414 0 1 1 0 0 1 0-1.414l8.189-8.19 1.418 1.415zM20.781 4.28l-2.487 2.486a6.5 6.5 0 0 0-1.75 3.157l-2.467-2.467a6.5 6.5 0 0 0 3.157-1.75L19.72 3.22a.75.75 0 1 1 1.061 1.061"/></g><defs><clipPath id="a"><path fill="#fff" d="M0 0h24v24H0z"/></clipPath></defs></svg>
