<svg xmlns="http://www.w3.org/2000/svg" fill="none" viewBox="0 0 24 24"><g clip-path="url(#a)"><path fill="currentColor" d="m20.293 15.505 2.762 1.17c-.402.948-.924 1.84-1.555 2.654l-2.373-1.835a9 9 0 0 0 1.166-1.989m-4.786 4.787 1.17 2.762c.948-.402 1.84-.924 2.654-1.554L17.5 19.127a9 9 0 0 1-1.993 1.165m-11.838-4.88L.894 16.55c.394.963.912 1.87 1.541 2.7l2.39-1.814a9 9 0 0 1-1.156-2.024m.944 6.045c.819.64 1.717 1.172 2.673 1.582l1.18-2.759a9 9 0 0 1-2-1.185zm.008-18.92L6.465 4.9a9 9 0 0 1 2.007-1.182L7.294.958c-.956.408-1.854.939-2.673 1.579m.208 4.024L2.44 4.746A12 12 0 0 0 .9 7.44l2.771 1.141c.296-.72.686-1.4 1.158-2.02M3 12q0-.588.076-1.172L.1 10.445a12.2 12.2 0 0 0 0 3.101l2.975-.383A9 9 0 0 1 3 12m9 9q-.646 0-1.285-.091l-.424 2.97c1.134.161 2.284.161 3.418 0l-.424-2.97q-.64.09-1.285.091m0-21q-.859 0-1.709.121l.424 2.97Q11.355 3.001 12 3a9.01 9.01 0 0 1 8.909 10.287l2.971.421Q24 12.858 24 12A12.013 12.013 0 0 0 12 0m-1.5 6v4.69a1.991 1.991 0 0 0 2.81 2.81H17v-3h-3.5V6z"/></g><defs><clipPath id="a"><path fill="#fff" d="M0 0h24v24H0z"/></clipPath></defs></svg>
