<svg xmlns="http://www.w3.org/2000/svg" fill="none" viewBox="0 0 24 24"><g clip-path="url(#a)"><path fill="currentColor" d="m4.825 17.433-2.388 1.815a12 12 0 0 1-1.543-2.7l2.775-1.139a9 9 0 0 0 1.156 2.024m0-10.872L2.439 4.747A12 12 0 0 0 .9 7.44l2.77 1.142a9 9 0 0 1 1.158-2.021zM3 12q0-.587.075-1.17L.1 10.445a12 12 0 0 0 0 3.1l2.976-.38A9 9 0 0 1 3 12m1.614 9.458c.82.64 1.718 1.171 2.673 1.581l1.18-2.759a9 9 0 0 1-2.005-1.186zM4.62 2.537 6.466 4.9a9 9 0 0 1 2.006-1.183L7.294.958A12 12 0 0 0 4.62 2.537M12 0q-.859 0-1.709.121l.424 2.97a9 9 0 1 1 0 17.818l-.424 2.97q.85.12 1.709.121a12 12 0 0 0 0-24m-1.5 6.273v4.417a1.966 1.966 0 0 0 0 2.62v3.463h3V13.31a1.966 1.966 0 0 0 0-2.62V6.273z"/></g><defs><clipPath id="a"><path fill="#fff" d="M0 0h24v24H0z"/></clipPath></defs></svg>
