<svg xmlns="http://www.w3.org/2000/svg" fill="none" viewBox="0 0 24 24"><g fill="currentColor" clip-path="url(#a)"><path d="M11 14H5a5.006 5.006 0 0 0-5 5v5h3v-5a2 2 0 0 1 2-2h6a2 2 0 0 1 2 2v5h3v-5a5.006 5.006 0 0 0-5-5M8 12A6 6 0 1 0 8 0a6 6 0 0 0 0 12m0-9a3 3 0 1 1 0 6 3 3 0 0 1 0-6M21.75 7.417a2.37 2.37 0 0 0-2.25 2.475 2.37 2.37 0 0 0-2.25-2.475A2.37 2.37 0 0 0 15 9.892c0 2.592 4.5 5.775 4.5 5.775S24 12.484 24 9.892a2.37 2.37 0 0 0-2.25-2.475"/></g><defs><clipPath id="a"><path fill="#fff" d="M0 0h24v24H0z"/></clipPath></defs></svg>
