<svg xmlns="http://www.w3.org/2000/svg" fill="none" viewBox="0 0 24 24"><g clip-path="url(#a)"><path fill="currentColor" d="M18.5 5H17v-.5A3.5 3.5 0 0 0 13.5 1h-10A3.5 3.5 0 0 0 0 4.5V20h3.058a2.4 2.4 0 0 0-.058.5 2.5 2.5 0 0 0 5 0 2.4 2.4 0 0 0-.058-.5h8.116a2.4 2.4 0 0 0-.058.5 2.5 2.5 0 0 0 5 0 2.4 2.4 0 0 0-.058-.5H24v-9.5A5.507 5.507 0 0 0 18.5 5M14 17H3V4.5a.5.5 0 0 1 .5-.5h10a.5.5 0 0 1 .5.5zm4.5-9a2.5 2.5 0 0 1 2.5 2.5V13h-4V8z"/></g><defs><clipPath id="a"><path fill="#fff" d="M0 0h24v24H0z"/></clipPath></defs></svg>
