<svg xmlns="http://www.w3.org/2000/svg" fill="none" viewBox="0 0 24 24"><g clip-path="url(#a)"><path fill="currentColor" d="M24 14.85A8.176 8.176 0 0 0 17.976 7a8.2 8.2 0 0 0-7.885-6 8.07 8.07 0 0 0-5.15 1.82L2.186.064.064 2.186l21.75 21.75 2.122-2.122-1.806-1.8A8.07 8.07 0 0 0 24 14.85M10.091 4a5.18 5.18 0 0 1 5.13 4.465l.151 1.135 1.138.15a5.17 5.17 0 0 1 4.49 5.1 5.05 5.05 0 0 1-1 3.024L7.073 4.951a5.1 5.1 0 0 1 3.018-.95m3.564 16 2.96 2.96q-.393.039-.8.04H5.8A5.79 5.79 0 0 1 0 17.225 5.95 5.95 0 0 1 2.72 12.3a8.05 8.05 0 0 1-.69-3.27c0-.21.015-.418.03-.624L6.951 13.3l.432.58-2.165.557A3.025 3.025 0 0 0 3 17.225 2.79 2.79 0 0 0 5.8 20z"/></g><defs><clipPath id="a"><path fill="#fff" d="M0 0h24v24H0z"/></clipPath></defs></svg>
