<svg xmlns="http://www.w3.org/2000/svg" fill="none" viewBox="0 0 24 24"><g clip-path="url(#a)"><path fill="currentColor" d="M21.543 1.638 17.191.181a3.5 3.5 0 0 0-2.14-.026L8.962 1.983 4.848.273A3.5 3.5 0 0 0 0 3.5v18.132l8.5 2.428 7.049-2.008 8.47 2.063V4.982a3.49 3.49 0 0 0-2.476-3.345m-7.525 1.985V19.37L10 20.514V4.874c.035-.01.07-.014.1-.024zM3 3.5a.5.5 0 0 1 .694-.46L7 4.415v16.1L3 19.37zm18.018 16.8-4-.974V3.287L20.655 4.5a.5.5 0 0 1 .363.48z"/></g><defs><clipPath id="a"><path fill="#fff" d="M0 0h24v24H0z"/></clipPath></defs></svg>
