<svg xmlns="http://www.w3.org/2000/svg" fill="none" viewBox="0 0 24 24"><g clip-path="url(#a)"><path fill="currentColor" d="M24 12A12 12 0 1 1 .121 10.291l2.97.424Q3.001 11.355 3 12a9 9 0 1 0 7.715-8.909l-.424-2.97Q11.141.001 12 0a12.013 12.013 0 0 1 12 12M8.495 3.708 7.325.945A12 12 0 0 0 4.671 2.5l1.834 2.372a9 9 0 0 1 1.99-1.164M4.873 6.5 2.5 4.669A12 12 0 0 0 .946 7.324l2.762 1.17A9 9 0 0 1 4.873 6.5M10.5 6v4.5H7v3h3.69a1.99 1.99 0 0 0 2.81-2.81V6z"/></g><defs><clipPath id="a"><path fill="#fff" d="M0 0h24v24H0z"/></clipPath></defs></svg>
