<svg xmlns="http://www.w3.org/2000/svg" fill="none" viewBox="0 0 24 24"><g clip-path="url(#a)"><path fill="currentColor" d="M24.06 2.061 21.94-.061l-2.94 2.94V0h-3v3.055c-1.79-1.226-3.906-1.761-6.138.47-2.435 2.436-7.508 14.722-8.5 17.16L.02 23.98l3.3-1.341c2.439-.992 14.724-6.064 17.16-8.5 2.23-2.231 1.7-4.348.469-6.139h3.05V5h-2.878zm-5.706 9.957c-.59.502-1.235.935-1.923 1.292l-2.37-2.371-2.122 2.122 1.707 1.706c-2.431 1.2-5.408 2.535-8.1 3.689.46-1.083.954-2.211 1.454-3.332l.936.937 2.122-2.122-1.721-1.723a87 87 0 0 1 1.912-3.846l1.69 1.691 2.122-2.122-2.178-2.178c1.553-1.593 2.246-.474 4.627 1.729 2.872 2.873 2.914 3.458 1.844 4.528"/></g><defs><clipPath id="a"><path fill="#fff" d="M0 0h24v24H0z"/></clipPath></defs></svg>
