<svg xmlns="http://www.w3.org/2000/svg" fill="none" viewBox="0 0 24 24"><g clip-path="url(#a)"><path fill="currentColor" d="M20.485 3.516a11.994 11.994 0 1 0 0 16.97 12.013 12.013 0 0 0 0-16.97m.276 6.477a7.09 7.09 0 0 1-6.752-6.753 8.92 8.92 0 0 1 6.752 6.753M3.239 14.01a7.086 7.086 0 0 1 6.752 6.752 8.92 8.92 0 0 1-6.752-6.752m15.125 4.355a8.95 8.95 0 0 1-5.38 2.573 10.04 10.04 0 0 0-9.921-9.922 8.96 8.96 0 0 1 7.953-7.952 10.06 10.06 0 0 0 9.92 9.93 8.95 8.95 0 0 1-2.572 5.37"/></g><defs><clipPath id="a"><path fill="#fff" d="M0 0h24v24H0z"/></clipPath></defs></svg>
