<svg xmlns="http://www.w3.org/2000/svg" fill="none" viewBox="0 0 24 24"><g fill="currentColor" clip-path="url(#a)"><path d="M13.539 24v-2h10.273l-4.033-6.013h2.527l-4-5.987h2.2s-4.652-6.8-6.322-8.98c-.038-.049-.16-.191-.16-.191a2.78 2.78 0 0 0-1.985-.83c-.746-.001-1.567.299-1.985.83L3.436 10H5.7l-4 6h2.518L.184 22h10.355v2zm-6.24-11 4-6H9.29l2.746-3.82L14.723 7h-2.03l4 5.987h-2.54L18.188 19H5.816l4.034-6z"/><path d="M11.5 18a1.5 1.5 0 1 0 0-3 1.5 1.5 0 0 0 0 3M12.5 13a1.5 1.5 0 1 0 0-2.999 1.5 1.5 0 0 0 0 3"/></g><defs><clipPath id="a"><path fill="#fff" d="M0 0h24v24H0z"/></clipPath></defs></svg>
