<svg xmlns="http://www.w3.org/2000/svg" fill="none" viewBox="0 0 24 24"><g clip-path="url(#a)"><path fill="currentColor" d="M22.732 9.013a3.88 3.88 0 0 0-5.487.257l-2.438 2.679a3.63 3.63 0 0 0-2.45-.949H3.5A3.5 3.5 0 0 0 0 14.5v6A3.5 3.5 0 0 0 3.5 24h11.181l8.334-9.532a3.9 3.9 0 0 0-.283-5.455m-1.965 3.469L13.319 21H3.5a.5.5 0 0 1-.5-.5v-6a.5.5 0 0 1 .5-.5h8.857a.641.641 0 0 1 .092 1.278l-5.161.737.424 2.97 5.162-.737a3.66 3.66 0 0 0 3.093-3.116l3.5-3.843a.883.883 0 0 1 1.248-.059.89.89 0 0 1 .052 1.252M7 2.475A2.37 2.37 0 0 1 9.25 0a2.37 2.37 0 0 1 2.25 2.475A2.37 2.37 0 0 1 13.75 0 2.37 2.37 0 0 1 16 2.475c0 2.592-4.5 5.775-4.5 5.775S7 5.067 7 2.475"/></g><defs><clipPath id="a"><path fill="#fff" d="M0 0h24v24H0z"/></clipPath></defs></svg>
