<svg xmlns="http://www.w3.org/2000/svg" fill="none" viewBox="0 0 24 24"><g fill="currentColor" clip-path="url(#a)"><path d="M12 0a12 12 0 0 0-3.387.485l.846 2.878A9 9 0 0 1 12 3v18c-.86 0-1.716-.121-2.54-.363l-.847 2.878A12 12 0 1 0 12 0M3 12c0-.772.098-1.54.292-2.288L.39 8.954c-.522 2-.522 4.1 0 6.1l2.9-.76A9 9 0 0 1 3 12M7.347 4.3 5.793 1.729a12.1 12.1 0 0 0-4.246 4.37l2.612 1.48a9.05 9.05 0 0 1 3.188-3.28M4.161 16.424 1.549 17.9A12.06 12.06 0 0 0 5.8 22.273l1.553-2.566a9.05 9.05 0 0 1-3.192-3.283"/></g><defs><clipPath id="a"><path fill="#fff" d="M0 0h24v24H0z"/></clipPath></defs></svg>
