<svg xmlns="http://www.w3.org/2000/svg" fill="none" viewBox="0 0 24 24"><g fill="currentColor" clip-path="url(#a)"><path d="m23.41 14.538-1.568-2.35-2.5 1.666 1.571 2.347a.47.47 0 0 1 .03.508.56.56 0 0 1-.51.29h-5.925v-3.498l-4.673 4.262a1 1 0 0 0 0 1.478l4.673 4.26V20h5.925a3.57 3.57 0 0 0 3.154-1.875 3.49 3.49 0 0 0-.177-3.588M11.3 3.264A.56.56 0 0 1 11.778 3a.54.54 0 0 1 .49.25L15.4 7.945l-2.9 1.818 6.092 1.7a1 1 0 0 0 1.252-.785l1.126-6.227-3.028 1.9-3.178-4.764A3.48 3.48 0 0 0 11.736 0a3.56 3.56 0 0 0-2.975 1.664L7.582 3.521l2.533 1.608zM6.263 11.21 9 13.156 8.236 6.88a1 1 0 0 0-1.205-.856L.852 7.366l2.962 2.1-3.27 5.16a3.45 3.45 0 0 0-.1 3.548 3.57 3.57 0 0 0 3.132 1.832L7.006 20 7 17l-3.427.006a.55.55 0 0 1-.5-.284.47.47 0 0 1 .012-.5z"/></g><defs><clipPath id="a"><path fill="#fff" d="M0 0h24v24H0z"/></clipPath></defs></svg>
