<svg xmlns="http://www.w3.org/2000/svg" fill="none" viewBox="0 0 24 24"><g fill="currentColor" clip-path="url(#a)"><path d="M16.94-.06 14.65 2.227l2.121 2.12 2.289-2.287zM7.06-.06 4.94 2.06l2.25 2.25L9.31 2.19zM13.5 0h-3v3.5h3zM1.351 19.321l-.89 2.866 5.778 1.794.891-2.865-1.417-.44L6.281 19c.028 0 .056.005.084.005a5.24 5.24 0 0 0 2.585-.685 5.38 5.38 0 0 0 2.562-3.293L12 13.4l.477 1.584a5.4 5.4 0 0 0 2.573 3.333 5.24 5.24 0 0 0 2.585.683c.028 0 .056-.005.084-.005l.568 1.68-1.417.44.891 2.865 5.78-1.794-.892-2.866-1.5.465-.567-1.685a5.565 5.565 0 0 0 2.212-6.07l-1.363-4.54a3.44 3.44 0 0 0-4.218-2.359L13.5 6.201a3.4 3.4 0 0 0-1.5.914 3.4 3.4 0 0 0-1.5-.915L6.786 5.131a3.434 3.434 0 0 0-4.214 2.35l-1.378 4.586A5.55 5.55 0 0 0 3.418 18.1l-.57 1.687zm12.714-10.02a.44.44 0 0 1 .261-.217l3.714-1.069a.4.4 0 0 1 .1-.015.45.45 0 0 1 .411.344l.8 2.656h-4.939l-.39-1.295a.53.53 0 0 1 .043-.405M5.96 8.014l3.716 1.066a.44.44 0 0 1 .26.216.52.52 0 0 1 .045.4L9.59 11H4.646l.8-2.665a.43.43 0 0 1 .512-.32"/></g><defs><clipPath id="a"><path fill="#fff" d="M0 0h24v24H0z"/></clipPath></defs></svg>
