<svg xmlns="http://www.w3.org/2000/svg" fill="none" viewBox="0 0 24 24"><g clip-path="url(#a)"><path fill="currentColor" d="M12 15a3 3 0 1 1 0-6 3 3 0 0 1 0 6m0 9a5.01 5.01 0 0 1-4.734-3.39A5.322 5.322 0 0 1 2.194 12a5.322 5.322 0 0 1 5.072-8.61 5.017 5.017 0 0 1 9.468 0A5.322 5.322 0 0 1 21.806 12a5.322 5.322 0 0 1-5.072 8.61A5.01 5.01 0 0 1 12 24m-2-8.312V19a2 2 0 0 0 4 0v-3.2l2.581 1.589a2.316 2.316 0 0 0 3.36-2.697 2.32 2.32 0 0 0-1.16-1.373l-2.419-1.32 2.421-1.316a2.315 2.315 0 0 0-.416-4.288 2.31 2.31 0 0 0-1.784.218L14 8.2V5a2 2 0 1 0-4 0v3.312L7.4 6.6a2.314 2.314 0 1 0-2.181 4.08L7.638 12l-2.421 1.317A2.315 2.315 0 1 0 7.4 17.4z"/></g><defs><clipPath id="a"><path fill="#fff" d="M0 0h24v24H0z"/></clipPath></defs></svg>
