<svg xmlns="http://www.w3.org/2000/svg" fill="none" viewBox="0 0 24 24"><g clip-path="url(#a)"><path fill="currentColor" d="M19 21v-2.72l-.562-.45C16.066 15.931 16 13.972 16 10.521h2l.006-3h-2.455c.309-.57.473-1.206.477-1.854 0-1.244-.917-2.808-2.023-4.573a2.332 2.332 0 0 0-3.952 0c-1.111 1.766-2.027 3.33-2.027 4.572.004.642.165 1.273.469 1.838L6 7.5v3h2c0 3.463-.069 5.43-2.438 7.325L5 18.28V21H3.026v3h18v-3zm-6-10.485c0 2.76.055 5.244 1.541 7.485H9.459C10.943 15.761 11 13.273 11 10.511z"/></g><defs><clipPath id="a"><path fill="#fff" d="M0 0h24v24H0z"/></clipPath></defs></svg>
