<svg xmlns="http://www.w3.org/2000/svg" fill="none" viewBox="0 0 24 24"><g fill="currentColor" clip-path="url(#a)"><path d="m23.657 17.164-3.627-3.627v2.939a9.1 9.1 0 0 1-6.173-3c-.2.229-.4.456-.608.7-.439.508-.9 1.034-1.375 1.559a12 12 0 0 0 8.156 3.745v2.869l3.627-3.627a1.1 1.1 0 0 0 0-1.558"/><path d="M20.012 7.515v2.9l3.642-3.642a1.106 1.106 0 0 0 0-1.564l-3.642-3.643V4.51c-4.526.21-7.253 2.674-9.523 5.21C8.066 7.04 5.12 4.487-.021 4.487v3.005c4.089 0 6.29 1.994 8.52 4.509-2.23 2.515-4.431 4.507-8.52 4.507v3.005c6.047 0 9.061-3.533 11.754-6.651 2.367-2.736 4.428-5.114 8.279-5.347"/></g><defs><clipPath id="a"><path fill="#fff" d="M0 0h24v24H0z"/></clipPath></defs></svg>
