<svg xmlns="http://www.w3.org/2000/svg" fill="none" viewBox="0 0 24 24"><g clip-path="url(#a)"><path fill="currentColor" d="M20.5 5h-6.458l-.381-.413L17 2.5 13 0h-2v3.871L9.958 5H3.5A3.5 3.5 0 0 0 0 8.5V24h24V8.5A3.5 3.5 0 0 0 20.5 5m0 3a.5.5 0 0 1 .5.5V10h-2.343l-1.846-2zm-17 0h3.689l-1.846 2H3V8.5a.5.5 0 0 1 .5-.5M14 21v-4a2 2 0 0 0-4 0v4H3v-8h3.657L12 7.212 17.343 13H21v8zm-9-5h3v3H5zm11 0h3v3h-3zm-2.5-4.5a1.5 1.5 0 1 1-3 0 1.5 1.5 0 0 1 3 0"/></g><defs><clipPath id="a"><path fill="#fff" d="M0 0h24v24H0z"/></clipPath></defs></svg>
