<svg xmlns="http://www.w3.org/2000/svg" fill="none" viewBox="0 0 24 24"><g clip-path="url(#a)"><path fill="currentColor" d="m21.814.064-11.558 11.56a12.3 12.3 0 0 1-1.167-1.93l2.963-2.963L5.41.091 1.766 3.733A6.06 6.06 0 0 0 0 8.058C0 11.09 1.577 14.55 4.277 17.6L.064 21.814l2.122 2.122 21.75-21.75zM3 8.058a3.08 3.08 0 0 1 .886-2.2L5.41 4.332l2.4 2.4L5.541 9l.369.92a15.4 15.4 0 0 0 2.216 3.834l-1.72 1.72C4.281 13.02 3 10.3 3 8.058m14.269 3.89 6.641 6.642-3.645 3.645A6.06 6.06 0 0 1 15.942 24a14.2 14.2 0 0 1-7.812-2.926l2.162-2.163a10.9 10.9 0 0 0 5.65 2.09 3.08 3.08 0 0 0 2.2-.886l1.524-1.525-2.4-2.4-2.255 2.256-.908-.346a15 15 0 0 1-2.033-.97z"/></g><defs><clipPath id="a"><path fill="#fff" d="M0 0h24v24H0z"/></clipPath></defs></svg>
