<svg xmlns="http://www.w3.org/2000/svg" fill="none" viewBox="0 0 24 24"><g clip-path="url(#a)"><path fill="currentColor" d="M21.688 2.312a7.89 7.89 0 0 0-11.158 0L2.312 10.53a7.889 7.889 0 0 0 5.57 13.497 7.9 7.9 0 0 0 5.588-2.34l8.218-8.217a7.887 7.887 0 0 0 0-11.158m-2.121 9.037-8.218 8.218a4.89 4.89 0 0 1-6.916-6.916l8.218-8.218a4.89 4.89 0 1 1 6.916 6.916m-1.628-4.41 2.122 2.122-4 4-2.122-2.122.94-.94L14 9.122l-.939.94-2.122-2.122 4-4 2.122 2.122-.94.939.879.879zm-7 7 2.122 2.122-4.045 4.044L6.9 17.984 7.879 17 7 16.12l-.984.985L3.9 14.984l4.044-4.045 2.122 2.122-.945.939.879.879z"/></g><defs><clipPath id="a"><path fill="#fff" d="M0 0h24v24H0z"/></clipPath></defs></svg>
