<svg xmlns="http://www.w3.org/2000/svg" fill="none" viewBox="0 0 24 24"><g clip-path="url(#a)"><path fill="currentColor" d="M10 8a2 2 0 1 1 4 0 2 2 0 0 1-4 0M7.97 24.06 0 21.608V12a3.5 3.5 0 0 1 4.032-3.456 7.992 7.992 0 1 1 15.807 1.03l1.686.564A3.49 3.49 0 0 1 24 13.483v10.631l-8.483-2.066zm.494-12.524L12 14.993l3.547-3.469a5 5 0 1 0-7.083.012M3 19.392l5.03 1.547 7.453-1.987L21 20.3v-6.817a.5.5 0 0 0-.362-.48l-1.931-.645a8 8 0 0 1-1.05 1.3L12 19.19l-5.645-5.52a8 8 0 0 1-1.236-1.61l-1.359-.492a.54.54 0 0 0-.537.02A.49.49 0 0 0 3 12z"/></g><defs><clipPath id="a"><path fill="#fff" d="M0 0h24v24H0z"/></clipPath></defs></svg>
