<svg xmlns="http://www.w3.org/2000/svg" fill="none" viewBox="0 0 24 24"><g clip-path="url(#a)"><path fill="currentColor" d="M0 21h20v3H0zM24 8.5c0 3.006-2.4 6.5-5.5 6.5h-1.294l-.813 4H3.107L.075 4.1A3.39 3.39 0 0 1 3.39 0h12.72a3.38 3.38 0 0 1 3.315 4.059C22.3 4.342 24 5.949 24 8.499m-7.516-5c.041-.318-.074-.463-.374-.5H3.39a.39.39 0 0 0-.38.474L5.559 16h8.382zM21 8.5c0-.428 0-1.4-2.168-1.491l-1.015 4.99h.683c1.145 0 2.5-1.9 2.5-3.5"/></g><defs><clipPath id="a"><path fill="#fff" d="M0 0h24v24H0z"/></clipPath></defs></svg>
