<svg xmlns="http://www.w3.org/2000/svg" fill="none" viewBox="0 0 24 24"><g clip-path="url(#a)"><path fill="currentColor" d="m22.121 11 1.94 1.939-2.122 2.122L20 13.121l-1.939 1.94-2.122-2.122L17.879 11l-1.94-1.939 2.122-2.122L20 8.879l1.939-1.94 2.122 2.122zM2 6a6 6 0 1 1 12 0A6 6 0 0 1 2 6m3 0a3 3 0 1 0 6 0 3 3 0 0 0-6 0m6 8H5a5.006 5.006 0 0 0-5 5v5h3v-5a2 2 0 0 1 2-2h6a2 2 0 0 1 2 2v5h3v-5a5.006 5.006 0 0 0-5-5"/></g><defs><clipPath id="a"><path fill="#fff" d="M0 0h24v24H0z"/></clipPath></defs></svg>
