<svg xmlns="http://www.w3.org/2000/svg" data-name="Layer 1" viewBox="0 0 24 24"><path fill="currentColor" d="M18 8.5a2.5 2.5 0 0 1-5 0 2.5 2.5 0 0 1 5 0m-.006 6.866a11.1 11.1 0 0 1-1.163 4.569A7.63 7.63 0 0 1 10 24H9v-5.5A3.517 3.517 0 0 0 5.5 15H0v-1a7.63 7.63 0 0 1 4.065-6.831 11.1 11.1 0 0 1 4.569-1.163A15.49 15.49 0 0 1 20.972 0 3.01 3.01 0 0 1 24 3a15.5 15.5 0 0 1-6.006 12.366M2.084 13h2.262a34.4 34.4 0 0 1 2.609-4.763 9 9 0 0 0-1.993.72A5.52 5.52 0 0 0 2.084 13m13.679 4.045A34.4 34.4 0 0 1 11 19.654v2.262a5.52 5.52 0 0 0 4.043-2.878 9 9 0 0 0 .72-1.993M22 2.972A1 1 0 0 0 21 2c-5.16.147-8.65 2.124-12.018 6.822a30 30 0 0 0-2.471 4.271 5.5 5.5 0 0 1 4.4 4.4 30 30 0 0 0 4.271-2.471C19.876 11.65 21.853 8.16 22 2.972M6.122 17.879a3.015 3.015 0 0 1 0 4.242c-.907.906-3.622 1.465-4.748 1.664l-1.406.247.247-1.406c.2-1.126.758-3.841 1.664-4.748a3.073 3.073 0 0 1 4.243.001M5 20a1 1 0 0 0-.293-.707 1 1 0 0 0-1.414 0A7.3 7.3 0 0 0 2.5 21.5a7.3 7.3 0 0 0 2.208-.794A1 1 0 0 0 5 20"/></svg>