<svg xmlns="http://www.w3.org/2000/svg" fill="none" viewBox="0 0 108 45"><g fill="currentColor"><path d="M29.124 20.125H16.831q.38-2.556 2.03-3.996t4.09-1.439q2.57 0 4.346 1.488t1.827 3.947"/><path d="M40.849 18.533h4.843c-.953-5.197-3.746-9.9-7.89-13.288S28.428 0 23.025 0C20 0 17.007.582 14.214 1.713a23.1 23.1 0 0 0-7.47 4.877 22.5 22.5 0 0 0-4.991 7.3A22.1 22.1 0 0 0 0 22.5c0 2.955.596 5.88 1.753 8.61a22.5 22.5 0 0 0 4.99 7.3 23.1 23.1 0 0 0 7.47 4.877A23.5 23.5 0 0 0 23.026 45c5.403 0 10.633-1.857 14.777-5.245s6.937-8.091 7.89-13.288H40.85v-7.934Zm-5.134 5.885H16.786q.233 2.74 1.962 4.294 1.731 1.553 4.254 1.552 3.644 0 5.187-3.06h7.057a11.52 11.52 0 0 1-4.292 6.005q-3.18 2.356-7.806 2.356-3.74 0-6.707-1.622a11.54 11.54 0 0 1-4.627-4.586q-1.665-2.975-1.665-6.857 0-3.927 1.636-6.896a11.3 11.3 0 0 1 4.58-4.567q2.942-1.6 6.777-1.6 3.69 0 6.613 1.554a11.06 11.06 0 0 1 4.534 4.407q1.612 2.85 1.612 6.554a15 15 0 0 1-.186 2.466m29.752-7.32a6.12 6.12 0 0 1 2.503 2.59q.9 1.71.9 4.108v10.39h-4.582v-9.783q0-2.108-1.08-3.246-1.078-1.137-2.944-1.134-1.902 0-2.994 1.134-1.09 1.135-1.096 3.246v9.783h-4.58v-23.66h4.58v8.153a5.96 5.96 0 0 1 2.356-1.806 8 8 0 0 1 3.272-.656q2.061 0 3.665.88Zm22.019-.624v17.712h-4.613V31.95a6 6 0 0 1-2.308 1.806 7.3 7.3 0 0 1-3.091.656q-2.127 0-3.763-.88a6.27 6.27 0 0 1-2.569-2.59q-.932-1.709-.932-4.076V16.474h4.58v9.751q0 2.108 1.08 3.246t2.946 1.135q1.903 0 2.977-1.135 1.075-1.136 1.08-3.246v-9.751zm8.687.511q1.552-.799 3.552-.799a8.1 8.1 0 0 1 4.204 1.116 7.93 7.93 0 0 1 2.977 3.182q1.096 2.062 1.096 4.78 0 2.716-1.096 4.812-1.096 2.093-2.977 3.245a7.9 7.9 0 0 1-4.204 1.15q-2.03 0-3.552-.783a6.9 6.9 0 0 1-2.438-2.02v2.525h-4.58V10.526h4.58v8.538a6.5 6.5 0 0 1 2.438-2.08Zm6.479 5.515a4.6 4.6 0 0 0-1.768-1.774 4.8 4.8 0 0 0-2.372-.607 4.66 4.66 0 0 0-4.106 2.426q-.671 1.182-.671 2.781t.67 2.782a4.66 4.66 0 0 0 4.106 2.426 4.63 4.63 0 0 0 2.373-.64 4.8 4.8 0 0 0 1.768-1.822q.669-1.182.669-2.814 0-1.59-.669-2.758"/></g></svg>