<svg xmlns="http://www.w3.org/2000/svg" fill="none" viewBox="0 0 39 39"><path fill="currentColor" d="m22.517 20.637-6.315-4.942a5.515 5.515 0 0 0-6.81 0l-6.316 4.943A5.5 5.5 0 0 0 .957 24.99v13.214h23.68V24.989a5.5 5.5 0 0 0-2.12-4.352M19.9 33.467H5.693v-8.478c0-.243.11-.472.303-.622l6.315-4.941a.78.78 0 0 1 .97 0l6.314 4.94a.79.79 0 0 1 .304.623v8.478zm-9.472-7.894h4.736v4.736h-4.736zm12.63-12.63h-4.737V8.209h4.736v4.736Zm7.893 0h-4.736V8.209h4.736v4.736Zm-4.736 3.158h4.736v4.736h-4.736zM38.845 5.84v32.363h-11.05v-4.736h6.314V5.84a.79.79 0 0 0-.79-.79H15.955a.79.79 0 0 0-.789.79v5.877a8.64 8.64 0 0 0-4.736 0V5.84A5.53 5.53 0 0 1 15.954.315H33.32a5.53 5.53 0 0 1 5.525 5.525"/></svg>