<svg xmlns="http://www.w3.org/2000/svg" fill="none" viewBox="0 0 39 39"><path fill="currentColor" d="M23.965 16.354c0 3.568-6.315 7.956-6.315 7.956s-6.315-4.388-6.315-7.956c0-1.879 1.421-3.41 3.158-3.41s3.157 1.279 3.157 3.157c0-1.878 1.42-3.157 3.157-3.157s3.158 1.531 3.158 3.41m3.157 17.113h1.405c2.747 0 5.099-2.053 5.478-4.768l.537-3.915h3.63v-4.452s-.9-2.052-1.247-2.857c-1.768-4.073-3.441-7.925-5.257-10.167C27.753 2.083 21.265-.506 14.777.551 8.099 1.657 2.653 6.582.9 13.101c-1.484 5.51-.173 11.24 3.568 15.724.363.427.553.963.553 1.5v7.862h22.1V33.45zM9.757 30.34a7.07 7.07 0 0 0-1.658-4.547c-2.747-3.283-3.71-7.467-2.636-11.46 1.247-4.658 5.304-8.32 10.087-9.11a12.78 12.78 0 0 1 12.377 5.005c1.452 1.8 3.078 5.525 4.641 9.14.095.221.19.458.3.679h-2.463L29.3 28.052a.786.786 0 0 1-.789.679h-6.14v4.736H9.756z"/></svg>