<svg xmlns="http://www.w3.org/2000/svg" fill="none" viewBox="0 0 39 39"><g fill="currentcolor"><path d="m17.91 18.774-2.778-2.884-3.41 3.282 3.473 3.61a3.73 3.73 0 0 0 2.643 1.168h.058a3.74 3.74 0 0 0 2.624-1.086l7.927-7.93-3.35-3.346z"/><path d="m19.114 38.203-.839-.375c-.606-.274-14.825-6.73-14.825-18.57V9.038a4.74 4.74 0 0 1 3.24-4.493L19.237.362l12.549 4.183a4.73 4.73 0 0 1 3.237 4.492v10.222c0 13.48-14.424 18.442-15.038 18.647zm.123-32.85L8.187 9.038V19.26c0 7.372 8.436 12.387 11.171 13.818 2.75-1.148 10.93-5.281 10.93-13.818V9.037L19.236 5.354Z"/></g></svg>