<svg xmlns="http://www.w3.org/2000/svg" width="108" height="45" fill="none">
    <g fill="currentColor" >
        <path
            d="M29.124 20.125H16.831c.254-1.704.93-3.036 2.03-3.996 1.1-.96 2.463-1.439 4.09-1.439 1.713 0 3.162.496 4.346 1.488 1.185.991 1.794 2.307 1.827 3.947Z" />
        <path
            d="M40.849 18.533h4.843c-.953-5.197-3.746-9.9-7.89-13.288S28.428 0 23.025 0C20 0 17.007.582 14.214 1.713a23.068 23.068 0 0 0-7.47 4.877 22.473 22.473 0 0 0-4.991 7.3A22.055 22.055 0 0 0 0 22.5c0 2.955.596 5.88 1.753 8.61a22.473 22.473 0 0 0 4.99 7.3 23.07 23.07 0 0 0 7.47 4.877A23.493 23.493 0 0 0 23.026 45c5.403 0 10.633-1.857 14.777-5.245s6.937-8.091 7.89-13.288h-4.843v-7.934Zm-5.134 5.885H16.786c.155 1.827.809 3.258 1.962 4.294 1.154 1.035 2.572 1.553 4.254 1.552 2.429 0 4.158-1.02 5.187-3.06h7.057a11.52 11.52 0 0 1-4.292 6.005c-2.12 1.57-4.723 2.356-7.806 2.356-2.493 0-4.729-.54-6.707-1.622a11.537 11.537 0 0 1-4.627-4.586c-1.11-1.983-1.665-4.269-1.665-6.857 0-2.618.545-4.917 1.636-6.896a11.283 11.283 0 0 1 4.58-4.567c1.962-1.066 4.22-1.6 6.777-1.6 2.46 0 4.665.518 6.613 1.554a11.06 11.06 0 0 1 4.534 4.407c1.075 1.9 1.612 4.085 1.612 6.554a14.92 14.92 0 0 1-.186 2.466ZM65.467 17.098a6.124 6.124 0 0 1 2.503 2.59c.6 1.14.9 2.51.9 4.108v10.39h-4.582v-9.783c0-1.405-.36-2.487-1.08-3.246-.719-.758-1.7-1.136-2.944-1.134-1.268 0-2.266.378-2.994 1.134-.727.757-1.092 1.838-1.096 3.246v9.783h-4.58v-23.66h4.58v8.153a5.956 5.956 0 0 1 2.356-1.806 7.966 7.966 0 0 1 3.272-.656c1.374 0 2.596.294 3.665.88ZM87.486 16.474v17.712h-4.613V31.95a6.03 6.03 0 0 1-2.308 1.806 7.309 7.309 0 0 1-3.091.656c-1.418 0-2.673-.294-3.763-.88a6.266 6.266 0 0 1-2.569-2.59c-.621-1.139-.932-2.498-.932-4.076V16.474h4.58v9.751c0 1.405.36 2.487 1.08 3.246.72.758 1.702 1.137 2.946 1.135 1.269 0 2.261-.378 2.977-1.135.717-.757 1.077-1.84 1.08-3.246v-9.751h4.613ZM96.173 16.985c1.035-.532 2.219-.799 3.552-.799a8.076 8.076 0 0 1 4.204 1.116 7.933 7.933 0 0 1 2.977 3.182c.731 1.375 1.096 2.968 1.096 4.78 0 1.81-.365 3.415-1.096 4.812-.73 1.395-1.723 2.477-2.977 3.245a7.897 7.897 0 0 1-4.204 1.15c-1.353 0-2.537-.26-3.552-.783a6.864 6.864 0 0 1-2.438-2.02v2.525h-4.58V10.526h4.58v8.538a6.516 6.516 0 0 1 2.438-2.08Zm6.479 5.515a4.6 4.6 0 0 0-1.768-1.774 4.827 4.827 0 0 0-2.372-.607 4.658 4.658 0 0 0-4.106 2.426c-.448.788-.671 1.715-.671 2.781 0 1.067.223 1.994.67 2.782a4.658 4.658 0 0 0 4.106 2.426 4.628 4.628 0 0 0 2.373-.64 4.806 4.806 0 0 0 1.768-1.822c.446-.788.669-1.726.669-2.814 0-1.06-.223-1.98-.669-2.758Z" />
    </g>

</svg>
