<svg xmlns="http://www.w3.org/2000/svg" fill="none" viewBox="0 0 40 40">
    <path fill="#397ED3"
        d="M10.362 3.81A4.762 4.762 0 0 0 5.6 8.57V40h15.238c7.364 0 13.334-5.97 13.334-13.333V20h-5.715V0h-1.905a4.762 4.762 0 0 0-4.761 4.762v12.38h-9.524V3.81h-1.905Z" />
    <path fill="#212529" fill-rule="evenodd"
        d="M19.41 17.143v3.809a7.132 7.132 0 0 0 2.856 5.715 7.132 7.132 0 0 0-2.857 5.714h2.857a4.286 4.286 0 0 1 4.286-4.286h1.905v-2.857h-1.905a4.286 4.286 0 0 1-4.285-4.285V20h6.19v-2.857H19.41Z"
        clip-rule="evenodd" />
</svg>
