<svg xmlns="http://www.w3.org/2000/svg" xml:space="preserve" viewBox="0 0 45.693 45">
  <path d="M-134.165-7.06h-3.252c.067-.451.246-.804.537-1.058.291-.254.652-.38 1.082-.38.453 0 .837.131 1.15.393.314.263.475.61.483 1.045z" style="fill:#397ed3;fill-opacity:1;stroke-width:.264583" transform="matrix(3.77953 0 0 3.77953 536.203 46.81)"/>
  <path d="M-131.062-7.481h1.281a5.925 5.925 0 0 0-2.087-3.516 6.212 6.212 0 0 0-6.241-.935 6.103 6.103 0 0 0-1.977 1.29 5.946 5.946 0 0 0-1.32 1.932 5.835 5.835 0 0 0-.464 2.278c0 .782.157 1.556.464 2.278a5.946 5.946 0 0 0 1.32 1.932 6.104 6.104 0 0 0 1.976 1.29 6.216 6.216 0 0 0 2.332.453 6.18 6.18 0 0 0 3.91-1.387 5.925 5.925 0 0 0 2.087-3.516h-1.281v-2.1zm-1.359 1.557h-5.008c.041.483.214.862.52 1.136.304.274.68.41 1.125.41.642 0 1.1-.27 1.372-.81h1.867a3.048 3.048 0 0 1-1.135 1.59c-.561.415-1.25.623-2.066.623-.66 0-1.25-.143-1.774-.43a3.052 3.052 0 0 1-1.224-1.213c-.294-.524-.441-1.13-.441-1.814 0-.693.144-1.3.433-1.824a2.985 2.985 0 0 1 1.212-1.209c.519-.282 1.116-.423 1.793-.423.65 0 1.234.137 1.75.411a2.926 2.926 0 0 1 1.199 1.166c.284.503.427 1.08.427 1.734a3.948 3.948 0 0 1-.05.653z" style="font-variation-settings:normal;vector-effect:none;fill:#397ed3;fill-opacity:1;stroke-width:.264583;stroke-linecap:butt;stroke-linejoin:miter;stroke-miterlimit:4;stroke-dasharray:none;stroke-dashoffset:0;stroke-opacity:1;-inkscape-stroke:none;stop-color:#000" transform="matrix(3.77953 0 0 3.77953 536.203 46.81)"/>
</svg>
