<svg width="40" height="40" viewBox="0 0 40 40" fill="none" xmlns="http://www.w3.org/2000/svg">
<path d="M4.54523 16.3638H35.4544L33.6362 40.0001H6.36341L4.54523 16.3638Z" fill="#212529"/>
<path fill-rule="evenodd" clip-rule="evenodd" d="M26.8182 20H32.7273C36.7438 20 40 16.7438 40 12.7273C40 8.71065 36.7438 5.45455 32.7273 5.45455C32.4002 5.45455 32.0782 5.47615 31.7625 5.51798C31.3489 2.40322 28.6824 0 25.4545 0C23.1396 0 21.1135 1.23598 20 3.08402C18.8865 1.23598 16.8604 0 14.5455 0C11.3176 0 8.65109 2.4032 8.23751 5.51798C7.92185 5.47615 7.59982 5.45455 7.27273 5.45455C3.25611 5.45455 0 8.71065 0 12.7273C0 16.7438 3.25611 20 7.27273 20H13.1818V40H15.9091V20H24.0909V40H26.8182V20Z" fill="#397ED3"/>
</svg>
