<svg width="40" height="40" viewBox="0 0 40 40" fill="none" xmlns="http://www.w3.org/2000/svg">
    <path fill-rule="evenodd" clip-rule="evenodd"
        d="M10.9023 7.44186C10.9023 5.38685 12.5682 3.72093 14.6233 3.72093C16.6783 3.72093 18.3442 5.38685 18.3442 7.44186V12.093H22.0651V7.44186C22.0651 5.38685 23.731 3.72093 25.786 3.72093C27.8411 3.72093 29.507 5.38685 29.507 7.44186C29.507 9.49688 27.8411 11.1628 25.786 11.1628V14.8837C29.896 14.8837 33.2279 11.5519 33.2279 7.44186C33.2279 3.33183 29.896 0 25.786 0C23.5634 0 21.5682 0.974437 20.2047 2.51941C18.8411 0.974437 16.846 0 14.6233 0C10.5132 0 7.1814 3.33183 7.1814 7.44186C7.1814 11.5519 10.5132 14.8837 14.6233 14.8837V11.1628C12.5682 11.1628 10.9023 9.49688 10.9023 7.44186Z"
        fill="#212529" />
    <path fill-rule="evenodd" clip-rule="evenodd"
        d="M1.6001 10.2329H38.8094V21.3957H36.9489V40.0004H3.46056V21.3957H1.6001V10.2329Z"
        fill="#397ED3" />
    <path fill-rule="evenodd" clip-rule="evenodd"
        d="M22.0651 25.1164H36.9488V21.3955H22.0651H18.3442H3.46045V25.1164H18.3442V40.0002H22.0651V25.1164Z"
        fill="#212529" />
</svg>
